<svg width="220" height="180" viewBox="0 0 220 180" fill="none" xmlns="http://www.w3.org/2000/svg">
<path d="M55.1364 46.2881H3.83718C1.82438 46.2881 0.192383 44.6561 0.192383 42.6433V3.52966H58.7268V42.6433C58.7268 44.6561 57.0948 46.2881 55.1364 46.2881Z" fill="white"/>
<path d="M58.7268 6.63041H0.192383V3.91041C0.192383 2.65921 1.22598 1.62561 2.47718 1.62561H56.4964C57.7476 1.62561 58.7812 2.65921 58.7812 3.91041V6.63041H58.7268Z" fill="#0C758C"/>
<path d="M52.6886 10.2208H6.33984V24.5824H52.6886V10.2208Z" fill="url(#paint0_linear_206_34837)"/>
<path d="M20.2118 27.1936H6.33984V38.7808H20.2118V27.1936Z" fill="url(#paint1_linear_206_34837)"/>
<path d="M36.4775 27.1936H22.6055V38.7808H36.4775V27.1936Z" fill="url(#paint2_linear_206_34837)"/>
<path d="M20.2118 39.7056H6.33984V40.6304H20.2118V39.7056Z" fill="url(#paint3_linear_206_34837)"/>
<path d="M20.2118 41.392H6.33984V42.3168H20.2118V41.392Z" fill="url(#paint4_linear_206_34837)"/>
<path d="M36.4775 39.7056H22.6055V40.6304H36.4775V39.7056Z" fill="url(#paint5_linear_206_34837)"/>
<path d="M36.4775 41.392H22.6055V42.3168H36.4775V41.392Z" fill="url(#paint6_linear_206_34837)"/>
<path d="M52.6337 27.1936H38.7617V38.7808H52.6337V27.1936Z" fill="#CE415E"/>
<path d="M52.6337 39.7056H38.7617V40.6304H52.6337V39.7056Z" fill="url(#paint7_linear_206_34837)"/>
<path d="M52.6337 41.392H38.7617V42.3168H52.6337V41.392Z" fill="url(#paint8_linear_206_34837)"/>
<path d="M39.8496 35.5169H47.792L43.8208 30.0225L39.8496 35.5169Z" fill="white"/>
<path d="M45.29 35.5168H51.3284L48.3364 31.328L45.29 35.5168Z" fill="white"/>
<path d="M47.1392 43.4592C47.1392 43.7856 46.8672 44.0576 46.5408 44.0576C46.2144 44.0576 45.9424 43.7856 45.9424 43.4592C45.9424 43.1328 46.2144 42.8608 46.5408 42.8608C46.8672 42.8608 47.1392 43.1328 47.1392 43.4592Z" fill="white"/>
<path d="M47.3571 5.16165C47.8979 5.16165 48.3363 4.72324 48.3363 4.18245C48.3363 3.64165 47.8979 3.20325 47.3571 3.20325C46.8163 3.20325 46.3779 3.64165 46.3779 4.18245C46.3779 4.72324 46.8163 5.16165 47.3571 5.16165Z" fill="#CE415E"/>
<path d="M51.9809 4.1824C51.9809 4.7264 51.5457 5.1616 51.0017 5.1616C50.4577 5.1616 50.0225 4.7264 50.0225 4.1824C50.0225 3.6384 50.4577 3.2032 51.0017 3.2032C51.5457 3.1488 51.9809 3.584 51.9809 4.1824Z" fill="#FF4A51"/>
<path d="M54.5925 5.16165C55.1333 5.16165 55.5717 4.72324 55.5717 4.18245C55.5717 3.64165 55.1333 3.20325 54.5925 3.20325C54.0517 3.20325 53.6133 3.64165 53.6133 4.18245C53.6133 4.72324 54.0517 5.16165 54.5925 5.16165Z" fill="#7AE6B5"/>
<path d="M132.819 46.2879H81.5745C79.5617 46.2879 77.9297 44.6559 77.9297 42.6431V3.52954H136.464V42.6431C136.464 44.6559 134.832 46.2879 132.819 46.2879Z" fill="white"/>
<path d="M112.909 13.9199H84.0225V31.5455H112.909V13.9199Z" fill="url(#paint9_linear_206_34837)"/>
<path d="M130.371 13.9199H116.173V24.2559H130.371V13.9199Z" fill="url(#paint10_linear_206_34837)"/>
<path d="M127.379 9.7312H116.173V11.4176H127.379V9.7312Z" fill="#CE415E"/>
<path d="M104.531 9.94873H84.0225V11.6351H104.531V9.94873Z" fill="url(#paint11_linear_206_34837)"/>
<path d="M130.371 25.3984H116.173V26.9216H130.371V25.3984Z" fill="url(#paint12_linear_206_34837)"/>
<path d="M130.371 29.152H116.173V39.488H130.371V29.152Z" fill="url(#paint13_linear_206_34837)"/>
<path d="M130.371 40.6304H116.173V42.1536H130.371V40.6304Z" fill="url(#paint14_linear_206_34837)"/>
<path d="M112.909 33.6128H84.0225V34.9728H112.909V33.6128Z" fill="url(#paint15_linear_206_34837)"/>
<path d="M93.5969 35.952H84.0225V37.312H93.5969V35.952Z" fill="url(#paint16_linear_206_34837)"/>
<path d="M101.05 35.952H95.1201V37.312H101.05V35.952Z" fill="#CE415E"/>
<path d="M112.963 35.952H101.865V37.312H112.963V35.952Z" fill="url(#paint17_linear_206_34837)"/>
<path d="M112.909 38.4H84.0225V39.76H112.909V38.4Z" fill="url(#paint18_linear_206_34837)"/>
<path d="M112.909 40.848H84.0225V42.208H112.909V40.848Z" fill="url(#paint19_linear_206_34837)"/>
<path d="M136.464 5.97758H77.9297V3.25758C77.9297 2.00638 78.9633 0.972778 80.2145 0.972778H134.234C135.485 0.972778 136.518 2.00638 136.518 3.25758V5.97758H136.464Z" fill="#0C758C"/>
<path d="M126.074 3.52957C126.074 4.07357 125.638 4.50876 125.094 4.50876C124.55 4.50876 124.115 4.07357 124.115 3.52957C124.115 2.98557 124.55 2.55037 125.094 2.55037C125.638 2.49597 126.074 2.93117 126.074 3.52957Z" fill="#CE415E"/>
<path d="M128.685 4.50881C129.226 4.50881 129.664 4.07041 129.664 3.52962C129.664 2.98882 129.226 2.55042 128.685 2.55042C128.144 2.55042 127.706 2.98882 127.706 3.52962C127.706 4.07041 128.144 4.50881 128.685 4.50881Z" fill="#FF4A51"/>
<path d="M132.275 4.50881C132.816 4.50881 133.254 4.07041 133.254 3.52962C133.254 2.98882 132.816 2.55042 132.275 2.55042C131.734 2.55042 131.296 2.98882 131.296 3.52962C131.296 4.07041 131.734 4.50881 132.275 4.50881Z" fill="#7AE6B5"/>
<path d="M211.699 46.2879H160.454C158.442 46.2879 156.81 44.6559 156.81 42.6431V3.52954H215.344V42.6431C215.344 44.6559 213.712 46.2879 211.699 46.2879Z" fill="white"/>
<path d="M209.251 10.6016H162.902V17.8368H209.251V10.6016Z" fill="url(#paint20_linear_206_34837)"/>
<path d="M185.206 20.7744H162.902V39.3248H185.206V20.7744Z" fill="#CE415E"/>
<path d="M209.251 20.7744H186.947V39.3248H209.251V20.7744Z" fill="url(#paint21_linear_206_34837)"/>
<path d="M177.759 33.4498C179.626 31.4116 179.487 28.2457 177.449 26.3786C175.411 24.5114 172.245 24.6501 170.378 26.6884C168.511 28.7266 168.649 31.8925 170.688 33.7596C172.726 35.6268 175.892 35.4881 177.759 33.4498Z" fill="white"/>
<path d="M173.075 27.792V32.3072L176.339 30.0768L173.075 27.792Z" fill="#CE415E"/>
<path d="M185.206 40.7936H162.902V42.2624H185.206V40.7936Z" fill="url(#paint22_linear_206_34837)"/>
<path d="M209.251 40.7936H186.947V42.2624H209.251V40.7936Z" fill="url(#paint23_linear_206_34837)"/>
<path d="M215.344 5.97758H156.81V3.25758C156.81 2.00638 157.843 0.972778 159.094 0.972778H213.114C214.365 0.972778 215.398 2.00638 215.398 3.25758V5.97758H215.344Z" fill="#0C758C"/>
<path d="M204.954 3.52957C204.954 4.07357 204.518 4.50876 203.974 4.50876C203.43 4.50876 202.995 4.07357 202.995 3.52957C202.995 2.98557 203.43 2.55037 203.974 2.55037C204.518 2.49597 204.954 2.93117 204.954 3.52957Z" fill="#CE415E"/>
<path d="M207.565 4.50881C208.106 4.50881 208.544 4.07041 208.544 3.52962C208.544 2.98882 208.106 2.55042 207.565 2.55042C207.024 2.55042 206.586 2.98882 206.586 3.52962C206.586 4.07041 207.024 4.50881 207.565 4.50881Z" fill="#FF4A51"/>
<path d="M211.155 4.50881C211.696 4.50881 212.134 4.07041 212.134 3.52962C212.134 2.98882 211.696 2.55042 211.155 2.55042C210.614 2.55042 210.176 2.98882 210.176 3.52962C210.176 4.07041 210.614 4.50881 211.155 4.50881Z" fill="#7AE6B5"/>
<path opacity="0.47" d="M158.833 181.833C186.784 153.881 186.784 108.562 158.833 80.6108C130.881 52.6592 85.5624 52.6592 57.6109 80.6108C29.6593 108.562 29.6592 153.881 57.6108 181.833C85.5624 209.784 130.881 209.784 158.833 181.833Z" fill="url(#paint24_radial_206_34837)"/>
<path opacity="0.47" d="M158.833 181.833C186.784 153.881 186.784 108.562 158.833 80.6108C130.881 52.6592 85.5624 52.6592 57.6109 80.6108C29.6593 108.562 29.6592 153.881 57.6108 181.833C85.5624 209.784 130.881 209.784 158.833 181.833Z" fill="url(#paint25_radial_206_34837)"/>
<path d="M155.667 173.094H56.6592V111.35C56.6592 109.882 57.856 108.685 59.3248 108.685H153.002C154.47 108.685 155.667 109.882 155.667 111.35V173.094Z" fill="#075F73"/>
<path d="M166.438 179.786H46.2143C44.6367 179.786 43.3311 178.48 43.3311 176.902V175.434C43.3311 173.856 44.6367 172.55 46.2143 172.55H166.493C168.07 172.55 169.376 173.856 169.376 175.434V176.902C169.321 178.534 168.016 179.786 166.438 179.786Z" fill="#0C758C"/>
<path d="M115.465 172.605H96.8604V175.434H115.465V172.605Z" fill="#075F73"/>
<path d="M147.453 169.558H64.8735C63.1871 169.558 61.8271 168.198 61.8271 166.512V117.715H150.499V166.512C150.499 168.198 149.139 169.558 147.453 169.558Z" fill="white"/>
<path d="M109.318 113.363H105.401C104.585 113.363 103.933 112.71 103.933 111.894C103.933 111.078 104.585 110.426 105.401 110.426H109.318C110.134 110.426 110.787 111.078 110.787 111.894C110.787 112.71 110.134 113.363 109.318 113.363Z" fill="#CCCCCC"/>
<path d="M107.686 113.363H105.347C104.531 113.363 103.878 112.71 103.878 111.894C103.878 111.078 104.531 110.426 105.347 110.426H107.686C108.502 110.426 109.155 111.078 109.155 111.894C109.155 112.71 108.502 113.363 107.686 113.363Z" fill="#A6A6A6"/>
<path d="M106.326 111.84C106.326 112.33 105.891 112.765 105.401 112.765C104.912 112.765 104.477 112.33 104.477 111.84C104.477 111.35 104.912 110.915 105.401 110.915C105.891 110.915 106.326 111.35 106.326 111.84Z" fill="white"/>
<path d="M150.499 120.653H61.8271V117.171C61.8271 116.083 62.6975 115.267 63.7311 115.267H148.595C149.683 115.267 150.499 116.138 150.499 117.171V120.653Z" fill="#0C758C"/>
<path d="M141.251 124.461H71.0752V145.35H141.251V124.461Z" fill="#CE415E"/>
<path d="M92.5632 148.832H71.0752V164.499H92.5632V148.832Z" fill="url(#paint26_linear_206_34837)"/>
<path d="M116.934 148.832H95.4463V164.499H116.934V148.832Z" fill="url(#paint27_linear_206_34837)"/>
<path d="M141.251 148.832H119.763V164.499H141.251V148.832Z" fill="url(#paint28_linear_206_34837)"/>
<path d="M140.326 118.912C140.867 118.912 141.305 118.474 141.305 117.933C141.305 117.392 140.867 116.954 140.326 116.954C139.785 116.954 139.347 117.392 139.347 117.933C139.347 118.474 139.785 118.912 140.326 118.912Z" fill="#CE415E"/>
<path d="M143.917 118.912C144.457 118.912 144.896 118.474 144.896 117.933C144.896 117.392 144.457 116.954 143.917 116.954C143.376 116.954 142.938 117.392 142.938 117.933C142.938 118.474 143.376 118.912 143.917 118.912Z" fill="#FF4A51"/>
<path d="M147.507 118.912C148.047 118.912 148.486 118.474 148.486 117.933C148.486 117.392 148.047 116.954 147.507 116.954C146.966 116.954 146.527 117.392 146.527 117.933C146.527 118.474 146.966 118.912 147.507 118.912Z" fill="#7AE6B5"/>
<path d="M28.208 57.1135V67.7215C28.208 71.8015 31.5264 75.1743 35.6608 75.1743H107.197V84.3679" stroke="#0C758C" stroke-width="4" stroke-miterlimit="10" stroke-linecap="round" stroke-linejoin="round"/>
<path d="M107.089 75.6639L107.034 55.8623" stroke="#0C758C" stroke-width="4" stroke-miterlimit="10" stroke-linecap="round" stroke-linejoin="round"/>
<path d="M107.089 97.968L107.034 78.1664" stroke="#CE415E" stroke-width="4" stroke-miterlimit="10" stroke-linecap="round" stroke-linejoin="round"/>
<path d="M186.078 57.1135V67.7215C186.078 71.8015 182.759 75.1743 178.625 75.1743H107.089" stroke="#0C758C" stroke-width="4" stroke-miterlimit="10" stroke-linecap="round" stroke-linejoin="round"/>
<path d="M107.197 55.8623V80.9951" stroke="#0C758C" stroke-width="2" stroke-miterlimit="10" stroke-linecap="round" stroke-linejoin="round"/>
<path d="M32.0164 55.8623C32.0164 57.9295 30.33 59.6703 28.2084 59.6703C26.0868 59.6703 24.4004 57.9839 24.4004 55.8623C24.4004 53.7951 26.0868 52.0543 28.2084 52.0543C30.33 52.0543 32.0164 53.7951 32.0164 55.8623Z" fill="white"/>
<path d="M30.5475 55.8623C30.5475 57.1679 29.5139 58.2015 28.2083 58.2015C26.9027 58.2015 25.8691 57.1679 25.8691 55.8623C25.8691 54.5567 26.9027 53.5231 28.2083 53.5231C29.5139 53.5231 30.5475 54.5567 30.5475 55.8623Z" fill="#0C758C"/>
<path d="M110.951 55.8623C110.951 57.9295 109.265 59.6703 107.143 59.6703C105.021 59.6703 103.335 57.9839 103.335 55.8623C103.335 53.7951 105.021 52.0543 107.143 52.0543C109.265 52.0543 110.951 53.7951 110.951 55.8623Z" fill="white"/>
<path d="M109.537 55.8623C109.537 57.1679 108.503 58.2015 107.198 58.2015C105.892 58.2015 104.858 57.1679 104.858 55.8623C104.858 54.5567 105.892 53.5231 107.198 53.5231C108.503 53.5231 109.537 54.5567 109.537 55.8623Z" fill="#0C758C"/>
<path d="M110.951 95.8463C110.951 97.9135 109.265 99.6543 107.143 99.6543C105.021 99.6543 103.335 97.9679 103.335 95.8463C103.335 93.7791 105.021 92.0383 107.143 92.0383C109.265 92.0383 110.951 93.7247 110.951 95.8463Z" fill="white"/>
<path d="M109.537 95.8463C109.537 97.1519 108.503 98.1855 107.198 98.1855C105.892 98.1855 104.858 97.1519 104.858 95.8463C104.858 94.5407 105.892 93.5071 107.198 93.5071C108.503 93.4527 109.537 94.5407 109.537 95.8463Z" fill="#CE415E"/>
<path d="M189.886 55.8623C189.886 57.9295 188.199 59.6703 186.078 59.6703C183.956 59.6703 182.27 57.9839 182.27 55.8623C182.27 53.7951 183.956 52.0543 186.078 52.0543C188.199 52.0543 189.886 53.7951 189.886 55.8623Z" fill="white"/>
<path d="M188.417 55.8623C188.417 57.1679 187.383 58.2015 186.077 58.2015C184.772 58.2015 183.738 57.1679 183.738 55.8623C183.738 54.5567 184.772 53.5231 186.077 53.5231C187.383 53.5231 188.417 54.5567 188.417 55.8623Z" fill="#0C758C"/>
<path d="M107.197 85.6735C112.725 85.6735 117.207 81.192 117.207 75.6639C117.207 70.1357 112.725 65.6543 107.197 65.6543C101.669 65.6543 97.1875 70.1357 97.1875 75.6639C97.1875 81.192 101.669 85.6735 107.197 85.6735Z" fill="white"/>
<path d="M106.653 72.8351L108.774 70.7135C109.645 69.8431 111.059 69.8431 111.93 70.7135L112.093 70.8767C112.963 71.7471 112.963 73.1615 112.093 74.0319L109.482 76.6431C108.611 77.5135 107.197 77.5135 106.326 76.6431L106.163 76.4799C105.891 76.2079 105.728 75.9359 105.619 75.6095" stroke="#CE415E" stroke-width="2" stroke-miterlimit="10" stroke-linecap="round" stroke-linejoin="round"/>
<path d="M107.687 78.4383L105.565 80.5599C104.695 81.4303 103.28 81.4303 102.41 80.5599L102.247 80.3967C101.376 79.5263 101.376 78.1119 102.247 77.2415L104.858 74.6303C105.728 73.7599 107.143 73.7599 108.013 74.6303L108.176 74.7935C108.448 75.0655 108.611 75.3375 108.72 75.6639" stroke="#CE415E" stroke-width="2" stroke-miterlimit="10" stroke-linecap="round" stroke-linejoin="round"/>
<path d="M104.75 68.8094L105.131 70.0607" stroke="#CE415E" stroke-width="2" stroke-miterlimit="10" stroke-linecap="round" stroke-linejoin="round"/>
<path d="M102.465 70.1694L103.39 71.0398" stroke="#CE415E" stroke-width="2" stroke-miterlimit="10" stroke-linecap="round" stroke-linejoin="round"/>
<path d="M101.159 72.4542L102.41 72.7806" stroke="#CE415E" stroke-width="2" stroke-miterlimit="10" stroke-linecap="round" stroke-linejoin="round"/>
<path d="M110.461 81.811L110.135 80.5598" stroke="#CE415E" stroke-width="2" stroke-miterlimit="10" stroke-linecap="round" stroke-linejoin="round"/>
<path d="M112.746 80.4511L111.821 79.5807" stroke="#CE415E" stroke-width="2" stroke-miterlimit="10" stroke-linecap="round" stroke-linejoin="round"/>
<path d="M114.052 78.1663L112.801 77.8398" stroke="#CE415E" stroke-width="2" stroke-miterlimit="10" stroke-linecap="round" stroke-linejoin="round"/>
<path d="M173.674 133.219C172.477 131.152 169.594 128.269 167.527 127.072C167.091 126.854 167.091 126.256 167.527 125.984C169.594 124.787 172.477 121.904 173.674 119.837C173.891 119.402 174.49 119.402 174.762 119.837C175.959 121.904 178.842 124.787 180.909 125.984C181.344 126.202 181.344 126.8 180.909 127.072C178.842 128.269 175.959 131.152 174.762 133.219C174.49 133.654 173.891 133.654 173.674 133.219Z" fill="white"/>
<path d="M184.228 108.195C183.575 107.107 181.997 105.53 180.909 104.877C180.692 104.768 180.692 104.442 180.909 104.278C181.997 103.626 183.575 102.048 184.228 100.96C184.336 100.742 184.663 100.742 184.826 100.96C185.479 102.048 187.056 103.626 188.144 104.278C188.362 104.387 188.362 104.714 188.144 104.877C187.056 105.53 185.479 107.107 184.826 108.195C184.663 108.467 184.336 108.467 184.228 108.195Z" fill="white"/>
<path d="M39.5783 148.995C38.9255 147.907 37.3479 146.33 36.2599 145.677C36.0423 145.568 36.0423 145.242 36.2599 145.078C37.3479 144.426 38.9255 142.848 39.5783 141.76C39.6871 141.542 40.0135 141.542 40.1767 141.76C40.8295 142.848 42.4071 144.426 43.4951 145.078C43.7127 145.187 43.7127 145.514 43.4951 145.677C42.4071 146.33 40.8295 147.907 40.1767 148.995C40.0135 149.213 39.6871 149.213 39.5783 148.995Z" fill="white"/>
<path d="M187.328 164.227C186.675 163.139 185.098 161.562 184.01 160.909C183.792 160.8 183.792 160.474 184.01 160.31C185.098 159.658 186.675 158.08 187.328 156.992C187.437 156.774 187.763 156.774 187.927 156.992C188.579 158.08 190.157 159.658 191.245 160.31C191.463 160.419 191.463 160.746 191.245 160.909C190.157 161.562 188.579 163.139 187.927 164.227C187.818 164.445 187.491 164.445 187.328 164.227Z" fill="white"/>
<path d="M22.3332 120.598C21.6804 119.51 20.1028 117.933 19.0148 117.28C18.7972 117.171 18.7972 116.845 19.0148 116.682C20.1028 116.029 21.6804 114.451 22.3332 113.363C22.442 113.146 22.7684 113.146 22.9316 113.363C23.5844 114.451 25.162 116.029 26.25 116.682C26.4676 116.79 26.4676 117.117 26.25 117.28C25.162 117.933 23.5844 119.51 22.9316 120.598C22.7684 120.816 22.442 120.816 22.3332 120.598Z" fill="white"/>
<path d="M54.8639 100.253C54.4831 99.6 53.5583 98.6208 52.8511 98.24C52.7423 98.1856 52.7423 97.968 52.8511 97.9136C53.5039 97.5328 54.4831 96.608 54.8639 95.9008C54.9183 95.792 55.1359 95.792 55.1903 95.9008C55.5711 96.5536 56.4959 97.5328 57.2031 97.9136C57.3119 97.968 57.3119 98.1856 57.2031 98.24C56.5503 98.6208 55.5711 99.5456 55.1903 100.253C55.1359 100.416 54.9727 100.416 54.8639 100.253Z" fill="white"/>
<path d="M217.412 143.011C217.031 142.358 216.106 141.379 215.399 140.998C215.29 140.944 215.29 140.726 215.399 140.672C216.052 140.291 217.031 139.366 217.412 138.659C217.466 138.55 217.684 138.55 217.738 138.659C218.119 139.312 219.044 140.291 219.751 140.672C219.86 140.726 219.86 140.944 219.751 140.998C219.098 141.379 218.119 142.304 217.738 143.011C217.684 143.174 217.521 143.174 217.412 143.011Z" fill="white"/>
<path d="M2.31413 156.557C1.93333 155.904 1.00853 154.925 0.301327 154.544C0.192527 154.49 0.192527 154.272 0.301327 154.218C0.954127 153.837 1.93333 152.912 2.31413 152.205C2.36853 152.096 2.58613 152.096 2.64053 152.205C3.02133 152.858 3.94613 153.837 4.65333 154.218C4.76213 154.272 4.76213 154.49 4.65333 154.544C4.00053 154.925 3.02133 155.85 2.64053 156.557C2.58613 156.666 2.36853 156.666 2.31413 156.557Z" fill="white"/>
<path d="M15.3698 163.357C14.989 162.704 14.0642 161.725 13.357 161.344C13.2482 161.29 13.2482 161.072 13.357 161.018C14.0098 160.637 14.989 159.712 15.3698 159.005C15.4242 158.896 15.6418 158.896 15.6962 159.005C16.077 159.658 17.0018 160.637 17.709 161.018C17.8178 161.072 17.8178 161.29 17.709 161.344C17.0562 161.725 16.077 162.65 15.6962 163.357C15.6418 163.52 15.4242 163.52 15.3698 163.357Z" fill="white"/>
<defs>
<linearGradient id="paint0_linear_206_34837" x1="29.5142" y1="10.2208" x2="29.5142" y2="24.5824" gradientUnits="userSpaceOnUse">
<stop stop-color="#298BE7"/>
<stop offset="1" stop-color="#70EFEE"/>
</linearGradient>
<linearGradient id="paint1_linear_206_34837" x1="13.2758" y1="27.1936" x2="13.2758" y2="38.7808" gradientUnits="userSpaceOnUse">
<stop stop-color="#298BE7"/>
<stop offset="1" stop-color="#70EFEE"/>
</linearGradient>
<linearGradient id="paint2_linear_206_34837" x1="29.5415" y1="27.1936" x2="29.5415" y2="38.7808" gradientUnits="userSpaceOnUse">
<stop stop-color="#298BE7"/>
<stop offset="1" stop-color="#70EFEE"/>
</linearGradient>
<linearGradient id="paint3_linear_206_34837" x1="13.2758" y1="39.7056" x2="13.2758" y2="40.6304" gradientUnits="userSpaceOnUse">
<stop stop-color="#298BE7"/>
<stop offset="1" stop-color="#70EFEE"/>
</linearGradient>
<linearGradient id="paint4_linear_206_34837" x1="13.2758" y1="41.392" x2="13.2758" y2="42.3168" gradientUnits="userSpaceOnUse">
<stop stop-color="#298BE7"/>
<stop offset="1" stop-color="#70EFEE"/>
</linearGradient>
<linearGradient id="paint5_linear_206_34837" x1="29.5415" y1="39.7056" x2="29.5415" y2="40.6304" gradientUnits="userSpaceOnUse">
<stop stop-color="#298BE7"/>
<stop offset="1" stop-color="#70EFEE"/>
</linearGradient>
<linearGradient id="paint6_linear_206_34837" x1="29.5415" y1="41.392" x2="29.5415" y2="42.3168" gradientUnits="userSpaceOnUse">
<stop stop-color="#298BE7"/>
<stop offset="1" stop-color="#70EFEE"/>
</linearGradient>
<linearGradient id="paint7_linear_206_34837" x1="45.6977" y1="39.7056" x2="45.6977" y2="40.6304" gradientUnits="userSpaceOnUse">
<stop stop-color="#298BE7"/>
<stop offset="1" stop-color="#70EFEE"/>
</linearGradient>
<linearGradient id="paint8_linear_206_34837" x1="45.6977" y1="41.392" x2="45.6977" y2="42.3168" gradientUnits="userSpaceOnUse">
<stop stop-color="#298BE7"/>
<stop offset="1" stop-color="#70EFEE"/>
</linearGradient>
<linearGradient id="paint9_linear_206_34837" x1="98.4657" y1="13.9199" x2="98.4657" y2="31.5455" gradientUnits="userSpaceOnUse">
<stop stop-color="#298BE7"/>
<stop offset="1" stop-color="#70EFEE"/>
</linearGradient>
<linearGradient id="paint10_linear_206_34837" x1="123.272" y1="13.9199" x2="123.272" y2="24.2559" gradientUnits="userSpaceOnUse">
<stop stop-color="#298BE7"/>
<stop offset="1" stop-color="#70EFEE"/>
</linearGradient>
<linearGradient id="paint11_linear_206_34837" x1="94.2769" y1="9.94873" x2="94.2769" y2="11.6351" gradientUnits="userSpaceOnUse">
<stop stop-color="#298BE7"/>
<stop offset="1" stop-color="#70EFEE"/>
</linearGradient>
<linearGradient id="paint12_linear_206_34837" x1="123.272" y1="25.3984" x2="123.272" y2="26.9216" gradientUnits="userSpaceOnUse">
<stop stop-color="#298BE7"/>
<stop offset="1" stop-color="#70EFEE"/>
</linearGradient>
<linearGradient id="paint13_linear_206_34837" x1="123.272" y1="29.152" x2="123.272" y2="39.488" gradientUnits="userSpaceOnUse">
<stop stop-color="#298BE7"/>
<stop offset="1" stop-color="#70EFEE"/>
</linearGradient>
<linearGradient id="paint14_linear_206_34837" x1="123.272" y1="40.6304" x2="123.272" y2="42.1536" gradientUnits="userSpaceOnUse">
<stop stop-color="#298BE7"/>
<stop offset="1" stop-color="#70EFEE"/>
</linearGradient>
<linearGradient id="paint15_linear_206_34837" x1="98.4657" y1="33.6128" x2="98.4657" y2="34.9728" gradientUnits="userSpaceOnUse">
<stop stop-color="#298BE7"/>
<stop offset="1" stop-color="#70EFEE"/>
</linearGradient>
<linearGradient id="paint16_linear_206_34837" x1="88.8097" y1="35.952" x2="88.8097" y2="37.312" gradientUnits="userSpaceOnUse">
<stop stop-color="#298BE7"/>
<stop offset="1" stop-color="#70EFEE"/>
</linearGradient>
<linearGradient id="paint17_linear_206_34837" x1="107.414" y1="35.952" x2="107.414" y2="37.312" gradientUnits="userSpaceOnUse">
<stop stop-color="#298BE7"/>
<stop offset="1" stop-color="#70EFEE"/>
</linearGradient>
<linearGradient id="paint18_linear_206_34837" x1="98.4657" y1="38.4" x2="98.4657" y2="39.76" gradientUnits="userSpaceOnUse">
<stop stop-color="#298BE7"/>
<stop offset="1" stop-color="#70EFEE"/>
</linearGradient>
<linearGradient id="paint19_linear_206_34837" x1="98.4657" y1="40.848" x2="98.4657" y2="42.208" gradientUnits="userSpaceOnUse">
<stop stop-color="#298BE7"/>
<stop offset="1" stop-color="#70EFEE"/>
</linearGradient>
<linearGradient id="paint20_linear_206_34837" x1="186.077" y1="10.6016" x2="186.077" y2="17.8368" gradientUnits="userSpaceOnUse">
<stop stop-color="#298BE7"/>
<stop offset="1" stop-color="#70EFEE"/>
</linearGradient>
<linearGradient id="paint21_linear_206_34837" x1="198.099" y1="20.7744" x2="198.099" y2="39.3248" gradientUnits="userSpaceOnUse">
<stop stop-color="#298BE7"/>
<stop offset="1" stop-color="#70EFEE"/>
</linearGradient>
<linearGradient id="paint22_linear_206_34837" x1="174.054" y1="40.7936" x2="174.054" y2="42.2624" gradientUnits="userSpaceOnUse">
<stop stop-color="#298BE7"/>
<stop offset="1" stop-color="#70EFEE"/>
</linearGradient>
<linearGradient id="paint23_linear_206_34837" x1="198.099" y1="40.7936" x2="198.099" y2="42.2624" gradientUnits="userSpaceOnUse">
<stop stop-color="#298BE7"/>
<stop offset="1" stop-color="#70EFEE"/>
</linearGradient>
<radialGradient id="paint24_radial_206_34837" cx="0" cy="0" r="1" gradientUnits="userSpaceOnUse" gradientTransform="translate(108.222 131.222) rotate(45) scale(71.5745)">
<stop stop-color="#CE415E"/>
<stop offset="0.9999" stop-color="#CE415E" stop-opacity="0"/>
<stop offset="1" stop-color="white" stop-opacity="0"/>
</radialGradient>
<radialGradient id="paint25_radial_206_34837" cx="0" cy="0" r="1" gradientUnits="userSpaceOnUse" gradientTransform="translate(108.222 131.222) rotate(45) scale(71.5745)">
<stop stop-color="#CE415E"/>
<stop offset="0.9999" stop-color="#CE415E" stop-opacity="0"/>
<stop offset="1" stop-color="white" stop-opacity="0"/>
</radialGradient>
<linearGradient id="paint26_linear_206_34837" x1="81.8192" y1="148.832" x2="81.8192" y2="164.499" gradientUnits="userSpaceOnUse">
<stop stop-color="#298BE7"/>
<stop offset="1" stop-color="#70EFEE"/>
</linearGradient>
<linearGradient id="paint27_linear_206_34837" x1="106.19" y1="148.832" x2="106.19" y2="164.499" gradientUnits="userSpaceOnUse">
<stop stop-color="#298BE7"/>
<stop offset="1" stop-color="#70EFEE"/>
</linearGradient>
<linearGradient id="paint28_linear_206_34837" x1="130.507" y1="148.832" x2="130.507" y2="164.499" gradientUnits="userSpaceOnUse">
<stop stop-color="#298BE7"/>
<stop offset="1" stop-color="#70EFEE"/>
</linearGradient>
</defs>
</svg>
