<svg width="220" height="180" fill="none" xmlns="http://www.w3.org/2000/svg"><path d="M55.136 46.288H3.837a3.645 3.645 0 01-3.645-3.645V3.53h58.535v39.113c0 2.013-1.632 3.645-3.59 3.645z" fill="#fff"/><path d="M58.727 6.63H.192V3.91a2.299 2.299 0 012.285-2.284h54.02A2.299 2.299 0 0158.78 3.91v2.72h-.054z" fill="#0C758C"/><path d="M52.689 10.22H6.339v14.362h46.35V10.221z" fill="url(#paint0_linear_206_34837)"/><path d="M20.212 27.194H6.34V38.78h13.872V27.194z" fill="url(#paint1_linear_206_34837)"/><path d="M36.477 27.194H22.606V38.78h13.871V27.194z" fill="url(#paint2_linear_206_34837)"/><path d="M20.212 39.706H6.34v.924h13.872v-.924z" fill="url(#paint3_linear_206_34837)"/><path d="M20.212 41.392H6.34v.925h13.872v-.925z" fill="url(#paint4_linear_206_34837)"/><path d="M36.477 39.706H22.606v.924h13.871v-.924z" fill="url(#paint5_linear_206_34837)"/><path d="M36.477 41.392H22.606v.925h13.871v-.925z" fill="url(#paint6_linear_206_34837)"/><path d="M52.634 27.194H38.762V38.78h13.872V27.194z" fill="#CE415E"/><path d="M52.634 39.706H38.762v.924h13.872v-.924z" fill="url(#paint7_linear_206_34837)"/><path d="M52.634 41.392H38.762v.925h13.872v-.925z" fill="url(#paint8_linear_206_34837)"/><path d="M39.85 35.517h7.942l-3.971-5.495-3.971 5.495z" fill="#fff"/><path d="M45.29 35.517h6.038l-2.992-4.189-3.046 4.189zm1.85 7.943a.604.604 0 01-.6.598.604.604 0 01-.598-.599c0-.326.272-.598.599-.598.326 0 .598.272.598.598z" fill="#fff"/><path d="M47.357 5.162a.98.98 0 100-1.959.98.98 0 000 1.959z" fill="#CE415E"/><path d="M51.98 4.182c0 .544-.434.98-.978.98a.975.975 0 01-.98-.98c0-.544.436-.979.98-.979.544-.054.979.381.979.98z" fill="#FF4A51"/><path d="M54.593 5.162a.98.98 0 100-1.959.98.98 0 000 1.959z" fill="#7AE6B5"/><path d="M132.819 46.288H81.575a3.645 3.645 0 01-3.645-3.645V3.53h58.534v39.113a3.645 3.645 0 01-3.645 3.645z" fill="#fff"/><path d="M112.909 13.92H84.022v17.625h28.887V13.92z" fill="url(#paint9_linear_206_34837)"/><path d="M130.371 13.92h-14.198v10.336h14.198V13.92z" fill="url(#paint10_linear_206_34837)"/><path d="M127.379 9.731h-11.206v1.687h11.206V9.73z" fill="#CE415E"/><path d="M104.531 9.949H84.022v1.686h20.509V9.95z" fill="url(#paint11_linear_206_34837)"/><path d="M130.371 25.398h-14.198v1.524h14.198v-1.524z" fill="url(#paint12_linear_206_34837)"/><path d="M130.371 29.152h-14.198v10.336h14.198V29.152z" fill="url(#paint13_linear_206_34837)"/><path d="M130.371 40.63h-14.198v1.524h14.198V40.63z" fill="url(#paint14_linear_206_34837)"/><path d="M112.909 33.613H84.022v1.36h28.887v-1.36z" fill="url(#paint15_linear_206_34837)"/><path d="M93.597 35.952h-9.575v1.36h9.575v-1.36z" fill="url(#paint16_linear_206_34837)"/><path d="M101.05 35.952h-5.93v1.36h5.93v-1.36z" fill="#CE415E"/><path d="M112.963 35.952h-11.098v1.36h11.098v-1.36z" fill="url(#paint17_linear_206_34837)"/><path d="M112.909 38.4H84.022v1.36h28.887V38.4z" fill="url(#paint18_linear_206_34837)"/><path d="M112.909 40.848H84.022v1.36h28.887v-1.36z" fill="url(#paint19_linear_206_34837)"/><path d="M136.464 5.978H77.93v-2.72A2.299 2.299 0 0180.214.973h54.02a2.298 2.298 0 012.284 2.285v2.72h-.054z" fill="#0C758C"/><path d="M126.074 3.53a.976.976 0 01-.98.979.975.975 0 01-.979-.98c0-.543.435-.979.979-.979.544-.054.98.381.98.98z" fill="#CE415E"/><path d="M128.685 4.509a.979.979 0 100-1.958.979.979 0 000 1.958z" fill="#FF4A51"/><path d="M132.275 4.509a.979.979 0 100-1.958.979.979 0 000 1.958z" fill="#7AE6B5"/><path d="M211.699 46.288h-51.245a3.645 3.645 0 01-3.644-3.645V3.53h58.534v39.113a3.645 3.645 0 01-3.645 3.645z" fill="#fff"/><path d="M209.251 10.602h-46.349v7.235h46.349v-7.235z" fill="url(#paint20_linear_206_34837)"/><path d="M185.206 20.774h-22.304v18.55h22.304v-18.55z" fill="#CE415E"/><path d="M209.251 20.774h-22.304v18.55h22.304v-18.55z" fill="url(#paint21_linear_206_34837)"/><path d="M177.759 33.45a5.005 5.005 0 10-7.382-6.761 5.005 5.005 0 007.382 6.76z" fill="#fff"/><path d="M173.075 27.792v4.515l3.264-2.23-3.264-2.285z" fill="#CE415E"/><path d="M185.206 40.794h-22.304v1.468h22.304v-1.468z" fill="url(#paint22_linear_206_34837)"/><path d="M209.251 40.794h-22.304v1.468h22.304v-1.468z" fill="url(#paint23_linear_206_34837)"/><path d="M215.344 5.978H156.81v-2.72a2.298 2.298 0 012.284-2.285h54.02a2.298 2.298 0 012.284 2.285v2.72h-.054z" fill="#0C758C"/><path d="M204.954 3.53a.976.976 0 01-.98.979.975.975 0 01-.979-.98c0-.543.435-.979.979-.979.544-.054.98.381.98.98z" fill="#CE415E"/><path d="M207.565 4.509a.979.979 0 100-1.958.979.979 0 000 1.958z" fill="#FF4A51"/><path d="M211.155 4.509a.979.979 0 100-1.958.979.979 0 000 1.958z" fill="#7AE6B5"/><path opacity=".47" d="M158.833 181.833c27.951-27.952 27.951-73.271 0-101.222-27.952-27.952-73.27-27.952-101.222 0-27.952 27.951-27.952 73.27 0 101.222 27.951 27.951 73.27 27.951 101.222 0z" fill="url(#paint24_radial_206_34837)"/><path opacity=".47" d="M158.833 181.833c27.951-27.952 27.951-73.271 0-101.222-27.952-27.952-73.27-27.952-101.222 0-27.952 27.951-27.952 73.27 0 101.222 27.951 27.951 73.27 27.951 101.222 0z" fill="url(#paint25_radial_206_34837)"/><path d="M155.667 173.094H56.659V111.35a2.67 2.67 0 012.666-2.665h93.677a2.67 2.67 0 012.665 2.665v61.744z" fill="#075F73"/><path d="M166.438 179.786H46.214a2.903 2.903 0 01-2.883-2.884v-1.468a2.903 2.903 0 012.883-2.884h120.279a2.903 2.903 0 012.883 2.884v1.468c-.055 1.632-1.36 2.884-2.938 2.884z" fill="#0C758C"/><path d="M115.465 172.605H96.86v2.829h18.605v-2.829z" fill="#075F73"/><path d="M147.453 169.558h-82.58a3.041 3.041 0 01-3.046-3.046v-48.797H150.5v48.797a3.041 3.041 0 01-3.046 3.046z" fill="#fff"/><path d="M109.318 113.363h-3.917a1.462 1.462 0 01-1.468-1.469c0-.816.652-1.468 1.468-1.468h3.917c.816 0 1.469.652 1.469 1.468s-.653 1.469-1.469 1.469z" fill="#CCC"/><path d="M107.686 113.363h-2.339a1.463 1.463 0 01-1.469-1.469c0-.816.653-1.468 1.469-1.468h2.339c.816 0 1.469.652 1.469 1.468s-.653 1.469-1.469 1.469z" fill="#A6A6A6"/><path d="M106.326 111.84c0 .49-.435.925-.925.925a.953.953 0 01-.924-.925c0-.49.435-.925.924-.925.49 0 .925.435.925.925z" fill="#fff"/><path d="M150.499 120.653H61.827v-3.482c0-1.088.87-1.904 1.904-1.904h84.864c1.088 0 1.904.871 1.904 1.904v3.482z" fill="#0C758C"/><path d="M141.251 124.461H71.075v20.889h70.176v-20.889z" fill="#CE415E"/><path d="M92.563 148.832H71.075v15.667h21.488v-15.667z" fill="url(#paint26_linear_206_34837)"/><path d="M116.934 148.832H95.446v15.667h21.488v-15.667z" fill="url(#paint27_linear_206_34837)"/><path d="M141.251 148.832h-21.488v15.667h21.488v-15.667z" fill="url(#paint28_linear_206_34837)"/><path d="M140.326 118.912a.979.979 0 100-1.957.979.979 0 000 1.957z" fill="#CE415E"/><path d="M143.917 118.912a.98.98 0 100-1.958.98.98 0 000 1.958z" fill="#FF4A51"/><path d="M147.507 118.912a.98.98 0 100-1.958.98.98 0 000 1.958z" fill="#7AE6B5"/><path d="M28.208 57.114v10.608c0 4.08 3.318 7.452 7.453 7.452h71.536v9.194m-.108-8.704l-.055-19.802" stroke="#0C758C" stroke-width="4" stroke-miterlimit="10" stroke-linecap="round" stroke-linejoin="round"/><path d="M107.089 97.968l-.055-19.802" stroke="#CE415E" stroke-width="4" stroke-miterlimit="10" stroke-linecap="round" stroke-linejoin="round"/><path d="M186.078 57.114v10.608c0 4.08-3.319 7.452-7.453 7.452h-71.536" stroke="#0C758C" stroke-width="4" stroke-miterlimit="10" stroke-linecap="round" stroke-linejoin="round"/><path d="M107.197 55.862v25.133" stroke="#0C758C" stroke-width="2" stroke-miterlimit="10" stroke-linecap="round" stroke-linejoin="round"/><path d="M32.016 55.862c0 2.067-1.686 3.808-3.808 3.808a3.785 3.785 0 01-3.808-3.808c0-2.067 1.687-3.808 3.808-3.808 2.122 0 3.808 1.741 3.808 3.808z" fill="#fff"/><path d="M30.547 55.862a2.322 2.322 0 01-2.339 2.34 2.322 2.322 0 01-2.339-2.34 2.322 2.322 0 012.34-2.339 2.322 2.322 0 012.338 2.34z" fill="#0C758C"/><path d="M110.951 55.862c0 2.067-1.686 3.808-3.808 3.808a3.784 3.784 0 01-3.808-3.808c0-2.067 1.686-3.808 3.808-3.808s3.808 1.741 3.808 3.808z" fill="#fff"/><path d="M109.537 55.862a2.322 2.322 0 01-2.339 2.34 2.322 2.322 0 01-2.34-2.34 2.322 2.322 0 012.34-2.339 2.322 2.322 0 012.339 2.34z" fill="#0C758C"/><path d="M110.951 95.846c0 2.067-1.686 3.808-3.808 3.808a3.784 3.784 0 01-3.808-3.808c0-2.067 1.686-3.808 3.808-3.808a3.784 3.784 0 013.808 3.808z" fill="#fff"/><path d="M109.537 95.846a2.322 2.322 0 01-2.339 2.34 2.322 2.322 0 01-2.34-2.34 2.322 2.322 0 012.34-2.339c1.305-.054 2.339 1.034 2.339 2.34z" fill="#CE415E"/><path d="M189.886 55.862c0 2.067-1.687 3.808-3.808 3.808a3.784 3.784 0 01-3.808-3.808c0-2.067 1.686-3.808 3.808-3.808 2.121 0 3.808 1.741 3.808 3.808z" fill="#fff"/><path d="M188.417 55.862a2.322 2.322 0 01-2.34 2.34 2.322 2.322 0 01-2.339-2.34 2.322 2.322 0 012.339-2.339 2.322 2.322 0 012.34 2.34z" fill="#0C758C"/><path d="M107.197 85.674c5.528 0 10.01-4.482 10.01-10.01s-4.482-10.01-10.01-10.01-10.01 4.482-10.01 10.01 4.482 10.01 10.01 10.01z" fill="#fff"/><path d="M106.653 72.835l2.121-2.121a2.234 2.234 0 013.156 0l.163.163c.87.87.87 2.285 0 3.155l-2.611 2.611c-.871.87-2.285.87-3.156 0l-.163-.163a2.132 2.132 0 01-.544-.87" stroke="#CE415E" stroke-width="2" stroke-miterlimit="10" stroke-linecap="round" stroke-linejoin="round"/><path d="M107.687 78.438l-2.122 2.122c-.87.87-2.285.87-3.155 0l-.163-.163a2.232 2.232 0 010-3.156l2.611-2.61a2.231 2.231 0 013.155 0l.163.162c.272.272.435.544.544.87m-3.97-6.853l.381 1.25m-2.666.11l.925.87m-2.231 1.414l1.251.327m8.051 9.03l-.326-1.251m2.611-.109l-.925-.87m2.231-1.415l-1.251-.326" stroke="#CE415E" stroke-width="2" stroke-miterlimit="10" stroke-linecap="round" stroke-linejoin="round"/><path d="M173.674 133.219c-1.197-2.067-4.08-4.95-6.147-6.147-.436-.218-.436-.816 0-1.088 2.067-1.197 4.95-4.08 6.147-6.147.217-.435.816-.435 1.088 0 1.197 2.067 4.08 4.95 6.147 6.147.435.218.435.816 0 1.088-2.067 1.197-4.95 4.08-6.147 6.147-.272.435-.871.435-1.088 0zm10.554-25.024c-.653-1.088-2.231-2.665-3.319-3.318-.217-.109-.217-.435 0-.599 1.088-.652 2.666-2.23 3.319-3.318.108-.218.435-.218.598 0 .653 1.088 2.23 2.666 3.318 3.318.218.109.218.436 0 .599-1.088.653-2.665 2.23-3.318 3.318-.163.272-.49.272-.598 0zm-144.65 40.8c-.653-1.088-2.23-2.665-3.318-3.318-.218-.109-.218-.435 0-.599 1.088-.652 2.666-2.23 3.318-3.318.11-.218.435-.218.599 0 .653 1.088 2.23 2.666 3.318 3.318.218.109.218.436 0 .599-1.088.653-2.665 2.23-3.318 3.318-.163.218-.49.218-.599 0zm147.75 15.232c-.653-1.088-2.23-2.665-3.318-3.318-.218-.109-.218-.435 0-.599 1.088-.652 2.665-2.23 3.318-3.318.109-.218.435-.218.599 0 .652 1.088 2.23 2.666 3.318 3.318.218.109.218.436 0 .599-1.088.653-2.666 2.23-3.318 3.318-.109.218-.436.218-.599 0zM22.333 120.598c-.653-1.088-2.23-2.665-3.318-3.318-.218-.109-.218-.435 0-.598 1.088-.653 2.665-2.231 3.318-3.319.109-.217.435-.217.599 0 .652 1.088 2.23 2.666 3.318 3.319.218.108.218.435 0 .598-1.088.653-2.666 2.23-3.318 3.318-.164.218-.49.218-.599 0zm32.531-20.345c-.38-.653-1.306-1.632-2.013-2.013-.109-.054-.109-.272 0-.326.653-.381 1.632-1.306 2.013-2.013.054-.109.272-.109.326 0 .381.653 1.306 1.632 2.013 2.013.109.054.109.272 0 .326-.653.38-1.632 1.306-2.013 2.013-.054.163-.217.163-.326 0zm162.548 42.758c-.381-.653-1.306-1.632-2.013-2.013-.109-.054-.109-.272 0-.326.653-.381 1.632-1.306 2.013-2.013.054-.109.272-.109.326 0 .381.653 1.306 1.632 2.013 2.013.109.054.109.272 0 .326-.653.381-1.632 1.306-2.013 2.013-.054.163-.217.163-.326 0zM2.314 156.557c-.38-.653-1.305-1.632-2.013-2.013-.108-.054-.108-.272 0-.326.653-.381 1.632-1.306 2.013-2.013.055-.109.272-.109.327 0 .38.653 1.305 1.632 2.012 2.013.11.054.11.272 0 .326-.652.381-1.632 1.306-2.012 2.013-.055.109-.272.109-.327 0zm13.056 6.8c-.381-.653-1.306-1.632-2.013-2.013-.109-.054-.109-.272 0-.326.653-.381 1.632-1.306 2.013-2.013.054-.109.272-.109.326 0 .381.653 1.306 1.632 2.013 2.013.109.054.109.272 0 .326-.653.381-1.632 1.306-2.013 2.013a.17.17 0 01-.326 0z" fill="#fff"/><defs><linearGradient id="paint0_linear_206_34837" x1="29.514" y1="10.221" x2="29.514" y2="24.582" gradientUnits="userSpaceOnUse"><stop stop-color="#298BE7"/><stop offset="1" stop-color="#70EFEE"/></linearGradient><linearGradient id="paint1_linear_206_34837" x1="13.276" y1="27.194" x2="13.276" y2="38.781" gradientUnits="userSpaceOnUse"><stop stop-color="#298BE7"/><stop offset="1" stop-color="#70EFEE"/></linearGradient><linearGradient id="paint2_linear_206_34837" x1="29.541" y1="27.194" x2="29.541" y2="38.781" gradientUnits="userSpaceOnUse"><stop stop-color="#298BE7"/><stop offset="1" stop-color="#70EFEE"/></linearGradient><linearGradient id="paint3_linear_206_34837" x1="13.276" y1="39.706" x2="13.276" y2="40.63" gradientUnits="userSpaceOnUse"><stop stop-color="#298BE7"/><stop offset="1" stop-color="#70EFEE"/></linearGradient><linearGradient id="paint4_linear_206_34837" x1="13.276" y1="41.392" x2="13.276" y2="42.317" gradientUnits="userSpaceOnUse"><stop stop-color="#298BE7"/><stop offset="1" stop-color="#70EFEE"/></linearGradient><linearGradient id="paint5_linear_206_34837" x1="29.541" y1="39.706" x2="29.541" y2="40.63" gradientUnits="userSpaceOnUse"><stop stop-color="#298BE7"/><stop offset="1" stop-color="#70EFEE"/></linearGradient><linearGradient id="paint6_linear_206_34837" x1="29.541" y1="41.392" x2="29.541" y2="42.317" gradientUnits="userSpaceOnUse"><stop stop-color="#298BE7"/><stop offset="1" stop-color="#70EFEE"/></linearGradient><linearGradient id="paint7_linear_206_34837" x1="45.698" y1="39.706" x2="45.698" y2="40.63" gradientUnits="userSpaceOnUse"><stop stop-color="#298BE7"/><stop offset="1" stop-color="#70EFEE"/></linearGradient><linearGradient id="paint8_linear_206_34837" x1="45.698" y1="41.392" x2="45.698" y2="42.317" gradientUnits="userSpaceOnUse"><stop stop-color="#298BE7"/><stop offset="1" stop-color="#70EFEE"/></linearGradient><linearGradient id="paint9_linear_206_34837" x1="98.466" y1="13.92" x2="98.466" y2="31.546" gradientUnits="userSpaceOnUse"><stop stop-color="#298BE7"/><stop offset="1" stop-color="#70EFEE"/></linearGradient><linearGradient id="paint10_linear_206_34837" x1="123.272" y1="13.92" x2="123.272" y2="24.256" gradientUnits="userSpaceOnUse"><stop stop-color="#298BE7"/><stop offset="1" stop-color="#70EFEE"/></linearGradient><linearGradient id="paint11_linear_206_34837" x1="94.277" y1="9.949" x2="94.277" y2="11.635" gradientUnits="userSpaceOnUse"><stop stop-color="#298BE7"/><stop offset="1" stop-color="#70EFEE"/></linearGradient><linearGradient id="paint12_linear_206_34837" x1="123.272" y1="25.398" x2="123.272" y2="26.922" gradientUnits="userSpaceOnUse"><stop stop-color="#298BE7"/><stop offset="1" stop-color="#70EFEE"/></linearGradient><linearGradient id="paint13_linear_206_34837" x1="123.272" y1="29.152" x2="123.272" y2="39.488" gradientUnits="userSpaceOnUse"><stop stop-color="#298BE7"/><stop offset="1" stop-color="#70EFEE"/></linearGradient><linearGradient id="paint14_linear_206_34837" x1="123.272" y1="40.63" x2="123.272" y2="42.154" gradientUnits="userSpaceOnUse"><stop stop-color="#298BE7"/><stop offset="1" stop-color="#70EFEE"/></linearGradient><linearGradient id="paint15_linear_206_34837" x1="98.466" y1="33.613" x2="98.466" y2="34.973" gradientUnits="userSpaceOnUse"><stop stop-color="#298BE7"/><stop offset="1" stop-color="#70EFEE"/></linearGradient><linearGradient id="paint16_linear_206_34837" x1="88.81" y1="35.952" x2="88.81" y2="37.312" gradientUnits="userSpaceOnUse"><stop stop-color="#298BE7"/><stop offset="1" stop-color="#70EFEE"/></linearGradient><linearGradient id="paint17_linear_206_34837" x1="107.414" y1="35.952" x2="107.414" y2="37.312" gradientUnits="userSpaceOnUse"><stop stop-color="#298BE7"/><stop offset="1" stop-color="#70EFEE"/></linearGradient><linearGradient id="paint18_linear_206_34837" x1="98.466" y1="38.4" x2="98.466" y2="39.76" gradientUnits="userSpaceOnUse"><stop stop-color="#298BE7"/><stop offset="1" stop-color="#70EFEE"/></linearGradient><linearGradient id="paint19_linear_206_34837" x1="98.466" y1="40.848" x2="98.466" y2="42.208" gradientUnits="userSpaceOnUse"><stop stop-color="#298BE7"/><stop offset="1" stop-color="#70EFEE"/></linearGradient><linearGradient id="paint20_linear_206_34837" x1="186.077" y1="10.602" x2="186.077" y2="17.837" gradientUnits="userSpaceOnUse"><stop stop-color="#298BE7"/><stop offset="1" stop-color="#70EFEE"/></linearGradient><linearGradient id="paint21_linear_206_34837" x1="198.099" y1="20.774" x2="198.099" y2="39.325" gradientUnits="userSpaceOnUse"><stop stop-color="#298BE7"/><stop offset="1" stop-color="#70EFEE"/></linearGradient><linearGradient id="paint22_linear_206_34837" x1="174.054" y1="40.794" x2="174.054" y2="42.262" gradientUnits="userSpaceOnUse"><stop stop-color="#298BE7"/><stop offset="1" stop-color="#70EFEE"/></linearGradient><linearGradient id="paint23_linear_206_34837" x1="198.099" y1="40.794" x2="198.099" y2="42.262" gradientUnits="userSpaceOnUse"><stop stop-color="#298BE7"/><stop offset="1" stop-color="#70EFEE"/></linearGradient><linearGradient id="paint26_linear_206_34837" x1="81.819" y1="148.832" x2="81.819" y2="164.499" gradientUnits="userSpaceOnUse"><stop stop-color="#298BE7"/><stop offset="1" stop-color="#70EFEE"/></linearGradient><linearGradient id="paint27_linear_206_34837" x1="106.19" y1="148.832" x2="106.19" y2="164.499" gradientUnits="userSpaceOnUse"><stop stop-color="#298BE7"/><stop offset="1" stop-color="#70EFEE"/></linearGradient><linearGradient id="paint28_linear_206_34837" x1="130.507" y1="148.832" x2="130.507" y2="164.499" gradientUnits="userSpaceOnUse"><stop stop-color="#298BE7"/><stop offset="1" stop-color="#70EFEE"/></linearGradient><radialGradient id="paint24_radial_206_34837" cx="0" cy="0" r="1" gradientUnits="userSpaceOnUse" gradientTransform="rotate(45 -104.288 196.247) scale(71.5745)"><stop stop-color="#CE415E"/><stop offset="1" stop-color="#CE415E" stop-opacity="0"/><stop offset="1" stop-color="#fff" stop-opacity="0"/></radialGradient><radialGradient id="paint25_radial_206_34837" cx="0" cy="0" r="1" gradientUnits="userSpaceOnUse" gradientTransform="rotate(45 -104.288 196.247) scale(71.5745)"><stop stop-color="#CE415E"/><stop offset="1" stop-color="#CE415E" stop-opacity="0"/><stop offset="1" stop-color="#fff" stop-opacity="0"/></radialGradient></defs></svg>