<svg width="228" height="166" viewBox="0 0 228 166" fill="none" xmlns="http://www.w3.org/2000/svg">
<path d="M81.7923 19.1142C79.1881 19.3222 76.3686 19.0066 74.2666 19.0568C66.705 19.2433 59.1506 19.3724 51.5962 19.5733C48.2458 19.6594 45.5842 17.3637 44.9959 14.1425C44.0561 8.9914 50.972 2.67812 55.1402 7.92245C54.3367 6.91089 55.5205 4.55058 56.0872 3.65381C57.3212 1.69525 59.3084 0.554557 61.5826 0.174325C66.54 -0.65788 71.8202 1.4872 73.0829 6.65979C74.7831 3.34532 79.4464 2.21897 82.7465 3.71837C86.1901 5.28952 88.4141 9.01292 88.6508 12.6789C88.7441 14.164 88.3926 15.728 87.4025 16.8615C86.0825 18.3752 84.0163 18.9348 81.7923 19.1142Z" fill="#E1F1FF"/>
<path d="M80.9811 37.9752C79.3812 38.1043 77.6451 37.9106 76.3537 37.9393C71.7049 38.0541 67.0632 38.133 62.4143 38.255C60.3553 38.3124 58.7196 36.8991 58.3537 34.919C57.7726 31.748 62.0269 27.874 64.5881 31.0952C64.093 30.471 64.8176 29.0218 65.1692 28.4694C65.9296 27.2642 67.1492 26.5683 68.5482 26.3315C71.5972 25.8221 74.84 27.135 75.6148 30.3204C76.655 28.2829 79.5247 27.587 81.555 28.5125C83.6714 29.481 85.0417 31.7695 85.1851 34.0222C85.2425 34.9405 85.0273 35.9019 84.4175 36.5978C83.614 37.5161 82.3513 37.8604 80.9811 37.9752Z" fill="#E1F1FF"/>
<path d="M162.681 44.0444C165.443 45.2497 168.427 46.0675 171.275 46.9213C175.975 48.3202 180.753 49.3605 185.531 50.4223C186.836 50.7164 187.941 50.451 188.508 49.0951C188.96 48.0261 188.716 46.7276 187.683 46.0962C187.051 45.7088 186.298 45.5797 185.566 45.4506C181.377 44.6973 177.23 43.6929 173.162 42.4518C172.222 42.1648 161.533 38.4199 161.655 38.1544C161.296 38.9508 160.98 39.7614 160.715 40.5936C160.665 40.7586 160.062 42.7387 159.883 42.6311C160.787 43.162 161.719 43.6283 162.681 44.0444Z" fill="white"/>
<path d="M160.372 52.8759C160.903 53.1126 161.326 53.292 161.463 53.3493C163.493 54.2389 165.559 55.0425 167.661 55.7599C172.949 57.5534 178.415 58.4359 183.796 59.8133C185.905 60.3514 185.934 58.6439 186.235 56.9867C186.472 55.6881 185.511 55.272 184.363 54.9779C180.388 53.9592 176.364 53.1198 172.403 52.0508C167.575 50.7451 162.919 49.009 158.478 46.7061C157.883 47.9831 157.402 49.3103 157.043 50.6734C156.907 51.2401 159.009 52.266 160.372 52.8759Z" fill="white"/>
<path d="M158.055 61.9586C159.905 62.8984 161.828 63.7091 163.794 64.3763C169.626 66.3922 175.768 67.5114 181.765 68.9391C182.181 69.0467 182.605 69.1328 183.028 69.1973C182.956 69.1902 183.573 67.2818 183.645 67.1096C183.889 66.4998 184.305 65.8829 184.341 65.2085C184.384 64.405 183.293 64.3691 182.669 64.1826C180.273 63.458 177.819 63.0204 175.38 62.4536C172.884 61.8653 170.394 61.2196 167.955 60.4233C163.615 59.0028 159.712 56.8793 155.766 54.6194C155.113 55.9968 154.467 57.3814 153.815 58.7589C153.42 59.6054 157.251 61.5425 157.76 61.8079C157.868 61.8581 157.961 61.9084 158.055 61.9586Z" fill="white"/>
<path d="M87.2804 33.3835H197.978C203.804 33.3835 208.524 38.1042 208.524 43.9296V123.663C208.524 129.489 203.804 134.21 197.978 134.21H87.2804C81.455 134.21 76.7344 129.489 76.7344 123.663V43.9296C76.7344 38.1042 81.455 33.3835 87.2804 33.3835Z" fill="#0C758C"/>
<path d="M124.047 50.4009L113.458 61.9872L96.893 80.1092C95.1568 81.5368 93.6574 83.646 92.1221 85.332C90.6155 86.982 88.987 88.4886 87.4589 90.1459C87.2221 90.4041 86.8634 90.6624 86.6339 90.397L77.58 100.305C77.4509 100.764 76.8841 100.692 76.6474 100.412C76.4106 100.132 76.6187 98.7405 76.6187 98.3531V84.3132C76.6187 70.4025 76.7335 56.5061 76.7335 42.581V42.0071C76.7335 37.2506 80.256 33.3909 84.6036 33.3909H121.278C124.729 33.3909 128.18 33.398 131.63 33.4052C134.285 33.4052 136.939 33.3909 139.594 33.3909C138.934 33.3909 138.546 34.345 138.188 34.8185C136.035 37.7026 133.381 40.1489 130.992 42.8034C128.954 45.0633 126.931 47.3375 124.851 49.5471C124.592 49.8269 124.313 50.1067 124.047 50.4009Z" fill="#075F73"/>
<path d="M87.5238 36.4757H195.653C197.683 36.4757 199.326 38.1186 199.326 40.1489V121.985C199.326 124.015 197.683 125.658 195.653 125.658H87.5238C85.4935 125.658 83.8506 124.015 83.8506 121.985V40.1489C83.8506 38.1186 85.4935 36.4757 87.5238 36.4757Z" fill="#4EA0B1"/>
<path d="M199.326 39.41C199.326 37.7886 198.013 36.4757 196.392 36.4757H86.7848C85.1635 36.4757 83.8506 37.7886 83.8506 39.41V45.7591H199.333V39.41H199.326Z" fill="#075F73"/>
<path d="M181.026 42.6599C182.021 42.6599 182.827 41.8537 182.827 40.8592C182.827 39.8647 182.021 39.0585 181.026 39.0585C180.032 39.0585 179.226 39.8647 179.226 40.8592C179.226 41.8537 180.032 42.6599 181.026 42.6599Z" fill="#0C758C"/>
<path d="M186.7 42.6599C187.695 42.6599 188.501 41.8537 188.501 40.8592C188.501 39.8647 187.695 39.0585 186.7 39.0585C185.706 39.0585 184.899 39.8647 184.899 40.8592C184.899 41.8537 185.706 42.6599 186.7 42.6599Z" fill="#0C758C"/>
<path d="M192.367 42.6599C193.362 42.6599 194.168 41.8537 194.168 40.8592C194.168 39.8647 193.362 39.0585 192.367 39.0585C191.373 39.0585 190.566 39.8647 190.566 40.8592C190.566 41.8537 191.373 42.6599 192.367 42.6599Z" fill="#0C758C"/>
<g opacity="0.19">
<path opacity="0.19" d="M146.223 126.139C146.352 126.146 146.832 125.529 146.919 125.443C155.233 117.078 163.548 108.72 171.863 100.355C180.852 91.3081 189.835 82.2542 198.809 73.1861C198.931 73.2076 199.032 73.0211 199.111 72.9206C199.19 72.8202 199.319 72.7341 199.426 72.7915C199.534 72.8489 199.369 72.9493 199.312 72.8417C199.312 83.0362 199.061 93.1447 199.061 103.332V123.821C199.061 124.977 198.128 125.909 196.973 125.916H151.732C149.939 125.924 147.959 126.268 146.223 126.139Z" fill="white"/>
</g>
<g opacity="0.19">
<path opacity="0.19" d="M136.674 36.2245C136.545 36.2173 136.064 36.8343 135.978 36.9204L111.033 62.0085C102.044 71.048 93.0621 80.109 84.0872 89.1772C83.9652 89.1556 83.8648 89.3422 83.7859 89.4426C83.707 89.5431 83.5778 89.6291 83.4702 89.5717C83.3626 89.5144 83.5276 89.4139 83.585 89.5215C83.585 79.327 83.8361 69.2186 83.8361 59.0384V38.5489C83.8361 37.3939 84.7687 36.4541 85.9238 36.4469H131.164C132.951 36.4397 134.931 36.0954 136.674 36.2245Z" fill="white"/>
</g>
<path d="M209.694 127.215C209.687 126.82 209.701 126.49 209.515 126.131C209.285 125.687 209.013 125.464 208.532 125.436C208.274 125.4 208.037 125.436 207.764 125.436H186.414C184.384 125.436 182.339 125.378 180.316 125.479C176.772 125.651 173.17 125.45 169.619 125.436C166.068 125.421 162.531 125.4 158.994 125.4H48.7269C43.0664 125.4 37.406 125.357 31.7456 125.357C30.5116 125.357 28.7324 124.926 27.8428 125.931C27.3837 126.454 27.19 127.129 27.1828 127.81C27.1684 129.532 28.1082 131.225 29.0552 132.603C29.8946 133.836 30.9062 134.948 32.0541 135.903C32.836 136.541 33.8763 137.323 34.9453 137.323H194.27C194.987 137.323 195.704 137.345 196.415 137.316C198.825 137.23 201.48 137.754 203.818 137.007C207.678 135.774 209.759 131.01 209.694 127.215Z" fill="#353F4C"/>
<path d="M200.632 137.331H113.645C108.852 137.331 100.078 126.498 107.253 125.838C110.725 125.522 114.326 125.838 117.806 125.838H175.357C181.104 125.838 186.843 125.866 192.59 125.866H206.916C207.512 125.866 208.15 125.838 208.48 126.39C210.016 128.93 207.828 132.818 206.185 134.777C204.857 136.355 203.107 137.18 201.062 137.316C200.912 137.323 200.768 137.331 200.632 137.331Z" fill="#0C758C"/>
<path d="M95.7171 48.88H147.658C149.968 48.88 151.848 50.7525 151.848 53.0625V114.531C151.848 116.841 149.975 118.721 147.658 118.721H95.7171C93.407 118.721 91.5273 116.848 91.5273 114.531V53.0625C91.5273 50.7525 93.3998 48.88 95.7171 48.88Z" fill="url(#paint0_linear_206_35026)"/>
<path d="M156.562 48.88H193.66C194.858 48.88 195.826 49.8485 195.826 51.0466V58.1491C195.826 59.3471 194.858 60.3157 193.66 60.3157H156.562C155.364 60.3157 154.396 59.3471 154.396 58.1491V51.0466C154.396 49.8485 155.364 48.88 156.562 48.88Z" fill="url(#paint1_linear_206_35026)"/>
<path d="M156.562 63.2642H193.66C194.858 63.2642 195.826 64.2327 195.826 65.4308V83.8684C195.826 85.0665 194.858 86.035 193.66 86.035H156.562C155.364 86.035 154.396 85.0665 154.396 83.8684V65.4308C154.396 64.2327 155.364 63.2642 156.562 63.2642Z" fill="url(#paint2_linear_206_35026)"/>
<path d="M191.559 69.6851H158.737C158.637 69.6851 158.558 69.6062 158.558 69.5058C158.558 69.4053 158.637 69.3264 158.737 69.3264H191.559C191.659 69.3264 191.738 69.4053 191.738 69.5058C191.738 69.6062 191.659 69.6851 191.559 69.6851Z" fill="white"/>
<path d="M191.559 74.8288H158.737C158.637 74.8288 158.558 74.7499 158.558 74.6494C158.558 74.549 158.637 74.4701 158.737 74.4701H191.559C191.659 74.4701 191.738 74.549 191.738 74.6494C191.738 74.7499 191.659 74.8288 191.559 74.8288Z" fill="white"/>
<path d="M191.559 80.4246H158.737C158.637 80.4246 158.558 80.3457 158.558 80.2453C158.558 80.1448 158.637 80.0659 158.737 80.0659H191.559C191.659 80.0659 191.738 80.1448 191.738 80.2453C191.738 80.3457 191.659 80.4246 191.559 80.4246Z" fill="white"/>
<path d="M212.061 141.097L158.032 142.087C154.589 142.151 151.74 139.404 151.676 135.96L151.138 106.582C151.073 103.138 153.821 100.29 157.265 100.225L211.293 99.2354C214.737 99.1708 217.585 101.919 217.65 105.362L218.188 134.74C218.252 138.191 215.512 141.032 212.061 141.097Z" fill="#91BBF9"/>
<path d="M207.398 138.564L161.691 139.404C158.247 139.468 155.399 136.721 155.335 133.277L154.89 109.136C154.825 105.692 157.573 102.844 161.017 102.779L206.723 101.94C210.167 101.876 213.015 104.623 213.08 108.067L213.524 132.208C213.589 135.652 210.841 138.5 207.398 138.564Z" fill="#78A1DD"/>
<path d="M211.207 135.071L203.782 135.207C201.981 135.243 200.489 133.808 200.46 132L200.403 128.757C200.367 126.957 201.802 125.464 203.61 125.436L211.035 125.299C212.836 125.263 214.328 126.698 214.357 128.506L214.414 131.749C214.443 133.55 213.008 135.035 211.207 135.071Z" fill="#5F8BC1"/>
<path d="M178.25 140.322L157.84 140.695C156.541 140.717 155.472 139.684 155.444 138.385C155.422 137.087 156.455 136.018 157.754 135.989L178.164 135.616C179.463 135.594 180.532 136.627 180.561 137.926C180.582 139.224 179.549 140.293 178.25 140.322Z" fill="#5F8BC1"/>
<path d="M211.623 107.658L191.213 108.031C189.914 108.053 188.845 107.02 188.817 105.721C188.795 104.422 189.828 103.354 191.127 103.325L211.537 102.952C212.836 102.93 213.905 103.963 213.934 105.262C213.955 106.568 212.922 107.636 211.623 107.658Z" fill="#5F8BC1"/>
<path d="M212.376 123.47L202.662 123.649C201.364 123.671 200.295 122.638 200.266 121.339C200.244 120.041 201.278 118.972 202.576 118.943L212.29 118.764C213.588 118.742 214.657 119.775 214.686 121.074C214.708 122.372 213.675 123.441 212.376 123.47Z" fill="#5F8BC1"/>
<path d="M197.025 123.692L187.312 123.872C186.013 123.893 184.944 122.86 184.915 121.561C184.894 120.263 185.927 119.194 187.225 119.165L196.939 118.986C198.238 118.964 199.307 119.997 199.335 121.296C199.357 122.602 198.324 123.671 197.025 123.692Z" fill="#5F8BC1"/>
<path d="M181.68 124.022L171.966 124.202C170.667 124.223 169.598 123.19 169.57 121.892C169.548 120.593 170.581 119.524 171.88 119.495L181.594 119.316C182.892 119.294 183.961 120.328 183.99 121.626C184.011 122.932 182.978 124.001 181.68 124.022Z" fill="#5F8BC1"/>
<path d="M166.326 124.252L156.612 124.431C155.314 124.453 154.245 123.42 154.216 122.121C154.195 120.823 155.228 119.754 156.526 119.725L166.24 119.546C167.539 119.524 168.608 120.557 168.636 121.856C168.658 123.161 167.625 124.23 166.326 124.252Z" fill="#5F8BC1"/>
<path d="M157.71 109.042C158.477 109.028 159.216 108.748 159.79 108.239C158.391 107.105 158.176 105.061 159.302 103.662C159.424 103.511 159.554 103.375 159.697 103.253C158.298 102.119 156.246 102.342 155.12 103.741C153.986 105.14 154.209 107.191 155.608 108.318C156.203 108.798 156.942 109.057 157.71 109.042Z" fill="#91BBF9"/>
<path d="M160.909 105.728C160.924 106.689 160.515 107.608 159.79 108.239C161.189 109.373 163.241 109.15 164.367 107.758C165.501 106.359 165.278 104.308 163.887 103.181C162.66 102.184 160.895 102.22 159.704 103.26C160.45 103.863 160.895 104.767 160.909 105.728Z" fill="#3E9B7C"/>
<path d="M159.793 108.227C160.434 108.215 160.934 107.088 160.909 105.71C160.884 104.331 160.343 103.223 159.701 103.235C159.059 103.246 158.56 104.374 158.585 105.752C158.61 107.131 159.151 108.239 159.793 108.227Z" fill="#5F8BC1"/>
<path d="M101.944 81.9743C101.248 81.0776 100.452 80.2597 99.5696 79.5423C96.3986 76.9452 92.9622 74.6064 89.7481 72.0524C82.7103 66.4566 75.8087 60.6957 68.8139 55.0568L66.4823 53.1772C64.3874 51.4625 61.3814 51.4195 59.2363 53.0695C52.0335 58.5291 44.7875 64.2469 37.4986 69.7208C33.768 72.5188 30.0087 75.2808 26.1849 77.9496C22.8919 80.2454 19.8788 82.6918 19.7998 87.068L19.7783 88.1872L58.2965 118.147C60.5205 119.876 63.6054 119.94 65.9012 118.312L104.29 90.9995L104.333 88.5961C104.383 86.1569 103.415 83.8755 101.944 81.9743Z" fill="#190E14"/>
<path d="M37.549 62.9843H88.9664C90.5232 62.9843 91.7858 64.2469 91.7858 65.8037V122.939C91.7858 124.496 90.5232 125.758 88.9664 125.758H37.549C35.9922 125.758 34.7295 124.496 34.7295 122.939V65.8037C34.7223 64.2469 35.985 62.9843 37.549 62.9843Z" fill="#FFFBF5"/>
<path d="M58.3332 116.504L19.815 86.5444L19.112 125.443C19.0115 131.146 23.5887 135.896 29.2993 136.003L93.0922 137.151C98.7956 137.252 103.545 132.674 103.653 126.964L104.327 89.3495L65.9379 116.662C63.6493 118.297 60.5572 118.233 58.3332 116.504Z" fill="url(#paint3_linear_206_35026)"/>
<path d="M58.3049 118.147L19.7867 88.1874L19.0837 127.086C18.9832 132.789 23.5603 137.539 29.271 137.646L93.0639 138.794C98.7673 138.895 103.517 134.317 103.624 128.607L104.299 90.9925L65.9096 118.305C63.621 119.94 60.5289 119.876 58.3049 118.147Z" fill="url(#paint4_linear_206_35026)"/>
<path d="M42.2487 68.9819H84.4832C85.3082 68.9819 85.9682 69.6491 85.9682 70.467V78.4519C85.9682 79.2769 85.301 79.9369 84.4832 79.9369H42.2487C41.4237 79.9369 40.7637 79.2697 40.7637 78.4519V70.467C40.7637 69.6491 41.4309 68.9819 42.2487 68.9819Z" fill="white"/>
<path d="M86.7855 85.0308H41.7101C41.5738 85.0308 41.459 84.916 41.459 84.7797C41.459 84.6434 41.5738 84.5286 41.7101 84.5286H86.7855C86.9218 84.5286 87.0366 84.6434 87.0366 84.7797C87.0366 84.916 86.929 85.0308 86.7855 85.0308Z" fill="white"/>
<path d="M86.7855 90.7197H41.7101C41.5738 90.7197 41.459 90.6049 41.459 90.4686C41.459 90.3323 41.5738 90.2175 41.7101 90.2175H86.7855C86.9218 90.2175 87.0366 90.3323 87.0366 90.4686C87.0366 90.6049 86.929 90.7197 86.7855 90.7197Z" fill="white"/>
<path d="M86.7855 96.0861H41.7101C41.5738 96.0861 41.459 95.9713 41.459 95.835C41.459 95.6986 41.5738 95.5839 41.7101 95.5839H86.7855C86.9218 95.5839 87.0366 95.6986 87.0366 95.835C87.0366 95.9713 86.929 96.0861 86.7855 96.0861Z" fill="white"/>
<path d="M197.103 161.737C197.103 160.553 197.125 159.369 197.032 158.186C197.024 158.078 197.003 157.949 196.903 157.899C196.852 157.877 196.802 157.87 196.752 157.877C196.479 157.884 196.214 157.963 195.956 157.971C195.719 157.978 195.453 157.913 195.217 157.899C194.671 157.863 194.133 157.856 193.588 157.798C193.308 157.77 192.921 157.834 192.663 157.698C192.268 157.49 192.275 157.024 192.067 156.694C192.024 156.636 191.967 156.586 191.902 156.543C191.572 156.32 191.371 156.191 191.149 155.854C190.948 155.553 190.776 155.187 190.539 154.922L187.856 150.811L185.13 146.635L182.525 142.646L180.215 139.102L178.357 136.254L177.604 135.099C177.503 134.927 177.382 134.769 177.245 134.626C177.102 134.489 176.98 134.332 176.836 134.195C176.478 133.844 175.968 133.55 175.459 133.55H64.7325C64.2518 133.55 63.7066 133.442 63.2546 133.657C63.0035 133.779 62.8026 133.987 62.6304 134.202C62.1928 134.748 61.8556 135.365 61.4969 135.96C61.1382 136.556 60.7006 137.115 60.306 137.689L59.8253 138.392L59.316 139.138L58.7779 139.92L58.2183 140.738L57.63 141.585L57.0274 142.46L56.4033 143.364L55.7648 144.289L55.1119 145.229L54.4519 146.191L53.7847 147.159L53.1103 148.135L52.4359 149.118L51.7544 150.1L51.08 151.083L50.4056 152.059L49.7384 153.028L49.0784 153.989C48.6264 154.649 48.1529 155.359 48.0453 156.177C48.0166 156.385 48.0166 156.6 47.9449 156.801C47.8373 157.081 47.5934 157.282 47.3279 157.425C46.8903 157.655 46.3953 157.741 45.9074 157.806C44.4152 157.999 42.9086 157.971 41.4092 157.971C41.4092 159.951 40.9572 162.562 42.2271 164.219C43.2817 165.59 45.2115 165.998 46.8616 165.998H190.704C192.067 165.998 193.566 166.056 194.851 165.468C196.321 164.793 197.103 163.344 197.103 161.737Z" fill="#0C758C"/>
<path d="M195.452 159.197C195.803 159.197 196.191 159.205 196.514 159.054C196.671 158.982 196.786 158.81 196.879 158.667C196.923 158.602 196.958 158.537 196.987 158.458C197.102 158.085 196.815 157.777 196.628 157.483L195.072 155.108L192.977 151.901L190.502 148.113L187.818 144.002L185.092 139.827L182.488 135.838L180.171 132.294L178.306 129.446L177.552 128.291C177.452 128.119 177.33 127.961 177.194 127.818C177.05 127.681 176.928 127.523 176.785 127.387C176.426 127.036 175.917 126.741 175.4 126.741H64.5086C64.0279 126.741 63.4827 126.634 63.0235 126.849C62.7724 126.971 62.5716 127.179 62.3922 127.394C61.9474 127.939 61.6174 128.549 61.2587 129.152C60.9 129.755 60.4623 130.307 60.0606 130.881L59.5727 131.584L59.0562 132.33L58.5181 133.112L57.9514 133.93L57.3631 134.776L56.7605 135.652L56.1363 136.556L55.4978 137.481L54.845 138.421L54.1849 139.382L53.5177 140.351L52.8434 141.327L52.1618 142.309L51.4803 143.292L50.7987 144.275L50.1243 145.251L49.4571 146.219L48.7971 147.181L48.1443 148.128L47.5058 149.06L46.8816 149.964L46.2718 150.847L45.6835 151.7L45.1168 152.525L44.5715 153.315L44.055 154.068L43.5671 154.778L43.108 155.445L42.6847 156.062L42.2973 156.629L41.9458 157.138C41.6516 157.562 41.3073 158.006 41.4221 158.559C41.4866 158.86 41.7234 159.183 42.0534 159.183L195.452 159.197Z" fill="#075F73"/>
<path d="M173.026 131.34C172.646 130.687 172.266 129.97 171.677 129.503C170.967 128.936 169.956 129.173 169.116 129.173H69.1799C68.7279 129.173 68.3333 129.137 67.9244 129.338C67.042 129.769 66.5613 130.587 66.0376 131.368L65.5641 132.079C65.3991 132.33 65.2341 132.574 65.0691 132.825L64.5525 133.6L64.0216 134.396L63.4692 135.214L62.9097 136.053L62.3357 136.907L61.7546 137.775L61.1663 138.657L60.5709 139.547L59.9682 140.444L59.3656 141.341L58.763 142.237L58.1675 143.127L57.5721 144.009L56.9838 144.885L56.4098 145.746L55.8431 146.592L55.2907 147.417C55.1113 147.683 54.932 147.948 54.7526 148.221L54.2289 148.995L53.7267 149.742C53.5689 149.978 53.4039 150.222 53.246 150.459L52.7869 151.141L52.3564 151.786L51.9475 152.389L51.5744 152.948L51.2301 153.465L50.9216 153.931C50.6633 154.319 50.3548 154.72 50.4624 155.223C50.5198 155.502 50.7279 155.797 51.022 155.797H186.535C186.686 155.797 186.844 155.797 187.002 155.782C187.353 155.754 187.669 155.553 187.848 155.244C187.87 155.208 187.884 155.172 187.898 155.129C187.999 154.792 187.748 154.512 187.583 154.247C187.123 153.522 186.664 152.805 186.212 152.088L184.361 149.168L182.173 145.724L179.799 141.986L177.388 138.184L175.085 134.554C174.468 133.585 173.844 132.624 173.234 131.655C173.155 131.562 173.091 131.455 173.026 131.34Z" fill="#C2C2C2"/>
<path d="M158.873 132.804C158.571 132.265 158.277 131.677 157.825 131.29C157.273 130.823 156.484 131.017 155.831 131.017H77.9118C77.5603 131.017 77.2518 130.988 76.929 131.153C76.2402 131.512 75.8672 132.187 75.4583 132.832C75.3363 133.026 75.2072 133.227 75.0852 133.421L74.6978 134.038L74.296 134.676C74.1597 134.898 74.0162 135.114 73.8799 135.336C73.7436 135.558 73.6001 135.781 73.4495 136.01L73.0119 136.706L72.5671 137.417L72.1151 138.134L71.6559 138.866L71.1896 139.597L70.7233 140.336L70.257 141.075L69.7906 141.814C69.6328 142.058 69.4822 142.302 69.3243 142.553C69.1665 142.804 69.0158 143.041 68.8652 143.285L68.406 144.01L67.9541 144.72C67.8106 144.949 67.6599 145.186 67.5164 145.416L67.086 146.097C66.9425 146.32 66.8062 146.542 66.6699 146.757C66.5336 146.973 66.3973 147.195 66.261 147.396L65.8735 148.013C65.7516 148.214 65.6224 148.407 65.5005 148.608C65.3857 148.795 65.2637 148.989 65.1418 149.175L64.8046 149.706L64.4889 150.208C64.3957 150.366 64.2952 150.517 64.1948 150.674L63.9222 151.098L63.6782 151.485C63.4774 151.801 63.2334 152.138 63.3195 152.554C63.3626 152.784 63.5276 153.028 63.7572 153.028H169.404C169.519 153.028 169.648 153.028 169.77 153.013C170.05 152.985 170.301 152.82 170.43 152.568C170.444 152.54 170.459 152.511 170.466 152.475C170.545 152.195 170.351 151.966 170.222 151.743L169.153 149.957L167.711 147.546L166.004 144.698L164.153 141.613L162.273 138.471L160.48 135.472C159.999 134.669 159.511 133.88 159.038 133.076C158.973 132.983 158.923 132.897 158.873 132.804Z" fill="white"/>
<g opacity="0.62">
<path opacity="0.62" d="M149.056 133.937C148.812 133.499 148.582 133.026 148.209 132.717C147.764 132.337 147.133 132.495 146.602 132.495H83.864C83.5842 132.495 83.3331 132.473 83.0749 132.61C82.5224 132.897 82.2211 133.442 81.8911 133.959L81.5898 134.432C81.4822 134.597 81.3818 134.762 81.2741 134.927L80.9513 135.444L80.6141 135.974L80.2698 136.52L79.9182 137.079C79.7963 137.273 79.6815 137.46 79.5595 137.646L79.1936 138.227L78.8206 138.815L78.4475 139.411C78.3256 139.612 78.1964 139.806 78.0745 140.006C77.9525 140.207 77.8234 140.401 77.6942 140.602L77.314 141.197L76.9409 141.793L76.5679 142.381L76.202 142.962L75.8433 143.536L75.4918 144.096L75.1474 144.641L74.8102 145.172L74.4802 145.688L74.1645 146.183L73.8632 146.657C73.77 146.808 73.6695 146.958 73.5762 147.109L73.3036 147.539C73.2175 147.676 73.1314 147.812 73.0454 147.941C72.9664 148.063 72.8875 148.192 72.8086 148.314L72.5934 148.658L72.3997 148.967C72.2347 149.225 72.0481 149.491 72.1127 149.828C72.1486 150.014 72.2777 150.208 72.4642 150.208H157.536C157.629 150.208 157.729 150.208 157.83 150.201C158.052 150.179 158.253 150.043 158.361 149.842C158.375 149.821 158.382 149.792 158.389 149.77C158.454 149.548 158.296 149.354 158.189 149.182C157.902 148.701 157.615 148.221 157.328 147.74L156.165 145.796C155.706 145.028 155.247 144.268 154.795 143.5L153.303 141.011L151.789 138.485C151.309 137.682 150.828 136.878 150.347 136.075C149.96 135.429 149.565 134.791 149.185 134.145C149.135 134.088 149.092 134.016 149.056 133.937Z" fill="#FFBECC"/>
</g>
<path d="M64.9908 160.661H82.1586C82.6321 160.661 83.0195 161.048 83.0195 161.522V163.193C83.0195 163.667 82.6321 164.054 82.1586 164.054H64.9908C64.5173 164.054 64.1299 163.667 64.1299 163.193V161.522C64.1299 161.048 64.5173 160.661 64.9908 160.661Z" fill="#000714"/>
<path d="M153.864 75.8691H87.1006C81.1317 75.8691 76.2461 80.6471 76.2461 86.4941V127.48C76.2461 133.32 81.1317 138.105 87.1006 138.105H153.864C159.833 138.105 164.718 133.327 164.718 127.48V86.4941C164.718 80.6471 159.833 75.8691 153.864 75.8691Z" fill="#CE4141"/>
<path d="M103.989 76.1203V55.4156C110.281 54.5331 115.117 49.1238 115.117 42.5953C115.117 35.4426 109.32 29.6459 102.167 29.6459C95.0145 29.6459 89.2178 35.4426 89.2178 42.5953C89.2178 48.9301 93.8021 54.3394 100.051 55.3725V76.2207C100.051 91.2937 109.478 104.049 122.133 107.636V102.837C111.68 99.4579 103.989 88.7325 103.989 76.1203ZM93.4362 42.4016C93.4362 37.4586 97.4394 33.4482 102.382 33.4482C107.325 33.4482 111.336 37.4514 111.336 42.3944C111.336 47.3374 107.333 51.3478 102.39 51.3478C97.4466 51.3478 93.4362 47.3374 93.4362 42.4016C93.4362 42.3944 93.4362 42.3944 93.4362 42.4016Z" fill="#0C758C"/>
<path d="M119.894 117.601L79.0303 87.6346V127.48C79.0303 133.32 83.9159 138.105 89.8848 138.105H156.648C162.617 138.105 167.502 133.327 167.502 127.48V88.9547L127.858 117.63C125.476 119.345 122.262 119.33 119.894 117.601Z" fill="#DB5470"/>
<path d="M156.648 75.8691H89.8848C83.9159 75.8691 79.0303 80.6471 79.0303 86.4941V87.642L119.894 117.601C122.262 119.33 125.476 119.338 127.858 117.63L167.502 88.962V86.5013C167.502 80.6472 162.617 75.8691 156.648 75.8691Z" fill="#CE415E"/>
<path d="M129.629 100.032C133.374 99.336 136.911 97.7362 139.953 95.4619C143.066 93.1375 145.656 90.1387 147.579 86.7597C148.59 84.9805 149.25 83.1223 150.032 81.2499C150.664 79.729 151.18 78.1506 151.489 76.5293C151.797 74.8936 151.711 73.2865 151.84 71.6365C151.833 71.6867 151.266 72.0526 151.173 72.1387C150.613 72.6911 150.248 73.4013 149.709 73.9681C148.468 75.2953 146.84 76.4073 145.01 76.6943C144.594 76.7588 143.073 77.0028 142.743 76.723C143.583 77.4332 144.372 78.2009 145.104 79.0187C145.477 79.4348 145.878 79.9442 145.914 80.5253C145.943 81.0131 145.67 81.4938 145.484 81.9314C145.082 82.8641 144.623 83.768 144.114 84.6433C142.148 88.0295 139.386 90.9709 136.05 93.0371C132.764 95.0674 128.955 96.2009 125.08 96.2009C122.943 96.2009 120.826 95.8637 118.796 95.2108V99.5225C122.326 100.527 126.035 100.699 129.629 100.032Z" fill="#0C758C"/>
<path d="M100.99 27.6443H104.334C105.08 27.6443 105.682 28.2469 105.682 28.993V33.0321C105.682 33.7782 105.08 34.3808 104.334 34.3808H100.99C100.244 34.3808 99.6416 33.7782 99.6416 33.0321V28.993C99.6416 28.2469 100.244 27.6443 100.99 27.6443Z" fill="#DF5852"/>
<path d="M131.854 51.972C136.059 57.5535 138.691 64.1394 141.274 70.6321C146.626 61.5209 151.713 52.259 157.818 43.6284C156.541 44.0517 155.142 43.7791 153.829 43.4491C150.895 42.703 148.039 41.6771 145.299 40.3785C145.105 40.2853 144.89 40.192 144.682 40.2351C144.474 40.2781 144.338 40.4431 144.201 40.6009C142.221 42.9325 140.356 45.7089 138.031 47.7177C136.137 49.3534 134.064 50.7811 131.854 51.972Z" fill="white"/>
<path d="M143.162 43.9276L143.119 44.1384L153.535 46.2712L153.579 46.0604L143.162 43.9276Z" fill="#190E14"/>
<path d="M151.827 48.5209C148.663 47.7174 145.434 47 142.228 46.3902L142.271 46.1821C145.485 46.7919 148.713 47.5093 151.877 48.3129L151.827 48.5209Z" fill="#190E14"/>
<path d="M146.503 49.7051C144.76 49.3105 143.016 48.8514 141.302 48.3492L141.366 48.1411C143.074 48.6433 144.817 49.1025 146.553 49.497L146.503 49.7051Z" fill="#190E14"/>
<path d="M30.769 19.2937C30.6111 21.159 30.5753 23.053 30.7618 24.8752C30.9483 26.6974 31.4577 28.4695 32.4836 29.8828C33.6386 29.0577 34.9587 28.491 36.3577 28.2184C34.4637 26.5253 32.9571 24.4448 31.9384 22.1203C31.5223 21.1805 30.9483 20.0254 30.7977 18.978C30.6255 17.7225 31.0488 16.051 31.2425 14.7524C31.7518 11.3877 32.8064 7.85086 35.2744 5.28967C35.7192 8.65437 38.474 10.8927 41.0639 12.8441C44.1703 15.19 47.3772 17.5862 51.2656 18.5332C48.3314 19.5161 45.7917 21.8549 44.156 24.5811C42.4629 27.4005 41.9966 30.3061 41.3365 33.3264C32.0316 35.0554 30.3457 26.927 30.769 19.2937Z" fill="white"/>
<path d="M45.6402 18.978C43.3731 17.8229 41.1778 16.5244 39.0686 15.0968C37.7486 14.2072 36.2563 13.131 35.252 11.6675L35.4313 11.5455C36.4142 12.9804 37.8921 14.0421 39.1906 14.9174C41.2926 16.3379 43.4807 17.6292 45.7406 18.7843L45.6402 18.978Z" fill="#190E14"/>
<path d="M44.1644 20.5921C40.3047 19.0711 36.8037 16.7682 33.8838 13.8268L34.0344 13.6761C36.9328 16.596 40.4051 18.8846 44.2361 20.3912L44.1644 20.5921Z" fill="#190E14"/>
<path d="M42.979 22.1704C39.4565 20.592 36.1492 18.5617 33.1504 16.1225L33.2867 15.9575C36.2712 18.3824 39.5569 20.4055 43.0651 21.9767L42.979 22.1704Z" fill="#190E14"/>
<path d="M42.4004 23.8134C39.0429 22.4575 35.2405 20.9151 32.5 18.2248L32.6507 18.0741C35.3625 20.7357 39.1433 22.271 42.4793 23.6197L42.4004 23.8134Z" fill="#190E14"/>
<path d="M30.9205 26.977C31.107 27.6728 31.3653 28.3472 31.7025 28.9857C31.846 29.2512 32.011 29.5166 32.2549 29.7031C32.7284 30.0547 33.3525 29.8825 33.8189 29.6171L36.459 28.0961C35.2896 26.8191 34.3211 25.3915 33.3525 23.971C32.6997 23.0096 32.0397 22.0411 31.602 20.9722C31.2792 20.1758 31.107 19.3221 30.8918 18.4971C30.3753 19.3436 30.3681 20.3839 30.3753 21.3667C30.3896 23.2464 30.4326 25.1762 30.9205 26.977Z" fill="#C2C2C2"/>
<path d="M201.9 74.0395C206.104 79.621 208.737 86.2069 211.32 92.6996C216.672 83.5884 221.759 74.3265 227.864 65.6959C226.58 66.1192 225.188 65.8466 223.875 65.5166C220.941 64.7705 218.085 63.7446 215.345 62.446C215.151 62.3528 214.936 62.2595 214.728 62.3026C214.527 62.3456 214.383 62.5106 214.254 62.6684C212.274 65 210.409 67.7765 208.085 69.7852C206.183 71.4209 204.11 72.8486 201.9 74.0395Z" fill="white"/>
<path d="M212.785 86.0924C210.984 81.6013 208.358 77.4834 205.051 73.9537L205.209 73.8102C208.537 77.3614 211.17 81.5009 212.985 86.0135L212.785 86.0924Z" fill="#190E14"/>
<path d="M214.918 81.9529C212.615 78.6313 210.032 75.5033 207.198 72.6193L207.349 72.4686C210.19 75.367 212.78 78.4949 215.09 81.8309L214.918 81.9529Z" fill="#190E14"/>
<path d="M216.675 78.875C214.401 76.0053 211.969 73.2576 209.394 70.6533L209.544 70.5027C212.127 73.1141 214.559 75.869 216.84 78.7386L216.675 78.875Z" fill="#190E14"/>
<path d="M218.928 76.2638C216.732 73.0713 214.071 70.467 211.244 68.738L211.359 68.5515C214.214 70.302 216.897 72.9206 219.107 76.1418L218.928 76.2638Z" fill="#190E14"/>
<path d="M21.2212 57.288C14.8506 61.9081 7.37506 64.7635 0 67.5686C10.2232 73.6738 20.6258 79.4849 30.3038 86.4295C29.8446 84.9947 30.1674 83.4307 30.562 81.9743C31.4445 78.7029 32.6497 75.5176 34.1491 72.4829C34.2567 72.2677 34.3643 72.0309 34.3141 71.7942C34.2639 71.5718 34.0846 71.4068 33.9052 71.2561C31.2938 69.0106 28.1802 66.8942 25.949 64.2684C24.1196 62.1162 22.5341 59.7774 21.2212 57.288Z" fill="white"/>
<path d="M8.54436 68.5372L8.49414 68.3291C12.7628 67.2386 16.8377 65.5025 20.5755 63.1637L20.6903 63.3502C16.931 65.689 12.8345 67.4395 8.54436 68.5372Z" fill="#190E14"/>
<path d="M12.5467 71.5574L12.4678 71.3565C16.1123 69.9503 19.5846 68.1281 22.8058 65.9185L22.9277 66.0978C19.6922 68.3146 16.2055 70.1512 12.5467 71.5574Z" fill="#190E14"/>
<path d="M17.8994 74.7715L17.7344 74.6351C18.6598 73.4873 19.7288 72.4255 20.769 71.4068C22.1608 70.0365 23.5957 68.616 24.679 66.9659L24.8583 67.0807C23.7607 68.7451 22.3187 70.1728 20.9197 71.5574C19.8795 72.5762 18.8105 73.6308 17.8994 74.7715Z" fill="#190E14"/>
<path d="M154.754 102.629C155.701 100.914 156.77 99.2428 157.975 97.7649C159.18 96.287 160.622 95.0244 162.28 94.3715C162.746 95.7274 163.506 96.9686 164.504 98.0016C161.993 98.3962 159.553 99.3647 157.351 100.821C156.461 101.409 155.328 102.084 154.596 102.916C153.728 103.913 153.111 105.606 152.523 106.84C150.995 110.054 149.818 113.727 150.356 117.343C152.673 114.667 156.232 114.266 159.482 114.022C163.392 113.727 167.409 113.448 171.147 114.818C169.303 112.307 168.571 108.849 168.808 105.549C169.052 102.141 170.343 99.3504 171.556 96.3444C164.898 89.615 158.814 95.7418 154.754 102.629Z" fill="#C2C2C2"/>
<path d="M153.548 113.218L153.477 113.017C157.996 111.489 162.789 110.951 167.531 111.439L167.509 111.654C162.796 111.159 158.032 111.697 153.548 113.218Z" fill="#190E14"/>
<path d="M154.158 110.972L154.101 110.764C157.917 109.652 161.899 109.193 165.866 109.423L165.852 109.638C161.906 109.416 157.953 109.868 154.158 110.972Z" fill="#190E14"/>
<path d="M155.053 108.067L154.996 107.859C158.382 106.991 161.89 106.711 165.37 107.041L165.348 107.256C161.898 106.934 158.411 107.206 155.053 108.067Z" fill="#190E14"/>
<path d="M155.743 105.319L155.649 105.125C157.508 104.272 159.645 104.293 161.532 104.307L165.134 104.343V104.559L161.532 104.523C159.667 104.508 157.558 104.487 155.743 105.319Z" fill="#190E14"/>
<path d="M156.525 98.5539C157.422 97.2913 158.52 96.1793 159.775 95.2681C160.406 94.8018 161.102 94.4216 161.841 94.1346C162.135 94.027 162.609 93.8118 162.925 93.8261C163.24 93.8405 163.269 94.1848 163.29 94.4574C163.405 95.7775 163.929 97.033 164.776 98.0589L163.018 98.5324C162.645 98.6328 162.272 98.7333 161.913 98.8624C161.533 98.9987 161.16 99.1565 160.794 99.3287C159.424 99.9744 158.118 100.742 156.891 101.632C156.281 102.076 155.686 102.543 155.119 103.045C154.954 103.188 154.624 103.633 154.351 103.511C154.129 103.404 154.244 103.095 154.308 102.916C154.825 101.352 155.571 99.8883 156.525 98.5539Z" fill="white"/>
<defs>
<linearGradient id="paint0_linear_206_35026" x1="121.688" y1="48.88" x2="121.688" y2="118.721" gradientUnits="userSpaceOnUse">
<stop stop-color="#298BE7"/>
<stop offset="1" stop-color="#70EFEE"/>
</linearGradient>
<linearGradient id="paint1_linear_206_35026" x1="175.111" y1="48.88" x2="175.111" y2="60.3157" gradientUnits="userSpaceOnUse">
<stop stop-color="#298BE7"/>
<stop offset="1" stop-color="#70EFEE"/>
</linearGradient>
<linearGradient id="paint2_linear_206_35026" x1="175.111" y1="63.2642" x2="175.111" y2="86.035" gradientUnits="userSpaceOnUse">
<stop stop-color="#298BE7"/>
<stop offset="1" stop-color="#70EFEE"/>
</linearGradient>
<linearGradient id="paint3_linear_206_35026" x1="61.7186" y1="86.5444" x2="61.7186" y2="137.153" gradientUnits="userSpaceOnUse">
<stop stop-color="#298BE7"/>
<stop offset="1" stop-color="#70EFEE"/>
</linearGradient>
<linearGradient id="paint4_linear_206_35026" x1="61.6903" y1="88.1874" x2="61.6903" y2="138.796" gradientUnits="userSpaceOnUse">
<stop stop-color="#298BE7"/>
<stop offset="1" stop-color="#70EFEE"/>
</linearGradient>
</defs>
</svg>
