<svg width="228" height="166" fill="none" xmlns="http://www.w3.org/2000/svg"><path d="M81.792 19.114c-2.604.208-5.423-.107-7.525-.057-7.562.186-15.116.315-22.67.516-3.351.086-6.013-2.21-6.601-5.43-.94-5.152 5.976-11.465 10.144-6.22-.803-1.012.38-3.372.947-4.27C57.321 1.696 59.308.556 61.583.175c4.957-.832 10.237 1.313 11.5 6.486 1.7-3.315 6.363-4.441 9.663-2.942 3.444 1.572 5.668 5.295 5.905 8.96.093 1.486-.258 3.05-1.248 4.183-1.32 1.514-3.387 2.074-5.61 2.253zm-.811 18.861c-1.6.13-3.336-.064-4.627-.036-4.65.115-9.29.194-13.94.316-2.059.057-3.694-1.356-4.06-3.336-.581-3.171 3.673-7.045 6.234-3.824-.495-.624.23-2.073.581-2.626.76-1.205 1.98-1.9 3.38-2.138 3.048-.509 6.291.804 7.066 3.99 1.04-2.038 3.91-2.734 5.94-1.809 2.116.969 3.487 3.258 3.63 5.51.058.919-.158 1.88-.767 2.576-.804.918-2.067 1.262-3.437 1.377z" fill="#E1F1FF"/><path d="M162.681 44.044c2.762 1.206 5.746 2.024 8.594 2.877 4.7 1.4 9.478 2.44 14.256 3.501 1.305.294 2.41.029 2.977-1.327.452-1.069.208-2.367-.825-2.999-.632-.387-1.385-.516-2.117-.645a108.106 108.106 0 01-12.404-3c-.94-.286-11.629-4.031-11.507-4.297a22.664 22.664 0 00-.94 2.44c-.05.165-.653 2.145-.832 2.037.904.531 1.836.997 2.798 1.413zm-2.309 8.832c.531.237.954.416 1.091.473 2.03.89 4.096 1.694 6.198 2.41 5.288 1.794 10.754 2.677 16.135 4.054 2.109.538 2.138-1.17 2.439-2.826.237-1.299-.724-1.715-1.872-2.01-3.975-1.018-7.999-1.857-11.96-2.926-4.828-1.306-9.484-3.042-13.925-5.345a23.664 23.664 0 00-1.435 3.967c-.136.567 1.966 1.593 3.329 2.203zm-2.317 9.083c1.85.94 3.773 1.75 5.739 2.417 5.832 2.016 11.974 3.135 17.971 4.563.416.108.84.194 1.263.258-.072-.007.545-1.915.617-2.087.244-.61.66-1.227.696-1.901.043-.804-1.048-.84-1.672-1.026-2.396-.725-4.85-1.163-7.289-1.73-2.496-.588-4.986-1.233-7.425-2.03-4.34-1.42-8.243-3.544-12.189-5.804-.653 1.378-1.299 2.762-1.951 4.14-.395.846 3.436 2.783 3.945 3.049.108.05.201.1.295.15z" fill="#fff"/><path d="M87.28 33.383h110.698c5.826 0 10.546 4.721 10.546 10.547v79.733c0 5.826-4.72 10.547-10.546 10.547H87.28c-5.825 0-10.546-4.721-10.546-10.547V43.93c0-5.826 4.721-10.547 10.546-10.547z" fill="#0C758C"/><path d="M124.047 50.4l-10.589 11.587L96.893 80.11c-1.736 1.428-3.236 3.537-4.77 5.223-1.508 1.65-3.136 3.157-4.664 4.814-.237.258-.596.516-.825.251l-9.054 9.908c-.13.459-.696.387-.933.107-.236-.28-.028-1.672-.028-2.059v-14.04c0-13.91.115-27.807.115-41.732v-.574c0-4.756 3.522-8.616 7.87-8.616h36.674c3.451 0 6.902.007 10.352.014 2.655 0 5.309-.014 7.964-.014-.66 0-1.048.954-1.406 1.428-2.153 2.884-4.807 5.33-7.196 7.984-2.038 2.26-4.061 4.535-6.141 6.744-.259.28-.538.56-.804.854z" fill="#075F73"/><path d="M87.524 36.476h108.129a3.671 3.671 0 013.673 3.673v81.836a3.671 3.671 0 01-3.673 3.673H87.523a3.671 3.671 0 01-3.672-3.673V40.149a3.671 3.671 0 013.673-3.673z" fill="#4EA0B1"/><path d="M199.326 39.41a2.933 2.933 0 00-2.934-2.934H86.785a2.933 2.933 0 00-2.934 2.934v6.35h115.482v-6.35h-.007z" fill="#075F73"/><path d="M181.026 42.66a1.8 1.8 0 100-3.601 1.8 1.8 0 000 3.6zm5.674 0a1.8 1.8 0 100-3.601 1.8 1.8 0 000 3.6zm5.667 0a1.8 1.8 0 100-3.601 1.8 1.8 0 000 3.6z" fill="#0C758C"/><path opacity=".19" d="M146.223 126.139c.129.007.609-.61.696-.696 8.314-8.365 16.629-16.723 24.944-25.088 8.989-9.047 17.972-18.1 26.946-27.169.122.022.223-.165.302-.265.079-.1.208-.187.315-.13.108.058-.057.158-.114.05 0 10.195-.251 20.304-.251 30.491v20.489a2.095 2.095 0 01-2.088 2.095h-45.241c-1.793.008-3.773.352-5.509.223zm-9.549-89.915c-.129-.007-.61.61-.696.696l-24.945 25.088c-8.989 9.04-17.97 18.101-26.946 27.17-.122-.022-.222.164-.301.265-.079.1-.208.186-.316.129-.107-.058.058-.158.115-.05 0-10.195.251-20.303.251-30.484v-20.49c0-1.154.933-2.094 2.088-2.101h45.24c1.787-.007 3.767-.352 5.51-.223z" fill="#fff"/><path d="M209.694 127.215c-.007-.395.007-.725-.179-1.084-.23-.444-.502-.667-.983-.695-.258-.036-.495 0-.768 0h-21.35c-2.03 0-4.075-.058-6.098.043-3.544.172-7.146-.029-10.697-.043-3.551-.015-7.088-.036-10.625-.036H48.727c-5.66 0-11.321-.043-16.981-.043-1.234 0-3.014-.431-3.903.574-.46.523-.653 1.198-.66 1.879-.015 1.722.925 3.415 1.872 4.793a16.038 16.038 0 003 3.3c.781.638 1.821 1.42 2.89 1.42H194.27c.717 0 1.434.022 2.145-.007 2.41-.086 5.065.438 7.403-.309 3.86-1.233 5.941-5.997 5.876-9.792z" fill="#353F4C"/><path d="M200.632 137.331h-86.987c-4.793 0-13.567-10.833-6.392-11.493 3.472-.316 7.073 0 10.553 0h57.551c5.747 0 11.486.028 17.233.028h14.326c.596 0 1.234-.028 1.564.524 1.536 2.54-.652 6.428-2.295 8.387-1.328 1.578-3.078 2.403-5.123 2.539-.15.007-.294.015-.43.015z" fill="#0C758C"/><path d="M95.717 48.88h51.941c2.31 0 4.19 1.872 4.19 4.182v61.469a4.19 4.19 0 01-4.19 4.19h-51.94a4.19 4.19 0 01-4.19-4.19V53.062a4.184 4.184 0 014.19-4.182z" fill="url(#paint0_linear_206_35026)"/><path d="M156.562 48.88h37.098c1.198 0 2.166.968 2.166 2.167v7.102a2.164 2.164 0 01-2.166 2.167h-37.098a2.164 2.164 0 01-2.166-2.167v-7.102c0-1.198.968-2.167 2.166-2.167z" fill="url(#paint1_linear_206_35026)"/><path d="M156.562 63.264h37.098c1.198 0 2.166.969 2.166 2.167v18.437a2.164 2.164 0 01-2.166 2.167h-37.098a2.164 2.164 0 01-2.166-2.167V65.431c0-1.198.968-2.167 2.166-2.167z" fill="url(#paint2_linear_206_35026)"/><path d="M191.559 69.685h-32.822a.178.178 0 01-.179-.18c0-.1.079-.179.179-.179h32.822c.1 0 .179.08.179.18 0 .1-.079.18-.179.18zm0 5.144h-32.822a.178.178 0 01-.179-.18c0-.1.079-.179.179-.179h32.822c.1 0 .179.079.179.18 0 .1-.079.179-.179.179zm0 5.596h-32.822a.178.178 0 01-.179-.18c0-.1.079-.18.179-.18h32.822c.1 0 .179.08.179.18 0 .1-.079.18-.179.18z" fill="#fff"/><path d="M212.061 141.097l-54.029.99a6.247 6.247 0 01-6.356-6.127l-.538-29.378a6.247 6.247 0 016.127-6.357l54.028-.99a6.248 6.248 0 016.357 6.127l.538 29.378a6.239 6.239 0 01-6.127 6.357z" fill="#91BBF9"/><path d="M207.398 138.564l-45.707.84a6.246 6.246 0 01-6.356-6.127l-.445-24.141a6.247 6.247 0 016.127-6.357l45.706-.839a6.248 6.248 0 016.357 6.127l.444 24.141a6.246 6.246 0 01-6.126 6.356z" fill="#78A1DD"/><path d="M211.207 135.071l-7.425.136A3.258 3.258 0 01200.46 132l-.057-3.243a3.258 3.258 0 013.207-3.321l7.425-.137a3.258 3.258 0 013.322 3.207l.057 3.243a3.272 3.272 0 01-3.207 3.322zm-32.957 5.251l-20.41.373a2.358 2.358 0 01-2.396-2.31 2.36 2.36 0 012.31-2.396l20.41-.373a2.36 2.36 0 012.397 2.31 2.36 2.36 0 01-2.311 2.396zm33.373-32.664l-20.41.373a2.358 2.358 0 01-2.396-2.31 2.359 2.359 0 012.31-2.396l20.41-.373a2.36 2.36 0 012.397 2.31 2.351 2.351 0 01-2.311 2.396zm.753 15.812l-9.714.179a2.36 2.36 0 01-2.396-2.31 2.36 2.36 0 012.31-2.396l9.714-.179a2.36 2.36 0 012.396 2.31 2.36 2.36 0 01-2.31 2.396zm-15.351.222l-9.713.18a2.36 2.36 0 01-2.397-2.311 2.36 2.36 0 012.31-2.396l9.714-.179a2.358 2.358 0 012.396 2.31 2.35 2.35 0 01-2.31 2.396zm-15.345.33l-9.714.18a2.36 2.36 0 01-2.396-2.31 2.36 2.36 0 012.31-2.397l9.714-.179a2.36 2.36 0 012.396 2.31 2.35 2.35 0 01-2.31 2.396zm-15.354.23l-9.714.179a2.36 2.36 0 01-2.396-2.31 2.36 2.36 0 012.31-2.396l9.714-.179a2.358 2.358 0 012.396 2.31 2.35 2.35 0 01-2.31 2.396z" fill="#5F8BC1"/><path d="M157.71 109.042a3.219 3.219 0 002.08-.803 3.258 3.258 0 01-.093-4.986 3.25 3.25 0 00-4.577.488 3.25 3.25 0 00.488 4.577 3.24 3.24 0 002.102.724z" fill="#91BBF9"/><path d="M160.909 105.728a3.261 3.261 0 01-1.119 2.511 3.255 3.255 0 004.097-5.058 3.246 3.246 0 00-4.183.079 3.238 3.238 0 011.205 2.468z" fill="#3E9B7C"/><path d="M159.793 108.227c.641-.012 1.141-1.139 1.116-2.517-.025-1.379-.566-2.487-1.208-2.475-.642.011-1.141 1.139-1.116 2.517.025 1.379.566 2.487 1.208 2.475z" fill="#5F8BC1"/><path d="M101.944 81.974a14.938 14.938 0 00-2.374-2.432c-3.171-2.597-6.608-4.936-9.822-7.49-7.038-5.595-13.94-11.356-20.934-16.995l-2.332-1.88a5.833 5.833 0 00-7.246-.108C52.033 58.53 44.788 64.248 37.5 69.721c-3.731 2.798-7.49 5.56-11.314 8.229-3.293 2.295-6.306 4.742-6.385 9.118l-.022 1.12 38.519 29.959a6.373 6.373 0 007.604.165l38.389-27.313.043-2.403c.05-2.44-.918-4.72-2.389-6.622z" fill="#190E14"/><path d="M37.549 62.984h51.417a2.82 2.82 0 012.82 2.82v57.135a2.82 2.82 0 01-2.82 2.819H37.55a2.82 2.82 0 01-2.82-2.819V65.804a2.81 2.81 0 012.82-2.82z" fill="#FFFBF5"/><path d="M58.333 116.504l-38.518-29.96-.703 38.899c-.1 5.703 4.477 10.453 10.187 10.56l63.793 1.148c5.704.101 10.453-4.477 10.561-10.187l.674-37.614-38.39 27.312a6.363 6.363 0 01-7.604-.158z" fill="url(#paint3_linear_206_35026)"/><path d="M58.305 118.147l-38.518-29.96-.703 38.899c-.1 5.703 4.476 10.453 10.187 10.56l63.793 1.148c5.703.101 10.453-4.477 10.56-10.187l.675-37.614-38.39 27.312a6.363 6.363 0 01-7.604-.158z" fill="url(#paint4_linear_206_35026)"/><path d="M42.249 68.982h42.234c.825 0 1.485.667 1.485 1.485v7.985c0 .825-.667 1.485-1.485 1.485H42.25a1.483 1.483 0 01-1.485-1.485v-7.985c0-.818.667-1.485 1.485-1.485zM86.785 85.03H41.71a.254.254 0 01-.251-.25c0-.137.115-.251.251-.251h45.075c.137 0 .252.114.252.25a.25.25 0 01-.252.252zm0 5.69H41.71a.254.254 0 01-.251-.251c0-.137.115-.251.251-.251h45.075c.137 0 .252.114.252.25a.25.25 0 01-.252.252zm0 5.366H41.71a.254.254 0 01-.251-.251c0-.136.115-.251.251-.251h45.075c.137 0 .252.115.252.251a.25.25 0 01-.252.251z" fill="#fff"/><path d="M197.103 161.737c0-1.184.022-2.368-.071-3.551-.008-.108-.029-.237-.129-.287-.051-.022-.101-.029-.151-.022-.273.007-.538.086-.796.094-.237.007-.503-.058-.739-.072-.546-.036-1.084-.043-1.629-.101-.28-.028-.667.036-.925-.1-.395-.208-.388-.674-.596-1.004a.648.648 0 00-.165-.151c-.33-.223-.531-.352-.753-.689-.201-.301-.373-.667-.61-.932l-2.683-4.111-2.726-4.176-2.605-3.989-2.31-3.544-1.858-2.848-.753-1.155a2.552 2.552 0 00-.359-.473c-.143-.137-.265-.294-.409-.431-.358-.351-.868-.645-1.377-.645H64.732c-.48 0-1.025-.108-1.477.107-.252.122-.452.33-.625.545-.437.546-.774 1.163-1.133 1.758-.359.596-.796 1.155-1.191 1.729l-.48.703-.51.746-.538.782-.56.818-.588.847-.603.875-.624.904-.638.925-.653.94-.66.962-.667.968-.675.976-.674.983-.682.982-.674.983-.674.976-.668.969-.66.961c-.452.66-.925 1.37-1.033 2.188-.028.208-.028.423-.1.624-.108.28-.352.481-.617.624-.438.23-.933.316-1.42.381-1.493.193-3 .165-4.499.165 0 1.98-.452 4.591.818 6.248 1.055 1.371 2.985 1.779 4.635 1.779h143.842c1.363 0 2.862.058 4.147-.53 1.47-.675 2.252-2.124 2.252-3.731z" fill="#0C758C"/><path d="M195.452 159.197c.351 0 .739.008 1.062-.143.157-.072.272-.244.365-.387a.937.937 0 00.108-.209c.115-.373-.172-.681-.359-.975l-1.556-2.375-2.095-3.207-2.475-3.788-2.684-4.111-2.726-4.175-2.604-3.989-2.317-3.544-1.865-2.848-.754-1.155c-.1-.172-.222-.33-.358-.473-.144-.137-.266-.295-.409-.431-.359-.351-.868-.646-1.385-.646H64.509c-.481 0-1.026-.107-1.486.108-.25.122-.451.33-.63.545-.446.545-.776 1.155-1.134 1.758-.359.603-.797 1.155-1.198 1.729l-.488.703-.517.746-.538.782-.567.818-.588.846-.602.876-.625.904-.638.925-.653.94-.66.961-.667.969-.675.976-.681.982-.682.983-.681.983-.675.976-.667.968-.66.962-.653.947-.638.932-.624.904-.61.883-.588.853-.567.825-.545.79-.517.753-.488.71-.459.667-.423.617-.388.567-.351.509c-.294.424-.639.868-.524 1.421.065.301.301.624.631.624l153.399.014z" fill="#075F73"/><path d="M173.026 131.34c-.38-.653-.76-1.37-1.349-1.837-.71-.567-1.721-.33-2.561-.33H69.18c-.452 0-.847-.036-1.256.165-.882.431-1.363 1.249-1.886 2.03l-.474.711c-.165.251-.33.495-.495.746l-.517.775-.53.796-.553.818-.56.839-.573.854-.581.868-.589.882-.595.89-.603.897-.602.897-.603.896-.596.89-.595.882-.588.876-.574.861-.567.846-.552.825c-.18.266-.359.531-.538.804l-.524.774-.502.747-.481.717-.46.682-.43.645-.409.603-.373.559-.344.517-.308.466c-.259.388-.567.789-.46 1.292.058.279.266.574.56.574h135.513c.151 0 .309 0 .467-.015.351-.028.667-.229.846-.538a.52.52 0 00.05-.115c.101-.337-.15-.617-.315-.882-.46-.725-.919-1.442-1.371-2.159l-1.851-2.92-2.188-3.444-2.374-3.738-2.411-3.802-2.303-3.63c-.617-.969-1.241-1.93-1.851-2.899a1.999 1.999 0 01-.208-.315z" fill="#C2C2C2"/><path d="M158.873 132.804c-.302-.539-.596-1.127-1.048-1.514-.552-.467-1.341-.273-1.994-.273h-77.92c-.35 0-.66-.029-.982.136-.689.359-1.062 1.034-1.47 1.679-.123.194-.252.395-.374.589l-.387.617-.402.638c-.136.222-.28.438-.416.66-.136.222-.28.445-.43.674l-.438.696-.445.711-.452.717-.46.732-.465.731-.467.739-.466.739-.466.739c-.158.244-.309.488-.467.739-.157.251-.308.488-.459.732l-.459.725-.452.71-.438.696-.43.681c-.144.223-.28.445-.416.66-.136.216-.273.438-.409.639l-.387.617c-.122.201-.252.394-.373.595-.115.187-.237.381-.36.567l-.336.531-.316.502c-.093.158-.194.309-.294.466l-.273.424-.244.387c-.2.316-.445.653-.358 1.069.043.23.208.474.437.474h105.647c.115 0 .244 0 .366-.015a.832.832 0 00.66-.445c.014-.028.029-.057.036-.093.079-.28-.115-.509-.244-.732l-1.069-1.786-1.442-2.411-1.707-2.848-1.851-3.085-1.88-3.142-1.793-2.999c-.481-.803-.969-1.592-1.442-2.396a2.632 2.632 0 01-.165-.272z" fill="#fff"/><path opacity=".62" d="M149.056 133.937c-.244-.438-.474-.911-.847-1.22-.445-.38-1.076-.222-1.607-.222H83.864c-.28 0-.53-.022-.79.115-.552.287-.853.832-1.183 1.349l-.301.473c-.108.165-.208.33-.316.495l-.323.517-.337.53-.344.546-.352.559c-.122.194-.237.381-.359.567l-.365.581-.373.588-.373.596c-.122.201-.252.395-.373.595-.123.201-.252.395-.38.596l-.381.595-.373.596-.373.588-.366.581-.359.574-.351.56-.345.545-.337.531-.33.516-.316.495-.3.474c-.094.151-.195.301-.288.452l-.272.43c-.087.137-.173.273-.259.402-.079.122-.157.251-.236.373l-.216.344-.193.309c-.165.258-.352.524-.287.861.036.186.165.38.351.38h85.072c.093 0 .193 0 .294-.007a.685.685 0 00.531-.359c.014-.021.021-.05.028-.072.065-.222-.093-.416-.2-.588l-.861-1.442-1.163-1.944c-.459-.768-.918-1.528-1.37-2.296l-1.492-2.489-1.514-2.526-1.442-2.41c-.387-.646-.782-1.284-1.162-1.93a.853.853 0 01-.129-.208z" fill="#FFBECC"/><path d="M64.99 160.661h17.17c.473 0 .86.387.86.861v1.671a.863.863 0 01-.86.861H64.99a.863.863 0 01-.861-.861v-1.671c0-.474.387-.861.86-.861z" fill="#000714"/><path d="M153.864 75.87H87.101c-5.97 0-10.855 4.777-10.855 10.624v40.986c0 5.84 4.886 10.625 10.855 10.625h66.763c5.969 0 10.854-4.778 10.854-10.625V86.494c0-5.847-4.885-10.625-10.854-10.625z" fill="#CE4141"/><path d="M103.989 76.12V55.416c6.292-.883 11.128-6.292 11.128-12.82 0-7.153-5.797-12.95-12.95-12.95s-12.95 5.797-12.95 12.95a12.95 12.95 0 0010.834 12.777V76.22c0 15.073 9.427 27.828 22.082 31.415v-4.799c-10.453-3.38-18.144-14.105-18.144-26.717zM93.436 42.402c0-4.943 4.003-8.954 8.946-8.954s8.954 4.003 8.954 8.946-4.003 8.954-8.946 8.954-8.954-4.01-8.954-8.946c0-.008 0-.008 0 0z" fill="#0C758C"/><path d="M119.894 117.601L79.03 87.635v39.845c0 5.84 4.886 10.625 10.855 10.625h66.763c5.969 0 10.854-4.778 10.854-10.625V88.955l-39.644 28.675a6.785 6.785 0 01-7.964-.029z" fill="#DB5470"/><path d="M156.648 75.87H89.885c-5.97 0-10.855 4.777-10.855 10.624v1.148l40.864 29.959a6.796 6.796 0 007.964.029l39.644-28.668v-2.46c0-5.855-4.885-10.633-10.854-10.633z" fill="#CE415E"/><path d="M129.629 100.032c3.745-.696 7.282-2.296 10.324-4.57 3.113-2.325 5.703-5.323 7.626-8.702 1.011-1.78 1.671-3.638 2.453-5.51.632-1.521 1.148-3.1 1.457-4.72.308-1.636.222-3.243.351-4.894-.007.05-.574.417-.667.503-.56.552-.925 1.262-1.464 1.83-1.241 1.326-2.869 2.438-4.699 2.725-.416.065-1.937.309-2.267.029.84.71 1.629 1.478 2.361 2.296.373.416.774.925.81 1.506.029.488-.244.969-.43 1.406a25.372 25.372 0 01-1.37 2.712c-1.966 3.386-4.728 6.328-8.064 8.394-3.286 2.03-7.095 3.164-10.97 3.164a20.51 20.51 0 01-6.284-.99v4.311a23.752 23.752 0 0010.833.51z" fill="#0C758C"/><path d="M100.99 27.644h3.344c.746 0 1.348.603 1.348 1.349v4.04c0 .745-.602 1.348-1.348 1.348h-3.344a1.347 1.347 0 01-1.348-1.349v-4.039c0-.746.602-1.349 1.348-1.349z" fill="#DF5852"/><path d="M131.854 51.972c4.205 5.581 6.837 12.167 9.42 18.66 5.352-9.111 10.439-18.373 16.544-27.004-1.277.424-2.676.151-3.989-.179a46.897 46.897 0 01-8.53-3.07c-.194-.094-.409-.187-.617-.144-.208.043-.344.208-.481.366-1.98 2.331-3.845 5.108-6.17 7.117a34.473 34.473 0 01-6.177 4.254z" fill="#fff"/><path d="M143.162 43.928l-.043.21 10.416 2.133.044-.21-10.417-2.133zm8.665 4.592a162.636 162.636 0 00-9.599-2.13l.043-.208a162 162 0 019.606 2.13l-.05.209zm-5.324 1.185a86.435 86.435 0 01-5.201-1.356l.064-.208a86.12 86.12 0 005.187 1.356l-.05.208z" fill="#190E14"/><path d="M30.769 19.294c-.158 1.865-.194 3.759-.007 5.581.186 1.822.696 3.595 1.722 5.008a9.926 9.926 0 013.874-1.665 17.72 17.72 0 01-4.42-6.098c-.416-.94-.99-2.095-1.14-3.142-.172-1.256.25-2.927.445-4.226.509-3.364 1.563-6.901 4.031-9.462.445 3.364 3.2 5.603 5.79 7.554 3.106 2.346 6.313 4.742 10.202 5.69-2.935.982-5.474 3.32-7.11 6.047-1.693 2.82-2.16 5.725-2.82 8.745-9.304 1.73-10.99-6.399-10.567-14.032z" fill="#fff"/><path d="M45.64 18.978a61.712 61.712 0 01-6.571-3.881c-1.32-.89-2.813-1.966-3.817-3.43l.18-.121c.982 1.434 2.46 2.496 3.759 3.371a62.506 62.506 0 006.55 3.867l-.1.194zm-1.476 1.614a29.962 29.962 0 01-10.28-6.765l.15-.15a29.682 29.682 0 0010.202 6.714l-.072.201zm-1.185 1.578a44.248 44.248 0 01-9.829-6.048l.137-.165a44.07 44.07 0 009.778 6.02l-.086.193zm-.579 1.643c-3.357-1.355-7.16-2.898-9.9-5.588l.15-.15c2.712 2.66 6.493 4.196 9.83 5.545l-.08.193z" fill="#190E14"/><path d="M30.92 26.977c.187.696.445 1.37.782 2.009.144.265.309.53.553.717.473.352 1.097.18 1.564-.086l2.64-1.52c-1.17-1.278-2.138-2.706-3.107-4.126-.652-.961-1.312-1.93-1.75-2.999-.323-.796-.495-1.65-.71-2.475-.517.847-.524 1.887-.517 2.87.015 1.88.058 3.81.546 5.61z" fill="#C2C2C2"/><path d="M201.9 74.04c4.204 5.581 6.837 12.167 9.42 18.66 5.352-9.112 10.439-18.374 16.544-27.004-1.284.423-2.676.15-3.989-.18a46.897 46.897 0 01-8.53-3.07c-.194-.093-.409-.186-.617-.143-.201.043-.345.208-.474.365-1.98 2.332-3.845 5.108-6.169 7.117a34.822 34.822 0 01-6.185 4.255z" fill="#fff"/><path d="M212.785 86.092a38.984 38.984 0 00-7.734-12.138l.158-.144a39.271 39.271 0 017.776 12.203l-.2.08zm2.133-4.139a71.203 71.203 0 00-7.72-9.334l.151-.15a71.62 71.62 0 017.741 9.362l-.172.122zm1.757-3.078a100.259 100.259 0 00-7.281-8.222l.15-.15a101.653 101.653 0 017.296 8.236l-.165.136zm2.253-2.611c-2.196-3.193-4.857-5.797-7.684-7.526l.115-.186c2.855 1.75 5.538 4.369 7.748 7.59l-.179.122z" fill="#190E14"/><path d="M21.221 57.288C14.851 61.908 7.375 64.763 0 67.568c10.223 6.106 20.626 11.917 30.304 18.862-.46-1.435-.137-3 .258-4.456a52.062 52.062 0 013.587-9.491c.108-.215.215-.452.165-.689-.05-.222-.23-.387-.409-.538-2.611-2.245-5.725-4.362-7.956-6.988a38.532 38.532 0 01-4.728-6.98z" fill="#fff"/><path d="M8.544 68.537l-.05-.208a42.678 42.678 0 0012.082-5.165l.114.186a43.326 43.326 0 01-12.146 5.187zm4.003 3.02l-.08-.2a50.255 50.255 0 0010.339-5.439l.122.18a50.318 50.318 0 01-10.381 5.46zm5.353 3.215l-.166-.137c.926-1.148 1.995-2.21 3.035-3.228 1.392-1.37 2.827-2.791 3.91-4.441l.18.115c-1.098 1.664-2.54 3.092-3.94 4.476-1.04 1.02-2.108 2.074-3.02 3.215z" fill="#190E14"/><path d="M154.754 102.629c.947-1.715 2.016-3.386 3.221-4.864 1.205-1.478 2.647-2.74 4.305-3.394a9.824 9.824 0 002.224 3.63c-2.511.395-4.951 1.364-7.153 2.82-.89.588-2.023 1.263-2.755 2.095-.868.997-1.485 2.69-2.073 3.924-1.528 3.214-2.705 6.887-2.167 10.503 2.317-2.676 5.876-3.077 9.126-3.321 3.91-.295 7.927-.574 11.665.796-1.844-2.511-2.576-5.969-2.339-9.269.244-3.408 1.535-6.199 2.748-9.205-6.658-6.729-12.742-.602-16.802 6.285z" fill="#C2C2C2"/><path d="M153.548 113.218l-.071-.201a33.25 33.25 0 0114.054-1.578l-.022.215a32.804 32.804 0 00-13.961 1.564zm.61-2.246l-.057-.208a34.862 34.862 0 0111.765-1.341l-.014.215a34.85 34.85 0 00-11.694 1.334zm.895-2.905l-.057-.208a30.263 30.263 0 0110.374-.818l-.022.215a30.181 30.181 0 00-10.295.811zm.69-2.748l-.094-.194c1.859-.853 3.996-.832 5.883-.818l3.602.036v.216l-3.602-.036c-1.865-.015-3.974-.036-5.789.796z" fill="#190E14"/><path d="M156.525 98.554a14.287 14.287 0 013.25-3.286 8.89 8.89 0 012.066-1.133c.294-.108.768-.323 1.084-.309.315.015.344.359.365.631a6.562 6.562 0 001.486 3.602l-1.758.473c-.373.1-.746.201-1.105.33-.38.137-.753.294-1.119.467a24.238 24.238 0 00-5.675 3.716c-.165.143-.495.588-.768.466-.222-.107-.107-.416-.043-.595a16.262 16.262 0 012.217-4.362z" fill="#fff"/><defs><linearGradient id="paint0_linear_206_35026" x1="121.688" y1="48.88" x2="121.688" y2="118.721" gradientUnits="userSpaceOnUse"><stop stop-color="#298BE7"/><stop offset="1" stop-color="#70EFEE"/></linearGradient><linearGradient id="paint1_linear_206_35026" x1="175.111" y1="48.88" x2="175.111" y2="60.316" gradientUnits="userSpaceOnUse"><stop stop-color="#298BE7"/><stop offset="1" stop-color="#70EFEE"/></linearGradient><linearGradient id="paint2_linear_206_35026" x1="175.111" y1="63.264" x2="175.111" y2="86.035" gradientUnits="userSpaceOnUse"><stop stop-color="#298BE7"/><stop offset="1" stop-color="#70EFEE"/></linearGradient><linearGradient id="paint3_linear_206_35026" x1="61.719" y1="86.544" x2="61.719" y2="137.153" gradientUnits="userSpaceOnUse"><stop stop-color="#298BE7"/><stop offset="1" stop-color="#70EFEE"/></linearGradient><linearGradient id="paint4_linear_206_35026" x1="61.69" y1="88.187" x2="61.69" y2="138.796" gradientUnits="userSpaceOnUse"><stop stop-color="#298BE7"/><stop offset="1" stop-color="#70EFEE"/></linearGradient></defs></svg>