<svg width="12" height="66" fill="none" xmlns="http://www.w3.org/2000/svg"><path d="M132.2 44.3c0-11.046-8.954-20-20-20H20c-11.046 0-20 8.954-20 20v7.9c0 7.5 6.1 13.6 13.6 13.6h98.6c11.046 0 20-8.954 20-20v-1.5z" fill="url(#paint0_linear_0_1)"/><path d="M16.46.05a.05.05 0 01-.05.05C7.356.12 0 6.166 0 13.596V53c0-6.451 6.415-11.712 14.281-11.712h120.545c13.918 0 25.174-9.23 25.174-20.644C160 9.23 148.744 0 134.826 0H16.51a.05.05 0 00-.05.05z" fill="url(#paint1_linear_0_1)"/><defs><linearGradient id="paint0_linear_0_1" x1="66.1" y1="24.3" x2="66.1" y2="65.8" gradientUnits="userSpaceOnUse"><stop stop-color="#298BE7"/><stop offset="1" stop-color="#70EFEE"/></linearGradient><linearGradient id="paint1_linear_0_1" x1="80" y1="0" x2="80" y2="53" gradientUnits="userSpaceOnUse"><stop stop-color="#298BE7"/><stop offset="1" stop-color="#70EFEE"/></linearGradient></defs></svg>