<svg width="100" height="100" fill="none" xmlns="http://www.w3.org/2000/svg"><g clip-path="url(#clip0_206_34781)"><path opacity=".8" d="M100.421 50.069c0 6.494-1.263 12.988-3.684 19.064-2.526 5.97-6.21 11.522-10.737 16.13-4.632 4.61-10.105 8.38-16.21 10.894-6 2.514-12.632 3.876-19.158 3.98-6.632 0-13.158-1.152-19.264-3.666-6.105-2.514-11.79-6.18-16.42-10.788-4.738-4.61-8.422-10.266-11.053-16.34C1.368 63.266 0 56.667 0 50.068c0-6.6 1.368-13.198 3.895-19.274C6.42 24.72 10.21 19.17 14.947 14.455A51.897 51.897 0 0131.368 3.666C37.474 1.152 44.105 0 50.632 0c6.631.105 13.157 1.362 19.158 3.98 6 2.514 11.578 6.285 16.21 10.894a48.723 48.723 0 0110.737 16.13c2.42 6.076 3.684 12.57 3.684 19.065zm0 0c0-6.495-1.368-12.989-3.895-18.96a50.253 50.253 0 00-10.842-16.026c-4.631-4.608-10.21-8.17-16.21-10.579-6-2.41-12.527-3.666-18.948-3.561C44 1.047 37.58 2.304 31.684 4.818a48.514 48.514 0 00-15.895 10.79c-4.526 4.503-8.21 9.95-10.631 15.92-2.421 5.866-3.684 12.36-3.684 18.75 0 6.39 1.263 12.78 3.684 18.75 2.42 5.97 6.105 11.312 10.631 15.921 4.527 4.504 10 8.275 15.895 10.79 5.895 2.513 12.421 3.875 18.842 3.875 6.527 0 12.948-1.153 18.948-3.562s11.579-6.075 16.21-10.579a50.253 50.253 0 0010.842-16.026c2.527-6.39 3.79-12.884 3.895-19.378z" fill="url(#paint0_linear_206_34781)"/><path d="M57.545 48v-6H53.91v6h-5.454v4h5.454v6h3.636v-6H63v-4h-5.455zm-20 6c4.019 0 7.273-3.58 7.273-8s-3.254-8-7.273-8c-4.018 0-7.272 3.58-7.272 8s3.254 8 7.272 8zm0-12c2 0 3.637 1.8 3.637 4s-1.637 4-3.637 4-3.636-1.8-3.636-4 1.636-4 3.636-4zm11.619 17.12C46.109 57.4 42.145 56 37.545 56s-8.563 1.4-11.618 3.12C24.11 60.14 23 62.2 23 64.44V70h29.09v-5.56c0-2.24-1.108-4.3-2.926-5.32zm-.71 6.88H26.637v-1.56c0-.76.364-1.44.946-1.76 2.163-1.22 5.654-2.68 9.963-2.68 4.31 0 7.8 1.46 9.964 2.68.582.32.946 1 .946 1.76V66z" fill="url(#paint1_linear_206_34781)"/><path d="M70.54 34.133c0 .713-.217 1.32-.65 1.82-.432.5-1.038.844-1.82 1.031v.047c.922.115 1.62.396 2.094.844.474.443.711 1.042.711 1.797 0 1.099-.398 1.956-1.195 2.57-.797.61-1.935.914-3.414.914-1.24 0-2.339-.206-3.297-.617v-2.055c.442.224.93.407 1.46.547.532.14 1.058.211 1.579.211.797 0 1.385-.135 1.765-.406.38-.27.57-.706.57-1.305 0-.536-.218-.916-.656-1.14-.437-.224-1.135-.336-2.093-.336h-.867v-1.852h.882c.886 0 1.532-.114 1.938-.344.411-.234.617-.632.617-1.195 0-.864-.542-1.297-1.625-1.297a3.75 3.75 0 00-1.148.188c-.386.125-.816.34-1.29.648l-1.117-1.664c1.042-.75 2.284-1.125 3.727-1.125 1.182 0 2.115.24 2.797.719.687.479 1.031 1.146 1.031 2zm9.522 3.156c0 1.995-.328 3.471-.984 4.43-.65.958-1.656 1.437-3.016 1.437-1.317 0-2.312-.495-2.984-1.484-.666-.99-1-2.45-1-4.383 0-2.016.326-3.5.977-4.453.65-.958 1.653-1.438 3.007-1.438 1.318 0 2.313.5 2.985 1.5.677 1 1.016 2.464 1.016 4.391zm-5.585 0c0 1.401.12 2.406.359 3.016.245.604.654.906 1.227.906.562 0 .968-.307 1.218-.922.25-.614.375-1.614.375-3 0-1.401-.127-2.406-.383-3.016-.25-.614-.653-.921-1.21-.921-.568 0-.975.307-1.22.921-.244.61-.366 1.615-.366 3.016z" fill="url(#paint2_linear_206_34781)"/></g><defs><linearGradient id="paint0_linear_206_34781" x1="50.211" y1="0" x2="50.211" y2="100.137" gradientUnits="userSpaceOnUse"><stop stop-color="#842637"/><stop offset="1" stop-color="#F53E5D"/></linearGradient><linearGradient id="paint1_linear_206_34781" x1="43" y1="38" x2="43" y2="70" gradientUnits="userSpaceOnUse"><stop stop-color="#842637"/><stop offset="1" stop-color="#F53E5D"/></linearGradient><linearGradient id="paint2_linear_206_34781" x1="71.5" y1="30" x2="71.5" y2="43" gradientUnits="userSpaceOnUse"><stop stop-color="#842637"/><stop offset="1" stop-color="#F53E5D"/></linearGradient><clipPath id="clip0_206_34781"><path fill="#fff" d="M0 0h100v100H0z"/></clipPath></defs></svg>