<svg width="100" height="100" fill="none" xmlns="http://www.w3.org/2000/svg"><g clip-path="url(#clip0_206_34745)"><path opacity=".8" d="M100.421 50.069c0 6.494-1.263 12.988-3.684 19.064-2.526 5.97-6.21 11.522-10.737 16.13-4.632 4.61-10.105 8.38-16.21 10.894-6 2.514-12.632 3.876-19.158 3.98-6.632 0-13.158-1.152-19.264-3.666-6.105-2.514-11.79-6.18-16.42-10.788-4.738-4.61-8.422-10.266-11.053-16.34C1.368 63.266 0 56.667 0 50.068c0-6.6 1.368-13.198 3.895-19.274C6.42 24.72 10.21 19.17 14.947 14.455A51.897 51.897 0 0131.368 3.666C37.474 1.152 44.105 0 50.632 0c6.631.105 13.157 1.362 19.158 3.98 6 2.514 11.578 6.285 16.21 10.894a48.723 48.723 0 0110.737 16.13c2.42 6.076 3.684 12.57 3.684 19.065zm0 0c0-6.495-1.368-12.989-3.895-18.96a50.253 50.253 0 00-10.842-16.026c-4.631-4.608-10.21-8.17-16.21-10.579-6-2.41-12.527-3.666-18.948-3.561C44 1.047 37.58 2.304 31.684 4.818a48.514 48.514 0 00-15.895 10.79c-4.526 4.503-8.21 9.95-10.631 15.92-2.421 5.866-3.684 12.36-3.684 18.75 0 6.39 1.263 12.78 3.684 18.75 2.42 5.97 6.105 11.312 10.631 15.921 4.527 4.504 10 8.275 15.895 10.79 5.895 2.513 12.421 3.875 18.842 3.875 6.527 0 12.948-1.153 18.948-3.562s11.579-6.075 16.21-10.579a50.253 50.253 0 0010.842-16.026c2.527-6.39 3.79-12.884 3.895-19.378z" fill="url(#paint0_linear_206_34745)"/><path d="M53.274 46.03c-6.806-1.717-8.995-3.491-8.995-6.255 0-3.172 3.028-5.383 8.096-5.383 5.337 0 7.317 2.473 7.496 6.11H66.5c-.21-5.005-3.359-9.602-9.626-11.086v-6.372h-8.996v6.285c-5.818 1.222-10.495 4.888-10.495 10.504 0 6.72 5.727 10.067 14.093 12.016 7.497 1.746 8.996 4.307 8.996 7.013 0 2.007-1.47 5.208-8.096 5.208-6.177 0-8.606-2.677-8.936-6.11h-6.597c.36 6.372 5.277 9.95 11.035 11.143v6.314h8.996v-6.255c5.847-1.077 10.495-4.365 10.495-10.33 0-8.263-7.287-11.085-14.094-12.802z" fill="url(#paint1_linear_206_34745)"/></g><defs><linearGradient id="paint0_linear_206_34745" x1="50.211" y1="0" x2="50.211" y2="100.137" gradientUnits="userSpaceOnUse"><stop stop-color="#842637"/><stop offset="1" stop-color="#F53E5D"/></linearGradient><linearGradient id="paint1_linear_206_34745" x1="52.105" y1="23.044" x2="52.105" y2="75.417" gradientUnits="userSpaceOnUse"><stop stop-color="#842637"/><stop offset="1" stop-color="#F53E5D"/></linearGradient><clipPath id="clip0_206_34745"><path fill="#fff" d="M0 0h100v100H0z"/></clipPath></defs></svg>