<svg xmlns="http://www.w3.org/2000/svg" width="20" height="20"><defs><linearGradient id="a" x1="10" x2="10" y1="5.73" y2="20" gradientUnits="userSpaceOnUse"><stop offset="0" stop-color="#298be7"/><stop offset="1" stop-color="#70efee"/></linearGradient><linearGradient id="b" x1="11.05" x2="11.05" y1="0" y2="10.88" gradientUnits="userSpaceOnUse"><stop offset="0" stop-color="#298be7"/><stop offset="1" stop-color="#70efee"/></linearGradient><linearGradient id="c" x1="2.95" x2="2.95" y1="11.46" y2="12.24" gradientUnits="userSpaceOnUse"><stop offset="0" stop-color="#298be7"/><stop offset="1" stop-color="#70efee"/></linearGradient></defs><path fill="url(#a)" d="M19.077 19.22a.39.39 0 010 .781H.92a.39.39 0 110-.78h.903v-3.525c0-.578.47-1.05 1.05-1.05h1.915c.579 0 1.05.471 1.05 1.05v3.524h2.175v-6.804c0-.579.471-1.05 1.05-1.05h1.915c.58 0 1.05.471 1.05 1.05v6.804h2.176V6.78c0-.579.47-1.05 1.05-1.05h1.915c.579 0 1.05.471 1.05 1.05v12.44zm-14.02-3.524a.27.27 0 00-.268-.268H2.874a.27.27 0 00-.27.268v3.524h2.453zm6.191-3.28a.27.27 0 00-.269-.268H9.064a.27.27 0 00-.269.268v6.804h2.453zm6.19-5.636a.27.27 0 00-.268-.269h-1.915a.27.27 0 00-.269.27v12.44h2.453z"/><path fill="url(#b)" d="M18.22.41a.39.39 0 00-.41-.41h-2.382a.39.39 0 000 .781h1.459l-3.862 3.862-1.456-1.456a.39.39 0 00-.552 0l-7.023 7.022a.39.39 0 00.553.552l6.746-6.746 1.456 1.456a.39.39 0 00.553 0l4.137-4.137v1.32a.39.39 0 10.782 0V.43L18.22.41z"/><path fill="url(#c)" d="M2.95 12.241a.39.39 0 100-.781.39.39 0 000 .781z"/></svg>