<svg xmlns="http://www.w3.org/2000/svg" width="40" height="40"><defs><linearGradient id="a" x1="20" x2="20" y1="0" y2="40" gradientUnits="userSpaceOnUse"><stop offset="0" stop-color="#298be7"/><stop offset="1" stop-color="#70efee"/></linearGradient></defs><path fill="url(#a)" d="M40 20c0 11.046-8.954 20-20 20S0 31.046 0 20 8.954 0 20 0s20 8.954 20 20z"/><path fill="#fff" d="M28.59 12.78l-10 10-2.83-2.83-1.41 1.41 4.24 4.24L30 14.18zm-.8 6.44c.13.57.21 1.17.21 1.78 0 4.42-3.58 8-8 8s-8-3.58-8-8 3.58-8 8-8c1.58 0 3.04.46 4.28 1.25l1.44-1.44A9.9 9.9 0 0020 11c-5.52 0-10 4.48-10 10s4.48 10 10 10 10-4.48 10-10c0-1.19-.22-2.33-.6-3.39z"/></svg>