<svg xmlns="http://www.w3.org/2000/svg" width="40" height="40"><defs><clipPath id="a"><path fill="#fff" d="M40 20c0 11.046-8.954 20-20 20S0 31.046 0 20 8.954 0 20 0s20 8.954 20 20z"/></clipPath></defs><path fill="none" stroke="#fb992a" stroke-miterlimit="20" stroke-width="2" d="M40 20c0 11.046-8.954 20-20 20S0 31.046 0 20 8.954 0 20 0s20 8.954 20 20z" clip-path="url(&quot;#a&quot;)"/><path fill="#fb992a" d="M30 20c0 5.52-4.48 10-10.01 10C14.47 30 10 25.52 10 20s4.47-10 9.99-10C25.52 10 30 14.48 30 20zm-2 0c0-4.42-3.58-8-8-8s-8 3.58-8 8 3.58 8 8 8 8-3.58 8-8zm-7.5.25l4.5 2.67-.75 1.23L19 21v-6h1.5z"/></svg>