<svg xmlns="http://www.w3.org/2000/svg" width="20" height="20"><defs><linearGradient id="a" x1="9.99" x2="9.99" y1=".62" y2="19.37" gradientUnits="userSpaceOnUse"><stop offset="0" stop-color="#298be7"/><stop offset="1" stop-color="#70efee"/></linearGradient></defs><path fill="url(#a)" d="M7.212 19.37a2.2 2.2 0 01-2.197-2.197V7.212a2.2 2.2 0 012.197-2.197h9.96a2.2 2.2 0 012.198 2.197v9.96a2.2 2.2 0 01-2.197 2.198zm0-12.89a.733.733 0 00-.733.732v9.96c0 .405.329.733.733.733h9.96a.733.733 0 00.733-.732V7.212a.733.733 0 00-.732-.733zM3.55 14.974h-.733A2.2 2.2 0 01.62 12.779v-9.96A2.2 2.2 0 012.817.62h9.961a2.2 2.2 0 012.197 2.197v.696h-1.464v-.696a.733.733 0 00-.733-.732h-9.96a.733.733 0 00-.733.732v9.961c0 .404.328.733.732.733h.733z"/></svg>