<svg xmlns="http://www.w3.org/2000/svg" width="20" height="20" viewBox="0 0 20 20"><defs><linearGradient id="5hq8a" x1="9.99" x2="9.99" y1=".62" y2="19.37" gradientUnits="userSpaceOnUse"><stop offset="0" stop-color="#298be7"/><stop offset="1" stop-color="#70efee"/></linearGradient></defs><g><g><g/><g><path fill="url(#5hq8a)" d="M7.212 19.37a2.2 2.2 0 0 1-2.197-2.197V7.212a2.2 2.2 0 0 1 2.197-2.197h9.96a2.2 2.2 0 0 1 2.198 2.197v9.96a2.2 2.2 0 0 1-2.197 2.198zm0-12.89a.733.733 0 0 0-.733.732v9.96c0 .405.329.733.733.733h9.96a.733.733 0 0 0 .733-.732V7.212a.733.733 0 0 0-.732-.733zM3.55 14.974h-.733A2.2 2.2 0 0 1 .62 12.779v-9.96A2.2 2.2 0 0 1 2.817.62h9.961a2.2 2.2 0 0 1 2.197 2.197v.696h-1.464v-.696a.733.733 0 0 0-.733-.732h-9.96a.733.733 0 0 0-.733.732v9.961c0 .404.328.733.732.733h.733z"/></g></g></g></svg>