<svg xmlns="http://www.w3.org/2000/svg" width="15" height="15"><defs><linearGradient id="a" x1="7.5" x2="7.5" y1="0" y2="15" gradientUnits="userSpaceOnUse"><stop offset="0" stop-color="#298be7"/><stop offset="1" stop-color="#70efee"/></linearGradient></defs><path fill="url(#a)" d="M14.63 6.609c.493.492.493 1.29 0 1.78l-6.239 6.24a1.26 1.26 0 01-1.782-1.782l5.348-5.348-5.348-5.348A1.26 1.26 0 018.391.37zm-7.5-.379a1.394 1.394 0 010 1.898L2.175 13.35a1.229 1.229 0 01-1.802 0 1.394 1.394 0 010-1.898L4.426 7.18.373 2.908a1.394 1.394 0 010-1.898 1.23 1.23 0 011.802 0z"/></svg>