<svg xmlns="http://www.w3.org/2000/svg" width="15" height="15" viewBox="0 0 15 15"><defs><linearGradient id="x4yja" x1="7.5" x2="7.5" y1="0" y2="15" gradientUnits="userSpaceOnUse"><stop offset="0" stop-color="#298be7"/><stop offset="1" stop-color="#70efee"/></linearGradient></defs><g><g><g><path fill="url(#x4yja)" d="M14.63 6.609c.493.492.493 1.29 0 1.78l-6.239 6.24a1.26 1.26 0 0 1-1.782-1.782l5.348-5.348-5.348-5.348A1.26 1.26 0 0 1 8.391.37zM7.13 6.23a1.394 1.394 0 0 1 0 1.898L2.175 13.35a1.229 1.229 0 0 1-1.802 0 1.394 1.394 0 0 1 0-1.898L4.426 7.18.373 2.908a1.394 1.394 0 0 1 0-1.898 1.23 1.23 0 0 1 1.802 0z"/></g></g></g></svg>