<svg xmlns="http://www.w3.org/2000/svg" width="20" height="18"><defs><linearGradient id="a" x1="10" x2="10" y1=".25" y2="17.75" gradientUnits="userSpaceOnUse"><stop offset="0" stop-color="#298be7"/><stop offset="1" stop-color="#70efee"/></linearGradient></defs><path fill="url(#a)" d="M19.375 12.75H2.134l2.683-2.683a.625.625 0 10-.884-.884l-3.75 3.75a.625.625 0 000 .884l3.75 3.75a.623.623 0 00.884 0 .625.625 0 000-.884L2.134 14h17.241a.625.625 0 100-1.25zM16.067.433a.625.625 0 10-.884.884L17.866 4H.625a.625.625 0 100 1.25h17.241l-2.683 2.683a.625.625 0 10.884.884l3.75-3.75a.625.625 0 000-.884z"/></svg>