<svg width="16" height="14" fill="none" xmlns="http://www.w3.org/2000/svg"><path d="M15.5 12V9.5a.625.625 0 10-1.25 0V12a.624.624 0 01-.625.625H2.375A.625.625 0 011.75 12V9.5a.625.625 0 00-1.25 0V12a1.875 1.875 0 001.875 1.875h11.25A1.875 1.875 0 0015.5 12zm-3.988-3.262l-3.125 2.5a.625.625 0 01-.775 0l-3.125-2.5a.625.625 0 01.776-.975L7.375 9.45V.75a.625.625 0 011.25 0v8.7l2.113-1.687a.625.625 0 11.774.975z" fill="url(#paint0_linear_138_3390)"/><defs><linearGradient id="paint0_linear_138_3390" x1="8" y1=".125" x2="8" y2="13.875" gradientUnits="userSpaceOnUse"><stop stop-color="#298BE7"/><stop offset="1" stop-color="#70EFEE"/></linearGradient></defs></svg>