<svg width="30" height="30" viewBox="0 0 30 30" fill="none" xmlns="http://www.w3.org/2000/svg">
<path d="M4.375 9.37499H25.625C26.6608 9.37499 27.5 8.53576 27.5 7.49999C27.5 6.46423 26.6608 5.625 25.625 5.625H4.375C3.33923 5.625 2.5 6.46423 2.5 7.49999C2.5 8.53576 3.33923 9.37499 4.375 9.37499Z" fill="url(#paint0_linear_201_861)"/>
<path d="M25.625 13.125H4.375C3.33923 13.125 2.5 13.9642 2.5 15C2.5 16.0358 3.33923 16.875 4.375 16.875H25.625C26.6608 16.875 27.5 16.0358 27.5 15C27.5 13.9642 26.6608 13.125 25.625 13.125Z" fill="url(#paint1_linear_201_861)"/>
<path d="M25.625 20.625H4.375C3.33923 20.625 2.5 21.4642 2.5 22.5C2.5 23.5358 3.33923 24.375 4.375 24.375H25.625C26.6608 24.375 27.5 23.5358 27.5 22.5C27.5 21.4642 26.6608 20.625 25.625 20.625Z" fill="url(#paint2_linear_201_861)"/>
<defs>
<linearGradient id="paint0_linear_201_861" x1="15" y1="5.625" x2="15" y2="9.37499" gradientUnits="userSpaceOnUse">
<stop stop-color="#298BE7"/>
<stop offset="1" stop-color="#70EFEE"/>
</linearGradient>
<linearGradient id="paint1_linear_201_861" x1="15" y1="13.125" x2="15" y2="16.875" gradientUnits="userSpaceOnUse">
<stop stop-color="#298BE7"/>
<stop offset="1" stop-color="#70EFEE"/>
</linearGradient>
<linearGradient id="paint2_linear_201_861" x1="15" y1="20.625" x2="15" y2="24.375" gradientUnits="userSpaceOnUse">
<stop stop-color="#298BE7"/>
<stop offset="1" stop-color="#70EFEE"/>
</linearGradient>
</defs>
</svg>
