<svg xmlns="http://www.w3.org/2000/svg" width="122" height="114" viewBox="0 0 122 114"><defs><linearGradient id="ubiva" x1="86.7" x2="86.7" y1="85.32" y2="56.5" gradientUnits="userSpaceOnUse"><stop offset="0" stop-color="#9ddef2"/><stop offset=".19" stop-color="#a2dff2"/><stop offset=".41" stop-color="#b0e4f4"/><stop offset=".64" stop-color="#c8ebf6"/><stop offset=".89" stop-color="#e9f5f9"/><stop offset="1" stop-color="#fafafa"/></linearGradient><linearGradient id="ubivb" x1="48.55" x2="48.55" y1="85.32" y2="56.5" gradientUnits="userSpaceOnUse"><stop offset="0" stop-color="#9ddef2"/><stop offset=".19" stop-color="#a2dff2"/><stop offset=".41" stop-color="#b0e4f4"/><stop offset=".64" stop-color="#c8ebf6"/><stop offset=".89" stop-color="#e9f5f9"/><stop offset="1" stop-color="#fafafa"/></linearGradient><linearGradient id="ubivc" x1="67.63" x2="67.63" y1="54.02" y2="16.46" gradientUnits="userSpaceOnUse"><stop offset=".02" stop-color="#f7bb7c"/><stop offset="1" stop-color="#ffd1a1"/></linearGradient><linearGradient id="ubivd" x1="73.2" x2="73.2" y1="65.27" y2="56.51" gradientUnits="userSpaceOnUse"><stop offset="0" stop-color="#9ddef2"/><stop offset=".19" stop-color="#a2dff2"/><stop offset=".41" stop-color="#b0e4f4"/><stop offset=".64" stop-color="#c8ebf6"/><stop offset=".89" stop-color="#e9f5f9"/><stop offset="1" stop-color="#fafafa"/></linearGradient><linearGradient id="ubive" x1="62.05" x2="62.05" y1="65.27" y2="56.51" gradientUnits="userSpaceOnUse"><stop offset="0" stop-color="#9ddef2"/><stop offset=".19" stop-color="#a2dff2"/><stop offset=".41" stop-color="#b0e4f4"/><stop offset=".64" stop-color="#c8ebf6"/><stop offset=".89" stop-color="#e9f5f9"/><stop offset="1" stop-color="#fafafa"/></linearGradient><linearGradient id="ubivf" x1="67.63" x2="67.63" y1="82.78" y2="59.98" gradientUnits="userSpaceOnUse"><stop offset="0" stop-color="#5ea814"/><stop offset=".35" stop-color="#62a914"/><stop offset=".67" stop-color="#6dad12"/><stop offset=".97" stop-color="#7fb410"/><stop offset="1" stop-color="#81b510"/></linearGradient><linearGradient id="ubivg" x1="105.76" x2="105.76" y1="55.47" y2="31.13" gradientUnits="userSpaceOnUse"><stop offset="0" stop-color="#5ea814"/><stop offset=".35" stop-color="#62a914"/><stop offset=".67" stop-color="#6dad12"/><stop offset=".97" stop-color="#7fb410"/><stop offset="1" stop-color="#81b510"/></linearGradient><linearGradient id="ubivh" x1="26.03" x2="19.58" y1="50.39" y2="16.7" gradientUnits="userSpaceOnUse"><stop offset="0" stop-color="#9ddef2"/><stop offset=".17" stop-color="#a4e0f3"/><stop offset=".43" stop-color="#b8e6f4"/><stop offset=".73" stop-color="#d8f0f7"/><stop offset="1" stop-color="#fafafa"/></linearGradient><linearGradient id="ubivi" x1="97.59" x2="97.47" y1="21.58" y2="0" gradientUnits="userSpaceOnUse"><stop offset="0" stop-color="#062a54"/><stop offset=".27" stop-color="#072c58"/><stop offset=".52" stop-color="#083263"/><stop offset=".75" stop-color="#0b3c75"/><stop offset=".98" stop-color="#104b8f"/><stop offset="1" stop-color="#104c91"/></linearGradient><linearGradient id="ubivj" x1="93.98" x2="93.98" y1="112" y2="59.6" gradientUnits="userSpaceOnUse"><stop offset="0" stop-color="#062a54"/><stop offset=".27" stop-color="#072c58"/><stop offset=".52" stop-color="#083263"/><stop offset=".75" stop-color="#0b3c75"/><stop offset=".98" stop-color="#104b8f"/><stop offset="1" stop-color="#104c91"/></linearGradient><linearGradient id="ubivk" x1="41.27" x2="41.27" y1="112" y2="59.6" gradientUnits="userSpaceOnUse"><stop offset="0" stop-color="#062a54"/><stop offset=".27" stop-color="#072c58"/><stop offset=".52" stop-color="#083263"/><stop offset=".75" stop-color="#0b3c75"/><stop offset=".98" stop-color="#104b8f"/><stop offset="1" stop-color="#104c91"/></linearGradient><linearGradient id="ubivl" x1="41.3" x2="94.09" y1="112.09" y2="112.09" gradientUnits="userSpaceOnUse"><stop offset="0" stop-color="#ff7b00"/><stop offset=".02" stop-color="#ff7d01"/><stop offset=".67" stop-color="#ffab0f"/><stop offset="1" stop-color="#ffbd14"/></linearGradient><linearGradient id="ubivm" x1="67.69" x2="67.69" y1="110.82" y2="82.39" gradientUnits="userSpaceOnUse"><stop offset="0" stop-color="#9ddef2"/><stop offset=".17" stop-color="#a4e0f3"/><stop offset=".43" stop-color="#b8e6f4"/><stop offset=".73" stop-color="#d8f0f7"/><stop offset="1" stop-color="#fafafa"/></linearGradient><linearGradient id="ubivn" x1="110.58" x2="110.58" y1="46.03" y2="35.99" gradientUnits="userSpaceOnUse"><stop offset="0" stop-color="#ff7b00"/><stop offset="1" stop-color="#ffbd14"/></linearGradient><linearGradient id="ubivo" x1="110.61" x2="110.61" y1="39.93" y2="36.45" gradientUnits="userSpaceOnUse"><stop offset="0" stop-color="#ff7b00"/><stop offset=".02" stop-color="#ff7d01"/><stop offset=".67" stop-color="#ffab0f"/><stop offset="1" stop-color="#ffbd14"/></linearGradient><linearGradient id="ubivp" x1="110.62" x2="110.62" y1="39.18" y2="37.2" gradientUnits="userSpaceOnUse"><stop offset="0" stop-color="#ff7b00"/><stop offset=".02" stop-color="#ff7d01"/><stop offset=".67" stop-color="#ffab0f"/><stop offset="1" stop-color="#ffbd14"/></linearGradient><linearGradient id="ubivq" x1="110.56" x2="110.56" y1="46.05" y2="42.65" gradientUnits="userSpaceOnUse"><stop offset="0" stop-color="#ff7b00"/><stop offset="1" stop-color="#ffbd14"/></linearGradient><linearGradient id="ubivr" x1="110.58" x2="110.58" y1="43.74" y2="40.39" gradientUnits="userSpaceOnUse"><stop offset="0" stop-color="#ff7b00"/><stop offset="1" stop-color="#ffbd14"/></linearGradient><linearGradient id="ubivs" x1="110.61" x2="110.61" y1="41.5" y2="38.15" gradientUnits="userSpaceOnUse"><stop offset="0" stop-color="#ff7b00"/><stop offset="1" stop-color="#ffbd14"/></linearGradient><linearGradient id="ubivt" x1="96.15" x2="106.5" y1="43.11" y2="43.11" gradientUnits="userSpaceOnUse"><stop offset="0" stop-color="#dd3f18"/><stop offset=".42" stop-color="#e74a1b"/><stop offset="1" stop-color="#fd6120"/></linearGradient><linearGradient id="ubivu" x1="101.33" x2="101.33" y1="44.38" y2="40.67" gradientUnits="userSpaceOnUse"><stop offset="0" stop-color="#ff7b00"/><stop offset=".02" stop-color="#ff7d01"/><stop offset=".67" stop-color="#ffab0f"/><stop offset="1" stop-color="#ffbd14"/></linearGradient><linearGradient id="ubivv" x1="101.34" x2="101.34" y1="43.58" y2="41.47" gradientUnits="userSpaceOnUse"><stop offset="0" stop-color="#ff7b00"/><stop offset=".02" stop-color="#ff7d01"/><stop offset=".67" stop-color="#ffab0f"/><stop offset="1" stop-color="#ffbd14"/></linearGradient><linearGradient id="ubivw" x1="101.32" x2="101.32" y1="46.05" y2="42.49" gradientUnits="userSpaceOnUse"><stop offset="0" stop-color="#ff7b00"/><stop offset="1" stop-color="#ffbd14"/></linearGradient><linearGradient id="ubivx" x1="17.33" x2="35.45" y1="35.5" y2="30.54" gradientUnits="userSpaceOnUse"><stop offset="0" stop-color="#5ea814"/><stop offset=".35" stop-color="#62a914"/><stop offset=".67" stop-color="#6dad12"/><stop offset=".97" stop-color="#7fb410"/><stop offset="1" stop-color="#81b510"/></linearGradient><linearGradient id="ubivy" x1="12.43" x2="23.64" y1="35.12" y2="22.56" gradientUnits="userSpaceOnUse"><stop offset="0" stop-color="#5ea814"/><stop offset=".35" stop-color="#62a914"/><stop offset=".67" stop-color="#6dad12"/><stop offset=".97" stop-color="#7fb410"/><stop offset="1" stop-color="#81b510"/></linearGradient><linearGradient id="ubivz" x1="93.69" x2="93.69" y1="12.7" y2="7.88" gradientUnits="userSpaceOnUse"><stop offset="0" stop-color="#ff7b00"/><stop offset=".1" stop-color="#ff8b05"/><stop offset=".28" stop-color="#ffa10c"/><stop offset=".47" stop-color="#ffb110"/><stop offset=".69" stop-color="#ffba13"/><stop offset="1" stop-color="#ffbd14"/></linearGradient><linearGradient id="ubivA" x1="101.67" x2="101.67" y1="12.7" y2="7.88" gradientUnits="userSpaceOnUse"><stop offset="0" stop-color="#ff7b00"/><stop offset=".1" stop-color="#ff8b05"/><stop offset=".28" stop-color="#ffa10c"/><stop offset=".47" stop-color="#ffb110"/><stop offset=".69" stop-color="#ffba13"/><stop offset="1" stop-color="#ffbd14"/></linearGradient><linearGradient id="ubivB" x1="97.64" x2="97.64" y1="7.88" y2="3.06" gradientUnits="userSpaceOnUse"><stop offset="0" stop-color="#ff7b00"/><stop offset=".1" stop-color="#ff8b05"/><stop offset=".28" stop-color="#ffa10c"/><stop offset=".47" stop-color="#ffb110"/><stop offset=".69" stop-color="#ffba13"/><stop offset="1" stop-color="#ffbd14"/></linearGradient></defs><g><g><g/><g><g><g><path fill="url(#ubiva)" d="M105.78 85.375c-.598-1.78-1.197-3.881-1.796-6.145-3.592-13.421-6.786-13.745-8.382-14.392-1.597-.808-19.959-8.408-19.959-8.408l-7.983 3.557v25.388z"/></g><g><path fill="url(#ubivb)" d="M67.66 85.375V59.987l-7.983-3.557s-18.162 7.6-19.958 8.409c-1.597.808-4.99.97-8.383 14.391-.598 2.264-1.197 4.204-1.796 6.145z"/></g><g><path fill="#f4c297" d="M60.278 48.669l7.385-.809 7.385.809s-.6 5.336.798 7.923c0 0-3.992 3.72-8.183 3.557-4.191.324-8.183-3.557-8.183-3.557 1.397-2.587.798-7.923.798-7.923z"/></g><g><path fill="url(#ubivc)" d="M51.694 35.57h.399c-.2-.808-.2-1.778-.4-2.586-.598-4.205-2.195-16.494 15.967-16.494s16.566 12.29 15.967 16.494c-.2.808-.2 1.617-.4 2.587h.4c2.794-1.617 2.994 2.587 1.796 4.204-.998 1.294-.998 1.294-1.596 2.749-.4.97-1.198 1.132-1.797.97 0 .647-.2 1.132-.2 1.456-.199 2.263-6.985 6.791-8.581 8.246-1.397 1.294-3.792.809-4.59.809H67.46h-1.198c-.798 0-3.193.485-4.59-.809-1.597-1.455-8.183-5.983-8.582-8.246 0-.485-.2-.97-.2-1.456-.599.162-1.197 0-1.796-.97-.599-1.294-.599-1.455-1.597-2.749-.798-1.617-.399-5.983 2.196-4.204z"/></g><g><path fill="#582d11" d="M52.488 34.122c0 .809 1.597 6.63 1.996 8.57.598 3.558 3.592 5.175 4.59 5.983.998.809 3.992 1.617 5.19 1.94 1.197.324 5.588.324 6.985 0 1.197-.323 4.39-1.131 5.189-1.94.998-.808 3.992-2.425 4.59-5.983.2-1.94 1.996-7.761 1.996-8.57 0-.485.4-.323.4.323 0 .324-.2.809-.2 1.132 0 0-.998 7.924-1.198 7.924 0 .647-.2 1.132-.2 1.455 0 .162-.199.485-.199.647-.4.485-.798 1.132-1.597 1.94-2.195 2.102-5.788 4.69-6.785 5.66-1.398 1.293-3.793.808-4.59.808h-1.198-1.198c-.798 0-3.193.485-4.59-.808-.998-.97-4.59-3.396-6.786-5.66-.599-.808-1.198-1.617-1.597-1.94-.2-.162-.2-.485-.2-.647 0-.485-.199-.97-.199-1.455-.2 0-1.197-7.924-1.197-7.924 0-.323-.2-.808-.2-1.132.599-.646.998-.808.998-.323z"/></g><g><path fill="#582d11" d="M62.867 46.73c1.996-1.455 4.79-1.94 4.79-1.94s2.794.323 4.79 1.94c1.996 1.456 0 4.205 0 4.205l-.4-.485c2.196-3.558-4.39-3.881-4.39-3.881s-6.586.161-4.39 3.88l-.4.486s-1.996-2.75 0-4.205z"/></g><g><path fill="#582d11" d="M66.065 50.615c.599-.485 1.397-.485 1.397-.485s.798 0 1.397.485 1.996.162 1.996.162l-2.794 1.779-.799-.647-.798.647-2.794-1.78c.599 0 1.796.324 2.395-.16z"/></g><g><path fill="#582d11" d="M54.678 13.26s-.799 1.617 14.769 1.617h.998c14.769.485 13.97 11.966 13.97 11.966.2 2.91-.598 5.821-1.396 8.57l-.4-1.455s-.2-1.455-.798-3.072c0-.162 0-.162-.2-.324-.199-.485-.399-.97-.798-1.455-3.991-6.468-13.571-4.366-13.571-4.366s-9.58-2.102-13.572 4.366c-.2.485-.599.97-.798 1.455 0 .162 0 .162-.2.323-.599 1.618-.798 3.073-.798 3.073l.2 1.617c-.4-1.779-.8-3.558-1.198-5.336-1.597-9.702 3.792-16.979 3.792-16.979z"/></g><g><path fill="url(#ubivd)" d="M67.66 59.992l5.788 5.336 5.389-7.438-3.194-1.294c0-.161-4.59 2.75-7.983 3.396z"/></g><g><path fill="url(#ubive)" d="M67.657 59.992l-5.788 5.336-5.389-7.438 3.193-1.294c-.2-.161 4.59 2.75 7.984 3.396z"/></g><g><path fill="url(#ubivf)" d="M68.66 65.326l1.797-2.749-2.794-2.587-2.794 2.587 1.796 2.75-2.395 12.935 3.393 4.528 3.393-4.528z"/></g></g><g><g><path fill="url(#ubivg)" d="M105.786 31.05c-8.981 0-16.166 4.366-16.166 9.702 0 3.558 2.994 6.63 7.584 8.247l-4.39 6.306 10.577-4.85c.799 0 1.597.161 2.595.161 8.981 0 16.166-4.366 16.166-9.702-.2-5.336-7.385-9.864-16.366-9.864z"/></g></g><g><g><path fill="url(#ubivh)" d="M19.561 16.656c12.175-1.455 23.351 3.72 24.748 10.996.998 4.85-2.395 9.54-8.183 12.612l7.784 7.762-15.567-4.85c-1.198.322-2.196.484-3.393.646C12.775 45.277 1.798 40.588.4 33.312c-1.597-7.439 6.986-15.039 19.16-16.656z"/></g></g><g><g><path fill="url(#ubivi)" d="M97.4 0c-9.78 0-14.17 4.204-14.17 8.894 0 3.072 2.794 5.66 6.786 7.276l-3.792 5.498 9.18-4.366c.799 0 1.398.162 2.196.162 7.784 0 14.17-3.881 14.17-8.57C111.57 4.043 105.184 0 97.4 0z"/></g></g><g><path fill="url(#ubivj)" d="M92.608 88.131c-.2 0-.399 0-.598.162h-.2c-4.79 1.294-23.95 9.217-23.95 9.217V82.148L83.428 59.51h.598c4.59 1.94 10.578 4.528 12.175 5.174 1.397.647 2.395 1.78 4.191 3.881 1.397 1.617 2.994 3.72 5.588 6.63 5.788 6.63 11.776 16.332 11.776 16.332s6.386 7.438 0 10.834c-2.395 1.294-6.587 2.91-10.578 4.528-6.387 2.425-12.973 4.69-13.97 5.013l-.6-2.75-.998-5.174-1.197-5.498s.4 0 1.197-.162c.799-.161 1.996-.323 3.194-.646 2.594-.485 5.388-1.294 4.99-2.102-.799-1.456-5.19-7.439-7.186-7.439z"/></g><g><path fill="url(#ubivk)" d="M42.716 88.131c.2 0 .4 0 .599.162h.2c4.79 1.294 23.95 9.217 23.95 9.217V82.148L51.896 59.51h-.599c-4.59 1.94-10.578 4.528-12.175 5.174-1.397.647-2.395 1.78-4.19 3.881-1.398 1.617-2.995 3.72-5.59 6.63-5.787 6.63-11.774 16.332-11.774 16.332s-6.387 7.438 0 10.834c2.395 1.294 6.586 2.91 10.577 4.528 6.387 2.425 12.973 4.69 13.971 5.013l.599-2.75.998-5.174 1.197-5.498s-.399 0-1.197-.162c-.798-.161-1.996-.323-3.193-.646-2.595-.485-5.39-1.294-4.99-2.102.798-1.456 4.99-7.439 7.185-7.439z"/></g><g><path fill="url(#ubivl)" d="M94.01 112.06c0 1.132-.998 1.94-2.395 1.94h-47.9c-1.397 0-2.395-.808-2.395-1.94 0-1.131.998-1.94 2.395-1.94h47.9c1.397 0 2.395.97 2.395 1.94z"/></g><g><path fill="url(#ubivm)" d="M94.01 108.99c0 .97-.998 1.94-2.196 1.94H43.515c-1.197 0-2.195-.809-2.195-1.94V84.248c0-.97.998-1.779 2.195-1.779h48.3c1.197 0 2.195.809 2.195 1.779z"/></g><g><g><path fill="#fff" d="M69.657 99.61c.998-1.456 1.796-1.779 1.796-3.234v-.162c0-1.779-1.796-3.234-3.991-3.234-2.196 0-3.992 1.455-3.992 3.234v.162c0 1.455.798 1.778 1.796 3.234.599.323.599.647.599.97h-.4v.809h.4v.161c0 .162 0 .162.2.324l-.2.161c0 .162 0 .162.2.324-.2 0-.2.161-.2.323s.2.323.599.323c.2.324.598.647 1.197.647.599 0 .998-.323 1.198-.647.399 0 .598-.161.598-.323s0-.162-.2-.323c0 0 .2-.162.2-.324 0-.161 0-.161-.2-.323.2-.162.2-.162.2-.323v-.162h.4v-.809h-.4c0-.161 0-.485.2-.808z"/></g><g><path fill="#fff" d="M68.068 92.332c0 .324-.2.485-.399.485-.2 0-.399-.161-.399-.485v-1.617c0-.323.2-.485.4-.485.199 0 .398.162.398.485z"/></g><g><path fill="#fff" d="M65.466 92.652c.2.162.2.485 0 .647-.2.162-.598 0-.598-.162l-.998-1.293a.424.424 0 0 1 0-.647c.2-.162.598 0 .598.162z"/></g><g><path fill="#fff" d="M63.278 93.948c.2.162.399.323.2.485-.2.162-.4.162-.8 0l-1.596-.647c-.2-.161-.399-.323-.2-.485.2-.161.4-.161.799 0z"/></g><g><path fill="#fff" d="M62.275 96.05c.399 0 .598.162.598.323 0 .162-.2.324-.598.324h-1.996c-.4 0-.599-.162-.599-.324 0-.161.2-.323.599-.323z"/></g><g><path fill="#fff" d="M62.679 98.151c.2-.161.599-.161.798 0 .2.162 0 .485-.2.485l-1.596.809c-.2.162-.599.162-.798 0-.2-.162 0-.485.2-.485z"/></g><g><path fill="#fff" d="M64.078 99.769c.2-.162.4-.324.599-.162.2.162.2.323.2.485l-.999 1.132c-.2.162-.399.323-.598.162-.2-.162-.2-.324-.2-.485z"/></g><g><path fill="#fff" d="M69.86 92.652c-.2.162-.2.485 0 .647.2.162.598 0 .598-.162l.998-1.293c.2-.162.2-.485 0-.647-.2-.162-.598 0-.598.162z"/></g><g><path fill="#fff" d="M72.052 93.95c-.2.161-.399.323-.2.485.2.162.4.162.799 0l1.597-.809c.2-.161.399-.323.2-.485-.2-.161-.4-.161-.8 0z"/></g><g><path fill="#fff" d="M73.049 96.05c-.4 0-.599.162-.599.323 0 .162.2.324.599.324h1.996c.399 0 .598-.162.598-.324 0-.161-.2-.323-.598-.323z"/></g><g><path fill="#fff" d="M72.851 98.151c-.2-.161-.599-.161-.798 0-.2.162 0 .485.2.485l1.596.809c.2.162.599.162.798 0 .2-.162 0-.485-.2-.485z"/></g><g><path fill="#fff" d="M71.458 99.769c-.2-.162-.399-.324-.598-.162-.2.162-.2.323-.2.485l.798 1.132c.2.162.4.323.6.162.199-.162.199-.324.199-.485z"/></g></g><g><g><g><path fill="url(#ubivn)" d="M105.38 42.687V38.16c0-1.294 2.395-2.264 5.19-2.102 2.793 0 5.188.97 5.188 2.263v5.983c0 1.294-2.395 1.94-5.189 1.94s-5.189-.646-5.189-1.94z"/></g><g><g><path fill="#ffb82b" d="M115.758 38.161c0 1.294-2.395 2.264-5.189 2.103-2.794 0-5.189-.97-5.189-2.264 0-1.294 2.395-2.264 5.19-2.102 2.993.161 5.188 1.132 5.188 2.263z"/></g></g><g><path fill="#f5d5a4" d="M110.57 40.262c-2.795 0-4.99-.97-5.19-2.102 0 1.132 2.395 2.264 5.19 2.102 2.793.162 5.188-.808 5.188-2.102 0 1.132-2.395 2.102-5.189 2.102z"/></g><g><path fill="#ffb82b" d="M110.57 36.058c2.793 0 4.989.97 5.188 2.102 0-1.132-2.195-2.102-5.189-2.102-2.794-.162-5.189.808-5.189 2.102.2-1.132 2.395-2.102 5.19-2.102z"/></g><g><g><path fill="url(#ubivo)" d="M114.763 38.159c0 .97-1.796 1.778-4.191 1.778-2.196 0-3.992-.808-3.992-1.778s1.796-1.779 4.191-1.779c2.196.162 3.992.809 3.992 1.779z"/></g></g><g><path fill="#f5d5a4" d="M110.571 36.54c2.196 0 3.992.81 3.992 1.78.2-1.132-1.597-1.78-3.992-1.78-2.195-.161-4.191.648-4.191 1.618.2-.97 1.996-1.617 4.191-1.617z"/></g><g><path fill="#f5d5a4" d="M110.572 39.779c-2.196 0-3.992-.809-3.992-1.779 0 1.132 1.796 1.94 3.992 1.779 2.195.161 4.19-.647 4.19-1.617-.199.97-1.995 1.617-4.19 1.617z"/></g><g><g><path fill="#f5d5a4" d="M110.574 39.457a5.843 5.843 0 0 1-2.595-.647c-.2-.161-.399-.485-.399-.646 0-.647 1.198-1.294 2.994-1.294 1.796 0 2.994.647 2.994 1.294 0 .808-1.198 1.293-2.994 1.293z"/></g><g><path fill="#ffd336" d="M113.368 38.164c0 .646-1.197 1.132-2.794 1.132-1.596 0-2.794-.486-2.794-1.294 0-.647 1.198-1.132 2.794-1.132 1.597.162 2.994.647 2.794 1.294z"/></g></g><g><path fill="#f5d5a4" d="M113.368 38.32c0 .647-1.397.97-2.794.97-1.597 0-2.794-.485-2.794-.97 0 .647 1.397 1.132 2.794 1.132 1.597 0 2.794-.485 2.794-1.132z"/></g><g><path fill="#ffb82b" d="M110.574 37.025c1.597 0 2.794.485 2.794 1.132.2-.647-1.197-1.132-2.794-1.132-1.597-.162-2.794.485-2.794 1.132 0-.647 1.397-1.132 2.794-1.132z"/></g><g><g><path fill="url(#ubivp)" d="M110.379 38.969h-.599l.2-.162h.598v-.483-.002.485h.2v-.323s-.198 0-.2-.16v-.002h-.2s-.199 0-.199-.162c0 0-.2 0-.2-.161v-.162c0-.162 0-.162.2-.324.2 0 .4-.161.599-.161v-.162h.4v.162H111.775l-.2.161h-.399V38h.2s.2 0 .2.161c0 0 .199 0 .199.162v.162c0 .161 0 .161-.2.323-.2 0-.399.162-.599.162v.161h-.399zm.2-1.294h-.2V38s.2 0 .2.161zm0 .647z"/></g><g><path fill="#f5d5a4" d="M111.376 38.485c0 .162 0 .324-.2.324-.199.161-.399.161-.598.161v.162h-.4v-.162h-.598l.2-.161h.598v-.485h-.2c0-.162-.199-.162-.199-.162-.2 0-.2-.162-.2-.162v-.161c0-.054 0-.108.008-.156l.192.156c0 .161.2.161.2.161.2.162.399.162.399.162v.97h.2v-.162h.2c.199 0 .199-.161.398-.161 0-.13 0-.155.102-.325l-.102.001zm-1.397-.97c.2-.162.4-.162.599-.162v-.161h.2v-.162h-.2v.162h-.2c-.2 0-.2.161-.399.161-.2 0-.2.162-.2.162v.162l.008.006c.015-.096.06-.168.192-.168zm1.597 0l-.2.162h-.399v-.162h.599zm-.599.647h.2s.2 0 .399.162c-.2 0 0 0 0 0 0 .127 0 .154-.098.16.025-.043.058-.095.098-.16v-.162c0-.162-.2-.162-.2-.162 0-.161-.2-.161-.2-.161h-.199z"/></g></g><g><g><path fill="url(#ubivq)" d="M110.57 44.954c-2.795 0-5.19-.97-5.19-2.264v1.455c0 1.132 2.395 1.94 5.19 1.94 2.793 0 5.188-.646 5.188-1.94V42.69c0 1.294-2.395 2.264-5.189 2.264z"/></g></g><g><path fill="#f5d5a4" d="M115.758 43.984c0 1.293-2.395 1.94-5.189 1.94s-5.189-.808-5.189-1.94v.161c0 1.132 2.395 1.94 5.19 1.94 2.793 0 5.188-.646 5.188-2.101V42.69z"/></g><g><path fill="#e66409" d="M110.57 43.664c-2.795 0-5.19-.97-5.19-2.264v1.132c0 1.294 2.195 2.264 5.19 2.264 2.793 0 5.188-.97 5.188-2.102v.323-1.455c0 1.293-2.395 2.264-5.189 2.102z"/></g><g><path fill="url(#ubivr)" d="M110.57 42.694c-2.795 0-5.19-.97-5.19-2.264v1.455-.323c0 1.294 2.195 2.264 5.19 2.264 2.793 0 5.188-.97 5.188-2.102v.323-1.455c0 1.132-2.395 2.102-5.189 2.102z"/></g><g><path fill="#ff700a" d="M110.57 41.554c-2.795 0-5.19-.97-5.19-2.264v1.132c0 1.294 2.195 2.264 5.19 2.264 2.793 0 5.188-.97 5.188-2.102v.323-1.455c0 1.132-2.395 2.102-5.189 2.102z"/></g><g><path fill="url(#ubivs)" d="M110.57 40.424c-2.795 0-5.19-.97-5.19-2.264v1.132c0 1.294 2.195 2.264 5.19 2.264 2.793 0 5.188-.97 5.188-2.102v.323-1.455c0 1.132-2.395 2.102-5.189 2.102z"/></g><g><path fill="#f5d5a4" d="M115.758 42.532c0 1.132-2.395 2.102-5.189 2.102s-5.189-.97-5.189-2.264v-.97 1.132c0 1.294 2.195 2.264 5.19 2.264 2.793.161 5.188-.809 5.188-2.264v.485z"/></g><g><g><path fill="#f5d5a4" d="M105.38 40.43v1.455-.323z"/></g><g><path fill="#f5d5a4" d="M110.57 43.664c-2.795 0-5.19-.97-5.19-2.264v.162c0 1.132 2.395 2.102 5.19 2.102 2.793.162 5.188-.809 5.188-2.102v.323-.485c0 1.294-2.395 2.264-5.189 2.264z"/></g></g><g><path fill="#f5d5a4" d="M110.57 42.524c-2.795 0-5.19-.97-5.19-2.264v-.97 1.132c0 1.132 2.395 2.102 5.19 2.102 2.793.162 5.188-.808 5.188-2.102v.323-.485c0 1.294-2.395 2.264-5.189 2.264z"/></g><g><path fill="#f5d5a4" d="M110.57 41.394c-2.795 0-5.19-.97-5.19-2.264v-.97 1.132c0 1.132 2.395 2.264 5.19 2.102 2.793.162 5.188-.808 5.188-2.102v.323-.485c0 1.294-2.395 2.264-5.189 2.264z"/></g></g><g><path fill="url(#ubivt)" d="M101.39 40.1c-2.795 0-5.19.97-5.19 2.264v1.132c0 1.293 2.195 2.425 5.19 2.425 2.793 0 5.188-.97 5.188-2.264v.324-1.617c0-1.132-2.395-2.102-5.189-2.264z"/></g><g><g><path fill="#ffb82b" d="M106.578 42.526c0 1.293-2.395 2.263-5.189 2.263S96.2 43.657 96.2 42.364c0-1.294 2.395-2.264 5.19-2.264 2.793.162 5.188 1.132 5.188 2.426z"/></g></g><g><path fill="#f5d5a4" d="M101.39 44.794c-2.795 0-4.99-.97-5.19-2.264 0 1.294 2.195 2.264 5.19 2.264 2.793.162 5.188-.97 5.188-2.264-.2 1.294-2.395 2.264-5.189 2.264z"/></g><g><path fill="#ffb82b" d="M101.39 40.268c2.793 0 4.989.97 5.188 2.263 0-1.293-2.395-2.263-5.189-2.263-2.794-.162-5.189.808-5.189 2.102 0-1.132 2.395-2.102 5.19-2.102z"/></g><g><g><path fill="url(#ubivu)" d="M105.383 42.53c0 .97-1.796 1.78-4.191 1.78-2.196 0-3.992-.81-3.992-1.941 0-.97 1.796-1.779 4.191-1.779 2.196.162 3.992.97 3.992 1.94z"/></g></g><g><path fill="#f5d5a4" d="M101.397 44.309c-2.196 0-3.992-.809-3.992-1.779-.2.97 1.597 1.779 3.992 1.779 2.195.161 4.191-.647 4.191-1.779-.2.97-1.996 1.779-4.191 1.779z"/></g><g><g><path fill="#f5d5a4" d="M101.394 43.979c-.998 0-1.996-.323-2.595-.809-.2-.161-.399-.485-.399-.646 0-.809 1.198-1.294 2.994-1.294 1.796 0 2.994.647 2.994 1.455 0 .647-1.398 1.294-2.994 1.294z"/></g><g><path fill="#ffd336" d="M104.188 42.524c0 .646-1.197 1.293-2.794 1.293S98.6 43.17 98.6 42.524c0-.647 1.197-1.294 2.794-1.294s2.794.647 2.794 1.294z"/></g></g><g><path fill="#f5d5a4" d="M104.188 42.53c0 .647-1.397 1.132-2.794 1.132-1.597 0-2.794-.485-2.794-1.132 0 .647 1.397 1.294 2.794 1.294s2.595-.485 2.794-1.294z"/></g><g><path fill="#ffb82b" d="M101.394 41.395c1.597 0 2.794.647 2.794 1.294 0-.809-1.197-1.456-2.794-1.294-1.597-.162-2.794.485-2.794 1.132 0-.647 1.197-1.132 2.794-1.132z"/></g><g><g><path fill="url(#ubivv)" d="M100.999 43.34h-.599l.2-.323h.598v-.485h-.2s-.199 0-.199-.162l-.2-.161v-.162c0-.162 0-.162.2-.324.2 0 .4-.161.599-.161V41.4h.4v.162H102.395l-.4.485h-.398v.485s.2 0 .2.162c0 0 .199 0 .199.161l.2.162v.162c0 .161 0 .161-.2.323-.2 0-.4.162-.6.162v.162H101zm.399-1.455h-.2v.324s.2 0 .2.161zm0 1.294h.2v-.324s-.2 0-.2-.161z"/></g><g><path fill="#f5d5a4" d="M101.996 43.015c0 .057 0 .113-.008.162h.008c.145-.117.185-.15.12-.22a.87.87 0 0 1-.12.058zm-.2.324a.7.7 0 0 1-.399.155v-.155h.2c.197 0 .2-.157.39-.162-.015.093-.06.162-.19.162zm-.598.161v.162h-.4V43.5h-.598l.2-.323h.598v-.485h-.2c0-.162-.199-.162-.199-.162-.2 0-.2-.161-.2-.161v-.162l.2.162c0 .161.2.161.2.161.2.162.399.162.399.162v.808h.2v-.006c-.067.006-.134.006-.2.006zm-.599-1.617a.674.674 0 0 1 .285-.138c-.097.045-.133.138-.285.138h-.003.003zm.599-.323h.4v.162h.598l-.2.161h-.399v.486h-.2v-.809h-.2zm.599.97s.2 0 .399.162c0 0 .154.125-.08.265-.025-.027-.065-.059-.12-.103v-.162c0-.162-.2-.162-.2-.162zm-.6-.808h-.023.024zm-.199 0a.264.264 0 0 0-.114.023c.097-.022.193-.023.29-.023zm-.598.323v.162c0-.161 0-.322.196-.324-.196 0-.196.001-.196.162zm1.197.324c0 .161.2.161.2.161 0-.161-.2-.161-.2-.161z"/></g></g><g><path fill="url(#ubivw)" d="M101.39 44.796c-2.795 0-5.19-1.132-5.19-2.426v1.132c0 1.294 2.195 2.425 5.19 2.425 2.793 0 5.188-.97 5.188-2.263v.323-1.617c0 1.455-2.395 2.587-5.189 2.426z"/></g><g><path fill="#f5d5a4" d="M101.39 45.926c-2.795 0-5.19-1.132-5.19-2.426v-.97 1.132c0 1.294 2.195 2.425 5.19 2.264 2.793.161 5.188-.809 5.188-2.102v.323-.485c-.2 1.294-2.395 2.264-5.189 2.264z"/></g></g><g><g><g><path fill="url(#ubivx)" d="M37.922 34.6l-19.16 5.175-3.592-8.57 19.36-5.175z"/></g><g><path fill="#299fbb" d="M33.934 27.33l2.794 6.953-17.164 4.528-2.994-7.115zm.998 5.498l-1.397-3.881h-.2c-.599.162-1.198 0-1.397-.485V28.3l-13.173 3.558v.161c.2.485 0 .97-.598 1.132h-.2l1.597 3.881h.2c.598-.162 1.197 0 1.396.485v.162l13.173-3.558v-.161c-.2-.485 0-.97.599-1.132.2 0 0 0 0 0z"/></g><g><g><path fill="#299fbb" d="M27.35 33.312c-.2 0-.2 0-.4-.162l.4.809c.199 0 .199-.162.398-.324v-.323c-.2.161-.2.161-.399 0z"/></g><g><path fill="#299fbb" d="M25.75 32.175c0 .162.2.162.2.162.199 0 .199 0 .398.162l-.399-.809c-.2 0-.399.162-.399.162.2.161.2.323.2.323z"/></g><g><path fill="#299fbb" d="M29.747 32.18c.4 1.455-.399 2.91-2.195 3.396-1.796.323-3.593-.324-4.191-1.78-.4-1.455.399-2.91 2.195-3.395 1.796-.485 3.792.323 4.191 1.779zm-1.397 1.94c.2-.162.2-.485 0-.808 0-.162 0-.162-.2-.324-.199 0-.199-.161-.398-.161-.2-.162-.2-.162-.4-.162h-.399l-.399-.97h.599v-.647h-.998l-.2-.485-.598.161.598.647-.598.485c-.2.324-.2.485 0 .809 0 .162 0 .162.2.323.199 0 .199.162.398.162.2.162.2.162.4.162h.399l.399.97h-.999v.647h.4c.2 0 .4-.162.599-.162l.2.485.598-.162-.2-.485.6-.485z"/></g></g></g><g opacity=".36"><path fill="#8cd4d4" d="M25.15 28.62l-6.386 11.157-2.794-6.791z"/></g><g><g><path fill="url(#ubivy)" d="M28.746 24.736L16.57 37.996 7.59 32.66 19.765 19.4z"/></g><g><path fill="#299fbb" d="M19.758 20.54l7.385 4.366L16.564 36.71 9.18 32.344zm5.19 4.204l-3.993-2.587v.162c-.2.323-.998.485-1.397.161l-.2-.161-8.182 9.055h.2c.399.162.598.809.199 1.132v.162l3.992 2.425v-.162c.2-.323.998-.485 1.397-.161l.2.161 8.182-9.055h-.2c-.399-.162-.598-.808-.199-1.132 0-.161 0-.161 0 0z"/></g><g><g><path fill="#299fbb" d="M18.96 28.62c-.2 0-.2 0-.4.162l.998.485c0-.162.2-.324.2-.324 0-.161-.2-.161-.2-.323h-.599z"/></g><g><path fill="#299fbb" d="M16.97 28.457c.2 0 .2.162.399 0 .2 0 .2 0 .399-.162l-.798-.485c-.2.162-.2.323-.2.323 0 .162 0 .324.2.324z"/></g><g><path fill="#299fbb" d="M20.16 26.36c1.597.808 1.797 2.586.799 3.718-.998 1.294-3.194 1.456-4.59.647-1.597-.808-1.797-2.587-.799-3.72.998-1.131 3.193-1.454 4.59-.646zm-.399 1.778s-.2-.162-.399-.162h-.4c-.199 0-.199.162-.398.162-.2 0-.2.162-.4.162l-.997-.647.2-.162c0-.162.199-.162.199-.162l-.4-.485c-.199 0-.199.162-.399.162l-.399.323-.399-.323-.399.485.599.323c-.2.162-.2.486-.2.647 0 .324.2.485.599.647 0 0 .2.162.399.162h.4c.199 0 .199-.162.398-.162.2 0 .4 0 .799-.162l.998.647c-.2.162-.2.324-.4.324-.2.161-.399.161-.399.161l.4.485c.199 0 .199 0 .399-.161l.399-.324.2.324.399-.485-.4-.324c.2-.323.2-.647.2-.808 0-.162-.2-.485-.599-.647z"/></g></g></g></g><g><g><g><path fill="url(#ubivz)" d="M97.803 11.964c0 .324-.4.647-.798.647h-6.587c-.399 0-.798-.323-.798-.647l1.197-3.557c.2-.485.4-.647.799-.647h4.191c.4 0 .599.323.798.647z"/></g><g><path fill="#f5d5a4" d="M97.005 12.123h-6.586c-.2 0-.599-.161-.599-.323v.162c0 .323.4.647.798.647h6.587c.399 0 .798-.324.798-.647V11.8c-.4.162-.798.323-.998.323z"/></g></g><g><g><path fill="url(#ubivA)" d="M105.783 11.964c0 .324-.4.647-.798.647h-6.587c-.399 0-.798-.323-.798-.647l1.198-3.557c.2-.485.399-.647.798-.647h4.191c.4 0 .599.323.798.647z"/></g><g><path fill="#f5d5a4" d="M104.985 12.123h-6.586c-.2 0-.599-.161-.599-.323v.162c0 .323.4.647.798.647h6.587c.399 0 .798-.324.798-.647V11.8c-.4.162-.798.323-.998.323z"/></g></g><g><g><path fill="url(#ubivB)" d="M101.593 7.274c0 .324-.4.647-.798.647h-6.587c-.399 0-.798-.323-.798-.647l1.198-3.557c.2-.485.399-.647.798-.647h4.39c.4 0 .6.323.799.647z"/></g><g><path fill="#f5d5a4" d="M100.985 7.273h-6.586c-.2 0-.599-.161-.599-.323v.162c0 .323.4.647.798.647h6.587c.399 0 .798-.324.798-.647V6.95c-.599.323-.798.323-.998.323z"/></g></g></g></g></g></g></svg>