<svg xmlns="http://www.w3.org/2000/svg" width="99" height="103"><defs><linearGradient id="a" x1="3.33" x2="56.94" y1="26.68" y2="26.68" gradientUnits="userSpaceOnUse"><stop offset="0" stop-color="#dd3f18"/><stop offset=".42" stop-color="#e74a1b"/><stop offset="1" stop-color="#fd6120"/></linearGradient><linearGradient id="b" x1="30.13" x2="30.13" y1="47.8" y2="5.57" gradientUnits="userSpaceOnUse"><stop offset="0" stop-color="#ff7b00"/><stop offset=".02" stop-color="#ff7d01"/><stop offset=".67" stop-color="#ffab0f"/><stop offset="1" stop-color="#ffbd14"/></linearGradient><linearGradient id="c" x1="30.14" x2="30.14" y1="38.67" y2="14.64" gradientUnits="userSpaceOnUse"><stop offset="0" stop-color="#ff7b00"/><stop offset=".02" stop-color="#ff7d01"/><stop offset=".67" stop-color="#ffab0f"/><stop offset="1" stop-color="#ffbd14"/></linearGradient><linearGradient id="d" x1="49.95" x2="96.77" y1="79.71" y2="79.71" gradientUnits="userSpaceOnUse"><stop offset="0" stop-color="#dd3f18"/><stop offset=".42" stop-color="#e74a1b"/><stop offset="1" stop-color="#fd6120"/></linearGradient><linearGradient id="e" x1="73.36" x2="73.36" y1="98.17" y2="61.29" gradientUnits="userSpaceOnUse"><stop offset="0" stop-color="#ff7b00"/><stop offset=".02" stop-color="#ff7d01"/><stop offset=".67" stop-color="#ffab0f"/><stop offset="1" stop-color="#ffbd14"/></linearGradient><linearGradient id="f" x1="68.22" x2="79.88" y1="73.3" y2="84.9" gradientUnits="userSpaceOnUse"><stop offset="0" stop-color="#ffbd14"/><stop offset=".05" stop-color="#ffb612"/><stop offset=".27" stop-color="#ff9c0a"/><stop offset=".5" stop-color="#ff8a04"/><stop offset=".74" stop-color="#ff7f01"/><stop offset="1" stop-color="#ff7b00"/></linearGradient><linearGradient id="g" x1="78.59" x2="78.59" y1="60.06" y2="2.89" gradientUnits="userSpaceOnUse"><stop offset="0" stop-color="#062a54"/><stop offset=".27" stop-color="#072c58"/><stop offset=".52" stop-color="#083263"/><stop offset=".75" stop-color="#0b3c75"/><stop offset=".98" stop-color="#104b8f"/><stop offset="1" stop-color="#104c91"/></linearGradient><linearGradient id="h" x1="20.08" x2="23.45" y1="99.21" y2="47.11" gradientUnits="userSpaceOnUse"><stop offset="0" stop-color="#062a54"/><stop offset=".27" stop-color="#072c58"/><stop offset=".52" stop-color="#083263"/><stop offset=".75" stop-color="#0b3c75"/><stop offset=".98" stop-color="#104b8f"/><stop offset="1" stop-color="#104c91"/></linearGradient></defs><path fill="url(#a)" d="M30.174.002C15.437-.171 3.474 11.562 3.3 26.226c0 14.838 11.963 26.915 26.7 27.087 14.738.173 26.874-11.559 26.874-26.224.174-14.665-11.79-26.915-26.7-27.087z"/><path fill="#ffb82b" d="M56.874 27.089c0 14.665-12.136 26.57-26.873 26.224C15.263 53.141 3.3 41.063 3.3 26.226 3.473 11.561 15.437-.17 30.174.002c14.91.172 26.874 12.422 26.7 27.087z"/><path fill="#f5d5a4" d="M29.997 52.1C15.433 51.754 3.643 40.022 3.47 25.53v.69c0 14.838 11.963 26.915 26.7 27.087 14.738.173 26.874-11.56 26.874-26.224v-.69c-.52 14.492-12.483 25.879-27.047 25.706z"/><path fill="#ffb82b" d="M30.347 1.555c14.39.172 26.18 11.904 26.527 26.224v-.69C57.048 12.424 45.084.174 30.174.002 15.437-.171 3.474 11.562 3.3 26.226v.863c.52-14.32 12.483-25.707 27.047-25.534z"/><path fill="url(#b)" d="M51.318 27.086c0 11.732-9.536 21.049-21.326 20.876C18.376 47.617 8.84 37.955 8.84 26.396c0-11.732 9.536-20.876 21.326-20.704 11.79 0 21.326 9.662 21.152 21.394z"/><path fill="#f5d5a4" d="M29.992 46.756C18.376 46.584 9.187 37.266 8.84 25.88v.518c0 11.732 9.363 21.22 21.152 21.393 11.79.173 21.326-9.144 21.326-20.876v-.517c-.347 11.559-9.71 20.53-21.326 20.358z"/><path fill="#f5d5a4" d="M30 42.618c-5.72-.173-10.922-3.278-13.523-8.454-1.213-2.415-1.907-5.003-1.907-7.764 0-8.799 6.762-15.7 15.257-15.7 8.843.173 15.605 7.246 15.605 16.218 0 8.799-6.762 15.7-15.258 15.7z"/><path fill="#ffd336" d="M44.918 26.913c0 8.11-6.762 14.493-14.91 14.493-8.15-.173-14.738-6.729-14.738-15.01 0-8.11 6.762-14.665 14.91-14.493 8.15.173 14.738 6.901 14.738 15.01z"/><path fill="#f5d5a4" d="M44.911 27.605c-.52 6.901-6.935 12.25-14.737 12.25-7.802-.173-14.217-5.694-14.564-12.595.347 7.764 6.762 13.975 14.564 14.147 7.802 0 14.217-6.038 14.737-13.802z"/><path fill="#ffb82b" d="M30.17 13.111c7.976.173 14.391 6.556 14.738 14.32v-.518c0-8.109-6.588-14.837-14.737-15.01-8.15-.172-14.738 6.384-14.911 14.493v.517c.52-7.763 6.935-13.975 14.91-13.802z"/><path fill="url(#c)" d="M28.788 36.401c-.867 0-1.56-.172-2.254-.345-.694-.172-1.04-.345-1.387-.69l.867-2.933 1.04.518c.52.172 1.04.345 1.56.345V27.43c-.52-.345-.867-.518-1.387-.863a4.042 4.042 0 01-1.213-1.208c-.347-.517-.694-1.035-.867-1.552a6.406 6.406 0 01-.347-2.07c0-1.381.347-2.416 1.04-3.279.694-.862 1.56-1.38 2.774-1.553V14.49h2.601v2.415c.694 0 1.214.173 1.734.345.52.173.867.346 1.387.518l-.867 2.933a1.328 1.328 0 00-.867-.345c-.347-.173-.693-.173-1.214-.345v5.348c.52.345.867.518 1.387 1.036.52.345.867.69 1.214 1.207.347.345.694 1.035.867 1.553a6.42 6.42 0 01.347 2.07c0 1.553-.347 2.76-1.04 3.624-.694.862-1.56 1.552-2.775 1.725v2.415h-2.6zM30 19.838c-.693 0-1.04.345-1.387.69-.173.346-.346.863-.346 1.208 0 .518.173 1.035.52 1.38.347.346.693.69 1.213 1.036zm.174 13.63c.52-.172 1.04-.345 1.213-.69.347-.345.347-.862.52-1.553 0-.517-.173-1.035-.52-1.552-.346-.345-.693-.863-1.213-1.036z"/><path fill="#f5d5a4" d="M35.203 30.71c0 1.553-.347 2.76-1.04 3.623-.694.863-1.56 1.553-2.775 1.726v2.415h-2.6v-2.243c-.867 0-1.56-.172-2.254-.345-.52-.172-1.04-.517-1.387-.69l.867-2.933c.173.173.52.345 1.04.518.347.172.867.345 1.56.345V27.26c-.52-.173-.867-.518-1.387-.863s-.867-.863-1.213-1.208c-.347-.517-.694-1.035-.867-1.552a6.406 6.406 0 01-.347-2.07c0-1.381.347-2.416 1.04-3.279.694-.862 1.56-1.38 2.774-1.553V14.32h2.601v2.415c.694 0 1.214.173 1.734.345.52.173 1.04.346 1.387.518l-.867 2.76c-.173 0-.52-.172-.867-.345-.347-.172-.693-.345-1.214-.345v5.349c.52.345.867.69 1.387 1.035s.867.69 1.214 1.208c.347.517.694 1.035.867 1.553.173.69.347 1.207.347 1.897zm-.694 0c0-.517 0-.862-.173-1.207-.173-.345-.347-.863-.694-1.208-.173-.345-.52-.69-1.04-1.035s-.867-.69-1.387-.863l-.52-.172v-7.592l.693.173c.347.172.867.172 1.214.345.173 0 .347.172.52.172l.174-.517c-.174 0-.347-.173-.52-.173-.52-.172-1.04-.345-1.56-.345h-.694v-2.243h-1.214v2.243l-.52.173c-1.04.172-1.907.69-2.428 1.38-.52.69-.693 1.208-.693 2.243 0 .517 0 1.035.173 1.38.174.518.347.863.694 1.208s.693.69 1.213 1.035c.347.345 1.734 1.208 1.734 1.208v8.109l-.693-.173c-.694 0-1.214-.172-1.734-.345-.173-.173-.52-.173-.694-.345l-.173.69c.173 0 .347.173.52.173a6.51 6.51 0 002.08.345h.694v2.243h1.214v-2.416l.52-.172c1.04-.173 1.907-.69 2.6-1.553.52-.69.694-1.553.694-2.76z"/><path fill="url(#d)" d="M73.52 56.412C60.516 56.24 50.113 66.42 49.94 79.36c0 12.94 10.403 23.463 23.233 23.636 13.003.173 23.406-10.007 23.58-22.946 0-12.768-10.403-23.464-23.233-23.637z"/><path fill="#ffb82b" d="M96.755 80.049c0 12.94-10.576 23.119-23.58 22.946-13.003-.173-23.406-10.87-23.233-23.637 0-12.767 10.576-23.118 23.58-22.946 12.83.173 23.233 10.87 23.233 23.637z"/><path fill="#f5d5a4" d="M73.173 101.796c-12.657-.172-22.886-10.351-23.233-22.946v.518c0 12.94 10.403 23.464 23.233 23.636 13.003.173 23.406-10.007 23.58-22.946v-.518c-.347 12.595-10.75 22.602-23.58 22.256z"/><path fill="#ffb82b" d="M73.52 57.792c12.656.173 22.886 10.352 23.233 22.947v-.69c0-12.94-10.403-23.464-23.233-23.637C60.516 56.24 50.113 66.42 49.94 79.36v.69c.52-12.595 10.75-22.43 23.58-22.257z"/><path fill="url(#e)" d="M91.903 80.058c0 10.18-8.323 18.288-18.552 18.116-10.23-.173-18.552-8.627-18.378-18.806 0-10.179 8.322-18.288 18.551-18.115 10.23.172 18.379 8.626 18.379 18.805z"/><path fill="#f5d5a4" d="M73.348 97.308c-10.056-.172-18.205-8.281-18.378-18.288v.518c0 10.179 8.149 18.633 18.378 18.805 10.23 0 18.552-8.109 18.552-18.288v-.517c-.347 10.006-8.496 17.77-18.552 17.77z"/><path fill="#f5d5a4" d="M73.34 93.687c-5.028 0-9.536-2.933-11.79-7.418-1.04-2.07-1.56-4.314-1.56-6.73 0-7.59 5.895-13.629 13.35-13.629 7.802.173 13.697 6.384 13.697 14.147 0 7.764-5.895 13.63-13.35 13.63z"/><path fill="#ffd336" d="M86.354 79.886c0 7.074-5.895 12.767-13.004 12.595-7.108-.173-12.83-5.866-12.83-13.112 0-7.074 5.895-12.768 13.003-12.595 7.11.172 12.83 6.038 12.83 13.112z"/><path fill="#f5d5a4" d="M86.18 80.575c-.347 6.039-6.068 10.697-12.83 10.697-6.935-.173-12.483-5.003-12.83-11.042.347 6.729 5.895 12.25 12.83 12.25 6.935.172 12.484-5.176 12.83-11.905z"/><path fill="#ffb82b" d="M73.344 67.809c6.935.173 12.483 5.693 12.83 12.595v-.518c0-7.074-5.722-12.94-12.83-13.112-7.11-.173-13.004 5.52-13.004 12.595v.517c.52-6.729 6.068-12.077 13.004-12.077z"/><path fill="url(#f)" d="M76.817 73.148V69.87c-5.549 0-9.19 2.415-9.883 6.901H65.2v1.553h1.56v1.553H65.2v2.243h2.08c1.214 3.795 4.682 5.693 9.71 5.693v-3.278c-2.948 0-4.681-.863-5.548-2.415h4.68v-2.243h-5.374v-1.553h5.375V76.77h-5.201c.52-2.588 2.253-3.623 5.895-3.623z"/><path fill="#f5d5a4" d="M76.817 73.148c-3.642 0-5.375 1.035-5.895 3.623h5.2v1.553h-5.374v1.553h5.375v2.243h-4.681c.867 1.552 2.6 2.415 5.548 2.415v3.278c-5.028 0-8.496-1.898-9.71-5.693H65.2v-2.243h1.56v-1.553H65.2V76.77h1.734c.693-4.486 4.334-6.901 9.883-6.901zm-6.762 3.623c.693-2.933 2.427-4.14 6.241-4.313v-1.725c-3.64.172-7.628 1.552-8.495 6.383l-.174.69v2.933H65.72v.69h1.734l.173.518c1.04 3.106 3.988 5.003 8.15 5.176v-1.725c-2.775-.173-4.509-1.036-5.376-2.933l-.52-1.036h5.202v-.69h-4.508l-.694-.172v-2.933z"/><path fill="url(#g)" d="M99.004 44.855c-.173-5.176-.867-10.525-3.294-15.528-2.427-4.83-5.548-9.144-9.536-12.94-3.294-3.278-7.455-6.038-11.616-8.109L75.77 2.93 58.26 8.278l13.35 12.25 1.214-4.83c3.294 1.38 6.415 3.105 9.19 5.348 3.64 2.933 6.934 6.556 9.708 10.524 2.601 3.795 4.162 8.626 5.028 13.457.867 4.831 1.04 10.007.694 15.01 1.04-4.83 1.56-10.007 1.56-15.182z"/><path fill="#9fcbd6" d="M74.55 7.416l1.04-4.486m23.068 49.52c-.347 2.243-.694 4.658-1.214 6.901.52-5.003.173-10.179-.694-15.01-.867-4.83-2.427-9.661-5.028-13.457a46.135 46.135 0 00-9.536-10.524c-2.774-2.243-5.895-3.969-9.189-5.349l-1.04 5.004L58.954 8.11l-.694.173 13.35 12.25 1.214-4.832c3.294 1.38 6.415 3.106 9.19 5.349 3.64 2.933 6.934 6.556 9.708 10.524 2.601 3.796 4.161 8.627 5.028 13.457.867 4.831 1.04 10.007.694 15.01.52-2.415.867-5.003 1.214-7.591z"/><path fill="#284080" d="M74.55 9.315c4.335 2.07 8.322 4.831 11.617 8.11 3.987 3.795 7.108 8.108 9.535 12.939 1.734 3.623 2.601 7.419 3.121 11.214-.347-4.14-1.213-8.454-3.12-12.422-2.428-4.83-5.549-9.144-9.537-12.94-3.294-3.278-7.108-5.866-11.443-7.936zM97.437 59.01c.173-3.106 0-6.384-.347-9.49.347 3.45.347 7.074 0 10.524.347-.345.347-.69.347-1.035zM75.425 4.138l.173-1.208L58.26 8.278l.867.863z"/><path fill="url(#h)" d="M43.517 95.066l-12.83-12.94-1.388 5.004c-3.294-1.38-6.415-3.106-9.536-5.176-3.814-2.588-7.282-5.866-10.402-9.49-2.948-3.623-5.202-7.936-6.762-12.422C1.039 55.384.17 50.553.17 45.55c-.693 4.83-.52 10.007.174 15.01.867 5.003 2.427 10.007 5.201 14.492 3.121 4.486 6.589 8.282 10.577 11.732 3.467 2.933 7.281 5.521 11.27 7.42l-1.561 5.348z"/><path fill="#9fcbd6" d="M26.187 98.856l-.347.69 17.685-4.486-.52-.69zm1.382-5.343c-3.988-2.07-7.802-4.486-11.27-7.419-3.988-3.45-7.455-7.246-10.23-11.732-2.773-4.485-4.334-9.489-5.2-14.492C.174 55.212 0 50.553.52 46.068v-.518C-.173 50.38 0 55.557.694 60.56c.867 5.003 2.427 10.007 5.201 14.492 2.774 4.486 6.242 8.282 10.23 11.732 3.294 2.933 7.108 5.349 11.27 7.42z"/><path fill="#284080" d="M.52 46.755c0 5.004.867 9.834 2.427 14.493 1.56 4.658 3.815 8.799 6.762 12.422 2.948 3.623 6.415 6.9 10.23 9.489 2.947 2.07 6.241 3.795 9.536 5.176l1.387-5.004 11.963 12.077.867-.172-12.83-12.94-1.387 5.004c-3.295-1.38-6.415-3.106-9.536-5.176-3.815-2.588-7.282-5.866-10.403-9.49-2.948-3.622-5.201-7.936-6.762-12.421C1.214 55.554.347 50.723.347 45.72 0 48.308 0 51.068 0 53.829c0-2.416.173-4.83.52-7.074z"/></svg>