<svg xmlns="http://www.w3.org/2000/svg" width="99" height="122"><defs><linearGradient id="a" x1="15.75" x2="15.75" y1="29.1" y2="3.46" gradientUnits="userSpaceOnUse"><stop offset="0" stop-color="#ff7b00"/><stop offset=".02" stop-color="#ff7d01"/><stop offset=".67" stop-color="#ffab0f"/><stop offset="1" stop-color="#ffbd14"/></linearGradient><linearGradient id="b" x1="76.88" x2="91.15" y1="7.86" y2="22.09" gradientUnits="userSpaceOnUse"><stop offset="0" stop-color="#ffbd14"/><stop offset=".05" stop-color="#ffb612"/><stop offset=".27" stop-color="#ff9c0a"/><stop offset=".5" stop-color="#ff8a04"/><stop offset=".74" stop-color="#ff7f01"/><stop offset="1" stop-color="#ff7b00"/></linearGradient><linearGradient id="c" x1="51" x2="51" y1="21.14" y2="3.85" gradientUnits="userSpaceOnUse"><stop offset="0" stop-color="#81b510"/><stop offset=".03" stop-color="#7fb410"/><stop offset=".33" stop-color="#6dad12"/><stop offset=".65" stop-color="#62a914"/><stop offset="1" stop-color="#5ea814"/></linearGradient><linearGradient id="d" x1="54.21" x2="39.36" y1="15.79" y2="15.79" gradientUnits="userSpaceOnUse"><stop offset="0" stop-color="#b0ccd6"/><stop offset=".04" stop-color="#b4d0d9"/><stop offset=".24" stop-color="#c1dbe3"/><stop offset=".49" stop-color="#c9e1e9"/><stop offset="1" stop-color="#cbe3eb"/></linearGradient><linearGradient id="e" x1="62.63" x2="55.35" y1="12.5" y2="12.5" gradientUnits="userSpaceOnUse"><stop offset="0" stop-color="#b0ccd6"/><stop offset=".04" stop-color="#b4d0d9"/><stop offset=".24" stop-color="#c1dbe3"/><stop offset=".49" stop-color="#c9e1e9"/><stop offset="1" stop-color="#cbe3eb"/></linearGradient><linearGradient id="f" x1="48.78" x2="48.78" y1="122.09" y2="26.93" gradientUnits="userSpaceOnUse"><stop offset="0" stop-color="#062a54"/><stop offset=".27" stop-color="#072c58"/><stop offset=".52" stop-color="#083263"/><stop offset=".75" stop-color="#0b3c75"/><stop offset=".98" stop-color="#104b8f"/><stop offset="1" stop-color="#104c91"/></linearGradient><linearGradient id="g" x1="48.78" x2="48.78" y1="53.79" y2="26.93" gradientUnits="userSpaceOnUse"><stop offset="0" stop-color="#9ddef2"/><stop offset="1" stop-color="#ddf1f8"/></linearGradient><linearGradient id="h" x1="32.6" x2="64.96" y1="24.24" y2="56.49" gradientUnits="userSpaceOnUse"><stop offset="0" stop-color="#fafafa"/><stop offset="1" stop-color="#cdeffa"/></linearGradient><linearGradient id="i" x1="20.85" x2="31.4" y1="64.39" y2="74.9" gradientUnits="userSpaceOnUse"><stop offset="0" stop-color="#fafafa"/><stop offset="1" stop-color="#cdeffa"/></linearGradient><linearGradient id="j" x1="35.98" x2="46.53" y1="64.39" y2="74.9" gradientUnits="userSpaceOnUse"><stop offset="0" stop-color="#fafafa"/><stop offset="1" stop-color="#cdeffa"/></linearGradient><linearGradient id="k" x1="51.1" x2="61.65" y1="64.39" y2="74.9" gradientUnits="userSpaceOnUse"><stop offset="0" stop-color="#fafafa"/><stop offset="1" stop-color="#cdeffa"/></linearGradient><linearGradient id="l" x1="66.21" x2="76.76" y1="64.39" y2="74.9" gradientUnits="userSpaceOnUse"><stop offset="0" stop-color="#fafafa"/><stop offset="1" stop-color="#cdeffa"/></linearGradient><linearGradient id="m" x1="20.85" x2="31.4" y1="82.49" y2="93" gradientUnits="userSpaceOnUse"><stop offset="0" stop-color="#fafafa"/><stop offset="1" stop-color="#cdeffa"/></linearGradient><linearGradient id="n" x1="35.98" x2="46.53" y1="82.49" y2="93" gradientUnits="userSpaceOnUse"><stop offset="0" stop-color="#fafafa"/><stop offset="1" stop-color="#cdeffa"/></linearGradient><linearGradient id="o" x1="51.1" x2="61.65" y1="82.49" y2="93" gradientUnits="userSpaceOnUse"><stop offset="0" stop-color="#fafafa"/><stop offset="1" stop-color="#cdeffa"/></linearGradient><linearGradient id="p" x1="20.85" x2="31.4" y1="100.59" y2="111.1" gradientUnits="userSpaceOnUse"><stop offset="0" stop-color="#fafafa"/><stop offset="1" stop-color="#cdeffa"/></linearGradient><linearGradient id="q" x1="35.98" x2="46.53" y1="100.59" y2="111.1" gradientUnits="userSpaceOnUse"><stop offset="0" stop-color="#fafafa"/><stop offset="1" stop-color="#cdeffa"/></linearGradient><linearGradient id="r" x1="51.1" x2="61.65" y1="100.59" y2="111.1" gradientUnits="userSpaceOnUse"><stop offset="0" stop-color="#fafafa"/><stop offset="1" stop-color="#cdeffa"/></linearGradient><linearGradient id="s" x1="61.67" x2="81.3" y1="87.01" y2="106.57" gradientUnits="userSpaceOnUse"><stop offset="0" stop-color="#fafafa"/><stop offset="1" stop-color="#cdeffa"/></linearGradient><linearGradient id="t" x1="54.34" x2="54.34" y1="43.45" y2="35.71" gradientUnits="userSpaceOnUse"><stop offset="0" stop-color="#062a54"/><stop offset=".27" stop-color="#072c58"/><stop offset=".52" stop-color="#083263"/><stop offset=".75" stop-color="#0b3c75"/><stop offset=".98" stop-color="#104b8f"/><stop offset="1" stop-color="#104c91"/></linearGradient><linearGradient id="u" x1="58.81" x2="58.81" y1="45.06" y2="41.95" gradientUnits="userSpaceOnUse"><stop offset="0" stop-color="#062a54"/><stop offset=".27" stop-color="#072c58"/><stop offset=".52" stop-color="#083263"/><stop offset=".75" stop-color="#0b3c75"/><stop offset=".98" stop-color="#104b8f"/><stop offset="1" stop-color="#104c91"/></linearGradient><linearGradient id="v" x1="63.02" x2="63.02" y1="43.45" y2="35.71" gradientUnits="userSpaceOnUse"><stop offset="0" stop-color="#062a54"/><stop offset=".27" stop-color="#072c58"/><stop offset=".52" stop-color="#083263"/><stop offset=".75" stop-color="#0b3c75"/><stop offset=".98" stop-color="#104b8f"/><stop offset="1" stop-color="#104c91"/></linearGradient><linearGradient id="w" x1="69.18" x2="69.18" y1="43.45" y2="35.68" gradientUnits="userSpaceOnUse"><stop offset="0" stop-color="#062a54"/><stop offset=".27" stop-color="#072c58"/><stop offset=".52" stop-color="#083263"/><stop offset=".75" stop-color="#0b3c75"/><stop offset=".98" stop-color="#104b8f"/><stop offset="1" stop-color="#104c91"/></linearGradient></defs><path fill="#ffd336" d="M31.525 16.535c0 8.636-7.19 15.617-15.855 15.434C7.006 31.785 0 24.803 0 15.984 0 7.348 7.19.55 15.855.55c8.665.184 15.67 7.35 15.67 15.985z"/><path fill="#f5d5a4" d="M31.34 17.267c-.552 7.35-7.373 13.23-15.67 13.046C7.374 30.313.553 24.249 0 16.9c.369 8.268 7.19 14.883 15.67 15.066 8.48.184 15.302-6.247 15.67-14.699z"/><path fill="#ffb82b" d="M15.855 1.836c8.48.184 15.301 6.982 15.67 15.25v-.551C31.525 7.899 24.52.734 15.855.55 7.19.55 0 7.348 0 15.984v.735C.369 8.267 7.374 1.652 15.855 1.836z"/><path fill="url(#a)" d="M14.376 26.64c-.922 0-1.66-.183-2.397-.367-.737-.184-1.106-.367-1.475-.735l.922-3.123 1.106.55c.553.185 1.106.368 1.66.368v-6.247c-.37-.183-.922-.367-1.291-.735a4.3 4.3 0 01-1.29-1.286c-.37-.55-.738-.918-.922-1.653a6.832 6.832 0 01-.369-2.205c0-1.47.369-2.572 1.106-3.491.738-.919 1.66-1.47 2.95-1.654V3.49h2.765v2.572c.738 0 1.29.184 1.844.368.553.183.922.367 1.475.551l-.922 2.94a1.41 1.41 0 00-.922-.368c-.553-.183-1.106-.367-1.475-.367v5.696c.369.183.922.55 1.29.918a4.3 4.3 0 011.291 1.286c.369.368.738 1.103.922 1.654a6.83 6.83 0 01.369 2.205c0 1.653-.369 2.94-1.106 3.858-.738.919-1.66 1.654-2.95 1.838v2.572h-2.765zm1.106-17.638c-.553.184-1.106.368-1.29.735-.37.367-.37.919-.37 1.286 0 .551.185 1.103.554 1.47.369.367.737.735 1.29 1.102zm.369 14.515c.553-.184 1.106-.367 1.29-.735.369-.367.369-.919.553-1.653 0-.552-.184-1.103-.553-1.654-.368-.368-.737-.919-1.29-1.103z"/><path fill="#f5d5a4" d="M21.381 20.949c0 1.653-.368 2.94-1.106 3.858-.737.919-1.659 1.654-2.95 1.837v2.573H14.56v-2.389c-.922 0-1.659-.184-2.396-.367-.554-.184-1.107-.552-1.475-.735l.921-3.124c.185.184.554.368 1.107.551.368.184.921.368 1.659.368v-6.247c-.553-.184-.922-.551-1.475-.919a4.3 4.3 0 01-1.29-1.286c-.37-.551-.738-1.102-.922-1.654a6.832 6.832 0 01-.369-2.204c0-1.47.369-2.573 1.106-3.491.738-.919 1.66-1.47 2.766-1.838V3.31h2.765v2.572c.737 0 1.29.184 1.843.368.554.183 1.107.367 1.475.551l-.921 2.94c-.185 0-.554-.184-.922-.368-.369 0-.922-.183-1.29-.367v5.696c.368.367.921.734 1.29 1.102.553.367.922.735 1.475 1.102.368.552.737 1.103.921 1.654.185.735.37 1.47.553 2.389zm-1.106-.368c0-.551 0-.919-.184-1.286-.184-.368-.369-.919-.737-1.286-.185-.368-.554-.735-1.107-1.103a5.6 5.6 0 00-1.29-.918l-.553-.184V7.72h.737c.553.183.922.183 1.29.367.185 0 .37.184.554.184l.184-.551c-.184 0-.369-.184-.553-.184-.553-.184-1.106-.368-1.66-.368h-.737V4.78h-1.29v2.388l-.553.184c-1.106.184-1.844.735-2.581 1.47-.553.735-.738 1.286-.738 2.389 0 .55 0 1.102.185 1.47.184.55.368.918.737 1.286.369.367.738.735 1.106 1.286.37.367 1.844 1.286 1.844 1.286v8.636l-.737-.184c-.738 0-1.291-.184-1.844-.368-.184-.184-.553-.184-.738-.367l-.184.735c.184 0 .369.184.553.184.553.183 1.29.367 2.213.367h.737v2.389h1.29v-2.573l.554-.183c1.106-.184 2.027-.735 2.765-1.654.553-.735.922-1.654.737-2.94z"/><path fill="#ffd336" d="M98.999 15.989c0 8.635-7.19 15.617-15.855 15.433-8.665-.184-15.855-7.35-15.67-15.985 0-8.635 7.19-15.617 15.854-15.433 8.665.183 15.67 7.349 15.67 15.985z"/><path fill="#f5d5a4" d="M98.815 16.721c-.553 7.35-7.374 13.23-15.855 13.045-8.48-.183-15.117-6.063-15.67-13.596.369 8.268 7.19 15.066 15.67 15.066 8.665.368 15.486-6.063 15.855-14.515z"/><path fill="#ffb82b" d="M83.145 1.29c8.48.183 15.301 6.982 15.67 15.25v-.551c0-8.636-7.005-15.802-15.67-15.985C74.48-.18 67.29 6.802 67.29 15.437v.552c.553-8.269 7.374-14.883 15.855-14.7z"/><path fill="url(#b)" d="M87.385 7.712V3.67c-6.82 0-11.245 2.94-12.167 8.452H73.19v1.837h1.844v1.837H73.19v2.756h2.397c1.475 4.594 5.9 7.166 11.798 7.166v-4.042c-3.502 0-5.715-.919-6.636-3.123h5.9V15.98h-6.453v-1.837h6.636v-1.837H80.38c.369-3.308 2.58-4.594 7.005-4.594z"/><path fill="#f5d5a4" d="M87.385 7.712c-4.424 0-6.636 1.286-7.005 4.594h6.452v1.837h-6.636v1.837h6.452v2.572h-5.9c.922 2.205 3.135 3.124 6.637 3.124v4.042c-5.899 0-10.323-2.572-11.798-7.166H73.19v-2.756h1.844v-1.837H73.19v-1.837h2.028C76.14 6.61 80.564 3.67 87.386 3.67zm-8.111 4.41c.553-3.491 2.765-5.145 7.374-5.145V4.772c-4.424.184-9.218 1.838-10.324 7.717l-.184.735V16.9h-2.028v.919h2.212l.184.735c1.29 3.858 4.794 6.247 9.956 6.43v-2.205c-3.503-.183-5.531-1.286-6.637-3.49L79.089 18h6.453v-.918h-5.53l-.923-.184v-3.675z"/><path fill="url(#c)" d="M55.31 21.131l7.373-8.635L55.31 3.86v4.777H39.27v7.717h16.04z"/><path fill="url(#d)" d="M54.203 15.25H39.27v1.102h14.933z"/><path fill="url(#e)" d="M55.3 3.86v.184l6.268 7.35-6.268 7.165v2.572l7.374-8.635z"/><path fill="url(#f)" d="M82.962 116.676c0 2.94-2.212 5.329-4.793 5.329H19.543c-2.765 0-4.793-2.389-4.793-5.329V32.158c0-2.94 2.212-5.328 4.793-5.328H78.17c2.765 0 4.793 2.389 4.793 5.328z"/><path fill="#9fcbd6" d="M77.985 118.878H19.543c-2.765 0-4.793-2.388-4.793-5.328v3.123c0 2.94 2.212 5.329 4.793 5.329H78.17c2.765 0 4.793-2.389 4.793-5.329v-3.123c0 2.94-2.212 5.328-4.977 5.328z"/><path fill="url(#g)" d="M77.985 27.01H19.543c-2.765 0-4.793 2.389-4.793 5.328v21.497h68.212V32.338c0-2.94-2.212-5.328-4.977-5.328z"/><path fill="#fff" d="M77.985 27.01H19.543c-2.765 0-4.793 2.389-4.793 5.328v1.47c0-2.94 2.212-5.328 4.793-5.328H78.17c2.765 0 4.793 2.388 4.793 5.328v-1.47c0-2.94-2.212-5.328-4.977-5.328z" opacity=".3"/><path fill="#ff832b" d="M76.134 31.97H21.38v16.72h54.754z" opacity=".2"/><path fill="url(#h)" d="M74.476 33.81H23.04v13.229h51.436z"/><path fill="#c0dde4" d="M74.476 33.81v13.229H23.04V33.81zm-.738.919H23.962V46.12h49.776z"/><path fill="#9fcbd6" d="M32.446 74.962c0 .735-.553 1.286-1.29 1.286H22.49c-.738 0-1.291-.551-1.291-1.286v-8.636c0-.735.553-1.286 1.29-1.286h8.665c.738 0 1.29.551 1.29 1.286zm15.12 0c0 .735-.553 1.286-1.29 1.286H37.61c-.737 0-1.29-.551-1.29-1.286v-8.636c0-.735.553-1.286 1.29-1.286h8.665c.738 0 1.29.551 1.29 1.286zm15.12 0c0 .735-.553 1.286-1.29 1.286H52.73c-.738 0-1.291-.551-1.291-1.286v-8.636c0-.735.553-1.286 1.29-1.286h8.665c.738 0 1.29.551 1.29 1.286zm15.11 0c0 .735-.553 1.286-1.29 1.286H67.84c-.737 0-1.29-.551-1.29-1.286v-8.636c0-.735.553-1.286 1.29-1.286h8.665c.738 0 1.29.551 1.29 1.286zm-45.35 18.19c0 .735-.553 1.286-1.29 1.286H22.49c-.738 0-1.291-.551-1.291-1.286v-8.636c0-.735.553-1.286 1.29-1.286h8.665c.738 0 1.29.551 1.29 1.286zm15.12 0c0 .735-.553 1.286-1.29 1.286H37.61c-.737 0-1.29-.551-1.29-1.286v-8.636c0-.735.553-1.286 1.29-1.286h8.665c.738 0 1.29.551 1.29 1.286zm15.12 0c0 .735-.553 1.286-1.29 1.286H52.73c-.738 0-1.291-.551-1.291-1.286v-8.636c0-.735.553-1.286 1.29-1.286h8.665c.738 0 1.29.551 1.29 1.286zm-30.24 18.01c0 .735-.553 1.286-1.29 1.286H22.49c-.738 0-1.291-.551-1.291-1.286v-8.636c0-.735.553-1.286 1.29-1.286h8.665c.738 0 1.29.551 1.29 1.286zm15.12 0c0 .735-.553 1.286-1.29 1.286H37.61c-.737 0-1.29-.551-1.29-1.286v-8.636c0-.735.553-1.286 1.29-1.286h8.665c.738 0 1.29.551 1.29 1.286zm15.12 0c0 .735-.553 1.286-1.29 1.286H52.73c-.738 0-1.291-.551-1.291-1.286v-8.636c0-.735.553-1.286 1.29-1.286h8.665c.738 0 1.29.551 1.29 1.286zM76.505 83.23H67.84c-.737 0-1.29.551-1.29 1.286v27.01c0 .734.553 1.285 1.29 1.285h8.665c.738 0 1.29-.55 1.29-1.286V84.516c0-.735-.552-1.286-1.29-1.286z"/><path fill="url(#i)" d="M31.706 74.042c0 .735-.553 1.286-1.29 1.286H21.75c-.738 0-1.291-.551-1.291-1.286v-8.636c0-.735.553-1.286 1.29-1.286h8.665c.738 0 1.29.551 1.29 1.286z"/><path fill="url(#j)" d="M46.826 74.042c0 .735-.553 1.286-1.29 1.286H36.87c-.738 0-1.291-.551-1.291-1.286v-8.636c0-.735.553-1.286 1.29-1.286h8.665c.738 0 1.29.551 1.29 1.286z"/><path fill="url(#k)" d="M61.946 74.042c0 .735-.553 1.286-1.29 1.286H51.99c-.738 0-1.291-.551-1.291-1.286v-8.636c0-.735.553-1.286 1.29-1.286h8.665c.738 0 1.29.551 1.29 1.286z"/><path fill="url(#l)" d="M77.056 74.042c0 .735-.553 1.286-1.29 1.286H67.1c-.737 0-1.29-.551-1.29-1.286v-8.636c0-.735.553-1.286 1.29-1.286h8.665c.738 0 1.29.551 1.29 1.286z"/><path fill="url(#m)" d="M31.706 92.052c0 .735-.553 1.286-1.29 1.286H21.75c-.738 0-1.291-.551-1.291-1.286v-8.636c0-.735.553-1.286 1.29-1.286h8.665c.738 0 1.29.551 1.29 1.286z"/><path fill="url(#n)" d="M46.826 92.052c0 .735-.553 1.286-1.29 1.286H36.87c-.738 0-1.291-.551-1.291-1.286v-8.636c0-.735.553-1.286 1.29-1.286h8.665c.738 0 1.29.551 1.29 1.286z"/><path fill="url(#o)" d="M61.946 92.052c0 .735-.553 1.286-1.29 1.286H51.99c-.738 0-1.291-.551-1.291-1.286v-8.636c0-.735.553-1.286 1.29-1.286h8.665c.738 0 1.29.551 1.29 1.286z"/><path fill="url(#p)" d="M31.706 110.242c0 .735-.553 1.286-1.29 1.286H21.75c-.738 0-1.291-.551-1.291-1.286v-8.636c0-.735.553-1.286 1.29-1.286h8.665c.738 0 1.29.551 1.29 1.286z"/><path fill="url(#q)" d="M46.826 110.242c0 .735-.553 1.286-1.29 1.286H36.87c-.738 0-1.291-.551-1.291-1.286v-8.636c0-.735.553-1.286 1.29-1.286h8.665c.738 0 1.29.551 1.29 1.286z"/><path fill="url(#r)" d="M61.946 110.242c0 .735-.553 1.286-1.29 1.286H51.99c-.738 0-1.291-.551-1.291-1.286v-8.636c0-.735.553-1.286 1.29-1.286h8.665c.738 0 1.29.551 1.29 1.286z"/><path fill="url(#s)" d="M75.765 82.13H67.1c-.737 0-1.29.551-1.29 1.286v26.825c0 .735.553 1.287 1.29 1.287h8.665c.738 0 1.29-.552 1.29-1.287V83.232c0-.55-.552-1.102-1.29-1.102z"/><path fill="#45778a" d="M82.772 53.83H14.56v1.47h68.212z" opacity=".5"/><path fill="#c0dde4" d="M82.772 52.18H14.56v1.47h68.212z"/><path fill="url(#t)" d="M52.349 42.26h1.475v-4.225l.184-.735-.553.551-.922.735-.553-.735 2.397-2.021h.921v6.43h1.475v1.287H52.35z"/><path fill="url(#u)" d="M57.889 42.815c0-.184 0-.368.184-.551.184-.184.369-.184.553-.184.369 0 .553.184.738.367.184.184.184.552.184.735 0 .368 0 .552-.184.92-.185.183-.185.367-.37.55-.183.184-.368.368-.552.368-.185 0-.369.183-.553.183l-.369-.55c.184 0 .369-.184.553-.368.184-.184.184-.368.184-.551-.184 0-.368 0-.553-.184.37-.368.185-.551.185-.735z"/><path fill="url(#v)" d="M61.019 42.26h1.475v-4.225l.184-.735-.553.551-.922.735-.553-.735 2.397-2.021h.737v6.43h1.475v1.287h-4.425V42.26z"/><path fill="url(#w)" d="M71.339 37.661c0 .368 0 .735-.184 1.103-.185.367-.37.734-.553 1.102-.185.367-.37.735-.738 1.102-.184.368-.553.735-.737.919l-.553.367.737-.183h2.028v1.286H66.73v-.735l.553-.551c.184-.184.369-.551.737-.735.185-.184.37-.551.738-.919.184-.367.369-.551.553-.919.184-.367.369-.55.369-.918.184-.184.184-.551.184-.735 0-.368 0-.551-.184-.735-.185-.184-.369-.368-.738-.368-.184 0-.553 0-.737.184-.185.184-.369.184-.553.368l-.553-.92c.368-.183.553-.367.921-.55.37-.184.738-.184 1.291-.184.369 0 .553 0 .922.184.184 0 .553.183.737.367.185.184.369.368.369.551v.92z"/></svg>