<svg xmlns="http://www.w3.org/2000/svg" width="40" height="40"><defs><clipPath id="a"><path fill="#fff" d="M40 20c0 11.046-8.954 20-20 20S0 31.046 0 20 8.954 0 20 0s20 8.954 20 20z"/></clipPath></defs><path fill="none" stroke="#f73e5d" stroke-miterlimit="20" stroke-width="2" d="M40 20c0 11.046-8.954 20-20 20S0 31.046 0 20 8.954 0 20 0s20 8.954 20 20z" clip-path="url(&quot;#a&quot;)"/><path fill="#f73e5d" d="M17 28c-1.1 0-2-.9-2-2V16c0-.55.22-1.05.58-1.41L22.17 8l1.06 1.05c.27.27.44.65.44 1.06l-.03.32-.95 4.57H29c1.1 0 2 .9 2 2v2c0 .26-.05.5-.14.73l-3.02 7.05C27.54 27.5 26.83 28 26 28zm0-2h9l3-7v-2h-9l1.34-5.34L17 16zM9 16h4v12H9z"/></svg>