<svg width="119" height="50" fill="none" xmlns="http://www.w3.org/2000/svg"><mask id="a" style="mask-type:alpha" maskUnits="userSpaceOnUse" x="0" y="0" width="119" height="50"><path fill-rule="evenodd" clip-rule="evenodd" d="M9.805 2.718C4.515 4.322.112 5.71.02 5.803c-.2.2 1.15 10.305 1.97 14.749C3.488 28.687 7.305 36.605 12.905 43.2c2.004 2.359 6.063 6.194 6.556 6.194.463 0 5.112-4.481 6.997-6.746 4.67-5.612 8.106-12.276 9.883-19.175.5-1.942 2.903-17.539 2.727-17.701-.03-.029-4.144-1.283-9.142-2.788A3060.625 3060.625 0 0120.13.024c-.532-.168-3.113.506-10.325 2.694zm17.44 3.654c3.974 1.202 7.253 2.213 7.287 2.245.147.138-1.623 11.635-2.064 13.409-1.077 4.331-2.92 8.721-5.356 12.761l-1.017 1.687.01-8.66.01-8.661.913-.573c.847-.532.917-.697.996-2.342l.084-1.77H26.96c-1.045 0-1.15.066-1.15.728 0 .627-.108.716-.78.639-.56-.064-.807-.271-.872-.729-.074-.52-.27-.639-1.065-.639-.857 0-.974.088-.974.73 0 .594-.118.713-.639.639-.49-.07-.66-.306-.727-1.014-.057-.586-.243-.923-.511-.923-.337 0-.404-.355-.337-1.763l.084-1.764 2.237-.345c2.524-.389 3.27-.811 1.993-1.126-.452-.111-1.54-.566-2.419-1.01-2.553-1.29-2.52-1.322-2.52 2.486 0 3.021-.046 3.303-.552 3.436-.372.097-.58.436-.64 1.038-.065.678-.24.916-.725.985-.52.074-.64-.045-.64-.639 0-.642-.116-.73-.973-.73-.794 0-.991.118-1.065.64-.065.457-.313.664-.872.728-.672.077-.78-.012-.78-.639 0-.643-.117-.729-.994-.729h-.994v1.83c0 1.732.045 1.857.852 2.333l.851.503-.006 8.529c-.007 9.921.167 9.692-2.816 3.7-1.717-3.449-2.818-6.438-3.607-9.796C5.95 20 4.227 8.738 4.334 8.6c.145-.186 15.151-4.585 15.386-4.51.165.053 3.552 1.08 7.525 2.283zm20.182 3.6c-2.766 1.368-3.12 5.601-.642 7.686 1.094.92 3.073 1.27 4.598.813 1.243-.372 1.482-.627 1.222-1.305-.147-.383-.381-.433-1.208-.26-1.8.38-2.672.198-3.51-.73-1.673-1.856-.56-5.107 1.775-5.179.547-.016 1.391.067 1.877.186.76.186.905.13 1.044-.403.131-.502-.02-.694-.802-1.021-1.374-.574-2.918-.499-4.354.212zm6.968-.427c-.104.104-.19 2.149-.19 4.544v4.354h1.988v-1.704c0-1.435.079-1.703.497-1.7.83.008 1.2.403 1.754 1.864.485 1.284.612 1.405 1.555 1.486l1.027.088L60.443 17c-.32-.813-.706-1.709-.856-1.99-.211-.395-.11-.675.438-1.224 1.283-1.283.848-3.312-.864-4.027-.974-.407-4.418-.56-4.766-.213zm6.82.024c-.068.117.564 1.426 1.403 2.91 1.357 2.396 1.526 2.877 1.526 4.33v1.634h1.988v-1.837c0-1.695.11-2.024 1.42-4.241.78-1.322 1.42-2.548 1.42-2.724 0-.191-.375-.285-.923-.232-.816.079-1.036.302-1.893 1.924-.733 1.385-1.032 1.732-1.222 1.42a114.77 114.77 0 01-1.095-1.906c-.715-1.266-.967-1.49-1.671-1.49-.457 0-.885.095-.953.212zm9.247-.025c-.262.106-.355 1.285-.355 4.521v4.378h1.988v-3.124h1.415c1.146 0 1.584-.15 2.296-.786.751-.672.88-.985.88-2.143 0-1.536-.358-2.103-1.671-2.652-.877-.367-3.815-.492-4.553-.194zm7.028.655c0 .831.045.86 1.278.86h1.278v7.384h1.988v-7.351l1.206-.087c1.075-.078 1.207-.165 1.207-.797v-.71l-3.478-.08-3.479-.08v.861zm9.743-.306c-3.134 1.464-3.153 6.713-.03 8.225 1.61.78 2.913.77 4.475-.03 1.53-.785 2.282-2.101 2.282-4 0-2.75-1.516-4.472-4.091-4.651-1.012-.07-1.804.067-2.636.456zm-29.212 1.16c.557.212.728.476.728 1.126 0 .94-.632 1.436-1.827 1.436-.685 0-.729-.085-.729-1.42 0-1.55.286-1.728 1.828-1.142zm16.282.165c1.318.922.508 2.681-1.234 2.681h-.974v-1.561c0-1.519.022-1.562.789-1.562.434 0 1.073.199 1.42.442zm16.742.301c.786.495 1.042 1.452.848 3.167-.176 1.565-.95 2.337-2.343 2.337-1.33 0-1.8-.239-2.273-1.156-.893-1.726-.327-4.058 1.139-4.693.912-.394 1.6-.304 2.629.345zM48.657 25.224c-2.29 1.04-3.39 3.136-3.372 6.423.026 4.38 2.37 6.666 6.844 6.671 1.97.003 2.814-.356 3.05-1.296.285-1.136-.19-1.4-2.519-1.4-1.682 0-2.207-.11-2.722-.568-1.436-1.278-1.819-3.903-.873-5.984.66-1.457 1.763-1.967 3.74-1.733.78.092 1.606.096 1.835.008.655-.251.514-1.703-.214-2.213-.908-.636-4.285-.583-5.77.092zm9.686-.088c-.377.377-.446 1.36-.446 6.332 0 4.2.098 5.984.34 6.227.188.188.865.341 1.506.341.64 0 1.317-.153 1.505-.34.243-.244.34-2.03.34-6.232 0-5.765-.013-5.9-.63-6.332-.811-.568-2.045-.566-2.615.004zm5.963 0c-.616.617-.561 1.744.103 2.1.303.161 1.07.293 1.704.293h1.155v4.935c0 5.584.029 5.663 2.037 5.518l1.228-.088.078-5.182.077-5.183h1.357c.746 0 1.51-.153 1.697-.34.54-.54.414-1.872-.208-2.205-.306-.164-2.371-.294-4.666-.294-3.362 0-4.197.081-4.562.446zm13.552-.018c-.732.512-4.553 11.676-4.26 12.443.234.606 2.256.651 2.844.063.227-.227.498-.871.603-1.432l.192-1.02 1.884.083 1.885.083.255.994c.14.547.388 1.154.55 1.349.408.495 2.754.464 2.948-.04.083-.217-.7-3.029-1.74-6.249-1.978-6.13-2.305-6.702-3.825-6.702-.399 0-1 .192-1.336.427zm8.881.018c-.377.377-.446 1.365-.446 6.383v5.936l.713.467c.567.372 1.224.443 3.214.347 4.144-.197 6.02-1.736 6.658-5.46.46-2.685-.057-4.706-1.598-6.244-1.44-1.439-2.792-1.875-5.805-1.875-1.703 0-2.404.114-2.736.446zm12.545-.14c-.448.262-.497.878-.497 6.346 0 4.82.08 6.123.394 6.384.266.22 1.634.3 4.189.248l3.794-.08.092-.798c.155-1.355-.325-1.616-2.981-1.616h-2.394l.086-1.49.086-1.491 2.242-.142c1.723-.11 2.315-.257 2.554-.64.227-.36.227-.632 0-.993-.239-.382-.831-.53-2.554-.639l-2.242-.142-.087-1.207-.088-1.207h2.165c2.603 0 3.263-.287 3.263-1.42 0-.531-.198-.937-.549-1.125-.707-.379-6.82-.368-7.473.013zm11.052.05c-.437.32-.478.98-.409 6.601l.077 6.247 4.181.079 4.181.078.191-.761c.342-1.362-.126-1.654-2.904-1.81l-2.526-.142-.075-4.969c-.064-4.264-.142-5.02-.551-5.324-.609-.454-1.544-.454-2.165 0zm-17.699 2.783c1.323 1.04 1.684 4.221.72 6.337-.442.97-1.595 1.598-2.932 1.598h-1.008v-8.519h1.24c.82 0 1.49.198 1.98.584zm-12.772 2.883c.256 1.047.465 1.973.465 2.058 0 .085-.511.155-1.136.155-.835 0-1.136-.116-1.136-.439 0-.902.938-4.131 1.136-3.91.113.127.415 1.088.67 2.136z" fill="#000"/></mask><g mask="url(#a)"><path fill="#FCD535" d="M-3.407-12.21h44.014v71.274H-3.407z"/></g></svg>