<svg width="56" height="55" fill="none" xmlns="http://www.w3.org/2000/svg"><g clip-path="url(#clip0_202_36144)"><path d="M7.102 7.086c-9.459 9.438-9.459 24.735 0 34.19l34.252-34.19c-9.46-9.454-24.792-9.454-34.252 0z" fill="#10113D" fill-opacity=".2"/><path d="M7.102 7.086c-9.459 9.438-9.459 24.735 0 34.19l34.252-34.19c-9.46-9.454-24.792-9.454-34.252 0z" fill="url(#paint0_linear_202_36144)"/><path d="M41.353 41.258c9.46-9.437 9.46-24.734 0-34.189L7.102 41.26c9.459 9.437 24.792 9.437 34.251 0z" fill="#141D26"/><path d="M41.353 41.258c9.46-9.437 9.46-24.734 0-34.189L7.102 41.26c9.459 9.437 24.792 9.437 34.251 0z" fill="url(#paint1_linear_202_36144)"/></g><circle cx="41" cy="40" r="15" fill="#304558"/><g clip-path="url(#clip1_202_36144)"><path d="M32.551 31.543c-4.73 4.719-4.73 12.367 0 17.095l17.126-17.095c-4.73-4.727-12.396-4.727-17.126 0z" fill="#10113D" fill-opacity=".2"/><path d="M32.551 31.543c-4.73 4.719-4.73 12.367 0 17.095l17.126-17.095c-4.73-4.727-12.396-4.727-17.126 0z" fill="url(#paint2_linear_202_36144)"/><path d="M49.677 48.63c4.73-4.72 4.73-12.368 0-17.095L32.55 48.629c4.73 4.719 12.396 4.719 17.126 0z" fill="#141D26"/><path d="M49.677 48.63c4.73-4.72 4.73-12.368 0-17.095L32.55 48.629c4.73 4.719 12.396 4.719 17.126 0z" fill="url(#paint3_linear_202_36144)"/></g><defs><linearGradient id="paint0_linear_202_36144" x1="20.681" y1="-.004" x2="20.681" y2="41.275" gradientUnits="userSpaceOnUse"><stop stop-color="#F73E5D"/><stop offset="1" stop-color="#F73E5D" stop-opacity="0"/></linearGradient><linearGradient id="paint1_linear_202_36144" x1="27.775" y1="7.069" x2="27.775" y2="48.336" gradientUnits="userSpaceOnUse"><stop stop-color="#298BE7"/><stop offset="1" stop-color="#298BE7" stop-opacity="0"/></linearGradient><linearGradient id="paint2_linear_202_36144" x1="39.34" y1="27.998" x2="39.34" y2="48.638" gradientUnits="userSpaceOnUse"><stop stop-color="#F73E5D"/><stop offset="1" stop-color="#F73E5D" stop-opacity="0"/></linearGradient><linearGradient id="paint3_linear_202_36144" x1="42.887" y1="31.535" x2="42.887" y2="52.168" gradientUnits="userSpaceOnUse"><stop stop-color="#298BE7"/><stop offset="1" stop-color="#298BE7" stop-opacity="0"/></linearGradient><clipPath id="clip0_202_36144"><path fill="#fff" d="M0 0h48v48H0z"/></clipPath><clipPath id="clip1_202_36144"><path fill="#fff" transform="translate(29 28)" d="M0 0h25v25H0z"/></clipPath></defs></svg>