<svg xmlns="http://www.w3.org/2000/svg" width="42" height="42"><defs><clipPath id="a"><path fill="#fff" d="M0 42V0h42v42zM21 1C9.954 1 1 9.954 1 21s8.954 20 20 20 20-8.954 20-20S32.046 1 21 1z"/></clipPath></defs><path fill="none" stroke="#298be7" stroke-miterlimit="20" stroke-width="2" d="M41 21c0 11.046-8.954 20-20 20S1 32.046 1 21 9.954 1 21 1s20 8.954 20 20z" clip-path="url(&quot;#a&quot;)"/><path fill="#298be7" d="M15 21c0-1.65.67-3.15 1.76-4.24l-1.42-1.42A8.014 8.014 0 0013 21c0 4.08 3.05 7.44 7 7.93v-2.02c-2.83-.48-5-2.94-5-5.91zm14 0c0-4.42-3.58-8-8-8-.06 0-.12.01-.18.01l1.09-1.09-1.41-1.42L17 14l3.5 3.5 1.41-1.41-1.08-1.08c.06 0 .12-.01.17-.01 3.31 0 6 2.69 6 6 0 2.97-2.17 5.43-5 5.91v2.02c3.95-.49 7-3.85 7-7.93z"/></svg>