<svg width="15" height="15" fill="none" xmlns="http://www.w3.org/2000/svg"><path d="M14.63 6.61L8.392.37A1.26 1.26 0 006.61 2.152L11.957 7.5l-5.348 5.348a1.26 1.26 0 001.782 1.782l6.24-6.24a1.259 1.259 0 000-1.78zm-7.5-.38L2.176 1.01a1.23 1.23 0 00-1.802 0 1.394 1.394 0 000 1.898L4.427 7.18.374 11.451a1.394 1.394 0 000 1.899 1.229 1.229 0 001.802 0l4.953-5.22a1.394 1.394 0 000-1.899z" fill="url(#paint0_linear_138_3395)"/><defs><linearGradient id="paint0_linear_138_3395" x1="7.5" y1=".001" x2="7.5" y2="14.999" gradientUnits="userSpaceOnUse"><stop stop-color="#298BE7"/><stop offset="1" stop-color="#70EFEE"/></linearGradient></defs></svg>