<svg width="30" height="30" fill="none" xmlns="http://www.w3.org/2000/svg"><circle cx="15" cy="15" r="14.5" stroke="#06CC7D"/><g clip-path="url(#clip0_221_470)"><path d="M12.75 20.75h6.75a1.49 1.49 0 001.38-.915l2.265-5.288c.067-.172.105-.352.105-.547v-1.5c0-.825-.675-1.5-1.5-1.5h-4.733l.713-3.428.023-.24c0-.307-.128-.592-.33-.795l-.795-.787-4.943 4.943a1.49 1.49 0 00-.435 1.057v7.5c0 .825.675 1.5 1.5 1.5zm0-9l3.255-3.255L15 12.5h6.75V14l-2.25 5.25h-6.75v-7.5zm-6 0h3v9h-3v-9z" fill="#06CC7D"/></g><defs><clipPath id="clip0_221_470"><path fill="#fff" transform="translate(6 5)" d="M0 0h18v18H0z"/></clipPath></defs></svg>