<svg width="30" height="30" fill="none" xmlns="http://www.w3.org/2000/svg"><circle cx="15" cy="15" r="14.5" transform="rotate(-180 15 15)" stroke="#F73E5D"/><g clip-path="url(#clip0_221_471)"><path d="M17.25 9.25H10.5a1.49 1.49 0 00-1.38.915l-2.265 5.288A1.482 1.482 0 006.75 16v1.5c0 .825.675 1.5 1.5 1.5h4.732l-.712 3.427-.022.24c0 .308.127.593.33.795l.795.788 4.942-4.942c.27-.27.435-.645.435-1.058v-7.5c0-.825-.675-1.5-1.5-1.5zm0 9l-3.255 3.255L15 17.5H8.25V16l2.25-5.25h6.75v7.5zm6 0h-3v-9h3v9z" fill="#F73E5D"/></g><defs><clipPath id="clip0_221_471"><path fill="#fff" transform="rotate(-180 12 12.5)" d="M0 0h18v18H0z"/></clipPath></defs></svg>