<?xml version="1.0" encoding="UTF-8"?><!DOCTYPE svg PUBLIC "-//W3C//DTD SVG 1.1//EN" "http://www.w3.org/Graphics/SVG/1.1/DTD/svg11.dtd"><svg xmlns="http://www.w3.org/2000/svg" xmlns:xlink="http://www.w3.org/1999/xlink"><defs>
        <linearGradient id="a" x1="9.99" x2="9.99" y1=".62" y2="19.37" gradientUnits="userSpaceOnUse">
            <stop offset="0" stop-color="#298be7"/>
            <stop offset="1" stop-color="#70efee"/>
        </linearGradient>
    </defs><symbol id="ico-color-check" viewBox="0 0 16 12">
    <path d="M6.28 11.34a.748.748 0 01-1.06 0L.986 7.107a1.124 1.124 0 010-1.591l.53-.53c.44-.44 1.151-.44 1.59 0l2.645 2.643L12.894.485c.44-.44 1.152-.44 1.591 0l.53.53c.44.44.44 1.152 0 1.59l-8.734 8.736z" fill="#04BE38"/>
</symbol><symbol id="ico-color-coin" viewBox="0 0 30 30">
    <path fill="#ffaa20" d="M30 15c0 4.007-1.56 7.774-4.393 10.607A14.902 14.902 0 0115 30c-4.007 0-7.774-1.56-10.607-4.393A14.902 14.902 0 010 15c0-4.007 1.56-7.774 4.393-10.607A14.902 14.902 0 0115 0c4.007 0 7.774 1.56 10.607 4.393A14.902 14.902 0 0130 15z"/>
    <path fill="#ff8900" d="M30 15c0 4.007-1.56 7.774-4.393 10.607A14.902 14.902 0 0115 30V0c4.007 0 7.774 1.56 10.607 4.393A14.902 14.902 0 0130 15z"/>
    <path fill="#ffec97" d="M26.832 14.996c0 6.526-5.31 11.836-11.836 11.836-6.526 0-11.836-5.31-11.836-11.836C3.16 8.47 8.47 3.16 14.996 3.16c6.526 0 11.836 5.31 11.836 11.836z"/>
    <path fill="#ffdb2d" d="M26.836 14.996c0 6.526-5.31 11.836-11.836 11.836V3.16c6.526 0 11.836 5.31 11.836 11.836z"/>
    <path fill="#ffaa20" d="M19.099 17.148c0 .565-.107 1.049-.32 1.45a2.687 2.687 0 01-.863.976 3.77 3.77 0 01-1.25.543 6.09 6.09 0 01-.794.135V22.3h-1.758v-2.087a8.085 8.085 0 01-1.28-.283 7.257 7.257 0 01-2.084-1.012l.908-1.77c.09.089.25.205.484.349.232.144.508.288.825.432.318.144.67.265 1.057.364a4.68 4.68 0 001.19.149c1.132 0 1.697-.362 1.697-1.086a.89.89 0 00-.193-.58 1.645 1.645 0 00-.551-.418 5.245 5.245 0 00-.863-.327l-.306-.09-.825-.237a9.577 9.577 0 01-1.317-.454 3.451 3.451 0 01-.93-.58 2.17 2.17 0 01-.558-.774c-.125-.293-.187-.643-.187-1.05 0-.535.1-1.012.298-1.428.198-.417.474-.764.826-1.042a3.748 3.748 0 011.228-.633c.188-.058.382-.104.58-.138V7.69h1.759v1.89a5.48 5.48 0 011.218.297c.625.234 1.17.509 1.637.826l-.908 1.667a2.581 2.581 0 00-.38-.282 4.606 4.606 0 00-.67-.35 5.782 5.782 0 00-.855-.29 3.725 3.725 0 00-.916-.12h-.022c-.565 0-.987.104-1.265.313-.277.208-.416.501-.416.878a.9.9 0 00.156.543c.104.144.256.27.454.38.198.11.449.208.752.297a29.343 29.343 0 001.05.283 15.3 15.3 0 011.405.447c.422.159.779.357 1.072.595.292.238.518.523.677.855.158.333.238.742.238 1.229z"/>
    <path fill="#ff8900" d="M15.916 11.447A3.725 3.725 0 0015 11.33V7.69h.874v1.89a5.48 5.48 0 011.218.297c.625.234 1.17.509 1.637.826l-.908 1.667a2.581 2.581 0 00-.38-.282 4.606 4.606 0 00-.67-.35 5.782 5.782 0 00-.855-.29z"/>
    <path fill="#ff8900" d="M19.1 17.141c0 .566-.106 1.049-.319 1.45a2.687 2.687 0 01-.863.976 3.77 3.77 0 01-1.25.543 6.076 6.076 0 01-.794.135v2.049H15V18.43c.072.004.144.005.217.005 1.13 0 1.696-.362 1.696-1.086a.89.89 0 00-.193-.58 1.645 1.645 0 00-.551-.417 5.244 5.244 0 00-.863-.327c-.099-.03-.2-.06-.306-.09V13.83c.216.06.452.122.708.186.515.139.984.287 1.406.446.422.159.779.357 1.072.595.292.238.518.524.677.856.158.333.238.742.238 1.228z"/>
</symbol><symbol id="ico-color-copy" viewBox="0 0 20 20">
    
    <path fill="url(#a)" d="M7.212 19.37a2.2 2.2 0 01-2.197-2.197V7.212a2.2 2.2 0 012.197-2.197h9.96a2.2 2.2 0 012.198 2.197v9.96a2.2 2.2 0 01-2.197 2.198zm0-12.89a.733.733 0 00-.733.732v9.96c0 .405.329.733.733.733h9.96a.733.733 0 00.733-.732V7.212a.733.733 0 00-.732-.733zM3.55 14.974h-.733A2.2 2.2 0 01.62 12.779v-9.96A2.2 2.2 0 012.817.62h9.961a2.2 2.2 0 012.197 2.197v.696h-1.464v-.696a.733.733 0 00-.733-.732h-9.96a.733.733 0 00-.733.732v9.961c0 .404.328.733.732.733h.733z"/>
</symbol><symbol id="ico-color-example" viewBox="0 0 51.9 51.9">
    <circle cx="26" cy="26" r="26" fill="#fc2c38"/>
    <path d="M40 21.9h-.8l-3.1-8.7H16l-3.1 8.7H8.8v2.8h3.1v14h5.4v-4.4h17.3v4.4H40V24.6h3.1v-2.8H40zm-22.1-6.5h16.5l2.4 6.5H15.5l2.4-6.5zm3.9 13.7h-6.5v-2.8h6.5v2.8zm15.3 0h-6.5v-2.8h6.5v2.8z" fill-rule="evenodd" clip-rule="evenodd" fill="#fff"/>
</symbol><symbol id="ico-color-good-review" viewBox="0 0 18 18">
    <path fill="#00b733" d="M11.92 8.17a1.25 1.25 0 100-2.5 1.25 1.25 0 000 2.5z"/>
    <path fill="#00b733" d="M6.08 8.17a1.25 1.25 0 100-2.5 1.25 1.25 0 000 2.5z"/>
    <path fill="#00b733" d="M11.878 10.67h1.392a4.58 4.58 0 01-8.533 0h1.391c.584.992 1.642 1.667 2.875 1.667 1.234 0 2.292-.675 2.875-1.667zm5.459-1.667c0 4.6-3.734 8.334-8.342 8.334-4.6 0-8.325-3.734-8.325-8.334S4.395.67 8.995.67c4.608 0 8.342 3.733 8.342 8.333zm-1.667 0a6.665 6.665 0 00-6.667-6.666 6.665 6.665 0 00-6.666 6.666 6.665 6.665 0 006.666 6.667 6.665 6.665 0 006.667-6.667z"/>
</symbol><symbol id="ico-color-russia" viewBox="0 0 20 20">
    <path fill="#fff" d="M10 20c5.522 0 10-4.478 10-10 0-5.523-4.478-10-10-10C4.477 0 0 4.477 0 10c0 5.522 4.477 10 10 10z"/>
    <path fill="#2b479d" d="M19.431 6.67H13.27c.268 2.136.27 4.49.005 6.629h6.17a9.983 9.983 0 00-.014-6.629z"/>
    <path fill="#efecec" d="M13.27 6.665h6.16A10.006 10.006 0 0010.9.04c1.53.839 1.978 3.497 2.37 6.625z"/>
    <path fill="#e63026" d="M10.9 19.954a10.006 10.006 0 008.534-6.636l.01-.028h-6.17c-.388 3.144-.837 5.821-2.374 6.664z"/>
    <path fill="#3757a6" d="M0 10.004c0 1.155.198 2.263.558 3.295h13.229a27.652 27.652 0 00-.005-6.629H.572A9.98 9.98 0 000 10.004z"/>
    <path fill="#efefef" d="M.573 6.657a.14.14 0 01-.003.009h13.21C13.39 3.538 12.428.88 10.898.04a10.173 10.173 0 00-.9-.04C5.648 0 1.948 2.778.573 6.657z"/>
    <path fill="#e73b36" d="M13.789 13.29H.56l.01.028c1.37 3.89 5.075 6.677 9.432 6.677.303 0 .602-.015.898-.041 1.537-.843 2.5-3.52 2.889-6.664z"/>
</symbol><symbol id="ico-color-sad-review" viewBox="0 0 20 20">
    <path d="M12.918 9.167a1.25 1.25 0 100-2.5 1.25 1.25 0 000 2.5z" fill="#F03E5C"/>
    <path d="M7.082 9.167a1.25 1.25 0 100-2.5 1.25 1.25 0 000 2.5z" fill="#F03E5C"/>
    <path d="M9.993 1.667c-4.6 0-8.325 3.733-8.325 8.333s3.725 8.333 8.325 8.333c4.608 0 8.342-3.733 8.342-8.333S14.6 1.667 9.993 1.667zm.008 15A6.665 6.665 0 013.335 10 6.665 6.665 0 0110 3.333 6.665 6.665 0 0116.668 10a6.665 6.665 0 01-6.667 6.667z" fill="#F03E5C"/>
    <path d="M10.001 12.917c-1.233 0-2.292.675-2.875 1.667H5.734a4.58 4.58 0 018.534 0h-1.392c-.583-.992-1.642-1.667-2.875-1.667z" fill="#F03E5C"/>
</symbol><symbol id="ico-color-teter" viewBox="0 0 30 30">
    <path fill="#72f4c3" d="M15 30c8.284 0 15-6.716 15-15 0-8.284-6.716-15-15-15C6.716 0 0 6.716 0 15c0 8.284 6.716 15 15 15z"/>
    <path fill="#69e8b4" d="M30 15c0 8.284-6.715 15-15 15-.397 0-.79-.016-1.18-.046 7.732-.602 13.819-7.068 13.819-14.954C27.639 7.114 21.552.648 13.82.046 14.21.016 14.603 0 15 0c8.285 0 15 6.716 15 15z"/>
    <path fill="#dcfbed" d="M15.002 28.115c7.242 0 13.113-5.871 13.113-13.113 0-7.241-5.871-13.112-13.113-13.112C7.761 1.89 1.89 7.76 1.89 15.002s5.87 13.113 13.112 13.113z"/>
    <path fill="#9ff7d3" d="M28.115 15.002c0 7.242-5.87 13.112-13.112 13.112-.436 0-.868-.02-1.293-.063 6.634-.65 11.818-6.244 11.818-13.049S20.344 2.602 13.71 1.953c.425-.042.857-.063 1.293-.063 7.242 0 13.112 5.87 13.112 13.112z"/>
    <path fill="#27e19d" d="M15 26c6.074 0 11-4.926 11-11 0-6.075-4.926-11-11-11C8.925 4 4 8.925 4 15c0 6.074 4.925 11 11 11z"/>
    <path fill="#26d192" d="M25.995 15c0 6.065-4.935 11-11 11-.535 0-1.06-.039-1.575-.113 5.322-.766 9.424-5.357 9.424-10.887S18.742 4.879 13.42 4.112A11.35 11.35 0 0114.995 4c6.065 0 11 4.935 11 11z"/>
    <path fill="#26d192" d="M23.347 15.465c0 .701-.85 1.199-2.676 1.566-1.184.238-2.669.392-4.278.449v6.043c0 .27-.22.49-.49.49h-1.81a.49.49 0 01-.49-.49V17.48c-1.608-.057-3.093-.211-4.277-.45-1.826-.366-2.676-.864-2.676-1.565 0-.632.683-1.092 2.149-1.45 1.175-.286 2.805-.484 4.59-.557a.449.449 0 01.215.045v-.923H9.582a.49.49 0 01-.49-.49v-1.81c0-.27.22-.49.49-.49h10.833c.27 0 .49.22.49.49v1.81c0 .27-.22.49-.49.49h-4.022v.897a.455.455 0 01.157-.021c1.798.07 3.442.268 4.63.555 1.478.358 2.167.82 2.167 1.454zm-9.743 1.109v-2.256a.451.451 0 01-.178.045c-1.592.065-3.071.234-4.165.475-1.21.267-1.578.53-1.679.629.146.144.715.46 2.199.73 1.08.196 2.404.325 3.823.377zm8.812-1.109c-.124-.122-.573-.385-1.698-.63-1.106-.243-2.599-.411-4.204-.475a.45.45 0 01-.12-.021v2.235c1.418-.052 2.742-.181 3.822-.378 1.487-.27 2.056-.587 2.2-.73z"/>
    <path fill="#dcfbed" d="M20.903 9.53v1.81c0 .27-.22.49-.49.49h-3.72a.302.302 0 00-.302.302v10.641a.49.49 0 01-.49.49h-1.81a.49.49 0 01-.49-.49V12.132a.302.302 0 00-.301-.302H9.58a.49.49 0 01-.49-.49V9.53c0-.27.22-.49.49-.49h10.833c.27 0 .49.22.49.49z"/>
    <path fill="#72f4c3" d="M16.4 16.58v.906a40.602 40.602 0 01-2.79 0v-.906a38.323 38.323 0 002.79 0z"/>
    <g>
        <path fill="#9ff7d3" d="M20.936 13.18c-1.209-.27-2.804-.448-4.542-.51v.906c1.541.057 2.976.208 4.09.432 1.307.265 1.808.56 1.936.69-.137.144-.7.466-2.198.742-1.428.263-3.284.408-5.223.408-1.94 0-3.795-.145-5.223-.408-1.5-.276-2.062-.598-2.198-.741.127-.132.628-.426 1.936-.69 1.114-.225 2.548-.376 4.09-.433v-.906c-1.739.062-3.334.24-4.543.51-1.645.365-2.411.848-2.411 1.519 0 .705.85 1.206 2.675 1.576 1.52.309 3.535.479 5.674.479 2.138 0 4.153-.17 5.673-.479 1.826-.37 2.676-.871 2.676-1.576 0-.67-.767-1.154-2.411-1.52z"/>
    </g>
</symbol></svg>