<?xml version="1.0" encoding="UTF-8"?><!DOCTYPE svg PUBLIC "-//W3C//DTD SVG 1.1//EN" "http://www.w3.org/Graphics/SVG/1.1/DTD/svg11.dtd"><svg xmlns="http://www.w3.org/2000/svg" xmlns:xlink="http://www.w3.org/1999/xlink"><defs>
        <linearGradient id="a" x1="7" x2="7" y1=".59" y2="19.41" gradientUnits="userSpaceOnUse">
            <stop offset="0" stop-color="#298be7"/>
            <stop offset="1" stop-color="#70efee"/>
        </linearGradient>
        <linearGradient id="b" x1="7.01" x2="7.01" y1="11.18" y2="16.47" gradientUnits="userSpaceOnUse">
            <stop offset="0" stop-color="#298be7"/>
            <stop offset="1" stop-color="#70efee"/>
        </linearGradient>
    
        <linearGradient id="a" x1="151.14" x2="108.54" y1="45.09" y2="92.39" gradientUnits="userSpaceOnUse">
            <stop offset="0" stop-color="#fae280"/>
            <stop offset=".48" stop-color="#eed780"/>
            <stop offset="1" stop-color="#c5952a"/>
        </linearGradient>
        <linearGradient id="b" x1="90.84" x2="90.84" y1="-42.56" y2="111.73" gradientUnits="userSpaceOnUse">
            <stop offset="0" stop-color="#c8992f"/>
            <stop offset="1" stop-color="#f7e080"/>
        </linearGradient>
        <linearGradient id="c" x1="109.92" x2="109.92" y1="-25.73" y2="80.57" gradientUnits="userSpaceOnUse">
            <stop offset="0" stop-color="#c8992f"/>
            <stop offset="1" stop-color="#f7e080"/>
        </linearGradient>
        <linearGradient id="d" x1="159.25" x2="159.25" y1="-42.56" y2="111.73" gradientUnits="userSpaceOnUse">
            <stop offset="0" stop-color="#c8992f"/>
            <stop offset="1" stop-color="#f7e080"/>
        </linearGradient>
        <linearGradient id="e" x1="140.22" x2="140.22" y1="-25.73" y2="80.57" gradientUnits="userSpaceOnUse">
            <stop offset="0" stop-color="#c8992f"/>
            <stop offset="1" stop-color="#f7e080"/>
        </linearGradient>
        <linearGradient id="f" x1="195.86" x2="195.86" y1="78.03" y2="196.67" gradientUnits="userSpaceOnUse">
            <stop offset="0" stop-color="#c8992f"/>
            <stop offset="1" stop-color="#f7e080"/>
        </linearGradient>
        <linearGradient id="g" x1="54.91" x2="54.91" y1="77.89" y2="196.82" gradientUnits="userSpaceOnUse">
            <stop offset="0" stop-color="#c8992f"/>
            <stop offset="1" stop-color="#f7e080"/>
        </linearGradient>
        <linearGradient id="h" x1="100.49" x2="100.49" y1="91.98" y2="201.81" gradientUnits="userSpaceOnUse">
            <stop offset="0" stop-color="#c8992f"/>
            <stop offset="1" stop-color="#f7e080"/>
        </linearGradient>
        <linearGradient id="i" x1="149.66" x2="149.66" y1="91.98" y2="201.81" gradientUnits="userSpaceOnUse">
            <stop offset="0" stop-color="#c8992f"/>
            <stop offset="1" stop-color="#f7e080"/>
        </linearGradient>
        <linearGradient id="j" x1="88.23" x2="88.23" y1="-102.85" y2="335.56" gradientUnits="userSpaceOnUse">
            <stop offset="0" stop-color="#c8992f"/>
            <stop offset="1" stop-color="#f7e080"/>
        </linearGradient>
        <linearGradient id="k" x1="162.31" x2="162.31" y1="-102.98" y2="335.68" gradientUnits="userSpaceOnUse">
            <stop offset="0" stop-color="#c8992f"/>
            <stop offset="1" stop-color="#f7e080"/>
        </linearGradient>
        <linearGradient id="l" x1="207.45" x2="207.45" y1="-126.43" y2="401.81" gradientUnits="userSpaceOnUse">
            <stop offset="0" stop-color="#c8992f"/>
            <stop offset="1" stop-color="#f7e080"/>
        </linearGradient>
        <linearGradient id="m" x1="232.48" x2="232.48" y1="5.01" y2="191.06" gradientUnits="userSpaceOnUse">
            <stop offset="0" stop-color="#c8992f"/>
            <stop offset="1" stop-color="#f7e080"/>
        </linearGradient>
        <linearGradient id="n" x1="194.01" x2="194.01" y1="34.88" y2="214.43" gradientUnits="userSpaceOnUse">
            <stop offset="0" stop-color="#c8992f"/>
            <stop offset="1" stop-color="#f7e080"/>
        </linearGradient>
        <linearGradient id="o" x1="181.94" x2="181.94" y1="-2.32" y2="120.51" gradientUnits="userSpaceOnUse">
            <stop offset="0" stop-color="#c8992f"/>
            <stop offset="1" stop-color="#f7e080"/>
        </linearGradient>
        <linearGradient id="p" x1="42.9" x2="42.9" y1="-126.43" y2="401.81" gradientUnits="userSpaceOnUse">
            <stop offset="0" stop-color="#c8992f"/>
            <stop offset="1" stop-color="#f7e080"/>
        </linearGradient>
        <linearGradient id="q" x1="18.03" x2="18.03" y1="5.01" y2="191.06" gradientUnits="userSpaceOnUse">
            <stop offset="0" stop-color="#c8992f"/>
            <stop offset="1" stop-color="#f7e080"/>
        </linearGradient>
        <linearGradient id="r" x1="56.41" x2="56.41" y1="34.88" y2="214.43" gradientUnits="userSpaceOnUse">
            <stop offset="0" stop-color="#c8992f"/>
            <stop offset="1" stop-color="#f7e080"/>
        </linearGradient>
        <linearGradient id="s" x1="68.57" x2="68.57" y1="-2.32" y2="120.51" gradientUnits="userSpaceOnUse">
            <stop offset="0" stop-color="#c8992f"/>
            <stop offset="1" stop-color="#f7e080"/>
        </linearGradient>
    
        <linearGradient id="paint0_linear_14_41798" x1="10" y1="4.141" x2="10" y2="11.172" gradientUnits="userSpaceOnUse">
            <stop stop-color="#298BE7"/>
            <stop offset="1" stop-color="#70EFEE"/>
        </linearGradient>
        <linearGradient id="paint1_linear_14_41798" x1="17.188" y1="3.203" x2="17.188" y2="3.984" gradientUnits="userSpaceOnUse">
            <stop stop-color="#298BE7"/>
            <stop offset="1" stop-color="#70EFEE"/>
        </linearGradient>
        <linearGradient id="paint2_linear_14_41798" x1="10" y1="0" x2="10" y2="20" gradientUnits="userSpaceOnUse">
            <stop stop-color="#298BE7"/>
            <stop offset="1" stop-color="#70EFEE"/>
        </linearGradient>
        <clipPath id="clip0_14_41798">
            <path d="M0 0h20v20H0z"/>
        </clipPath>
    
        <linearGradient id="paint0_linear_4_19972" x1="9" y1=".25" x2="9" y2="13.75" gradientUnits="userSpaceOnUse">
            <stop stop-color="#298BE7"/>
            <stop offset="1" stop-color="#70EFEE"/>
        </linearGradient>
    </defs><symbol id="ico-mono-account-circle" viewBox="0 0 18 18">
    <path d="M9.003.67c4.6 0 8.334 3.733 8.334 8.333s-3.734 8.334-8.334 8.334A8.336 8.336 0 01.67 9.003C.67 4.403 4.403.67 9.003.67zm0 15a6.58 6.58 0 004.109-1.433c-.35-.75-2.542-1.484-4.109-1.484-1.566 0-3.75.734-4.108 1.484a6.577 6.577 0 004.108 1.433zm6.667-6.667a6.676 6.676 0 00-6.667-6.666 6.676 6.676 0 00-6.666 6.666c0 1.517.516 2.909 1.366 4.025 1.192-1.45 4.084-1.941 5.3-1.941 1.217 0 4.109.491 5.3 1.941a6.625 6.625 0 001.367-4.025zM11.92 6.92a2.91 2.91 0 01-2.917 2.917A2.91 2.91 0 016.087 6.92a2.91 2.91 0 012.916-2.917A2.91 2.91 0 0111.92 6.92zm-1.667 0c0-.692-.558-1.25-1.25-1.25-.691 0-1.25.558-1.25 1.25s.559 1.25 1.25 1.25c.692 0 1.25-.558 1.25-1.25z"/>
</symbol><symbol id="ico-mono-alert" viewBox="0 0 28 25">
    <g>
        <path d="M4.588 21.75h18.825L14 5.488zm23.162 2.5H.25L14 .5zm-12.5-3.75h-2.5V18h2.5zm0-5h-2.5v-5h2.5z"/>
    </g>
</symbol><symbol id="ico-mono-arrow-down" viewBox="0 0 13 8">
    <path d="M6.7 7.42a.838.838 0 01-.594-.246l-5.16-5.16A.84.84 0 112.135.827L6.7 5.392 11.265.826a.84.84 0 011.189 1.189l-5.16 5.16a.838.838 0 01-.594.245z"/>
</symbol><symbol id="ico-mono-arrow-fat" viewBox="0 0 16 26">
    <path fill-rule="evenodd" clip-rule="evenodd" d="M14.909 14.708c-.015.015-.035.019-.05.033L4.492 25.109a2.4 2.4 0 01-3.394-3.395l8.711-8.711-8.711-8.711A2.4 2.4 0 014.492.898l10.367 10.367c.015.014.035.018.05.033.47.47.704 1.088.702 1.705a2.393 2.393 0 01-.702 1.705z"/>
</symbol><symbol id="ico-mono-bell" viewBox="0 0 16 20">
    <path d="M7.997.83a6.25 6.25 0 00-6.25 6.25v4.875L.364 14.038a1.7 1.7 0 001.412 2.625h12.442a1.7 1.7 0 001.412-2.637l-1.383-2.071V7.08A6.25 6.25 0 007.997.83z"/>
    <path d="M8.004 19.167a2.5 2.5 0 002.354-1.667H5.65a2.5 2.5 0 002.354 1.667z"/>
</symbol><symbol id="ico-mono-bell2" viewBox="0 0 20 20">
    <path d="M10 18.333c.917 0 1.667-.75 1.667-1.666H8.334c0 .916.75 1.666 1.666 1.666zm5-5V9.167c0-2.559-1.358-4.7-3.75-5.267v-.567c0-.691-.558-1.25-1.25-1.25-.691 0-1.25.559-1.25 1.25V3.9C6.367 4.467 5 6.6 5 9.167v4.166L3.333 15v.833h13.334V15L15 13.333zm-1.666.834H6.667v-5c0-2.067 1.258-3.75 3.333-3.75s3.334 1.683 3.334 3.75v5z"/>
</symbol><symbol id="ico-mono-calendar" viewBox="0 0 32 29">
    <path fill-rule="evenodd" clip-rule="evenodd" d="M30.5 11.333h-29V26A1.5 1.5 0 003 27.5h26a1.5 1.5 0 001.5-1.5V11.333zm0-1.5h-29V6A1.5 1.5 0 013 4.5h26A1.5 1.5 0 0130.5 6v3.833zM32 6a3 3 0 00-3-3H3a3 3 0 00-3 3v20a3 3 0 003 3h26a3 3 0 003-3V6z"/>
    <path fill-rule="evenodd" clip-rule="evenodd" d="M8.25 7V0h1.5v7h-1.5z"/>
    <path fill-rule="evenodd" clip-rule="evenodd" d="M15.25 7V0h1.5v7h-1.5z"/>
    <path fill-rule="evenodd" clip-rule="evenodd" d="M22.25 7V0h1.5v7h-1.5z"/>
    <path fill-rule="evenodd" clip-rule="evenodd" d="M10 17.5H6v-3h4v3z"/>
    <path fill-rule="evenodd" clip-rule="evenodd" d="M10 23.5H6v-3h4v3z"/>
    <path fill-rule="evenodd" clip-rule="evenodd" d="M26 17.5h-4v-3h4v3z"/>
    <path fill-rule="evenodd" clip-rule="evenodd" d="M26 23.5h-4v-3h4v3z"/>
    <path fill-rule="evenodd" clip-rule="evenodd" d="M18 17.5h-4v-3h4v3z"/>
    <path fill-rule="evenodd" clip-rule="evenodd" d="M18 23.5h-4v-3h4v3z"/>
</symbol><symbol id="ico-mono-cancel" viewBox="0 0 10 10">
    <path d="M6.101 5l3.74-3.74a.544.544 0 000-.773L9.512.16A.542.542 0 009.126 0a.542.542 0 00-.387.16L5 3.898 1.261.16A.542.542 0 00.874 0a.542.542 0 00-.386.16L.16.487a.547.547 0 000 .774L3.899 5 .16 8.739a.544.544 0 00-.16.386c0 .147.057.284.16.387l.328.328c.103.103.24.16.386.16a.542.542 0 00.387-.16l3.74-3.74 3.738 3.74c.103.103.24.16.387.16a.543.543 0 00.387-.16l.327-.328a.543.543 0 00.16-.387.544.544 0 00-.16-.386z"/>
</symbol><symbol id="ico-mono-check" viewBox="0 0 405.272 405.272">
    <path d="M393.401 124.425L179.603 338.208c-15.832 15.835-41.514 15.835-57.361 0L11.878 227.836c-15.838-15.835-15.838-41.52 0-57.358 15.841-15.841 41.521-15.841 57.355-.006l81.698 81.699L336.037 67.064c15.841-15.841 41.523-15.829 57.358 0 15.835 15.838 15.835 41.514.006 57.361z"/>
</symbol><symbol id="ico-mono-close" viewBox="0 0 20 20">
    <path fill-rule="evenodd" clip-rule="evenodd" d="M.47.47a.75.75 0 011.06 0L10 8.94 18.47.47a.75.75 0 111.06 1.06L11.06 10l8.47 8.47a.75.75 0 11-1.06 1.06L10 11.06l-8.47 8.47a.75.75 0 01-1.06-1.06L8.94 10 .47 1.53a.75.75 0 010-1.06z"/>
</symbol><symbol id="ico-mono-copy" viewBox="0 0 17 20">
    <path d="M12.337 2.497h-10v11.666H.67V2.497C.67 1.58 1.42.83 2.337.83h10zm2.5 1.666c.916 0 1.666.75 1.666 1.667v11.667c0 .916-.75 1.666-1.666 1.666H5.67c-.917 0-1.667-.75-1.667-1.666V5.83c0-.917.75-1.667 1.667-1.667zm0 1.667H5.67v11.667h9.167z"/>
</symbol><symbol id="ico-mono-dollar-circle" viewBox="0 0 18 18">
    <path d="M9.003.67c4.6 0 8.334 3.733 8.334 8.333s-3.734 8.334-8.334 8.334A8.336 8.336 0 01.67 9.003C.67 4.403 4.403.67 9.003.67zm6.667 8.333a6.676 6.676 0 00-6.667-6.666 6.676 6.676 0 00-6.666 6.666 6.676 6.676 0 006.666 6.667 6.676 6.676 0 006.667-6.667zm-5.925-.75c2 .692 2.508 1.709 2.5 2.867 0 2.192-2.083 2.608-2.517 2.683v1.034H8.27v-1.075c-.617-.15-1.992-.642-2.517-2.467l1.384-.558c.05.183.483 1.741 2 1.741.775 0 1.65-.4 1.65-1.341 0-.8-.584-1.225-1.9-1.692-.917-.333-2.792-.867-2.792-2.758 0-.092.017-2 2.183-2.467V3.17h1.459v1.042c1.533.266 2.091 1.491 2.216 1.858l-1.316.558a1.61 1.61 0 00-1.584-1.116c-.583 0-1.508.308-1.508 1.158 0 .783.717 1.092 2.2 1.583z"/>
</symbol><symbol id="ico-mono-dollar" viewBox="0 0 9 16">
    <path d="M4.837 7.083c-1.892-.491-2.5-1-2.5-1.791 0-.909.841-1.542 2.25-1.542 1.483 0 2.033.708 2.083 1.75h1.842c-.059-1.433-.934-2.75-2.675-3.175V.5h-2.5v1.8C1.72 2.65.42 3.7.42 5.308c0 1.925 1.592 2.884 3.917 3.442 2.083.5 2.5 1.233 2.5 2.008 0 .575-.409 1.492-2.25 1.492-1.717 0-2.392-.767-2.484-1.75H.27c.1 1.825 1.467 2.85 3.067 3.192V15.5h2.5v-1.792c1.625-.308 2.916-1.25 2.916-2.958 0-2.367-2.025-3.175-3.916-3.667z"/>
</symbol><symbol id="ico-mono-double-arrow" viewBox="0 0 8 8">
    <path d="M4.003 7.5a.5.5 0 01-.355-.855L6.298 4l-2.65-2.645A.5.5 0 014.353.65l3 3a.5.5 0 010 .705l-3 3a.5.5 0 01-.35.145z"/>
    <path d="M1.003 7.502a.5.5 0 01-.355-.855l2.65-2.645-2.65-2.645a.502.502 0 11.71-.71l3 3a.5.5 0 010 .705l-3 3a.5.5 0 01-.355.15z"/>
</symbol><symbol id="ico-mono-double-user" viewBox="0 0 20 20">
    <path d="M13.892 10.942c1.141.775 1.941 1.825 1.941 3.225v2.5h3.334v-2.5c0-1.817-2.975-2.892-5.275-3.225z"/>
    <path d="M12.5 10a3.332 3.332 0 100-6.667c-.392 0-.758.084-1.108.2a4.983 4.983 0 010 6.267c.35.117.716.2 1.108.2z"/>
    <path d="M7.5 10a3.332 3.332 0 100-6.667A3.332 3.332 0 107.5 10zm0-5c.917 0 1.667.75 1.667 1.667 0 .916-.75 1.666-1.667 1.666-.916 0-1.666-.75-1.666-1.666C5.834 5.75 6.584 5 7.5 5z"/>
    <path d="M7.5 10.833c-2.225 0-6.667 1.117-6.667 3.334v2.5h13.334v-2.5c0-2.217-4.442-3.334-6.667-3.334zm5 4.167h-10v-.825c.167-.6 2.75-1.675 5-1.675s4.834 1.075 5 1.667V15z"/>
</symbol><symbol id="ico-mono-email" viewBox="0 0 49 35">
    <g fill-rule="evenodd">
        <path d="M44.49 0c2.338 0 4.13 1.781 4.13 3.813v1.272l-5.402 3.813-19.067 13.029L5.402 8.897v26.059h-1.27C1.791 34.956 0 33.175 0 31.143V3.813C0 1.783 1.793.001 4.131 0l20.02 14.936L44.49 0z" fill-rule="nonzero"/>
        <path d="M48.62 5.085v26.058c-.092 2.737-1.316 3.765-5.402 3.813V8.898l5.403-3.813z" fill-rule="nonzero"/>
        <path d="M3.813 0h40.765v5.461H3.813z"/>
        <path d="M4.767 29.554h38.451v5.402H4.767z"/>
    </g>
</symbol><symbol id="ico-mono-exchange" viewBox="0 0 12 12">
    <path d="M12 8.625a.375.375 0 01-.375.375H1.28l1.61 1.61a.375.375 0 11-.53.53L.11 8.89a.375.375 0 010-.53l2.25-2.25a.375.375 0 11.53.53L1.28 8.25h10.345c.207 0 .375.168.375.375zm-.11-5.515a.375.375 0 010 .53L9.64 5.89a.374.374 0 01-.53 0 .375.375 0 010-.53l1.61-1.61H.375a.375.375 0 110-.75H10.72L9.11 1.39a.375.375 0 11.53-.53z"/>
</symbol><symbol id="ico-mono-exit" viewBox="0 0 16 16">
    <path d="M12.167 4.667l-1.175 1.175 1.316 1.325H5.5v1.666h6.808l-1.316 1.317 1.175 1.183L15.5 8zm-10-2.5H8V.5H2.167C1.25.5.5 1.25.5 2.167v11.666c0 .917.75 1.667 1.667 1.667H8v-1.667H2.167z"/>
</symbol><symbol id="ico-mono-expert1" viewBox="0 0 52 52">
    <path d="M49.576.55A2.424 2.424 0 0152 2.974v7.166a2.424 2.424 0 01-2.424 2.424h-7.209v24.352c0 .595-.482 1.077-1.077 1.077H24.265c-.635 2.63-1.207 4.547-1.207 4.72-.03.119-.081.232-.15.334l-5.517 7.94c-.201.29-.531.463-.884.464H3.448a1.078 1.078 0 01-1.078-1.077V34.373a1.079 1.079 0 010-.162c.647-4.18 5.991-10.495 7.263-11.95v-9.697H2.424A2.424 2.424 0 010 10.14V2.974A2.424 2.424 0 012.424.55zM23.608 23.878a.711.711 0 00-.582-.28c-.302 0-1.002.118-2.209 1.196-1.778 1.53-4.127 8.415-5.204 12.402v.075l-.065.14a1.08 1.08 0 01-.129.194l-.097.108a1.076 1.076 0 01-.215.14l-.119.065a1.078 1.078 0 01-.388.075h-3.89a1.078 1.078 0 01-1.077-1.077V25.677c-2.069 2.597-4.698 6.368-5.118 8.825v14.783h11.421l5.097-7.327a135.093 135.093 0 003.286-15.419 4.223 4.223 0 00-.711-2.661zM40.212 7.683H11.788v28.198h2.026c.765-2.672 3.157-10.527 5.656-12.682a5.775 5.775 0 013.62-1.713c.83.006 1.616.372 2.156 1.002a6.346 6.346 0 011.217 4.31c-.334 2.758-1.012 6.12-1.68 9.04h15.43zm9.633-4.709a.27.27 0 00-.27-.269H2.426a.27.27 0 00-.27.27v7.208c0 .149.12.27.27.27h7.219v-2.77H7.683a1.078 1.078 0 010-2.155h36.634a1.078 1.078 0 010 2.155h-1.95v2.715h7.209a.27.27 0 00.269-.269z"/>
</symbol><symbol id="ico-mono-expert2" viewBox="0 0 52 52">
    <path d="M42.47 21.67c.478 0 .867.387.867.867v6.933c0 .48-.389.867-.867.867h-2.399a14.605 14.605 0 01-1.055 2.55l1.696 1.695a.863.863 0 010 1.226l-4.903 4.903a.867.867 0 01-1.226 0l-1.696-1.695c-.813.43-1.666.784-2.55 1.054v2.4c0 .48-.389.867-.867.867h-6.933a.866.866 0 01-.867-.867v-2.4a14.678 14.678 0 01-2.55-1.054l-1.697 1.695a.866.866 0 01-1.225 0l-4.903-4.903a.863.863 0 010-1.226l1.696-1.695a14.581 14.581 0 01-1.055-2.55h-2.4a.866.866 0 01-.866-.867v-6.933c0-.48.388-.867.867-.867h2.399c.27-.883.624-1.738 1.055-2.55l-1.696-1.696a.863.863 0 010-1.225l4.903-4.903a.866.866 0 011.225 0l1.697 1.695c.812-.43 1.666-.784 2.55-1.054v-2.4c0-.48.388-.867.867-.867h6.933c.478 0 .867.387.867.867v2.4c.884.27 1.737.625 2.55 1.054l1.696-1.695a.866.866 0 011.226 0l4.903 4.903a.863.863 0 010 1.225l-1.696 1.696c.43.812.784 1.666 1.055 2.55zm-.867 1.733h-2.187a.868.868 0 01-.84-.65 12.903 12.903 0 00-1.383-3.341.868.868 0 01.132-1.054l1.548-1.546-3.678-3.678-1.546 1.546a.871.871 0 01-1.053.134 12.933 12.933 0 00-3.343-1.383.87.87 0 01-.65-.84v-2.188h-5.2v2.188a.868.868 0 01-.651.84c-1.179.304-2.303.77-3.343 1.383a.869.869 0 01-1.053-.134l-1.546-1.546-3.678 3.678 1.548 1.546c.28.279.334.712.133 1.054a12.932 12.932 0 00-1.383 3.341.867.867 0 01-.84.65h-2.187v5.2h2.188a.87.87 0 01.84.65c.304 1.178.77 2.302 1.384 3.342a.867.867 0 01-.134 1.054l-1.547 1.546 3.677 3.678 1.547-1.547a.868.868 0 011.053-.133 12.932 12.932 0 003.342 1.383c.382.1.65.445.65.84v2.187h5.2v-2.187c0-.395.268-.741.651-.84a12.934 12.934 0 003.343-1.383.87.87 0 011.053.133l1.546 1.547 3.677-3.678-1.547-1.546a.865.865 0 01-.132-1.054 12.936 12.936 0 001.383-3.342.867.867 0 01.839-.65h2.187z"/>
    <path d="M36.4 26c0 5.735-4.665 10.4-10.4 10.4S15.6 31.735 15.6 26 20.265 15.6 26 15.6 36.4 20.265 36.4 26zm-1.733 0c0-4.779-3.888-8.667-8.667-8.667S17.333 21.221 17.333 26s3.888 8.667 8.667 8.667 8.667-3.888 8.667-8.667z"/>
    <path d="M22.97 20.042a.869.869 0 01.873.012l8.667 5.2a.865.865 0 010 1.485l-8.667 5.2a.868.868 0 01-1.313-.743v-10.4c0-.312.168-.6.44-.754zm1.293 9.623l6.116-3.669-6.116-3.668z"/>
    <path d="M52.003 3.467a3.47 3.47 0 01-3.466 3.466 3.47 3.47 0 01-3.467-3.466A3.47 3.47 0 0148.537 0a3.47 3.47 0 013.466 3.467zm-1.733 0c0-.956-.777-1.734-1.733-1.734-.956 0-1.734.778-1.734 1.734S47.581 5.2 48.537 5.2s1.733-.777 1.733-1.733z"/>
    <path d="M6.933 3.467a3.47 3.47 0 01-3.466 3.466A3.47 3.47 0 010 3.467 3.47 3.47 0 013.467 0a3.47 3.47 0 013.466 3.467zm-1.733 0c0-.956-.777-1.734-1.733-1.734-.956 0-1.734.778-1.734 1.734S2.511 5.2 3.467 5.2 5.2 4.423 5.2 3.467z"/>
    <path d="M52.003 48.537a3.47 3.47 0 01-3.466 3.466 3.47 3.47 0 01-3.467-3.466 3.47 3.47 0 013.467-3.467 3.47 3.47 0 013.466 3.467zm-1.733 0c0-.956-.777-1.734-1.733-1.734-.956 0-1.734.778-1.734 1.734s.778 1.733 1.734 1.733 1.733-.777 1.733-1.733z"/>
    <path d="M6.933 48.537a3.47 3.47 0 01-3.466 3.466A3.47 3.47 0 010 48.537a3.47 3.47 0 013.467-3.467 3.47 3.47 0 013.466 3.467zm-1.733 0c0-.956-.777-1.734-1.733-1.734-.956 0-1.734.778-1.734 1.734s.778 1.733 1.734 1.733S5.2 49.493 5.2 48.537z"/>
    <path d="M45.07 26h1.733v1.733H45.07z"/>
    <path d="M48.53 26h1.733v1.733H48.53z"/>
    <path d="M48.53 22.53h1.733v1.733H48.53z"/>
    <path d="M48.53 19.07h1.733v1.733H48.53z"/>
    <path d="M48.53 15.6h1.733v1.733H48.53z"/>
    <path d="M48.53 12.13h1.733v1.733H48.53z"/>
    <path d="M48.53 8.67h1.733v1.733H48.53z"/>
    <path d="M8.67 1.73h1.733v1.733H8.67z"/>
    <path d="M12.13 1.73h1.733v1.733H12.13z"/>
    <path d="M15.6 1.73h1.733v1.733H15.6z"/>
    <path d="M19.07 1.73h1.733v1.733H19.07z"/>
    <path d="M22.53 1.73h1.733v1.733H22.53z"/>
    <path d="M26 1.73h1.733v1.733H26z"/>
    <path d="M26 5.2h1.733v1.733H26z"/>
    <path d="M1.73 41.6h1.733v1.733H1.73z"/>
    <path d="M1.73 38.13h1.733v1.733H1.73z"/>
    <path d="M1.73 34.67h1.733v1.733H1.73z"/>
    <path d="M1.73 31.2h1.733v1.733H1.73z"/>
    <path d="M1.73 27.73h1.733v1.733H1.73z"/>
    <path d="M1.73 24.27h1.733v1.733H1.73z"/>
    <path d="M5.2 24.27h1.733v1.733H5.2z"/>
    <path d="M24.27 45.07h1.733v1.733H24.27z"/>
    <path d="M24.27 48.53h1.733v1.733H24.27z"/>
    <path d="M27.73 48.53h1.733v1.733H27.73z"/>
    <path d="M31.2 48.53h1.733v1.733H31.2z"/>
    <path d="M34.67 48.53h1.733v1.733H34.67z"/>
    <path d="M38.13 48.53h1.733v1.733H38.13z"/>
    <path d="M41.6 48.53h1.733v1.733H41.6z"/>
</symbol><symbol id="ico-mono-expert3" viewBox="0 0 52 52">
    <path d="M36.4 18.2v3.467a.866.866 0 01-.867.866H16.467a.866.866 0 01-.867-.866V18.2c0-3.795 2.726-6.962 6.321-7.655a6.046 6.046 0 01-1.988-4.478A6.074 6.074 0 0126 0a6.074 6.074 0 016.067 6.067c0 1.774-.77 3.368-1.989 4.478 3.596.693 6.322 3.86 6.322 7.655zM26 10.4a4.338 4.338 0 004.333-4.333A4.338 4.338 0 0026 1.733a4.338 4.338 0 00-4.333 4.334A4.338 4.338 0 0026 10.4zm8.667 7.8a6.074 6.074 0 00-6.067-6.067h-5.2a6.074 6.074 0 00-6.067 6.067v2.6h17.334z"/>
    <path d="M20.8 47.67v3.467a.866.866 0 01-.867.866H.867A.866.866 0 010 51.137V47.67c0-3.795 2.726-6.962 6.321-7.655a6.046 6.046 0 01-1.988-4.478A6.074 6.074 0 0110.4 29.47a6.074 6.074 0 016.067 6.067c0 1.774-.77 3.368-1.988 4.478 3.595.693 6.321 3.86 6.321 7.655zm-10.4-7.8a4.338 4.338 0 004.333-4.333 4.338 4.338 0 00-4.333-4.334 4.338 4.338 0 00-4.333 4.334A4.338 4.338 0 0010.4 39.87zm8.667 7.8A6.074 6.074 0 0013 41.603H7.8a6.074 6.074 0 00-6.067 6.067v2.6h17.334z"/>
    <path d="M52 47.67v3.467a.866.866 0 01-.867.866H32.067a.866.866 0 01-.867-.866V47.67c0-3.795 2.726-6.962 6.321-7.655a6.046 6.046 0 01-1.988-4.478A6.074 6.074 0 0141.6 29.47a6.074 6.074 0 016.067 6.067c0 1.774-.77 3.368-1.989 4.478 3.596.693 6.322 3.86 6.322 7.655zm-10.4-7.8a4.338 4.338 0 004.333-4.333 4.338 4.338 0 00-4.333-4.334 4.338 4.338 0 00-4.333 4.334A4.338 4.338 0 0041.6 39.87zm8.667 7.8a6.074 6.074 0 00-6.067-6.067H39a6.074 6.074 0 00-6.067 6.067v2.6h17.334z"/>
    <path d="M5.212 27.71l-1.732.068c.023.597.071 1.202.142 1.796l1.721-.206a20.842 20.842 0 01-.131-1.658z"/>
    <path d="M3.621 24.18a22.42 22.42 0 00-.141 1.796l1.732.067a20.73 20.73 0 01.13-1.658z"/>
    <path d="M12.34 8.94a22.24 22.24 0 00-1.39 1.15l1.159 1.29c.412-.371.843-.728 1.28-1.061z"/>
    <path d="M5.602 17.27c-.255.542-.49 1.1-.702 1.662l1.622.61c.195-.519.413-1.034.648-1.532z"/>
    <path d="M4.336 20.65a22.499 22.499 0 00-.426 1.75l1.7.343c.109-.542.24-1.086.393-1.615z"/>
    <path d="M9.658 11.35c-.415.437-.814.892-1.188 1.354l1.348 1.09c.345-.426.714-.848 1.097-1.25z"/>
    <path d="M15.365 6.99c-.525.28-1.047.588-1.555.914l.94 1.458c.467-.302.95-.586 1.431-.843z"/>
    <path d="M7.399 14.15a22.515 22.515 0 00-.959 1.527l1.504.862c.274-.479.572-.953.885-1.409z"/>
    <path d="M21.892 47.26l-.342 1.7c.583.117 1.183.212 1.782.282l.2-1.721a20.526 20.526 0 01-1.64-.261z"/>
    <path d="M30.163 47.25c-.538.11-1.09.198-1.643.266l.209 1.721a23.52 23.52 0 001.778-.287z"/>
    <path d="M26.862 47.65c-.553.022-1.113.024-1.664.003l-.068 1.731a20.822 20.822 0 001.802-.002z"/>
    <path d="M41.048 10.1l-1.158 1.29c.413.37.813.76 1.192 1.16l1.258-1.192a22.42 22.42 0 00-1.292-1.258z"/>
    <path d="M43.528 12.71L42.18 13.8c.346.428.68.877.994 1.335l1.43-.98a23.64 23.64 0 00-1.076-1.445z"/>
    <path d="M48.512 25.98l-1.732.068a20.002 20.002 0 010 1.664l1.732.068a22.635 22.635 0 000-1.8z"/>
    <path d="M45.565 15.68l-1.505.862c.275.48.533.976.769 1.475l1.568-.74a22.686 22.686 0 00-.832-1.597z"/>
    <path d="M47.102 18.94l-1.622.61c.194.517.37 1.048.522 1.578l1.666-.477a22.324 22.324 0 00-.566-1.711z"/>
    <path d="M48.089 22.4l-1.699.341c.11.543.198 1.096.262 1.644l1.72-.205a22.29 22.29 0 00-.283-1.78z"/>
    <path d="M38.189 7.91l-.939 1.458c.463.298.92.62 1.362.957l1.052-1.38a22.574 22.574 0 00-1.475-1.035z"/>
    <path d="M35.014 6.21l-.694 1.588a20.86 20.86 0 011.496.727l.82-1.527a21.663 21.663 0 00-1.622-.788z"/>
</symbol><symbol id="ico-mono-expert4" viewBox="0 0 40 52">
    <path d="M1.153 11.32h.762v.763a.763.763 0 101.526 0v-.762h.762a.763.763 0 000-1.526h-.762v-.762a.763.763 0 10-1.526 0v.762h-.762a.763.763 0 000 1.526z"/>
    <path d="M31.263 31.345h-.762v-.762a.763.763 0 10-1.526 0v.762h-.762a.763.763 0 100 1.526h.762v.762a.763.763 0 101.526 0v-.762h.762a.763.763 0 100-1.526z"/>
    <path d="M38.853 1.505h-.762V.743a.763.763 0 10-1.526 0v.762h-.762a.763.763 0 100 1.526h.762v.762a.763.763 0 101.526 0v-.762h.762a.763.763 0 100-1.526z"/>
    <path d="M22.487 33.087v6.198a9.336 9.336 0 01-1.853 5.563c-.826 1.124-1.067 1.37-1.444 2.019.474.384.778.97.778 1.625v1.392a2.094 2.094 0 01-2.091 2.092H4.007a2.094 2.094 0 01-2.091-2.092v-1.392a2.09 2.09 0 011.026-1.796L1.24 42.672c-.896-2.089-.728-3.798-.75-4.044a.763.763 0 011.525 0c.014.161-.11 1.725.628 3.446l1.81 4.278.02.049h13.23c.512-.964.954-1.428 1.71-2.467a7.8 7.8 0 001.548-4.65v-6.197c0-.757-.615-1.404-1.343-1.413-.145 0-.288.019-.424.061-.84.263-1.71-.35-1.71-1.244V18.514c0-.753-.589-1.386-1.312-1.412a1.36 1.36 0 00-1.412 1.36v10.293a.763.763 0 11-1.525 0 1.36 1.36 0 00-1.412-1.36c-.723.026-1.311.659-1.311 1.411v2.047a.763.763 0 01-1.525 0c0-.372-.148-.72-.416-.98a1.348 1.348 0 00-.996-.38c-.723.025-1.311.659-1.311 1.411v1.177a.763.763 0 01-1.526 0 1.36 1.36 0 00-1.412-1.36c-.722.025-1.31.658-1.31 1.41v2.894a.763.763 0 01-1.526 0v-2.893c0-1.564 1.248-2.881 2.782-2.936a2.859 2.859 0 011.729.497c.444-.981 1.407-1.685 2.52-1.725a2.873 2.873 0 011.505.36c.224-1.346 1.368-2.409 2.743-2.457a2.86 2.86 0 011.466.337v-6.353a10.966 10.966 0 01-1.696-5.87c0-6.075 4.941-11.016 11.015-11.016 6.074 0 11.015 4.941 11.015 11.015C33.569 20.059 28.627 25 22.554 25a10.94 10.94 0 01-3.545-.583v5.792c.206-.042.416-.063.628-.06 1.545.02 2.85 1.365 2.85 2.938zm-3.51-15.003l.023-.04a.763.763 0 011.056-.22c.662.432 1.04.572 1.667.61v-4.411c-1.75-.77-2.84-1.658-2.482-3.56.217-1.153 1.018-2.07 2.09-2.393.133-.04.264-.073.392-.1v-.747a.763.763 0 111.525 0v.716c1.122.193 1.805.808 1.847.846a.763.763 0 01-1.029 1.126 2.22 2.22 0 00-.818-.411v3.495c.194.073.39.143.58.21 1.626.575 2.497 2.022 2.217 3.686-.214 1.273-1.167 2.633-2.797 2.99v.866a.763.763 0 11-1.525 0v-.786c-.868-.043-1.527-.224-2.502-.861a.76.76 0 01-.212-.208v3.898a9.41 9.41 0 003.545.685c5.232 0 9.49-4.257 9.49-9.49 0-5.233-4.258-9.49-9.49-9.49-5.233 0-9.49 4.257-9.49 9.49 0 1.066.177 2.111.52 3.101a2.886 2.886 0 012.643-1.507c1.39.049 2.547 1.136 2.75 2.505zm4.27.201c.745-.306 1.184-.996 1.294-1.647.152-.905-.258-1.651-1.293-2.02zm-1.524-8.738c-.595.203-.898.748-.983 1.2-.169.893.27 1.203.983 1.583zm-3.28 38.945a.567.567 0 00-.566-.566H4.007a.567.567 0 00-.566.566v1.392c0 .312.254.566.566.566h13.87a.567.567 0 00.566-.566z"/>
    <path d="M22.55-.02c-7.726 0-14.01 6.285-14.01 14.01 0 2.659.749 5.247 2.165 7.484a.762.762 0 101.289-.816 12.442 12.442 0 01-1.929-6.668c0-6.884 5.6-12.485 12.484-12.485s12.484 5.6 12.484 12.485c0 6.883-5.6 12.484-12.484 12.484-.268 0-.539-.009-.806-.026a.762.762 0 10-.097 1.522c.299.02.603.03.903.03 7.725 0 14.01-6.286 14.01-14.01 0-7.725-6.285-14.01-14.01-14.01z"/>
</symbol><symbol id="ico-mono-expert5" viewBox="0 0 50 50">
    <path d="M17.69 17.683c0-4.032 3.28-7.313 7.313-7.313 4.031 0 7.312 3.28 7.312 7.313 0 4.031-3.28 7.312-7.313 7.312-4.031 0-7.312-3.28-7.312-7.313zm1.625 0a5.694 5.694 0 005.688 5.687 5.694 5.694 0 005.687-5.688 5.694 5.694 0 00-5.688-5.687 5.694 5.694 0 00-5.687 5.688z"/>
    <path d="M.726 22.146a.812.812 0 01.01-.82l2.187-3.643-2.187-3.645a.81.81 0 01.697-1.23h13.51l.036-1.827a.812.812 0 01.547-.752l3.239-1.121 2.066-2.735a.814.814 0 01.885-.288l3.28.999 3.278-.999a.814.814 0 01.885.288l2.066 2.734 3.239 1.121c.322.11.54.411.547.752l.035 1.828h13.512a.812.812 0 01.696 1.23l-2.187 3.645 2.187 3.645a.81.81 0 01-.696 1.23H35.046l-.034 1.827a.812.812 0 01-.547.752l-3.239 1.121-2.066 2.735a.815.815 0 01-.886.288l-3.279-1-3.28 1a.812.812 0 01-.885-.287l-2.065-2.735-3.239-1.121a.811.811 0 01-.547-.752l-.035-1.828H1.433a.813.813 0 01-.707-.412zm34.37-7.713l1.94 2.785c.194.28.194.65 0 .929l-1.94 2.786h12.027l-1.7-2.832a.813.813 0 010-.837l1.7-2.831zm-20.485 3.25l1.774 2.55a.807.807 0 01.146.448l.061 3.106 2.937 1.017c.153.052.286.15.383.278l1.873 2.478 2.973-.905a.845.845 0 01.474 0l2.972.906 1.873-2.479a.814.814 0 01.383-.278l2.937-1.016.061-3.106a.812.812 0 01.146-.449l1.776-2.55-1.775-2.55a.806.806 0 01-.146-.448l-.061-3.106-2.937-1.017a.814.814 0 01-.383-.278l-1.873-2.479-2.973.905a.811.811 0 01-.473 0l-2.973-.906-1.873 2.48a.814.814 0 01-.383.277l-2.937 1.017-.06 3.106a.813.813 0 01-.146.448zm-11.744 3.25h12.027l-1.941-2.785a.813.813 0 010-.93l1.94-2.785H2.867l1.7 2.832a.813.813 0 010 .836z"/>
    <path d="M24.192 20.938l.036-.001a.813.813 0 00.588-.292l4.062-4.875-1.248-1.04-3.492 4.192-1.81-1.809-1.148 1.149 2.438 2.437a.809.809 0 00.574.238z"/>
    <path d="M30.508 39.263l2.944-4.159a2.338 2.338 0 011.905-.985 2.32 2.32 0 011.986 1.107c.428.693.467 1.542.102 2.27l-.366.635 1.33-.444 2.084-4.168.555-2.222a2.054 2.054 0 013.563-.83 2.05 2.05 0 01.46 1.667l-.056.332.241-.281a2.356 2.356 0 011.725-.82 2.412 2.412 0 011.773.744c.758.799.828 2.063.167 3.007l-4.52 6.459c-.19.27-.41.513-.654.728l-3.07 2.687c-1.363 1.193-2.924 3.007-2.839 4.193l-1.62.117c-.157-2.18 2.318-4.595 3.389-5.533l3.07-2.687c.147-.13.279-.276.393-.438l4.52-6.458c.216-.31.21-.72-.016-.958a.727.727 0 00-1.084.016l-3.718 4.338c-.266.31-.61.552-.994.695l-2.215.74-.013.026-.026-.013-3.67 1.224-.172.298a.808.808 0 00-.108.407h-1.625c0-.429.113-.85.327-1.22l1.74-3.011c.137-.276.009-.545-.054-.647a.71.71 0 00-1.182-.037l-2.959 4.18c-1.41 1.985-1.271 5.26-1.16 7.891.019.428.037.844.047 1.24l-1.624.045a85.41 85.41 0 00-.046-1.217c-.123-2.878-.275-6.461 1.47-8.918zm10.083-2.305l.644-.214a.788.788 0 00.304-.222l1.432-1.67.498-2.986a.423.423 0 00-.097-.35.43.43 0 00-.746.173L42.05 34a.803.803 0 01-.061.166z"/>
    <path d="M14.06 36.08a.7.7 0 00-.03.69l1.718 2.969c.258.447.327 1.075.327 1.377H14.45c0-.212-.066-.488-.109-.564l-.172-.3-3.67-1.223-.025.012-.013-.025-2.187-.73a2.468 2.468 0 01-1.023-.706l-3.718-4.337a.724.724 0 00-1.084-.016c-.226.237-.232.649-.017.957l4.523 6.46c.113.16.244.307.391.436l3.07 2.687c1.072.938 3.546 3.353 3.39 5.533l-1.621-.117c.085-1.187-1.477-3-2.84-4.193l-3.07-2.687a4.088 4.088 0 01-.652-.728l-4.522-6.46c-.66-.942-.59-2.206.168-3.006a2.431 2.431 0 011.773-.743 2.356 2.356 0 011.725.819l.24.28-.054-.332A2.051 2.051 0 016.98 29.74c.944 0 1.764.64 1.994 1.557l.555 2.222 2.084 4.168 1.328.443-.341-.59c-.388-.773-.35-1.62.079-2.315a2.338 2.338 0 013.892-.121c2.213 3.128 2.782 3.932 2.94 4.162l.002-.002c1.746 2.458 1.595 6.041 1.473 8.92-.018.42-.036.828-.047 1.216l-1.624-.045c.01-.396.029-.811.046-1.24.113-2.63.252-5.906-1.172-7.91l-2.945-4.16a.71.71 0 00-1.183.035zm-4.627.882l-1.398-2.795a.821.821 0 01-.061-.166l-.577-2.31a.43.43 0 00-.842.175l.497 2.986 1.433 1.67a.815.815 0 00.331.233z"/>
    <path d="M23.824 33.073a15.65 15.65 0 01-1.531-.193l-.283 1.6c.557.099 1.126.17 1.69.214z"/>
    <path d="M26.908 33c-.508.063-1.026.1-1.538.111l.037 1.625a17.252 17.252 0 001.7-.123z"/>
    <path d="M20.787 32.534c-.49-.139-.983-.305-1.461-.494l-.596 1.512c.529.209 1.073.392 1.615.546z"/>
    <path d="M28.42 32.737l.358 1.584c.553-.125 1.105-.28 1.643-.46l-.517-1.541a15.47 15.47 0 01-1.484.417z"/>
    <path d="M17.92 31.406a15.655 15.655 0 01-1.334-.776l-.886 1.362c.474.309.97.597 1.474.857z"/>
    <path d="M32.712 31.05c-.444.257-.906.494-1.372.704l.669 1.482a17.094 17.094 0 001.516-.779z"/>
    <path d="M15.342 29.725c-.399-.32-.787-.666-1.153-1.025l-1.139 1.16a17 17 0 001.274 1.132z"/>
    <path d="M35.216 29.25a15.7 15.7 0 01-1.206.963l.95 1.319c.459-.331.907-.689 1.332-1.064z"/>
    <path d="M10.87 27.24c.317.47.662.928 1.025 1.363l1.248-1.04a15.71 15.71 0 01-.928-1.233z"/>
    <path d="M36.32 28.172l1.192 1.105c.386-.417.755-.855 1.095-1.306l-1.294-.981a15.57 15.57 0 01-.993 1.182z"/>
    <path d="M9.25 24.246c.22.525.466 1.041.735 1.539l1.43-.773c-.243-.45-.468-.917-.665-1.392z"/>
    <path d="M40.381 25.064l-1.464-.704c-.223.463-.47.919-.737 1.355l1.386.848c.294-.483.569-.987.815-1.499z"/>
    <path d="M10.01 10.54l1.475.682c.213-.463.456-.922.717-1.365l-1.399-.827c-.288.49-.555.997-.793 1.51z"/>
    <path d="M41.155 10.918A17.203 17.203 0 0040.4 9.39l-1.419.792c.25.449.481.913.685 1.383z"/>
    <path d="M14.023 7.369L12.817 6.28c-.38.42-.742.866-1.077 1.322l1.309.963c.303-.413.63-.815.974-1.196z"/>
    <path d="M39.497 7.937a17.343 17.343 0 00-1.044-1.347L37.22 7.648c.335.39.652.8.946 1.22z"/>
    <path d="M15.112 6.276c.38-.345.78-.675 1.193-.98l-.968-1.306c-.455.337-.898.701-1.317 1.082z"/>
    <path d="M34.99 5.52a15.4 15.4 0 011.168 1.009l1.122-1.175a17.08 17.08 0 00-1.29-1.114z"/>
    <path d="M18.955 3.72l-.69-1.47a17.21 17.21 0 00-1.505.8l.834 1.395c.44-.264.898-.507 1.361-.724z"/>
    <path d="M32.38 3.875c.457.228.91.482 1.343.756l.867-1.374c-.48-.303-.98-.584-1.486-.837z"/>
    <path d="M20.38 3.127c.48-.17.979-.316 1.477-.437l-.381-1.58a17.18 17.18 0 00-1.636.483z"/>
    <path d="M31.543 1.742a17.01 17.01 0 00-1.625-.522L29.5 2.79c.493.131.986.29 1.467.473z"/>
    <path d="M23.373 2.407a15.42 15.42 0 011.536-.133L24.85.65c-.567.021-1.14.07-1.699.148z"/>
    <path d="M26.46 2.292c.515.032 1.032.09 1.535.171L28.254.86a17.43 17.43 0 00-1.693-.19z"/>
</symbol><symbol id="ico-mono-expert6" viewBox="0 0 52 52">
    <path d="M47.828 3.78h-6.646a.762.762 0 000 1.523h6.646a.762.762 0 000-1.523z"/>
    <path d="M37.412 5.303h.81a.762.762 0 000-1.523h-.81a.762.762 0 000 1.523z"/>
    <path d="M37.412 8.883h10.42a.762.762 0 100-1.523h-10.42a.762.762 0 000 1.523z"/>
    <path d="M40.162 47.974c.379.425.61.984.61 1.596 0 1.323-1.077 2.4-2.4 2.4H2.4a2.402 2.402 0 01-2.4-2.4c0-.612.23-1.171.61-1.596v-2.869c0-3.042 1.015-6.027 2.866-8.44l-.142-2.6a3.098 3.098 0 013.096-3.268h8.335c.385-.272.619-.712.619-1.187v-2.135a10.43 10.43 0 01-1.15-.863c-1.582-1.367-2.591-3.333-2.846-5.486h-.983a2.458 2.458 0 01-2.455-2.455v-2.893c0-.96.555-1.808 1.385-2.209v-3.417c0-4.004 3.258-7.262 7.262-7.262h8.067a3.3 3.3 0 013.296 3.296c0 .052.043.095.095.095h.085a3.3 3.3 0 013.296 3.296v3.992a2.454 2.454 0 011.385 2.21v5.688a3.096 3.096 0 01-3.092 3.093h-1.474c-.667 1.134-1.575 2.088-2.868 2.924v2.127c0 .475.233.915.617 1.186h8.338a3.098 3.098 0 013.095 3.268l-.14 2.6a13.912 13.912 0 012.865 8.44zm-1.523-2.869c0-2.047-.519-4.065-1.483-5.855l-.43 7.92h1.646c.09 0 .18.006.267.016zM29.93 16.568l-.47.163v2.872h.907a.932.932 0 00.931-.932v-2.893a.926.926 0 00-.078-.372c-.252.533-.709.96-1.29 1.162zm-3.796 7.664a.56.56 0 000-1.118h-1.911a.56.56 0 000 1.118zm3.595-1.196c.865 0 1.57-.704 1.57-1.569v-.525a2.441 2.441 0 01-.932.184H29.4a8.965 8.965 0 01-.441 1.91zm-18.87-12.884v4.296c0 .307.194.58.483.681l1.602.558a.098.098 0 00.13-.094l-.003-3.03c-.009-2.23 2.09-4.123 4.958-3.202 1.452.467 3.256.469 4.714 0 2.898-.93 4.967.996 4.957 3.205l-.003 3.027c0 .07.067.116.131.094l1.601-.558a.72.72 0 00.484-.68V9.576c0-.977-.795-1.773-1.773-1.773h-.085a1.62 1.62 0 01-1.618-1.617c0-.978-.795-1.773-1.773-1.773h-8.067a5.745 5.745 0 00-5.738 5.738zm-1.385 8.52c0 .513.417.93.931.93h.906v-2.87l-.47-.164a2.245 2.245 0 01-1.29-1.162.927.927 0 00-.077.372zm10.952 8.783c1.758-.029 3.358-.602 4.765-1.7h-.968a2.085 2.085 0 01-2.083-2.082c0-1.148.935-2.082 2.083-2.082h1.911c.583 0 1.11.241 1.489.629a7.513 7.513 0 00.314-1.912v-3.1a1.622 1.622 0 01-1.763-1.617l.003-3.029c.005-1.316-1.192-2.32-2.968-1.75-1.76.566-3.88.567-5.646 0-1.864-.6-2.974.51-2.968 1.748l.003 3.031a1.622 1.622 0 01-1.764 1.618c.005.973-.01 2.036.014 3.037.11 4.337 3.732 7.178 7.578 7.21zm-3.518 2.156c0 .415-.088.818-.249 1.186h7.453a2.973 2.973 0 01-.248-1.186v-1.327a9.294 9.294 0 01-3.423.695h-.017a9.287 9.287 0 01-3.516-.701zM3.616 39.25a12.379 12.379 0 00-1.483 5.855v2.08c.088-.009.176-.015.267-.015h1.646l-.118-2.169a.762.762 0 011.521-.082l.122 2.252h11.945a4.678 4.678 0 00-1.141-2.36l-.02-.021c-2.302-2.576-1.626-6.611 1.363-8.31.766-.435 1.736.11 1.736 1.009v3.456c0 .158.129.287.287.287h1.29a.288.288 0 00.287-.287v-3.456c0-.901.971-1.443 1.736-1.008 2.98 1.693 3.67 5.727 1.365 8.306l-.022.025a4.678 4.678 0 00-1.141 2.359H35.2l.716-13.188a1.575 1.575 0 00-1.574-1.662H6.43c-.909 0-1.623.762-1.574 1.662l.401 7.4a.762.762 0 11-1.52.083zm18.1 7.92a6.193 6.193 0 011.548-3.378l.017-.018a3.886 3.886 0 00-.44-5.598v2.769c0 .998-.812 1.81-1.81 1.81h-1.29c-.998 0-1.81-.812-1.81-1.81v-2.77a3.885 3.885 0 00-.442 5.597l.018.02a6.193 6.193 0 011.548 3.378zm16.656 3.276a.877.877 0 000-1.752H2.4a.877.877 0 000 1.752z"/>
    <path d="M51.233 5.243a.762.762 0 00.762-.762V3.007A2.98 2.98 0 0049.018.03H36.207a2.98 2.98 0 00-2.977 2.977v6.407a2.98 2.98 0 002.977 2.977c.293 0 .532.239.532.532v3.963c0 .572.37 1.06.922 1.212a1.246 1.246 0 001.414-.565l2.928-4.883a.535.535 0 01.457-.259h6.558a2.98 2.98 0 002.977-2.977V8.042a.762.762 0 10-1.523 0v1.372c0 .802-.652 1.454-1.454 1.454H42.46c-.718 0-1.393.382-1.762.998l-2.435 4.06v-3.003a2.058 2.058 0 00-2.055-2.055 1.455 1.455 0 01-1.454-1.454V3.007c0-.802.652-1.454 1.454-1.454h12.811c.802 0 1.454.652 1.454 1.454V4.48c0 .42.34.762.762.762z"/>
</symbol><symbol id="ico-mono-gear" viewBox="0 0 20 20">
    <path d="M18.159 7.531c1.015 0 1.841.826 1.841 1.841v1.255a1.843 1.843 0 01-1.841 1.842h-.425a8.08 8.08 0 01-.52 1.254l.3.3a1.84 1.84 0 010 2.605l-.887.887c-.71.71-1.877.727-2.604 0l-.3-.301a8.075 8.075 0 01-1.254.52v.425A1.843 1.843 0 0110.628 20H9.372a1.843 1.843 0 01-1.84-1.841v-.425a8.082 8.082 0 01-1.255-.52l-.3.3a1.841 1.841 0 01-2.605 0l-.887-.887a1.841 1.841 0 010-2.604l.301-.3a8.075 8.075 0 01-.52-1.254H1.84A1.843 1.843 0 010 10.628V9.372c0-1.015.826-1.84 1.841-1.84h.425c.138-.432.312-.852.52-1.254l-.3-.301a1.841 1.841 0 010-2.605l.887-.887a1.841 1.841 0 012.604 0l.3.301a8.074 8.074 0 011.254-.52V1.84C7.531.826 8.357 0 9.372 0h1.256c1.015 0 1.84.826 1.84 1.841v.425c.432.138.852.312 1.254.52l.302-.3a1.841 1.841 0 012.604 0l.887.887a1.84 1.84 0 010 2.604l-.301.3c.208.403.382.823.52 1.254zM10 14.351c2.4 0 4.352-1.952 4.352-4.351 0-2.4-1.952-4.352-4.352-4.352A4.356 4.356 0 005.648 10c0 2.4 1.953 4.352 4.352 4.352z"/>
</symbol><symbol id="ico-mono-gear2" viewBox="0 0 20 20">
    <path d="M19.54 12.63c.19.15.24.42.12.64l-2 3.46c-.09.16-.26.25-.43.25-.06 0-.12-.01-.18-.03l-2.49-1c-.52.39-1.08.73-1.69.98l-.38 2.65c-.03.24-.24.42-.49.42H8c-.25 0-.46-.18-.49-.42l-.38-2.65c-.61-.25-1.17-.58-1.69-.98l-2.49 1a.5.5 0 01-.61-.22l-2-3.46a.505.505 0 01.12-.64l2.11-1.65A7.93 7.93 0 012.5 10c0-.33.03-.66.07-.98L.46 7.37a.493.493 0 01-.12-.64l2-3.46c.09-.16.26-.25.43-.25.06 0 .12.01.18.03l2.49 1c.52-.39 1.08-.73 1.69-.98L7.51.42C7.54.18 7.75 0 8 0h4c.25 0 .46.18.49.42l.38 2.65c.61.25 1.17.58 1.69.98l2.49-1a.5.5 0 01.61.22l2 3.46c.12.22.07.49-.12.64l-2.11 1.65c.04.32.07.64.07.98 0 .34-.03.66-.07.98zm-4.23-4.49l.89-.7 1.07-.85-.7-1.21-1.27.51-1.06.43-.91-.7c-.4-.3-.8-.53-1.23-.71l-1.06-.43-.16-1.13L10.69 2H9.3l-.2 1.35-.16 1.13-1.06.43c-.41.17-.82.41-1.25.73l-.9.68-1.04-.42-1.27-.51-.7 1.21 1.08.84.89.7-.14 1.13c-.03.3-.05.53-.05.73 0 .2.02.43.05.74l.14 1.13-.89.7-1.08.84.7 1.21 1.27-.51 1.06-.43.91.7c.4.3.8.53 1.23.71l1.06.43.16 1.13L9.3 18h1.4l.2-1.35.16-1.13 1.06-.43c.41-.17.82-.41 1.25-.73l.9-.68 1.04.42 1.27.51.7-1.21-1.08-.84-.89-.7.14-1.13c.03-.3.05-.52.05-.73 0-.21-.01-.42-.05-.73zM14 10c0 2.21-1.79 4-4 4s-4-1.79-4-4 1.79-4 4-4 4 1.79 4 4zm-2 0c0-1.1-.9-2-2-2s-2 .9-2 2 .9 2 2 2 2-.9 2-2z"/>
</symbol><symbol id="ico-mono-history" viewBox="0 0 18 18">
    <path d="M9.003.67A8.333 8.333 0 11.67 9.003a.833.833 0 011.667 0 6.667 6.667 0 101.85-4.583h2a.833.833 0 010 1.667h-3.75a.833.833 0 01-.834-.834v-3.75a.833.833 0 011.667 0v1.475A8.333 8.333 0 019.003.67zm.59 5.244a.833.833 0 01.244.59V8.17h.833a.833.833 0 010 1.667H9.003a.833.833 0 01-.833-.834v-2.5a.833.833 0 011.423-.589z"/>
</symbol><symbol id="ico-mono-info" viewBox="0 0 18 18">
    <path d="M8.17 4.837h1.667v1.666H8.17zm0 3.333h1.667v5H8.17zm9.167.833c0 4.6-3.734 8.334-8.334 8.334A8.336 8.336 0 01.67 9.003C.67 4.403 4.403.67 9.003.67s8.334 3.733 8.334 8.333zm-1.667 0a6.676 6.676 0 00-6.667-6.666 6.676 6.676 0 00-6.666 6.666 6.676 6.676 0 006.666 6.667 6.676 6.676 0 006.667-6.667z"/>
</symbol><symbol id="ico-mono-invoice" viewBox="0 0 18 18">
    <path d="M9.837 12.33a.833.833 0 110 1.667h-5a.833.833 0 110-1.667zm-3.334-5a.833.833 0 010-1.667H8.17a.833.833 0 010 1.667zm10 1.667a.833.833 0 01.834.833v5a2.5 2.5 0 01-2.5 2.5H3.17a2.5 2.5 0 01-2.5-2.5V1.497A.833.833 0 011.92.772l2.5 1.433L6.92.772a.833.833 0 01.833 0l2.5 1.433 2.5-1.433a.833.833 0 011.25.725v7.5h2.5zm-4.016 6.666a2.499 2.499 0 01-.15-.833V2.938l-1.667.95a.9.9 0 01-.833 0l-2.5-1.433-2.5 1.433a.9.9 0 01-.834 0l-1.666-.95V14.83a.833.833 0 00.833.833zm3.183-5h-1.667v4.167a.833.833 0 101.667 0zM9.837 8.997a.833.833 0 110 1.666h-5a.833.833 0 110-1.666z"/>
</symbol><symbol id="ico-mono-list" viewBox="0 0 20 20">
    <path d="M9.167 5.833h5V7.5h-5V5.833zm0 3.334h5v1.666h-5V9.167zm0 3.333h5v1.667h-5V12.5zM5.833 5.833H7.5V7.5H5.833V5.833zm0 3.334H7.5v1.666H5.833V9.167zm0 3.333H7.5v1.667H5.833V12.5zm10.917-10H3.25a.747.747 0 00-.75.75v13.5c0 .333.333.75.75.75h13.5c.333 0 .75-.417.75-.75V3.25c0-.417-.417-.75-.75-.75zm-.917 13.333H4.167V4.167h11.666v11.666z"/>
</symbol><symbol id="ico-mono-lock" viewBox="0 0 14 20">
    
    <path d="M12.293 5.884v2.353c1 0 1.765.765 1.765 1.765v7.647c0 1-.765 1.765-1.765 1.765H1.705c-1 0-1.765-.765-1.765-1.765v-7.647c0-1 .765-1.765 1.765-1.765V5.884A5.272 5.272 0 016.999.59a5.272 5.272 0 015.294 5.294zm.588 4.118c0-.353-.235-.588-.588-.588H1.705c-.353 0-.589.235-.589.588v7.647c0 .353.236.588.589.588h10.588c.353 0 .588-.235.588-.588zm-1.764-1.765V5.884a4.092 4.092 0 00-4.118-4.118A4.092 4.092 0 002.88 5.884v2.353z"/>
    <path d="M8.77 12.945c0 .764-.471 1.411-1.177 1.647v1.294c0 .353-.235.588-.588.588s-.589-.235-.589-.588v-1.294a1.713 1.713 0 01-1.176-1.647c0-1 .765-1.765 1.765-1.765 1 0 1.764.765 1.764 1.765zm-1.177 0c0-.353-.235-.589-.588-.589s-.589.236-.589.589.236.588.589.588.588-.235.588-.588z"/>
</symbol><symbol id="ico-mono-mail" viewBox="0 0 20 20">
    <path d="M18.333 5c0-.917-.75-1.667-1.666-1.667H3.332c-.917 0-1.667.75-1.667 1.667v10c0 .917.75 1.667 1.667 1.667h13.334c.916 0 1.666-.75 1.666-1.667V5zm-1.666 0L10 9.158 3.333 5h13.334zm0 10H3.332V6.667L10 10.833l6.666-4.166V15z"/>
</symbol><symbol id="ico-mono-minus" viewBox="0 0 24 24">
    <path d="M5 11h14v2H5z"/>
</symbol><symbol id="ico-mono-money" viewBox="0 0 22 16">
    <path d="M18 10c0 1.1-.9 2-2 2H2c-1.1 0-2-.9-2-2V2C0 .9.9 0 2 0h14c1.1 0 2 .9 2 2zm-2-8H2v8h14zm-4 4c0 1.66-1.34 3-3 3S6 7.66 6 6s1.34-3 3-3 3 1.34 3 3zm10 8c0 1.1-.9 2-2 2H3v-2h17V3h2z"/>
</symbol><symbol id="ico-mono-pencil" viewBox="0 0 512 512">
    <path d="M179.2 410.4L101.9 333 374.4 60.1l77.3 77.4-272.5 272.9zm-96-38.3l56.9 57-79.2 22.3 22.3-79.3zm411.8-249L388.8 16.7c-7.7-7.7-21.2-7.7-28.9 0L58.6 318.5c-2.5 2.5-4.3 5.5-5.2 8.9l-41.6 148c-2 7.1 0 14.8 5.2 20 3.9 3.9 11.7 6.7 20 5.2l147.8-41.7c3.4-.9 6.4-2.7 8.9-5.2L495 152c8-8 8-20.9 0-28.9z"/>
</symbol><symbol id="ico-mono-phone" viewBox="0 0 20 20">
    <path d="M5.45 4.167c.05.741.175 1.466.375 2.158l-1 1c-.342-1-.558-2.058-.633-3.158H5.45zm8.217 10.016c.708.2 1.433.325 2.166.375V15.8a12.856 12.856 0 01-3.166-.625l1-.992zM6.25 2.5H3.333a.836.836 0 00-.833.833C2.5 11.158 8.842 17.5 16.667 17.5a.836.836 0 00.833-.833v-2.909a.836.836 0 00-.833-.833 9.506 9.506 0 01-2.975-.475.7.7 0 00-.259-.042.854.854 0 00-.591.242l-1.834 1.833a12.624 12.624 0 01-5.491-5.491L7.35 7.158a.836.836 0 00.208-.85 9.467 9.467 0 01-.475-2.975.836.836 0 00-.833-.833z"/>
</symbol><symbol id="ico-mono-plus" viewBox="0 0 455 455">
    <path d="M455 212.5H242.5V0h-30v212.5H0v30h212.5V455h30V242.5H455z"/>
</symbol><symbol id="ico-mono-referal" viewBox="0 0 20 14">
    <path d="M19.163 4.497v1.666h-2.5v2.5h-1.666v-2.5h-2.5V4.497h2.5v-2.5h1.666v2.5zm-15-.834a3.332 3.332 0 116.667 0 3.332 3.332 0 11-6.667 0zm1.667 0c0 .917.75 1.667 1.667 1.667.916 0 1.666-.75 1.666-1.667 0-.916-.75-1.666-1.666-1.666-.917 0-1.667.75-1.667 1.666zm8.333 7.684v2.316H.83v-2.316c0-.934.508-1.792 1.342-2.217 1.4-.717 3.216-1.3 5.325-1.3 2.108 0 3.925.583 5.325 1.3a2.476 2.476 0 011.341 2.217zm-1.666 0a.81.81 0 00-.434-.734 10.09 10.09 0 00-4.566-1.116 10.09 10.09 0 00-4.567 1.116.81.81 0 00-.433.734v.65h10z"/>
</symbol><symbol id="ico-mono-rename" viewBox="0 0 18 16">
    <path d="M12 12l-4 4h10v-4z"/>
    <path d="M12.81 6.94L3.75 16H0v-3.75l9.06-9.06zm-2.83 0l-.92-.92L2 13.08V14h.92z"/>
    <path d="M15.71 4.04a.996.996 0 000-1.41L13.37.29a1.001 1.001 0 00-1.41 0l-1.83 1.83 3.75 3.75z"/>
</symbol><symbol id="ico-mono-save" viewBox="0 0 19 16">
    <path d="M18.839 3.833v10c0 .917-.924 1.667-2.052 1.667H2.422C1.283 15.5.37 14.75.37 13.833V2.167C.37 1.25 1.283.5 2.422.5h12.313zm-2.052.692l-2.904-2.358H2.423v11.666h14.364zM12.683 10.5c0 1.383-1.375 2.5-3.079 2.5-1.703 0-3.078-1.117-3.078-2.5S7.901 8 9.604 8c1.704 0 3.079 1.117 3.079 2.5zM3.447 3h9.234v3.333H3.448z"/>
</symbol><symbol id="ico-mono-sign-in" viewBox="0 0 18 18">
    <path d="M16.345 11.785a.83.83 0 01.121.927 8.333 8.333 0 110-7.417.839.839 0 01-1.5.75A6.608 6.608 0 009 2.337a6.667 6.667 0 105.967 9.625.833.833 0 011.117-.375c.1.048.189.115.262.198zm.154-3.615a.833.833 0 010 1.667H8.508l1.916 1.908a.833.833 0 010 1.183.833.833 0 01-1.183 0L5.908 9.595a.833.833 0 01-.175-.275.833.833 0 010-.633.827.827 0 01.175-.275L9.24 5.078a.837.837 0 011.183 1.184L8.508 8.17z"/>
</symbol><symbol id="ico-mono-star" viewBox="0 0 13 12">
    <path d="M6.5 9.794l3.862 2.331-1.024-4.394 3.412-2.956-4.494-.381L6.5.25 4.744 4.394.25 4.775l3.413 2.956-1.025 4.394z"/>
</symbol><symbol id="ico-mono-status" viewBox="0 0 251 145">
    
    <path d="M112.153 70.076l.182-.52-6.232-17.996h-3.153l8.117 21.83h.332zm.182-.52l.18.52.8 3.313h.332l8.132-21.829h-3.153zm12.613-17.996v21.83h2.911V51.56zm16.309 13.269c1.66 0 3.063-.255 4.21-.765 1.146-.52 2.016-1.274 2.61-2.264.593-.99.89-2.184.89-3.583 0-1.29-.297-2.434-.89-3.434-.594-1.01-1.464-1.799-2.61-2.368-1.147-.57-2.55-.855-4.21-.855h-8.102v21.83h2.912v-8.561h5.19zm-5.19-2.354v-8.546h5.19c1.137 0 2.057.205 2.761.615.704.4 1.217.93 1.539 1.589.332.66.498 1.364.498 2.114 0 .82-.166 1.549-.498 2.189-.322.64-.835 1.14-1.539 1.499-.704.36-1.624.54-2.761.54z"/>
    <path d="M123.327.824c-.945-.608-3.449-1.935-9.012 1.05-2.17 1.161-4.561 2.82-7.01 5.031-.722.663-1.501 1.327-2.224 2.1-1.502 1.327-5.619 4.755-10.292 8.072-7.676 5.472-13.406 8.07-16.41 7.573-.946-.166-1.614-.608-2.059-1.382-1.001-1.769-.055-3.15.39-3.593.723-.774 1.724-1.106 2.336-.885.723.221.835.995.5 1.05-.444.056-.611.443-.555.83.11.387.445.608.834.553 1.558-.277 1.113-2.764-.445-3.207-1.001-.331-2.392 0-3.393 1.106a4.525 4.525 0 00-1.057 2.045c-.167.885 0 1.77.5 2.598.557.996 1.447 1.604 2.67 1.825.835.166 1.78.055 2.949-.166 3.393-.774 8.122-3.317 14.185-7.573 1.725-1.217 3.45-2.488 4.896-3.649-.556.608-1.057 1.216-1.613 1.88-.668.718-1.28 1.492-1.947 2.155-4.173 4.755-7.844 8.845-11.794 10.835-4.283 2.101-8.622 2.543-12.238 1.161-1.391-.553-2.67-1.326-3.728-2.321-1.057-1.05-1.947-2.322-2.503-3.76a33.27 33.27 0 01-1.001-2.764c0-.055 0-.165-.056-.22-.334-1.438-.445-9.343 4.117-9.067 1.001.056 1.669.83 1.835 1.88.112.884-.333 1.714-1 1.99-.168.055-.335.11-.501.055a.91.91 0 00.278-.829.895.895 0 00-1.057-.663c-.445.11-.835.663-.557 1.437.279.83 1.28 1.16 2.114.83 1.057-.388 1.725-1.714 1.558-3.041-.39-2.82-3.227-3.76-5.563-1.714-1.113.995-1.725 2.598-2.058 4.644-.056-.553-.056-1.161-.056-1.714.056-2.598.723-4.975 1.947-6.855 1.669-2.598 4.284-4.09 7.343-4.201 2.615-.11 4.673.94 5.674 2.875.78 1.547.668 3.316-.222 4.477-1.613 1.935-3.227 1.77-3.727 1.548-2.782-1.105-1.614-5.196.667-4.257.056 0 .056 0 .056.056-.278.166-.39.497-.334.829.111.442.556.719.946.608 2.058-.719-.556-4.146-3.06-1.88-1.28 1.161-1.613 4.7 1.335 5.529.78.22 1.614.165 2.448-.166a5.216 5.216 0 002.392-1.77c1.113-1.381 1.28-3.592.334-5.472-.5-1.05-1.335-1.88-2.392-2.488-1.168-.663-2.56-.94-4.117-.884-3.338.11-6.23 1.769-8.066 4.643-1.28 1.99-2.003 4.533-2.114 7.353-.056 3.04.556 6.246 1.947 9.563.223.553.5 1.106.834 1.659-.222-.277-.5-.498-.723-.774a14.58 14.58 0 01-2.781-4.976c-1.168-3.427-1.168-6.744-1.113-8.9 0-.94 0-1.658-.111-2.1-.167-1.106-.835-1.88-1.78-2.101-.835-.221-1.613.166-2.225.663-1.28 1.106-.78 3.207.778 2.985 1.113-.165 1.057-2.1-.278-1.768 0-.222.39-1.217 1.502-.995.612.11 1.113.773 1.168 3.316.056 2.101-.055 5.639 1.169 9.232 1.502 4.312 4.45 7.573 8.734 9.73.5.276 1 .497 1.557.718 2.56.94 5.396 1.106 8.345.442a18.955 18.955 0 004.561-1.658c4.117-2.045 7.788-6.192 12.072-11a68.05 68.05 0 011.947-2.157 89.084 89.084 0 016.397-6.91c.39-.331.612-.553.612-.553l-.055-.055c.556-.497 1.112-1.05 1.668-1.492 2.448-2.156 4.729-3.815 6.843-4.92 7.232-3.76 10.347-.056 9.29 3.095-.056-1.326-1.113-2.321-1.947-2.432-1.28-.221-2.392.276-2.948 1.271-1.113 2.046 1 3.649 2.336 2.764.612-.442.946-1.05.723-1.934-.055-.221-.334-.387-.556-.332-.223.055-.39.332-.334.553.056.331.111.718-.278.94-.723.442-1.613-.443-1.113-1.548.724-1.493 3.672-.995 3.116 1.492-.112.387.167.719.556.83.334.11.723-.056.89-.388 1.39-2.598.89-5.14-.946-6.357z"/>
    <path d="M106.693 23.823c-.556-.443-.946-.885-1.28-1.272-.778-.94-1.39-2.045-1.724-3.206-.39-1.161-.5-2.432-.334-3.76.223-2.321 1.113-4.587 2.726-6.799a19.036 19.036 0 013.449-3.593c.779-.608 1.502-1.16 2.17-1.603.222.387.445.608.5.774-.445.166-.946.553-1.224.83-.612.552-1.224 1.381-2.002 2.487-1.28 1.99-1.725 3.593-1.391 4.754.111.387.278.718.5 1.05.334.387.668.608 1.058.719.389.166.723.166 1.112.11.39-.055.668-.22 1.001-.442h.056c.5-.387.723-.94.5-1.548 0-.055 0-.055-.055-.11-.055-.056-.111-.11-.167-.056-.055 0-.111.056-.167.111l-.055.055c-.223.166-.445.221-.723.221-.279 0-.501-.165-.668-.331-.167-.221-.223-.443-.223-.719.056-.276.167-.497.39-.663.222-.221.556-.277 1.001-.277.39 0 .779.221 1.113.608.111.111.167.222.222.332.278.442.39.995.278 1.603-.11.664-.389 1.161-.89 1.548l-.055.055c-.445.332-.89.553-1.391.608a2.37 2.37 0 01-1.502-.165c-.612-.222-1.113-.553-1.502-.995-.334-.387-.556-.83-.723-1.382-.334-1.272 0-2.764 1.001-4.533l-.834 1.105c-1.502 2.046-2.392 4.201-2.615 6.357-.111 1.161 0 2.322.334 3.373.334 1.05.834 2.045 1.558 2.93.389.442.778.829 1.168 1.16.945.774 1.947 1.272 3.004 1.493 1.057.166 2.058.055 2.948-.387a9.626 9.626 0 001.001-.608c.445-.387.835-.83 1.113-1.327s.39-.995.334-1.548c0-1.05-.278-1.88-.89-2.598-.334-.387-.723-.719-1.113-.884a2.922 2.922 0 00-1.168-.222c-.39.056-.723.166-.946.387-.39.332-.667.719-.834 1.106-.167.387-.223.774-.111 1.106.11.331.278.663.445.829.055.055.11.11.222.055.111 0 .167-.055.167-.166.056-.166.167-.276.334-.387.222-.166.445-.22.723-.22.278 0 .5.165.668.33.166.167.222.388.222.664 0 .277-.167.498-.334.664 0 0-.111.055-.222.165-.112.11-.278.166-.5.222-.223.055-.446.055-.78 0-.445-.111-.89-.387-1.28-.83a3.112 3.112 0 01-.611-1.105c-.111-.443-.056-.995.055-1.548.167-.553.557-1.106 1.224-1.659.39-.331.835-.497 1.391-.552.556-.056 1.113.055 1.669.276a4.782 4.782 0 011.446 1.106c.723.884 1.113 1.934 1.113 3.206 0 .663-.167 1.327-.5 1.935a6.268 6.268 0 01-1.336 1.658c-.39.332-.779.553-1.168.774a5.77 5.77 0 01-3.338.498c-1.224-.222-2.448-.774-3.56-1.77z"/>
    <path d="M126.948.824c.946-.608 3.45-1.935 9.012 1.05 2.17 1.161 4.562 2.82 7.01 5.031.723.663 1.502 1.327 2.225 2.1 1.502 1.327 5.618 4.755 10.291 8.072 7.677 5.472 13.407 8.07 16.411 7.573.946-.166 1.613-.608 2.058-1.382 1.002-1.769.056-3.15-.39-3.593-.722-.774-1.724-1.106-2.335-.885-.724.221-.835.995-.501 1.05.445.056.612.443.556.83-.111.387-.445.608-.834.553-1.558-.277-1.113-2.764.445-3.207 1.001-.331 2.392 0 3.393 1.106.556.608.89 1.327 1.057 2.045.167.885 0 1.77-.5 2.598-.557.996-1.447 1.604-2.67 1.825-.835.166-1.781.055-2.95-.166-3.393-.774-8.121-3.317-14.185-7.573-1.724-1.217-3.449-2.488-4.895-3.649.556.608 1.057 1.216 1.613 1.88.668.718 1.28 1.492 1.947 2.155 4.172 4.755 7.844 8.845 11.794 10.835 4.283 2.101 8.622 2.543 12.238 1.161 1.39-.553 2.67-1.326 3.727-2.321 1.057-1.05 1.947-2.322 2.504-3.76.389-.94.723-1.879 1.001-2.764 0-.055 0-.165.056-.22.333-1.438.445-9.343-4.117-9.067-1.001.056-1.669.83-1.836 1.88-.111.884.334 1.714 1.002 1.99.167.055.333.11.5.055a.91.91 0 01-.278-.829.895.895 0 011.057-.663c.445.11.835.663.556 1.437-.278.83-1.28 1.16-2.114.83-1.056-.388-1.724-1.714-1.557-3.041.39-2.82 3.226-3.76 5.563-1.714 1.112.995 1.724 2.598 2.058 4.644.056-.553.056-1.161.056-1.714-.056-2.598-.723-4.975-1.947-6.855-1.67-2.598-4.284-4.09-7.343-4.201-2.615-.11-4.673.94-5.675 2.875-.778 1.547-.667 3.316.223 4.477 1.613 1.935 3.226 1.77 3.727 1.548 2.782-1.105 1.613-5.196-.667-4.257-.056 0-.056 0-.056.056.278.166.39.497.334.829-.112.442-.557.719-.946.608-2.058-.719.556-4.146 3.06-1.88 1.279 1.161 1.613 4.7-1.336 5.529-.778.22-1.613.165-2.447-.166a5.217 5.217 0 01-2.392-1.77c-1.113-1.381-1.28-3.592-.334-5.472.5-1.05 1.335-1.88 2.392-2.488 1.168-.663 2.559-.94 4.117-.884 3.337.11 6.23 1.769 8.066 4.643 1.28 1.99 2.003 4.533 2.114 7.353.055 3.04-.557 6.246-1.947 9.563a11.57 11.57 0 01-.835 1.659c.223-.277.5-.498.723-.774a14.579 14.579 0 002.782-4.976c1.168-3.427 1.168-6.744 1.113-8.9 0-.94 0-1.658.11-2.1.168-1.106.835-1.88 1.78-2.101.835-.221 1.614.166 2.226.663 1.28 1.106.779 3.207-.779 2.985-1.112-.165-1.057-2.1.278-1.768 0-.222-.389-1.217-1.502-.995-.611.11-1.112.773-1.168 3.316-.055 2.101.056 5.639-1.168 9.232-1.502 4.312-4.45 7.573-8.734 9.73-.5.276-1.001.497-1.557.718-2.56.94-5.396 1.106-8.345.442a18.955 18.955 0 01-4.561-1.658c-4.117-2.045-7.789-6.192-12.072-11-.612-.72-1.28-1.438-1.947-2.157a89.103 89.103 0 00-6.398-6.91c-.389-.331-.611-.553-.611-.553l.055-.055c-.556-.497-1.112-1.05-1.669-1.492-2.447-2.156-4.728-3.815-6.842-4.92-7.232-3.76-10.347-.056-9.29 3.095.055-1.326 1.112-2.321 1.947-2.432 1.28-.221 2.392.276 2.948 1.271 1.113 2.046-1.001 3.649-2.336 2.764-.612-.442-.946-1.05-.723-1.934.055-.221.333-.387.556-.332.222.055.39.332.334.553-.056.331-.112.718.278.94.723.442 1.613-.443 1.112-1.548-.723-1.493-3.671-.995-3.115 1.492.111.387-.167.719-.556.83-.334.11-.723-.056-.89-.388-1.391-2.598-.946-5.14.945-6.357z"/>
    <path d="M139.912 25.591a5.77 5.77 0 01-3.338-.497c-.39-.166-.723-.442-1.168-.774a4.902 4.902 0 01-1.335-1.658 4.014 4.014 0 01-.501-1.935c.056-1.272.39-2.322 1.113-3.206.389-.443.834-.83 1.446-1.106.556-.221 1.113-.332 1.669-.276.556.055 1.001.22 1.39.552.668.553 1.058 1.106 1.224 1.659.167.553.167 1.05.056 1.548-.111.387-.278.774-.612 1.105-.39.443-.779.719-1.28.83-.333.055-.556.055-.778 0-.223-.056-.39-.111-.5-.222-.112-.11-.168-.165-.223-.165a.786.786 0 01-.334-.664c0-.276.055-.497.222-.663a.795.795 0 01.668-.332c.278 0 .5.055.723.221.167.11.278.277.334.387 0 .11.056.166.167.166.111 0 .167 0 .222-.055.223-.221.39-.498.445-.83a1.51 1.51 0 00-.11-1.105 3.066 3.066 0 00-.835-1.106c-.278-.22-.612-.331-.946-.387a1.78 1.78 0 00-1.168.222c-.39.165-.78.497-1.113.884a4.08 4.08 0 00-.89 2.598c0 .498.111 1.05.334 1.548.278.498.612.94 1.112 1.327.334.276.668.497 1.002.608a4.944 4.944 0 002.948.387c1.057-.166 2.058-.664 3.004-1.493.39-.331.779-.718 1.168-1.16a8.934 8.934 0 001.614-2.93c.333-1.05.445-2.212.333-3.373-.222-2.156-1.057-4.256-2.614-6.357l-.835-1.105c1.002 1.769 1.335 3.316 1.002 4.533-.167.497-.39.995-.724 1.382-.389.442-.89.829-1.502.995-.5.165-1 .22-1.502.165-.5-.11-1-.276-1.39-.608l-.056-.055c-.445-.387-.779-.884-.89-1.548-.111-.663 0-1.16.278-1.603.056-.11.111-.221.223-.332.333-.387.723-.608 1.112-.608.39 0 .723.056 1.002.277.222.166.333.387.389.663.056.276-.056.498-.222.719a.795.795 0 01-.668.331c-.278 0-.5-.055-.723-.22l-.056-.056c-.055-.055-.111-.11-.167-.11-.055 0-.167 0-.167.055-.055.055-.055.11-.055.11-.167.664 0 1.161.5 1.548h.056c.278.221.612.387 1.001.442.39.056.724 0 1.113-.11.39-.11.779-.332 1.057-.719.278-.332.445-.663.5-1.05.334-1.161-.11-2.764-1.39-4.754-.723-1.106-1.39-1.935-2.003-2.488a4.76 4.76 0 00-1.224-.83c.056-.165.279-.386.501-.773.668.442 1.39.94 2.17 1.603 1.335 1.106 2.503 2.267 3.449 3.593 1.613 2.212 2.559 4.478 2.725 6.8a10.56 10.56 0 01-.333 3.759c-.39 1.16-.946 2.266-1.725 3.206-.334.387-.779.83-1.28 1.272-1.056.995-2.28 1.547-3.615 1.769z"/>
    <path d="M251.002 135.38s-1.669-2.487-6.008-4.92c-4.116-2.321-11.682-4.864-23.475-4.477-2.838.11-5.397 0-7.789-.056 4.618 1.77 6.454 3.925 6.843 4.257a178.995 178.995 0 01-18.247-3.15c1.336.939.668 3.095-.445 3.371-1.668.387-2.17-.663-2.113-1.16.11-.609.556-.775 1-.72.835.166.668 1.106.501 1.217 1.113.22 1.558-1.77-.055-2.267-4.34-1.548-8.734 4.975-13.073 5.584-4.562.663-8.511-1.77-10.96-6.468-1.223-2.488-1.89-5.86-1.89-6.634-1.836-.055-3.171-.11-4.618-.276 2.281 1.216 5.174 7.241 1.836 10.945-1.558 1.659-3.449.166-3.226-1.105.166-1.438 1.279-1.603 1.724-1.272 1.057.885-.556 2.1-.946.995-.778.719.557 2.267 2.059.885 3.115-2.985-.278-9.453-2.782-10.559-1.557-.166-3.226-.553-3.671-.663 4.45 3.87 2.002 9.066-1.447 9.508-2.28.276-4.617-.83-4.728-3.206-.167-1.603 1.557-3.151 3.06-2.875 3.67.719 1.89 4.257.222 3.096-.612-.442-.5-1.769.556-1.659-.556-1.437-4.06.056-2.614 2.433.778 1.105 1.947 1.548 3.393 1.327 2.448-.332 3.338-2.764 2.781-5.197-.445-1.99-2.892-3.925-5.896-4.477a7.868 7.868 0 00-3.004.055c-1.947.553-3.783 1.548-5.508 3.04l-.89.995c1.67-1.382 3.839-2.156 5.396-.995 2.281 1.603 1.28 4.7-.278 4.975-1.669.387-3.004-1.492-1.891-2.156.667-.331 1.891.332 1.168 1.493 3.06-.332 1.001-7.02-4.561-2.1-2.226 1.603-3.06 3.427-3.45 2.93 4.395-8.68 10.459-9.122 10.459-9.122s-3.894-1.99-5.34-3.593c-.835 1.16-3.783 4.92-7.121 5.307-2.615.331-4.784-1.438-4.951-3.87-.223-2.653 2.503-4.588 4.673-3.925 2.503.719 3.115 4.146.778 5.141-.667.221-1.335.221-2.058-.276-.445-.442-.39-1.216.056-1.382 0 0 .779 1.105 1.613.83 1.39-.443 1.168-2.93-.723-3.373-1.892-.442-3.616 1.382-3.394 3.096.112 1.271 1.447 3.15 3.895 2.874 2.559-.497 4.45-2.045 7.065-5.86 2.781 3.594 11.237 7.85 31.096 6.91 8.345 5.142 18.136 8.348 33.823 10.338-1.001-.719-2.559-1.88-5.674-3.206-17.746-1.106-23.03-6.634-23.03-6.634s12.683.83 23.141 5.915c2.782.221 5.897.166 9.29.055 27.203-.94 29.428 10.061 29.428 10.061zm-62.36-11.719c-1.78.055-2.726 1.824-1.558 3.427.445.608 1.78.94 2.114.443-.668-.664-.334-1.217-.167-1.438 1.001-.774 2.448.608 1.28 1.825-1.391.995-2.949.552-3.728-.387-1.669-2.046.056-4.92 2.782-4.7-3.45-1.492-5.396-3.04-5.396-3.04-2.782.221-5.23.221-7.455.166 0 3.428 2.226 6.247 4.061 6.855 1.67.553 3.06-.332 3.116-2.156-.167-.995-.946-1.05-1.113-1.106.445 1.382-1.001 1.659-1.446 1.327-.89-.608-.445-1.382-.223-1.603.5-.884 1.947-1.05 2.949-.276 1.446.94 1.056 3.095-.223 4.09-1.613 1.714-4.673.553-6.064-2.045l.501 1.216c2.225 4.423 6.509 6.69 10.069 5.97 5.563-1.16 5.841-8.734.5-8.568zm21.64 1.437a79.132 79.132 0 00-18.859-4.81zm-10.57 1.216a92.715 92.715 0 01-7.51-2.377c1.558 1.161 1.836 3.483.946 5.418 1.669-1.272 4.116-2.93 6.564-3.04z"/>
    <path d="M29.54 125.262c3.393.11 6.452.166 9.29-.055 10.458-5.086 23.141-5.915 23.141-5.915s-5.285 5.472-23.03 6.633c-3.116 1.327-4.673 2.488-5.675 3.207 15.744-1.99 25.479-5.197 33.823-10.338 19.86.995 28.26-3.317 31.097-6.91 2.615 3.815 4.506 5.362 7.065 5.86 2.448.276 3.783-1.659 3.894-2.875.222-1.713-1.502-3.482-3.393-3.095-1.892.442-2.114 2.93-.724 3.372.835.276 1.614-.83 1.614-.83.5.166.5.94.055 1.383-.723.497-1.39.497-2.058.276-2.392-.995-1.78-4.422.779-5.141 2.169-.663 4.895 1.216 4.673 3.925-.167 2.377-2.337 4.201-4.951 3.87-3.338-.388-6.286-4.147-7.12-5.308-1.503 1.604-5.341 3.594-5.341 3.594s6.063.442 10.458 9.12c-.334.498-1.224-1.27-3.45-2.929-5.562-4.92-7.62 1.769-4.56 2.1-.724-1.16.444-1.824 1.168-1.492 1.112.663-.223 2.598-1.892 2.156-1.558-.276-2.559-3.317-.278-4.975 1.558-1.161 3.727-.387 5.396.995l-.89-.995c-1.669-1.548-3.56-2.543-5.507-3.04-1.002-.277-2.059-.222-3.004-.056-3.004.553-5.452 2.433-5.897 4.478-.556 2.487.334 4.864 2.781 5.196 1.447.277 2.615-.22 3.394-1.327 1.446-2.377-2.114-3.814-2.615-2.432 1.057-.11 1.169 1.216.557 1.659-1.67 1.16-3.45-2.378.222-3.096 1.558-.277 3.227 1.271 3.06 2.874-.112 2.377-2.448 3.483-4.729 3.207-3.449-.443-5.84-5.639-1.446-9.509-.445.056-2.114.443-3.672.664-2.559 1.16-5.896 7.628-2.781 10.558 1.502 1.382 2.781-.166 2.058-.884-.39 1.105-2.058-.055-.946-.995.445-.332 1.558-.166 1.725 1.271.222 1.272-1.725 2.764-3.227 1.106-3.337-3.704-.445-9.73 1.836-10.946-1.446.166-2.781.222-4.617.277-.056.774-.668 4.146-1.891 6.633-2.448 4.755-6.398 7.187-10.96 6.468-4.339-.663-8.789-7.13-13.072-5.583-1.558.553-1.169 2.488-.056 2.266-.222-.165-.39-1.05.5-1.216.446-.055.89.11 1.002.719.111.497-.445 1.548-2.114 1.16-1.112-.22-1.78-2.432-.445-3.371-5.34 1.216-11.404 2.266-18.246 3.15.389-.331 2.225-2.487 6.842-4.256-2.392.055-4.895.166-7.788.055-11.794-.387-19.415 2.212-23.476 4.478C1.67 132.891 0 135.378 0 135.378s2.28-11 29.54-10.116zm43.446 1.05l.5-1.216c-1.39 2.598-4.45 3.76-6.063 2.045-1.224-.995-1.613-3.15-.223-4.09 1.002-.774 2.448-.608 2.949.276.222.221.612 1.05-.223 1.603-.445.332-1.947.056-1.446-1.326-.167.055-.946.055-1.113 1.105.056 1.824 1.447 2.709 3.116 2.156 1.835-.608 4.06-3.427 4.06-6.855-2.225.056-4.672.056-7.454-.165 0 0-1.947 1.547-5.396 3.04 2.726-.221 4.45 2.653 2.782 4.699-.78.94-2.337 1.382-3.728.387-1.168-1.216.223-2.598 1.28-1.825.111.222.5.774-.167 1.438.334.442 1.724.166 2.114-.443 1.112-1.603.167-3.372-1.558-3.427-5.396-.221-5.062 7.352.5 8.569 3.561.663 7.845-1.548 10.07-5.97zm-13.407-6.025c-8.122 1.105-14.297 3.04-18.858 4.81zm-1.724 9.121c-.89-1.935-.612-4.256.945-5.417-2.336.829-4.84 1.658-7.51 2.377 2.504.055 4.896 1.713 6.565 3.04z"/>
    <path d="M75.268 138.2c.612.609 2.28 2.046 6.954.72 1.835-.498 3.894-1.383 6.119-2.599.667-.387 1.335-.774 2.058-1.216 1.39-.719 5.007-2.653 9.068-4.367 6.73-2.875 11.404-3.87 13.629-2.985.667.276 1.113.718 1.28 1.382.444 1.492-.501 2.377-.89 2.653-.668.442-1.447.553-1.892.277-.5-.277-.5-.885-.223-.885.334.055.557-.221.557-.553a.556.556 0 00-.557-.552c-1.223-.056-1.279 1.88-.166 2.487.723.387 1.78.387 2.725-.276.501-.332.89-.83 1.113-1.382.278-.664.278-1.327.056-2.046-.278-.829-.835-1.437-1.725-1.824-.612-.221-1.335-.332-2.225-.332-2.67 0-6.676 1.161-11.96 3.373a178.455 178.455 0 00-4.284 1.934 36.72 36.72 0 011.558-1.16l1.836-1.327c3.95-2.875 7.398-5.362 10.68-6.192 3.56-.884 6.899-.497 9.402 1.161 1.001.608 1.78 1.438 2.392 2.377a8.91 8.91 0 011.28 3.262c.11.774.222 1.492.278 2.266v.166c0 1.161-1.224 7.131-4.618 6.136-.723-.22-1.112-.884-1.057-1.713.056-.664.557-1.217 1.057-1.327.167 0 .278 0 .39.055-.223.11-.334.332-.334.608a.64.64 0 00.667.664c.39 0 .724-.332.668-.995-.056-.664-.779-1.106-1.446-.995-.835.11-1.614.995-1.67 2.045-.166 2.156 1.78 3.372 3.895 2.211 1.001-.553 1.724-1.658 2.336-3.15a8.548 8.548 0 01-.278 1.27c-.5 1.99-1.39 3.649-2.614 4.865-1.725 1.659-3.895 2.377-6.231 1.935-2.003-.332-3.338-1.493-3.783-3.096-.334-1.271.056-2.653.946-3.316 1.502-1.217 2.726-.774 3.06-.553 1.89 1.271.333 4.201-1.224 3.095l-.056-.055c.223-.11.39-.332.39-.553 0-.331-.279-.663-.612-.608-1.67.221-.279 3.207 2.002 1.88 1.168-.664 2.003-3.262-.055-4.367a3.011 3.011 0 00-1.836-.277 4.253 4.253 0 00-2.114.94c-1.113.884-1.558 2.488-1.168 4.035.222.885.723 1.659 1.39 2.267.78.663 1.78 1.16 2.949 1.382 2.559.442 4.95-.332 6.842-2.156 1.335-1.271 2.28-3.096 2.782-5.196.556-2.267.612-4.754.11-7.518-.055-.498-.222-.94-.333-1.382.167.22.278.442.39.718a11.932 11.932 0 011.279 4.202c.334 2.764-.278 5.251-.612 6.91-.167.718-.278 1.27-.278 1.603-.056.884.334 1.548.946 1.88.556.276 1.223.165 1.78-.167 1.112-.663 1.112-2.266-.056-2.377-.89-.055-1.113 1.382-.111 1.382a.999.999 0 01-1.335.498c-.445-.166-.723-.774-.334-2.709.334-1.603 1.001-4.256.667-7.131-.389-3.483-2.058-6.413-4.95-8.734-.334-.277-.668-.553-1.057-.774-1.725-1.161-3.894-1.714-6.23-1.714-1.225 0-2.449.166-3.728.498-3.45.829-6.898 3.372-10.904 6.301-.611.443-1.168.885-1.835 1.327a65.517 65.517 0 01-5.953 4.146c-.333.166-.556.332-.556.332-.5.276-1.001.608-1.502.884-2.17 1.217-4.172 2.101-5.952 2.543-6.12 1.659-7.788-1.658-6.453-3.87-.167 1.051.445 1.936 1.057 2.157.945.387 1.835.165 2.447-.498 1.224-1.382-.166-2.93-1.28-2.487-.555.22-.89.663-.834 1.326 0 .166.167.332.334.332s.334-.166.334-.332c0-.22.056-.553.334-.663.612-.221 1.168.608.556 1.327-.779.995-2.948.11-2.114-1.659.111-.276 0-.553-.278-.718-.278-.111-.556-.056-.723.165-1.335 1.604-1.39 3.594-.167 4.81z"/>
    <path d="M175.01 138.2c-.611.609-2.28 2.046-6.953.72-1.836-.498-3.894-1.383-6.12-2.599-.667-.387-1.335-.774-2.058-1.216-1.39-.719-5.006-2.653-9.067-4.367-6.732-2.875-11.404-3.87-13.63-2.985-.667.276-1.112.718-1.28 1.382-.444 1.492.502 2.377.891 2.653.667.442 1.446.553 1.891.277.501-.277.501-.885.223-.885-.334.055-.556-.221-.556-.553 0-.276.222-.552.556-.552 1.224-.056 1.28 1.88.167 2.487-.723.387-1.78.387-2.726-.276a3.02 3.02 0 01-1.113-1.382c-.278-.664-.278-1.327-.055-2.046.278-.829.834-1.437 1.724-1.824.612-.221 1.335-.332 2.225-.332 2.67 0 6.676 1.161 11.96 3.373 1.503.663 3.005 1.326 4.284 1.934-.5-.387-1.001-.774-1.557-1.16l-1.836-1.327c-3.95-2.875-7.399-5.362-10.681-6.192-3.56-.884-6.898-.497-9.401 1.161-1.002.608-1.78 1.438-2.392 2.377a8.91 8.91 0 00-1.28 3.262c-.111.774-.222 1.492-.278 2.266v.166c0 1.161 1.224 7.131 4.617 6.136.723-.22 1.113-.884 1.057-1.713-.056-.664-.556-1.217-1.057-1.327-.167 0-.278 0-.39.055.223.11.335.332.335.608a.64.64 0 01-.668.664c-.39 0-.723-.332-.668-.995.056-.664.78-1.106 1.447-.995.834.11 1.613.995 1.669 2.045.166 2.156-1.78 3.372-3.894 2.211-1.002-.553-1.725-1.658-2.337-3.15.056.441.167.884.278 1.27.501 1.99 1.391 3.649 2.615 4.865 1.724 1.659 3.894 2.377 6.23 1.935 2.003-.332 3.338-1.493 3.783-3.096.334-1.271-.055-2.653-.946-3.316-1.502-1.217-2.725-.774-3.06-.553-1.89 1.271-.333 4.201 1.225 3.095l.055-.055c-.222-.11-.39-.332-.39-.553 0-.331.28-.663.613-.608 1.669.221.278 3.207-2.003 1.88-1.168-.664-2.003-3.262.056-4.367a3.012 3.012 0 011.836-.277c.723.11 1.446.387 2.113.94 1.113.884 1.558 2.488 1.169 4.035-.223.885-.723 1.659-1.391 2.267-.779.663-1.78 1.16-2.948 1.382-2.56.442-4.951-.332-6.843-2.156-1.335-1.271-2.28-3.096-2.781-5.196-.557-2.267-.612-4.754-.112-7.518.056-.498.223-.94.334-1.382a2.973 2.973 0 00-.39.718 11.933 11.933 0 00-1.279 4.202c-.333 2.764.279 5.251.612 6.91.167.718.278 1.27.278 1.603.056.884-.333 1.548-.945 1.88-.557.276-1.224.165-1.78-.167-1.113-.663-1.113-2.266.055-2.377.89-.055 1.113 1.382.112 1.382.055.166.5.83 1.335.498.445-.166.723-.774.333-2.709-.333-1.603-1-4.256-.667-7.131.39-3.483 2.058-6.413 4.95-8.734.335-.277.668-.553 1.058-.774 1.724-1.161 3.894-1.714 6.23-1.714a14.7 14.7 0 013.727.498c3.45.829 6.899 3.372 10.904 6.301.612.443 1.168.885 1.836 1.327a65.517 65.517 0 005.952 4.146c.334.166.556.332.556.332.5.276 1.002.608 1.502.884 2.17 1.217 4.173 2.101 5.953 2.543 6.119 1.659 7.788-1.658 6.453-3.87.167 1.051-.445 1.936-1.057 2.157-.946.387-1.836.165-2.448-.498-1.224-1.382.167-2.93 1.28-2.487.556.22.89.663.834 1.326 0 .166-.167.332-.334.332s-.334-.166-.334-.332c0-.22-.055-.553-.333-.663-.612-.221-1.169.608-.557 1.327.78.995 2.949.11 2.114-1.659-.111-.276 0-.553.278-.718.279-.111.557-.056.724.165 1.335 1.604 1.39 3.594.166 4.81z"/>
    <path d="M109.476 109.07c-.056 0-.167 0-.223-.056-2.114-.719-6.008-1.769-8.567-.442a2.626 2.626 0 01-1.835.166c-.557-.166-1.002-.608-1.28-1.161-.89-1.935-2.781-4.588-6.73-6.468-7.567-2.764-14.854-6.191-17.524-11.498-12.072-24.158-4.673-54.451-4.562-54.783l.111-.387.39.11c17.913 3.815 29.372-12.824 31.486-16.196.167-.222.445-.332.668-.222.278.11.39.332.39.608-.279 2.046.555 6.358 5.395 8.348.278.11.5.387.5.718 0 .332-.166.609-.5.72-1.558.607-5.007 1.547-10.403.718l-.723-.11 3.06-4.036c.167-.221.39-.332.612-.277.222 0 .445.166.556.387.167.277.556.83 1.669 1.382l-.39.774c-1.112-.553-1.668-1.105-1.946-1.548l-2.059 2.71c4.506.607 7.51-.111 9.012-.664-2.392-.995-4.06-2.654-5.006-4.81-.501-1.16-.724-2.321-.724-3.261-1.557 2.322-4.784 6.578-9.512 10.227-6.843 5.196-14.186 7.076-21.863 5.528-.834 3.648-6.564 31.454 4.618 53.787 3.17 6.358 13.518 9.895 22.64 13.046 5.23 1.77 10.125 3.483 13.13 5.528.277.222.389.553.222.885-.111.11-.39.276-.612.276zm-14.853-6.579c2.003 1.603 3.115 3.372 3.727 4.754.167.332.39.553.723.663.39.111.78.111 1.113-.11 2.336-1.216 5.507-.719 7.844-.11-2.949-1.66-7.177-3.096-11.627-4.644-.556-.166-1.168-.332-1.78-.553z"/>
    <g>
        <path d="M141.19 109.065a.684.684 0 01-.612-.387c-.166-.332-.055-.664.223-.885 3.004-2.045 7.9-3.704 13.129-5.528 9.123-3.15 19.47-6.689 22.64-13.046 11.182-22.333 5.452-50.084 4.618-53.788-7.677 1.548-15.02-.331-21.863-5.528-4.728-3.593-7.955-7.85-9.512-10.171-.111 2.432-1.335 6.191-5.73 8.07 1.502.554 4.506 1.272 9.012.664l-2.058-2.709c-.278.443-.835.995-1.947 1.548l-.39-.774c1.113-.553 1.558-1.105 1.67-1.382.11-.22.333-.331.555-.387.223 0 .501.11.612.277l3.06 4.035-.723.11c-5.396.885-8.845-.055-10.403-.718a.787.787 0 01-.5-.719c0-.331.166-.608.5-.718 4.84-1.99 5.619-6.302 5.396-8.348-.055-.276.111-.497.39-.608.278-.11.556 0 .667.222 2.114 3.372 13.574 20.01 31.486 16.197l.39-.111.111.442c.056.277 7.51 30.626-4.561 54.783-2.67 5.362-9.958 8.734-17.524 11.498-3.95 1.88-5.84 4.533-6.731 6.468-.223.553-.723.94-1.28 1.16a2.143 2.143 0 01-1.835-.165c-2.56-1.382-6.453-.332-8.567.442-.056 0-.167.056-.223.056zm5.73-1.99c1.224 0 2.448.22 3.505.773.334.166.779.222 1.112.111.334-.11.612-.332.724-.663a13.943 13.943 0 013.727-4.754c-.612.22-1.224.442-1.836.608-4.45 1.548-8.678 2.985-11.627 4.643a14.072 14.072 0 014.395-.718z"/>
    </g>
    <g>
        <path d="M206.279 24.155s-1.78 1.216-3.894 1.437c-2.114.221-2.615-.498-.89 2.211 1.724 2.709-.167 3.593.89 5.197 0 0 1.557.773 2.559 1.326 0 0 0-3.206 2.559-3.317 2.558-.11 3.115.996 4.06.996 0 0-1.223 3.372-3.838 3.482 0 0-2.17-.774-2.615-.553-.445.221.446 4.146 1.336 4.92 0 0 1.557-1.548 4.339-1.548 2.726 0 6.119-3.759 6.119-3.759s1.669.222.667 1.438c-.945 1.216-4.005 5.251-10.57 5.694-6.563.442-8.177 2.377-10.18 4.809 0 0 4.117-1.216 5.73-.221 0 0-1.223 1.88-4.561 1.88s-7.232 3.15-8.233 6.412c-.946 3.261-.835 6.855-1.502 7.684 0 0 3.449-.277 6.23-1.438.223-.11.334.166.167.332-2.726 2.211-8.79 6.855-12.46 7.574 0 0-2.56.552-2.448 1.934.11 1.382 3.17 2.156 2.503 4.036-.668 1.88-2.782 1.935-1.558 2.764 1.224.829-.111 1.548-.278 2.1-.167.553-.39 2.101 1.39 1.714 1.78-.442 2.615.83.613 1.548-2.003.719-1.947 1.382-1.947 1.382s3.337 1.88 5.84.995c0 0 .835-.11 1.058-2.985.167-2.82-1.558-7.629.556-9.398 2.114-1.769 8.122-4.477 15.687-3.206 0 0 .724-8.679 4.395-11 0 0-3.282 5.859-1.891 13.377-4.284-1.16-11.404-1.106-16.3 1.714-.5.276-.723.884-.556 1.437.334 1.382 1.113 3.925 1.78 4.257.557.22 1.613.276 2.448.22.5 0 .89-.497.779-.994-.334-1.216-.612-3.262 1.28-3.483 2.725-.276 13.795 7.795 17.411 15.202a46.299 46.299 0 013.727 10.724 3.9 3.9 0 002.615 2.93c2.837.995 7.51 3.317 8.289 8.127 1.112 7.075-4.562 8.347-9.012 8.236 0 0-2.281-.608-2.726 2.654 0 0-2.448 4.533-1.001 4.809 1.446.276 2.67-1.658 3.671-1.548 1.001.111.723 2.709 1.67 2.654.89-.111 1.445-2.709 2.447-2.377 1.001.387.834 2.653 1.891 1.99 1.113-.608 1.892-3.372 3.56-2.543 1.67.829 1.391 1.161 3.171-2.156 1.836-3.372 3.282-15.313 4.006-16.308.723-.995-6.565-6.965-6.732-11.996-.166-5.03 3.45-12.714-2.113-16.805-5.563-4.09-8.4-6.357-6.287-13.488 2.114-7.187 1.169-6.965 1.169-6.965s2.67 3.15 1.669 7.186c0 0 3.004-11 4.84-12.493 0 0 4.394-9.896 4.171-16.695 0 0 .39-3.262-3.393-5.694 0 0 .39-4.533-1.724-4.975-2.114-.442-7.733 2.1-7.733 2.1s1.113-2.376 4.005-3.15c2.893-.83 4.117-5.252 4.117-5.252s-2.837 2.432-6.12 1.99c-3.281-.442-3.949 2.432-5.228 2.82 0 0-3.56.994-4.562 1.381-1.001.387-2.003.995-4.172.995 0 0 1.28-2.432 5.006-2.542 3.728-.111 5.007-3.704 5.007-3.704s-2.392 1.437-5.396 1.548c-3.06.055-5.507 2.377-5.507 2.377z"/>
        <path d="M228.3 86.955s1.446 4.81 3.95 4.81c2.447 0 7.676-1.438 3.281-6.91-4.395-5.418-10.792-7.905-10.959-12.217-.167-4.367 9.123-12.328 10.014-16.308 0 0 1.89 6.8-2.003 11-3.95 4.147-5.952 5.64-1.669 9.343 4.283 3.704 9.401 7.352 9.513 11.72.11 4.367-2.281 6.799-7.51 6.523-5.23-.277-7.566-.277-7.566-.277z"/>
        <path d="M210.28 95.853c.667.055 1.112-.608.834-1.161-1.502-3.04-5.063-9.398-8.345-10.172-4.395-.995-11.293 4.92-11.293 10.725 0 5.804 3.728 3.925 5.563 8.236 0 0-4.005 7.684-8.733 8.071-4.729.387-9.402.166-11.404 3.649 0 0-.112 3.372 1.557 4.975 0 0 .723-3.648 2.281-3.704 0 0-.723 3.538 1.113 5.197 0 0 4.672-6.358 8.845-4.976 4.172 1.382 5.73-.995 5.73-.995s8.566-7.463 11.125-6.965c2.56.442-2.559-5.196-2.002-8.458.39-2.82 2.17-4.699 4.728-4.422z"/>
        <path d="M193.372 47.431s-4.729-3.372-3.45-7.794c1.28-4.422.89-4.644-2.28-4.81-3.171-.165-1.001-3.427-6.843-3.26-5.84.165-10.124-.554-10.235 3.15-.112 3.704 2.392 4.423 2.392 4.423s.167-3.428 1.28-2.433c1.112.995 1.724 2.377 4.283 1.437 2.559-.884 4.728 1.88 4.728 1.88s1.113 3.151-1.001 4.367c0 0 2.392 0 3.17-4.146 0 0 2.726-.83 0 3.372-2.725 4.146 1.67 13.433 1.67 13.433s-.446-5.915 6.286-9.618z"/>
    </g>
    <g>
        <path d="M44.223 24.155s1.78 1.216 3.894 1.437c2.114.221 2.615-.498.89 2.211-1.724 2.709.167 3.593-.89 5.197 0 0-1.557.773-2.559 1.326 0 0 0-3.206-2.559-3.317-2.558-.11-3.115.996-4.06.996 0 0 1.223 3.372 3.838 3.482 0 0 2.17-.774 2.615-.553.445.221-.445 4.146-1.336 4.92 0 0-1.557-1.548-4.339-1.548-2.725 0-6.119-3.759-6.119-3.759s-1.669.222-.667 1.438c.945 1.216 4.005 5.251 10.57 5.694 6.564.442 8.177 2.377 10.18 4.809 0 0-4.117-1.216-5.73-.221 0 0 1.223 1.88 4.561 1.88s7.232 3.15 8.233 6.412c1.002 3.261.835 6.855 1.502 7.684 0 0-3.449-.277-6.23-1.438-.223-.11-.334.166-.167.332 2.726 2.211 8.79 6.855 12.46 7.574 0 0 2.56.552 2.449 1.934-.112 1.382-3.171 2.156-2.504 4.036.668 1.88 2.782 1.935 1.558 2.764-1.224.829.111 1.548.278 2.1.167.553.39 2.101-1.39 1.714-1.78-.442-2.615.83-.613 1.548 2.003.719 1.947 1.382 1.947 1.382s-3.337 1.88-5.84.995c0 0-.835-.11-1.058-2.985-.167-2.82 1.558-7.629-.556-9.398-2.114-1.769-8.122-4.477-15.687-3.206 0 0-.724-8.679-4.395-11 0 0 3.282 5.859 1.891 13.377 4.284-1.16 11.404-1.106 16.3 1.714.5.276.723.884.556 1.437-.334 1.382-1.113 3.925-1.78 4.257-.556.22-1.613.276-2.448.22-.5 0-.89-.497-.779-.994.334-1.216.612-3.262-1.28-3.483-2.725-.276-13.795 7.795-17.411 15.202a46.295 46.295 0 00-3.727 10.724 3.9 3.9 0 01-2.615 2.93c-2.837.995-7.51 3.317-8.289 8.127-1.112 7.075 4.562 8.347 9.012 8.236 0 0 2.281-.608 2.726 2.654 0 0 2.448 4.533 1.001 4.809-1.446.276-2.67-1.658-3.671-1.548-1.001.111-.723 2.709-1.669 2.654-.89-.111-1.446-2.709-2.448-2.377-1.001.387-.834 2.653-1.891 1.99-1.113-.608-1.891-3.372-3.56-2.543-1.67.829-1.391 1.161-3.171-2.156-1.836-3.372-3.282-15.313-4.006-16.308-.723-.995 6.565-6.965 6.732-11.996.166-4.975-3.45-12.714 2.114-16.805 5.563-4.09 8.4-6.357 6.286-13.488-2.114-7.187-1.169-6.965-1.169-6.965s-2.67 3.15-1.668 7.186c0 0-3.004-11-4.84-12.493 0 0-4.395-9.896-4.172-16.695 0 0-.39-3.262 3.393-5.694 0 0-.39-4.533 1.724-4.975 2.114-.442 7.733 2.1 7.733 2.1s-1.113-2.376-4.005-3.15c-2.893-.83-4.117-5.252-4.117-5.252s2.837 2.432 6.12 1.99c3.281-.442 3.949 2.432 5.228 2.82 0 0 3.56.994 4.562 1.381 1.001.387 2.003.995 4.172.995 0 0-1.28-2.432-5.006-2.542-3.728-.111-5.007-3.704-5.007-3.704s2.392 1.437 5.396 1.548c3.115.055 5.507 2.377 5.507 2.377z"/>
        <path d="M22.25 86.955s-1.445 4.81-3.949 4.81c-2.503 0-7.677-1.438-3.282-6.91 4.395-5.418 10.792-7.905 10.96-12.217.166-4.367-9.124-12.328-10.014-16.308 0 0-1.892 6.8 2.002 11 3.95 4.147 5.953 5.64 1.67 9.343-4.284 3.704-9.402 7.352-9.513 11.72-.112 4.367 2.28 6.799 7.51 6.523 5.229-.277 7.565-.277 7.565-.277z"/>
        <path d="M40.219 95.853c-.668.055-1.113-.608-.835-1.161 1.502-3.04 5.062-9.398 8.345-10.172 4.394-.995 11.292 4.92 11.292 10.725 0 5.804-3.727 3.925-5.563 8.236 0 0 4.006 7.684 8.734 8.071 4.729.387 9.402.166 11.404 3.649 0 0 .112 3.372-1.557 4.975 0 0-.723-3.648-2.281-3.704 0 0 .723 3.538-1.113 5.197 0 0-4.673-6.358-8.845-4.976-4.172 1.382-5.73-.995-5.73-.995s-8.567-7.463-11.126-6.965c-2.558.442 2.56-5.196 2.003-8.458-.39-2.82-2.114-4.699-4.728-4.422z"/>
        <path d="M57.19 47.431s4.729-3.372 3.449-7.794c-1.28-4.422-.89-4.644 2.28-4.81 3.172-.165 1.002-3.427 6.843-3.26 5.841.165 10.125-.554 10.236 3.15.111 3.704-2.392 4.423-2.392 4.423s-.167-3.428-1.28-2.433c-1.112.995-1.724 2.377-4.283 1.437-2.559-.884-4.728 1.88-4.728 1.88s-1.113 3.151 1 4.367c0 0-2.391 0-3.17-4.146 0 0-2.726-.83 0 3.372 2.726 4.146-1.669 13.433-1.669 13.433s.445-5.915-6.286-9.618z"/>
    </g>
</symbol><symbol id="ico-mono-support" viewBox="0 0 17 15">
    <path d="M2.337 11.997v-.542c0-.283.133-.55.341-.675a9.074 9.074 0 014.659-1.283c.025 0 .041 0 .066.008.084-.583.25-1.142.492-1.65a6.118 6.118 0 00-.558-.025c-2.017 0-3.9.558-5.509 1.517C1.095 9.78.67 10.597.67 11.455v2.208h7.717a5.944 5.944 0 01-.809-1.666z"/>
    <path d="M7.333 6.997a3.332 3.332 0 110-6.667 3.332 3.332 0 110 6.667zM5.667 3.663c0 .917.75 1.667 1.666 1.667C8.25 5.33 9 4.58 9 3.663c0-.916-.75-1.666-1.667-1.666-.916 0-1.666.75-1.666 1.666z"/>
    <path d="M16.24 10.862l.95.841-.833 1.442-1.209-.408c-.266.225-.566.4-.9.525l-.25 1.241h-1.666l-.25-1.241a3.039 3.039 0 01-.9-.525l-1.209.408-.833-1.442.95-.841c-.025-.175-.05-.342-.05-.525 0-.184.025-.35.05-.525l-.95-.842.833-1.442 1.209.409c.266-.225.566-.4.9-.525l.25-1.242h1.666l.25 1.242c.334.125.634.3.9.525l1.209-.409.833 1.442-.95.842c.025.175.05.341.05.525 0 .183-.025.35-.05.525zm-1.408-.525c0-.917-.75-1.667-1.667-1.667s-1.667.75-1.667 1.667c0 .916.75 1.666 1.667 1.666s1.667-.75 1.667-1.666z"/>
</symbol><symbol id="ico-mono-teleg" viewBox="0 0 20 18">
    <path d="M19.608.639a1.209 1.209 0 00-1.193-.257L.829 6.18c-.479.158-.804.586-.828 1.09-.023.504.26.96.722 1.163l4.35 1.902c.02.099 1.27 5.89 1.312 6.086.054.253.182.478.454.548.275.07.47-.08.675-.234l3.227-2.417 3.773 3.088a1.2 1.2 0 001.152.209 1.2 1.2 0 00.788-.867l3.514-14.942c.1-.425-.038-.872-.36-1.166zM7.795 11.425a.156.156 0 00-.007.018l-.727 2.541-.812-3.765 5.583-3.102-3.903 4.081a.587.587 0 00-.134.227zm.23 3.458l.331-1.155.316-1.104 1.133.927-1.78 1.332zm10.8-13.347L15.31 16.478c-.002.007-.004.017-.021.023-.017.006-.025 0-.031-.006l-4.129-3.378-1.913-1.566 6.146-6.425a.587.587 0 00-.71-.92l-9.1 5.056-4.358-1.906c-.013-.006-.02-.01-.02-.032.002-.022.01-.025.023-.03l17.585-5.796c.01-.003.019-.006.033.007.014.013.012.022.01.031z"/>
</symbol><symbol id="ico-mono-timer" viewBox="0 0 18 21">
    <path d="M12 2H6V0h6zM8 7h2v6H8zm8.03-.61A8.994 8.994 0 019 21c-4.98 0-9-4.03-9-9a9 9 0 019-9c2.12 0 4.07.74 5.62 1.98l1.42-1.42c.51.42.98.9 1.41 1.41zM16 12c0-3.87-3.13-7-7-7s-7 3.13-7 7 3.13 7 7 7 7-3.13 7-7z"/>
</symbol><symbol id="ico-mono-trash" viewBox="0 0 14 18">
    <path d="M11 6v10H3V6zM9.5 0h-5l-1 1H0v2h14V1h-3.5zM13 4H1v12c0 1.1.9 2 2 2h8c1.1 0 2-.9 2-2z"/>
</symbol><symbol id="ico-mono-user" viewBox="0 0 20 20">
    <g clip-path="url(#clip0_14_41798)">
        <path d="M6.484 7.656A3.52 3.52 0 0010 11.172a3.52 3.52 0 003.516-3.516A3.52 3.52 0 0010 4.141a3.52 3.52 0 00-3.516 3.515zm6.25 0A2.738 2.738 0 0110 10.391a2.737 2.737 0 01-2.734-2.735A2.737 2.737 0 0110 4.922a2.738 2.738 0 012.734 2.734z"/>
        <path d="M17.188 3.984a.39.39 0 100-.78.39.39 0 000 .78z"/>
        <path d="M10 20c5.543 0 10-4.49 10-10a9.99 9.99 0 00-1.447-5.187.39.39 0 00-.667.406A9.209 9.209 0 0119.219 10a9.146 9.146 0 01-3.105 6.902 6.252 6.252 0 00-12.228 0A9.146 9.146 0 01.781 10C.781 4.917 4.917.781 10 .781c2.07 0 4.025.669 5.653 1.934a.39.39 0 00.48-.617A9.906 9.906 0 0010 0a9.935 9.935 0 00-7.073 2.928A9.936 9.936 0 000 10c0 5.525 4.471 10 10 10zm0-7.266a5.443 5.443 0 015.419 4.727A9.134 9.134 0 0110 19.22a9.133 9.133 0 01-5.418-1.758A5.442 5.442 0 0110 12.734z"/>
    </g>
    
</symbol><symbol id="ico-mono-user2" viewBox="0 0 16 16">
    <path d="M2.167 2.167v11.666h11.666V2.167zM13.833.5c.917 0 1.667.75 1.667 1.667v11.666c0 .917-.75 1.667-1.667 1.667H2.167C1.242 15.5.5 14.75.5 13.833V2.167C.5 1.25 1.242.5 2.167.5zM8 8a2.507 2.507 0 01-2.5-2.5C5.5 4.125 6.625 3 8 3s2.5 1.125 2.5 2.5S9.375 8 8 8zm0-3.333a.836.836 0 00-.833.833c0 .458.375.833.833.833a.836.836 0 00.833-.833A.836.836 0 008 4.667zM13 13H3v-1.275c0-2.083 3.308-2.983 5-2.983 1.692 0 5 .9 5 2.983zm-1.925-1.667C10.5 10.867 9.092 10.4 8 10.4s-2.508.467-3.075.933z"/>
</symbol><symbol id="ico-mono-valid" viewBox="0 0 18 14">
    <path d="M0 7.574l6.164 6.176L18 1.926 16.3.25 6.165 10.375 1.676 5.887 0 7.574z"/>
    
</symbol><symbol id="ico-mono-wallet" viewBox="0 0 17 16">
    <path d="M15.5 4.067c.492.291.833.816.833 1.433v5c0 .617-.341 1.142-.833 1.433v1.9c0 .917-.75 1.667-1.667 1.667H2.167C1.242 15.5.5 14.75.5 13.833V2.167C.5 1.25 1.242.5 2.167.5h11.666c.917 0 1.667.75 1.667 1.667zM8.833 5.5v5h5.834v-5zm5 8.333v-1.666h-5c-.916 0-1.666-.75-1.666-1.667v-5c0-.917.75-1.667 1.666-1.667h5V2.167H2.167v11.666z"/>
    <path d="M11.33 9.25a1.25 1.25 0 100-2.5 1.25 1.25 0 000 2.5z"/>
</symbol></svg>