<svg xmlns="http://www.w3.org/2000/svg" width="251" height="145"><defs><linearGradient id="a" x1="91.01" x2="91.01" y1="-42.56" y2="111.73" gradientUnits="userSpaceOnUse"><stop offset="0" stop-color="#fff"/><stop offset=".11" stop-color="#a6a6a6"/><stop offset=".18" stop-color="#e6e6e7"/><stop offset=".39" stop-color="#acacac"/><stop offset=".61" stop-color="#fff"/><stop offset=".73" stop-color="#b0b2b5"/><stop offset=".85" stop-color="#fff"/><stop offset="1" stop-color="#9e9e9e"/></linearGradient><linearGradient id="b" x1="109.95" x2="109.95" y1="-42.55" y2="111.71" gradientUnits="userSpaceOnUse"><stop offset="0" stop-color="#fff"/><stop offset=".11" stop-color="#a6a6a6"/><stop offset=".18" stop-color="#e6e6e7"/><stop offset=".39" stop-color="#acacac"/><stop offset=".61" stop-color="#fff"/><stop offset=".73" stop-color="#b0b2b5"/><stop offset=".85" stop-color="#fff"/><stop offset="1" stop-color="#9e9e9e"/></linearGradient><linearGradient id="c" x1="159.25" x2="159.25" y1="-42.56" y2="111.73" gradientUnits="userSpaceOnUse"><stop offset="0" stop-color="#fff"/><stop offset=".11" stop-color="#a6a6a6"/><stop offset=".18" stop-color="#e6e6e7"/><stop offset=".39" stop-color="#acacac"/><stop offset=".61" stop-color="#fff"/><stop offset=".73" stop-color="#b0b2b5"/><stop offset=".85" stop-color="#fff"/><stop offset="1" stop-color="#9e9e9e"/></linearGradient><linearGradient id="d" x1="140.31" x2="140.31" y1="-42.55" y2="111.71" gradientUnits="userSpaceOnUse"><stop offset="0" stop-color="#fff"/><stop offset=".11" stop-color="#a6a6a6"/><stop offset=".18" stop-color="#e6e6e7"/><stop offset=".39" stop-color="#acacac"/><stop offset=".61" stop-color="#fff"/><stop offset=".73" stop-color="#b0b2b5"/><stop offset=".85" stop-color="#fff"/><stop offset="1" stop-color="#9e9e9e"/></linearGradient><linearGradient id="e" x1="195.98" x2="195.98" y1="-42.55" y2="111.73" gradientUnits="userSpaceOnUse"><stop offset="0" stop-color="#fff"/><stop offset=".11" stop-color="#a6a6a6"/><stop offset=".18" stop-color="#e6e6e7"/><stop offset=".39" stop-color="#acacac"/><stop offset=".61" stop-color="#fff"/><stop offset=".73" stop-color="#b0b2b5"/><stop offset=".85" stop-color="#fff"/><stop offset="1" stop-color="#9e9e9e"/></linearGradient><linearGradient id="f" x1="55.03" x2="55.03" y1="-42.57" y2="111.72" gradientUnits="userSpaceOnUse"><stop offset="0" stop-color="#fff"/><stop offset=".11" stop-color="#a6a6a6"/><stop offset=".18" stop-color="#e6e6e7"/><stop offset=".39" stop-color="#acacac"/><stop offset=".61" stop-color="#fff"/><stop offset=".73" stop-color="#b0b2b5"/><stop offset=".85" stop-color="#fff"/><stop offset="1" stop-color="#9e9e9e"/></linearGradient><linearGradient id="g" x1="100.56" x2="100.56" y1="-42.58" y2="111.73" gradientUnits="userSpaceOnUse"><stop offset="0" stop-color="#fff"/><stop offset=".11" stop-color="#a6a6a6"/><stop offset=".18" stop-color="#e6e6e7"/><stop offset=".39" stop-color="#acacac"/><stop offset=".61" stop-color="#fff"/><stop offset=".73" stop-color="#b0b2b5"/><stop offset=".85" stop-color="#fff"/><stop offset="1" stop-color="#9e9e9e"/></linearGradient><linearGradient id="h" x1="149.71" x2="149.71" y1="-42.58" y2="111.73" gradientUnits="userSpaceOnUse"><stop offset="0" stop-color="#fff"/><stop offset=".11" stop-color="#a6a6a6"/><stop offset=".18" stop-color="#e6e6e7"/><stop offset=".39" stop-color="#acacac"/><stop offset=".61" stop-color="#fff"/><stop offset=".73" stop-color="#b0b2b5"/><stop offset=".85" stop-color="#fff"/><stop offset="1" stop-color="#9e9e9e"/></linearGradient><linearGradient id="i" x1="88.28" x2="88.28" y1="-42.55" y2="111.73" gradientUnits="userSpaceOnUse"><stop offset="0" stop-color="#fff"/><stop offset=".11" stop-color="#a6a6a6"/><stop offset=".18" stop-color="#e6e6e7"/><stop offset=".39" stop-color="#acacac"/><stop offset=".61" stop-color="#fff"/><stop offset=".73" stop-color="#b0b2b5"/><stop offset=".85" stop-color="#fff"/><stop offset="1" stop-color="#9e9e9e"/></linearGradient><linearGradient id="j" x1="162.37" x2="162.37" y1="-42.56" y2="111.72" gradientUnits="userSpaceOnUse"><stop offset="0" stop-color="#fff"/><stop offset=".11" stop-color="#a6a6a6"/><stop offset=".18" stop-color="#e6e6e7"/><stop offset=".39" stop-color="#acacac"/><stop offset=".61" stop-color="#fff"/><stop offset=".73" stop-color="#b0b2b5"/><stop offset=".85" stop-color="#fff"/><stop offset="1" stop-color="#9e9e9e"/></linearGradient><linearGradient id="k" x1="207.52" x2="207.52" y1="-42.56" y2="111.72" gradientUnits="userSpaceOnUse"><stop offset="0" stop-color="#fff"/><stop offset=".11" stop-color="#a6a6a6"/><stop offset=".18" stop-color="#e6e6e7"/><stop offset=".39" stop-color="#acacac"/><stop offset=".61" stop-color="#fff"/><stop offset=".73" stop-color="#b0b2b5"/><stop offset=".85" stop-color="#fff"/><stop offset="1" stop-color="#9e9e9e"/></linearGradient><linearGradient id="l" x1="232.51" x2="232.51" y1="-42.56" y2="111.7" gradientUnits="userSpaceOnUse"><stop offset="0" stop-color="#fff"/><stop offset=".11" stop-color="#a6a6a6"/><stop offset=".18" stop-color="#e6e6e7"/><stop offset=".39" stop-color="#acacac"/><stop offset=".61" stop-color="#fff"/><stop offset=".73" stop-color="#b0b2b5"/><stop offset=".85" stop-color="#fff"/><stop offset="1" stop-color="#9e9e9e"/></linearGradient><linearGradient id="m" x1="194.03" x2="194.03" y1="-42.56" y2="111.73" gradientUnits="userSpaceOnUse"><stop offset="0" stop-color="#fff"/><stop offset=".11" stop-color="#a6a6a6"/><stop offset=".18" stop-color="#e6e6e7"/><stop offset=".39" stop-color="#acacac"/><stop offset=".61" stop-color="#fff"/><stop offset=".73" stop-color="#b0b2b5"/><stop offset=".85" stop-color="#fff"/><stop offset="1" stop-color="#9e9e9e"/></linearGradient><linearGradient id="n" x1="181.96" x2="181.96" y1="-42.55" y2="111.73" gradientUnits="userSpaceOnUse"><stop offset="0" stop-color="#fff"/><stop offset=".11" stop-color="#a6a6a6"/><stop offset=".18" stop-color="#e6e6e7"/><stop offset=".39" stop-color="#acacac"/><stop offset=".61" stop-color="#fff"/><stop offset=".73" stop-color="#b0b2b5"/><stop offset=".85" stop-color="#fff"/><stop offset="1" stop-color="#9e9e9e"/></linearGradient><linearGradient id="o" x1="43.02" x2="43.02" y1="-42.56" y2="111.72" gradientUnits="userSpaceOnUse"><stop offset="0" stop-color="#fff"/><stop offset=".11" stop-color="#a6a6a6"/><stop offset=".18" stop-color="#e6e6e7"/><stop offset=".39" stop-color="#acacac"/><stop offset=".61" stop-color="#fff"/><stop offset=".73" stop-color="#b0b2b5"/><stop offset=".85" stop-color="#fff"/><stop offset="1" stop-color="#9e9e9e"/></linearGradient><linearGradient id="p" x1="18.03" x2="18.03" y1="-42.56" y2="111.7" gradientUnits="userSpaceOnUse"><stop offset="0" stop-color="#fff"/><stop offset=".11" stop-color="#a6a6a6"/><stop offset=".18" stop-color="#e6e6e7"/><stop offset=".39" stop-color="#acacac"/><stop offset=".61" stop-color="#fff"/><stop offset=".73" stop-color="#b0b2b5"/><stop offset=".85" stop-color="#fff"/><stop offset="1" stop-color="#9e9e9e"/></linearGradient><linearGradient id="q" x1="56.52" x2="56.52" y1="-42.56" y2="111.73" gradientUnits="userSpaceOnUse"><stop offset="0" stop-color="#fff"/><stop offset=".11" stop-color="#a6a6a6"/><stop offset=".18" stop-color="#e6e6e7"/><stop offset=".39" stop-color="#acacac"/><stop offset=".61" stop-color="#fff"/><stop offset=".73" stop-color="#b0b2b5"/><stop offset=".85" stop-color="#fff"/><stop offset="1" stop-color="#9e9e9e"/></linearGradient><linearGradient id="r" x1="68.59" x2="68.59" y1="-42.55" y2="111.73" gradientUnits="userSpaceOnUse"><stop offset="0" stop-color="#fff"/><stop offset=".11" stop-color="#a6a6a6"/><stop offset=".18" stop-color="#e6e6e7"/><stop offset=".39" stop-color="#acacac"/><stop offset=".61" stop-color="#fff"/><stop offset=".73" stop-color="#b0b2b5"/><stop offset=".85" stop-color="#fff"/><stop offset="1" stop-color="#9e9e9e"/></linearGradient></defs><path fill="#fff" d="M112.153 70.076l.182-.52-6.232-17.996h-3.153l8.117 21.83h.332zm.182-.52l.18.52.8 3.313h.332l8.132-21.829h-3.153zm12.613-17.996v21.83h2.911V51.56zm16.309 13.269c1.66 0 3.063-.255 4.21-.765 1.146-.52 2.016-1.274 2.61-2.264.593-.99.89-2.184.89-3.583 0-1.29-.297-2.434-.89-3.434-.594-1.01-1.464-1.799-2.61-2.368-1.147-.57-2.55-.855-4.21-.855h-8.102v21.83h2.912v-8.561h5.19zm-5.19-2.354v-8.546h5.19c1.137 0 2.057.205 2.761.615.704.4 1.217.93 1.539 1.589.332.66.498 1.364.498 2.114 0 .82-.166 1.549-.498 2.189-.322.64-.835 1.14-1.539 1.499-.704.36-1.624.54-2.761.54z"/><path fill="url(#a)" d="M123.327.824c-.945-.608-3.449-1.935-9.012 1.05-2.17 1.161-4.561 2.82-7.01 5.031-.722.663-1.501 1.327-2.224 2.1-1.502 1.327-5.619 4.755-10.292 8.072-7.676 5.472-13.406 8.07-16.41 7.573-.946-.166-1.614-.608-2.059-1.382-1.001-1.769-.055-3.15.39-3.593.723-.774 1.724-1.106 2.336-.885.723.221.835.995.5 1.05-.444.056-.611.443-.555.83.11.387.445.608.834.553 1.558-.277 1.113-2.764-.445-3.207-1.001-.331-2.392 0-3.393 1.106a4.525 4.525 0 00-1.057 2.045c-.167.885 0 1.77.5 2.598.557.996 1.447 1.604 2.67 1.825.835.166 1.78.055 2.949-.166 3.393-.774 8.122-3.317 14.185-7.573 1.725-1.217 3.45-2.488 4.896-3.649-.556.608-1.057 1.216-1.613 1.88-.668.718-1.28 1.492-1.947 2.155-4.173 4.755-7.844 8.845-11.794 10.835-4.283 2.101-8.622 2.543-12.238 1.161-1.391-.553-2.67-1.326-3.728-2.321-1.057-1.05-1.947-2.322-2.503-3.76a33.27 33.27 0 01-1.001-2.764c0-.055 0-.165-.056-.22-.334-1.438-.445-9.343 4.117-9.067 1.001.056 1.669.83 1.835 1.88.112.884-.333 1.714-1 1.99-.168.055-.335.11-.501.055a.91.91 0 00.278-.829.895.895 0 00-1.057-.663c-.445.11-.835.663-.557 1.437.279.83 1.28 1.16 2.114.83 1.057-.388 1.725-1.714 1.558-3.041-.39-2.82-3.227-3.76-5.563-1.714-1.113.995-1.725 2.598-2.058 4.644-.056-.553-.056-1.161-.056-1.714.056-2.598.723-4.975 1.947-6.855 1.669-2.598 4.284-4.09 7.343-4.201 2.615-.11 4.673.94 5.674 2.875.78 1.547.668 3.316-.222 4.477-1.613 1.935-3.227 1.77-3.727 1.548-2.782-1.105-1.614-5.196.667-4.257.056 0 .056 0 .056.056-.278.166-.39.497-.334.829.111.442.556.719.946.608 2.058-.719-.556-4.146-3.06-1.88-1.28 1.161-1.613 4.7 1.335 5.529.78.22 1.614.165 2.448-.166a5.216 5.216 0 002.392-1.77c1.113-1.381 1.28-3.592.334-5.472-.5-1.05-1.335-1.88-2.392-2.488-1.168-.663-2.56-.94-4.117-.884-3.338.11-6.23 1.769-8.066 4.643-1.28 1.99-2.003 4.533-2.114 7.353-.056 3.04.556 6.246 1.947 9.563.223.553.5 1.106.834 1.659-.222-.277-.5-.498-.723-.774a14.58 14.58 0 01-2.781-4.976c-1.168-3.427-1.168-6.744-1.113-8.9 0-.94 0-1.658-.111-2.1-.167-1.106-.835-1.88-1.78-2.101-.835-.221-1.613.166-2.225.663-1.28 1.106-.78 3.207.778 2.985 1.113-.165 1.057-2.1-.278-1.768 0-.222.39-1.217 1.502-.995.612.11 1.113.773 1.168 3.316.056 2.101-.055 5.639 1.169 9.232 1.502 4.312 4.45 7.573 8.734 9.73.5.276 1 .497 1.557.718 2.56.94 5.396 1.106 8.345.442a18.955 18.955 0 004.561-1.658c4.117-2.045 7.788-6.192 12.072-11a68.05 68.05 0 011.947-2.157 89.084 89.084 0 016.397-6.91c.39-.331.612-.553.612-.553l-.055-.055c.556-.497 1.112-1.05 1.668-1.492 2.448-2.156 4.729-3.815 6.843-4.92 7.232-3.76 10.347-.056 9.29 3.095-.056-1.326-1.113-2.321-1.947-2.432-1.28-.221-2.392.276-2.948 1.271-1.113 2.046 1 3.649 2.336 2.764.612-.442.946-1.05.723-1.934-.055-.221-.334-.387-.556-.332-.223.055-.39.332-.334.553.056.331.111.718-.278.94-.723.442-1.613-.443-1.113-1.548.724-1.493 3.672-.995 3.116 1.492-.112.387.167.719.556.83.334.11.723-.056.89-.388 1.39-2.598.89-5.14-.946-6.357z"/><path fill="url(#b)" d="M106.693 23.823c-.556-.443-.946-.885-1.28-1.272-.778-.94-1.39-2.045-1.724-3.206-.39-1.161-.5-2.432-.334-3.76.223-2.321 1.113-4.587 2.726-6.799a19.036 19.036 0 013.449-3.593c.779-.608 1.502-1.16 2.17-1.603.222.387.445.608.5.774-.445.166-.946.553-1.224.83-.612.552-1.224 1.381-2.002 2.487-1.28 1.99-1.725 3.593-1.391 4.754.111.387.278.718.5 1.05.334.387.668.608 1.058.719.389.166.723.166 1.112.11.39-.055.668-.22 1.001-.442h.056c.5-.387.723-.94.5-1.548 0-.055 0-.055-.055-.11-.055-.056-.111-.11-.167-.056-.055 0-.111.056-.167.111l-.055.055c-.223.166-.445.221-.723.221-.279 0-.501-.165-.668-.331-.167-.221-.223-.443-.223-.719.056-.276.167-.497.39-.663.222-.221.556-.277 1.001-.277.39 0 .779.221 1.113.608.111.111.167.222.222.332.278.442.39.995.278 1.603-.11.664-.389 1.161-.89 1.548l-.055.055c-.445.332-.89.553-1.391.608a2.37 2.37 0 01-1.502-.165c-.612-.222-1.113-.553-1.502-.995-.334-.387-.556-.83-.723-1.382-.334-1.272 0-2.764 1.001-4.533l-.834 1.105c-1.502 2.046-2.392 4.201-2.615 6.357-.111 1.161 0 2.322.334 3.373.334 1.05.834 2.045 1.558 2.93.389.442.778.829 1.168 1.16.945.774 1.947 1.272 3.004 1.493 1.057.166 2.058.055 2.948-.387a9.626 9.626 0 001.001-.608c.445-.387.835-.83 1.113-1.327s.39-.995.334-1.548c0-1.05-.278-1.88-.89-2.598-.334-.387-.723-.719-1.113-.884a2.922 2.922 0 00-1.168-.222c-.39.056-.723.166-.946.387-.39.332-.667.719-.834 1.106-.167.387-.223.774-.111 1.106.11.331.278.663.445.829.055.055.11.11.222.055.111 0 .167-.055.167-.166.056-.166.167-.276.334-.387.222-.166.445-.22.723-.22.278 0 .5.165.668.33.166.167.222.388.222.664 0 .277-.167.498-.334.664 0 0-.111.055-.222.165-.112.11-.278.166-.5.222-.223.055-.446.055-.78 0-.445-.111-.89-.387-1.28-.83a3.112 3.112 0 01-.611-1.105c-.111-.443-.056-.995.055-1.548.167-.553.557-1.106 1.224-1.659.39-.331.835-.497 1.391-.552.556-.056 1.113.055 1.669.276a4.782 4.782 0 011.446 1.106c.723.884 1.113 1.934 1.113 3.206 0 .663-.167 1.327-.5 1.935a6.268 6.268 0 01-1.336 1.658c-.39.332-.779.553-1.168.774a5.77 5.77 0 01-3.338.498c-1.224-.222-2.448-.774-3.56-1.77z"/><path fill="url(#c)" d="M126.948.824c.946-.608 3.45-1.935 9.012 1.05 2.17 1.161 4.562 2.82 7.01 5.031.723.663 1.502 1.327 2.225 2.1 1.502 1.327 5.618 4.755 10.291 8.072 7.677 5.472 13.407 8.07 16.411 7.573.946-.166 1.613-.608 2.058-1.382 1.002-1.769.056-3.15-.39-3.593-.722-.774-1.724-1.106-2.335-.885-.724.221-.835.995-.501 1.05.445.056.612.443.556.83-.111.387-.445.608-.834.553-1.558-.277-1.113-2.764.445-3.207 1.001-.331 2.392 0 3.393 1.106.556.608.89 1.327 1.057 2.045.167.885 0 1.77-.5 2.598-.557.996-1.447 1.604-2.67 1.825-.835.166-1.781.055-2.95-.166-3.393-.774-8.121-3.317-14.185-7.573-1.724-1.217-3.449-2.488-4.895-3.649.556.608 1.057 1.216 1.613 1.88.668.718 1.28 1.492 1.947 2.155 4.172 4.755 7.844 8.845 11.794 10.835 4.283 2.101 8.622 2.543 12.238 1.161 1.39-.553 2.67-1.326 3.727-2.321 1.057-1.05 1.947-2.322 2.504-3.76.389-.94.723-1.879 1.001-2.764 0-.055 0-.165.056-.22.333-1.438.445-9.343-4.117-9.067-1.001.056-1.669.83-1.836 1.88-.111.884.334 1.714 1.002 1.99.167.055.333.11.5.055a.91.91 0 01-.278-.829.895.895 0 011.057-.663c.445.11.835.663.556 1.437-.278.83-1.28 1.16-2.114.83-1.056-.388-1.724-1.714-1.557-3.041.39-2.82 3.226-3.76 5.563-1.714 1.112.995 1.724 2.598 2.058 4.644.056-.553.056-1.161.056-1.714-.056-2.598-.723-4.975-1.947-6.855-1.67-2.598-4.284-4.09-7.343-4.201-2.615-.11-4.673.94-5.675 2.875-.778 1.547-.667 3.316.223 4.477 1.613 1.935 3.226 1.77 3.727 1.548 2.782-1.105 1.613-5.196-.667-4.257-.056 0-.056 0-.056.056.278.166.39.497.334.829-.112.442-.557.719-.946.608-2.058-.719.556-4.146 3.06-1.88 1.279 1.161 1.613 4.7-1.336 5.529-.778.22-1.613.165-2.447-.166a5.217 5.217 0 01-2.392-1.77c-1.113-1.381-1.28-3.592-.334-5.472.5-1.05 1.335-1.88 2.392-2.488 1.168-.663 2.559-.94 4.117-.884 3.337.11 6.23 1.769 8.066 4.643 1.28 1.99 2.003 4.533 2.114 7.353.055 3.04-.557 6.246-1.947 9.563a11.57 11.57 0 01-.835 1.659c.223-.277.5-.498.723-.774a14.579 14.579 0 002.782-4.976c1.168-3.427 1.168-6.744 1.113-8.9 0-.94 0-1.658.11-2.1.168-1.106.835-1.88 1.78-2.101.835-.221 1.614.166 2.226.663 1.28 1.106.779 3.207-.779 2.985-1.112-.165-1.057-2.1.278-1.768 0-.222-.389-1.217-1.502-.995-.611.11-1.112.773-1.168 3.316-.055 2.101.056 5.639-1.168 9.232-1.502 4.312-4.45 7.573-8.734 9.73-.5.276-1.001.497-1.557.718-2.56.94-5.396 1.106-8.345.442a18.955 18.955 0 01-4.561-1.658c-4.117-2.045-7.789-6.192-12.072-11-.612-.72-1.28-1.438-1.947-2.157a89.103 89.103 0 00-6.398-6.91c-.389-.331-.611-.553-.611-.553l.055-.055c-.556-.497-1.112-1.05-1.669-1.492-2.447-2.156-4.728-3.815-6.842-4.92-7.232-3.76-10.347-.056-9.29 3.095.055-1.326 1.112-2.321 1.947-2.432 1.28-.221 2.392.276 2.948 1.271 1.113 2.046-1.001 3.649-2.336 2.764-.612-.442-.946-1.05-.723-1.934.055-.221.333-.387.556-.332.222.055.39.332.334.553-.056.331-.112.718.278.94.723.442 1.613-.443 1.112-1.548-.723-1.493-3.671-.995-3.115 1.492.111.387-.167.719-.556.83-.334.11-.723-.056-.89-.388-1.391-2.598-.946-5.14.945-6.357z"/><path fill="url(#d)" d="M139.912 25.591a5.77 5.77 0 01-3.338-.497c-.39-.166-.723-.442-1.168-.774a4.902 4.902 0 01-1.335-1.658 4.014 4.014 0 01-.501-1.935c.056-1.272.39-2.322 1.113-3.206.389-.443.834-.83 1.446-1.106.556-.221 1.113-.332 1.669-.276.556.055 1.001.22 1.39.552.668.553 1.058 1.106 1.224 1.659.167.553.167 1.05.056 1.548-.111.387-.278.774-.612 1.105-.39.443-.779.719-1.28.83-.333.055-.556.055-.778 0-.223-.056-.39-.111-.5-.222-.112-.11-.168-.165-.223-.165a.786.786 0 01-.334-.664c0-.276.055-.497.222-.663a.795.795 0 01.668-.332c.278 0 .5.055.723.221.167.11.278.277.334.387 0 .11.056.166.167.166.111 0 .167 0 .222-.055.223-.221.39-.498.445-.83a1.51 1.51 0 00-.11-1.105 3.066 3.066 0 00-.835-1.106c-.278-.22-.612-.331-.946-.387a1.78 1.78 0 00-1.168.222c-.39.165-.78.497-1.113.884a4.08 4.08 0 00-.89 2.598c0 .498.111 1.05.334 1.548.278.498.612.94 1.112 1.327.334.276.668.497 1.002.608a4.944 4.944 0 002.948.387c1.057-.166 2.058-.664 3.004-1.493.39-.331.779-.718 1.168-1.16a8.934 8.934 0 001.614-2.93c.333-1.05.445-2.212.333-3.373-.222-2.156-1.057-4.256-2.614-6.357l-.835-1.105c1.002 1.769 1.335 3.316 1.002 4.533-.167.497-.39.995-.724 1.382-.389.442-.89.829-1.502.995-.5.165-1 .22-1.502.165-.5-.11-1-.276-1.39-.608l-.056-.055c-.445-.387-.779-.884-.89-1.548-.111-.663 0-1.16.278-1.603.056-.11.111-.221.223-.332.333-.387.723-.608 1.112-.608.39 0 .723.056 1.002.277.222.166.333.387.389.663.056.276-.056.498-.222.719a.795.795 0 01-.668.331c-.278 0-.5-.055-.723-.22l-.056-.056c-.055-.055-.111-.11-.167-.11-.055 0-.167 0-.167.055-.055.055-.055.11-.055.11-.167.664 0 1.161.5 1.548h.056c.278.221.612.387 1.001.442.39.056.724 0 1.113-.11.39-.11.779-.332 1.057-.719.278-.332.445-.663.5-1.05.334-1.161-.11-2.764-1.39-4.754-.723-1.106-1.39-1.935-2.003-2.488a4.76 4.76 0 00-1.224-.83c.056-.165.279-.386.501-.773.668.442 1.39.94 2.17 1.603 1.335 1.106 2.503 2.267 3.449 3.593 1.613 2.212 2.559 4.478 2.725 6.8a10.56 10.56 0 01-.333 3.759c-.39 1.16-.946 2.266-1.725 3.206-.334.387-.779.83-1.28 1.272-1.056.995-2.28 1.547-3.615 1.769z"/><path fill="url(#e)" d="M251.002 135.38s-1.669-2.487-6.008-4.92c-4.116-2.321-11.682-4.864-23.475-4.477-2.838.11-5.397 0-7.789-.056 4.618 1.77 6.454 3.925 6.843 4.257a178.995 178.995 0 01-18.247-3.15c1.336.939.668 3.095-.445 3.371-1.668.387-2.17-.663-2.113-1.16.11-.609.556-.775 1-.72.835.166.668 1.106.501 1.217 1.113.22 1.558-1.77-.055-2.267-4.34-1.548-8.734 4.975-13.073 5.584-4.562.663-8.511-1.77-10.96-6.468-1.223-2.488-1.89-5.86-1.89-6.634-1.836-.055-3.171-.11-4.618-.276 2.281 1.216 5.174 7.241 1.836 10.945-1.558 1.659-3.449.166-3.226-1.105.166-1.438 1.279-1.603 1.724-1.272 1.057.885-.556 2.1-.946.995-.778.719.557 2.267 2.059.885 3.115-2.985-.278-9.453-2.782-10.559-1.557-.166-3.226-.553-3.671-.663 4.45 3.87 2.002 9.066-1.447 9.508-2.28.276-4.617-.83-4.728-3.206-.167-1.603 1.557-3.151 3.06-2.875 3.67.719 1.89 4.257.222 3.096-.612-.442-.5-1.769.556-1.659-.556-1.437-4.06.056-2.614 2.433.778 1.105 1.947 1.548 3.393 1.327 2.448-.332 3.338-2.764 2.781-5.197-.445-1.99-2.892-3.925-5.896-4.477a7.868 7.868 0 00-3.004.055c-1.947.553-3.783 1.548-5.508 3.04l-.89.995c1.67-1.382 3.839-2.156 5.396-.995 2.281 1.603 1.28 4.7-.278 4.975-1.669.387-3.004-1.492-1.891-2.156.667-.331 1.891.332 1.168 1.493 3.06-.332 1.001-7.02-4.561-2.1-2.226 1.603-3.06 3.427-3.45 2.93 4.395-8.68 10.459-9.122 10.459-9.122s-3.894-1.99-5.34-3.593c-.835 1.16-3.783 4.92-7.121 5.307-2.615.331-4.784-1.438-4.951-3.87-.223-2.653 2.503-4.588 4.673-3.925 2.503.719 3.115 4.146.778 5.141-.667.221-1.335.221-2.058-.276-.445-.442-.39-1.216.056-1.382 0 0 .779 1.105 1.613.83 1.39-.443 1.168-2.93-.723-3.373-1.892-.442-3.616 1.382-3.394 3.096.112 1.271 1.447 3.15 3.895 2.874 2.559-.497 4.45-2.045 7.065-5.86 2.781 3.594 11.237 7.85 31.096 6.91 8.345 5.142 18.136 8.348 33.823 10.338-1.001-.719-2.559-1.88-5.674-3.206-17.746-1.106-23.03-6.634-23.03-6.634s12.683.83 23.141 5.915c2.782.221 5.897.166 9.29.055 27.203-.94 29.428 10.061 29.428 10.061zm-62.36-11.719c-1.78.055-2.726 1.824-1.558 3.427.445.608 1.78.94 2.114.443-.668-.664-.334-1.217-.167-1.438 1.001-.774 2.448.608 1.28 1.825-1.391.995-2.949.552-3.728-.387-1.669-2.046.056-4.92 2.782-4.7-3.45-1.492-5.396-3.04-5.396-3.04-2.782.221-5.23.221-7.455.166 0 3.428 2.226 6.247 4.061 6.855 1.67.553 3.06-.332 3.116-2.156-.167-.995-.946-1.05-1.113-1.106.445 1.382-1.001 1.659-1.446 1.327-.89-.608-.445-1.382-.223-1.603.5-.884 1.947-1.05 2.949-.276 1.446.94 1.056 3.095-.223 4.09-1.613 1.714-4.673.553-6.064-2.045l.501 1.216c2.225 4.423 6.509 6.69 10.069 5.97 5.563-1.16 5.841-8.734.5-8.568zm21.64 1.437a79.132 79.132 0 00-18.859-4.81zm-10.57 1.216a92.715 92.715 0 01-7.51-2.377c1.558 1.161 1.836 3.483.946 5.418 1.669-1.272 4.116-2.93 6.564-3.04z"/><path fill="url(#f)" d="M29.54 125.262c3.393.11 6.452.166 9.29-.055 10.458-5.086 23.141-5.915 23.141-5.915s-5.285 5.472-23.03 6.633c-3.116 1.327-4.673 2.488-5.675 3.207 15.744-1.99 25.479-5.197 33.823-10.338 19.86.995 28.26-3.317 31.097-6.91 2.615 3.815 4.506 5.362 7.065 5.86 2.448.276 3.783-1.659 3.894-2.875.222-1.713-1.502-3.482-3.393-3.095-1.892.442-2.114 2.93-.724 3.372.835.276 1.614-.83 1.614-.83.5.166.5.94.055 1.383-.723.497-1.39.497-2.058.276-2.392-.995-1.78-4.422.779-5.141 2.169-.663 4.895 1.216 4.673 3.925-.167 2.377-2.337 4.201-4.951 3.87-3.338-.388-6.286-4.147-7.12-5.308-1.503 1.604-5.341 3.594-5.341 3.594s6.063.442 10.458 9.12c-.334.498-1.224-1.27-3.45-2.929-5.562-4.92-7.62 1.769-4.56 2.1-.724-1.16.444-1.824 1.168-1.492 1.112.663-.223 2.598-1.892 2.156-1.558-.276-2.559-3.317-.278-4.975 1.558-1.161 3.727-.387 5.396.995l-.89-.995c-1.669-1.548-3.56-2.543-5.507-3.04-1.002-.277-2.059-.222-3.004-.056-3.004.553-5.452 2.433-5.897 4.478-.556 2.487.334 4.864 2.781 5.196 1.447.277 2.615-.22 3.394-1.327 1.446-2.377-2.114-3.814-2.615-2.432 1.057-.11 1.169 1.216.557 1.659-1.67 1.16-3.45-2.378.222-3.096 1.558-.277 3.227 1.271 3.06 2.874-.112 2.377-2.448 3.483-4.729 3.207-3.449-.443-5.84-5.639-1.446-9.509-.445.056-2.114.443-3.672.664-2.559 1.16-5.896 7.628-2.781 10.558 1.502 1.382 2.781-.166 2.058-.884-.39 1.105-2.058-.055-.946-.995.445-.332 1.558-.166 1.725 1.271.222 1.272-1.725 2.764-3.227 1.106-3.337-3.704-.445-9.73 1.836-10.946-1.446.166-2.781.222-4.617.277-.056.774-.668 4.146-1.891 6.633-2.448 4.755-6.398 7.187-10.96 6.468-4.339-.663-8.789-7.13-13.072-5.583-1.558.553-1.169 2.488-.056 2.266-.222-.165-.39-1.05.5-1.216.446-.055.89.11 1.002.719.111.497-.445 1.548-2.114 1.16-1.112-.22-1.78-2.432-.445-3.371-5.34 1.216-11.404 2.266-18.246 3.15.389-.331 2.225-2.487 6.842-4.256-2.392.055-4.895.166-7.788.055-11.794-.387-19.415 2.212-23.476 4.478C1.67 132.891 0 135.378 0 135.378s2.28-11 29.54-10.116zm43.446 1.05l.5-1.216c-1.39 2.598-4.45 3.76-6.063 2.045-1.224-.995-1.613-3.15-.223-4.09 1.002-.774 2.448-.608 2.949.276.222.221.612 1.05-.223 1.603-.445.332-1.947.056-1.446-1.326-.167.055-.946.055-1.113 1.105.056 1.824 1.447 2.709 3.116 2.156 1.835-.608 4.06-3.427 4.06-6.855-2.225.056-4.672.056-7.454-.165 0 0-1.947 1.547-5.396 3.04 2.726-.221 4.45 2.653 2.782 4.699-.78.94-2.337 1.382-3.728.387-1.168-1.216.223-2.598 1.28-1.825.111.222.5.774-.167 1.438.334.442 1.724.166 2.114-.443 1.112-1.603.167-3.372-1.558-3.427-5.396-.221-5.062 7.352.5 8.569 3.561.663 7.845-1.548 10.07-5.97zm-13.407-6.025c-8.122 1.105-14.297 3.04-18.858 4.81zm-1.724 9.121c-.89-1.935-.612-4.256.945-5.417-2.336.829-4.84 1.658-7.51 2.377 2.504.055 4.896 1.713 6.565 3.04z"/><path fill="url(#g)" d="M75.268 138.2c.612.609 2.28 2.046 6.954.72 1.835-.498 3.894-1.383 6.119-2.599.667-.387 1.335-.774 2.058-1.216 1.39-.719 5.007-2.653 9.068-4.367 6.73-2.875 11.404-3.87 13.629-2.985.667.276 1.113.718 1.28 1.382.444 1.492-.501 2.377-.89 2.653-.668.442-1.447.553-1.892.277-.5-.277-.5-.885-.223-.885.334.055.557-.221.557-.553a.556.556 0 00-.557-.552c-1.223-.056-1.279 1.88-.166 2.487.723.387 1.78.387 2.725-.276.501-.332.89-.83 1.113-1.382.278-.664.278-1.327.056-2.046-.278-.829-.835-1.437-1.725-1.824-.612-.221-1.335-.332-2.225-.332-2.67 0-6.676 1.161-11.96 3.373a178.455 178.455 0 00-4.284 1.934 36.72 36.72 0 011.558-1.16l1.836-1.327c3.95-2.875 7.398-5.362 10.68-6.192 3.56-.884 6.899-.497 9.402 1.161 1.001.608 1.78 1.438 2.392 2.377a8.91 8.91 0 011.28 3.262c.11.774.222 1.492.278 2.266v.166c0 1.161-1.224 7.131-4.618 6.136-.723-.22-1.112-.884-1.057-1.713.056-.664.557-1.217 1.057-1.327.167 0 .278 0 .39.055-.223.11-.334.332-.334.608a.64.64 0 00.667.664c.39 0 .724-.332.668-.995-.056-.664-.779-1.106-1.446-.995-.835.11-1.614.995-1.67 2.045-.166 2.156 1.78 3.372 3.895 2.211 1.001-.553 1.724-1.658 2.336-3.15a8.548 8.548 0 01-.278 1.27c-.5 1.99-1.39 3.649-2.614 4.865-1.725 1.659-3.895 2.377-6.231 1.935-2.003-.332-3.338-1.493-3.783-3.096-.334-1.271.056-2.653.946-3.316 1.502-1.217 2.726-.774 3.06-.553 1.89 1.271.333 4.201-1.224 3.095l-.056-.055c.223-.11.39-.332.39-.553 0-.331-.279-.663-.612-.608-1.67.221-.279 3.207 2.002 1.88 1.168-.664 2.003-3.262-.055-4.367a3.011 3.011 0 00-1.836-.277 4.253 4.253 0 00-2.114.94c-1.113.884-1.558 2.488-1.168 4.035.222.885.723 1.659 1.39 2.267.78.663 1.78 1.16 2.949 1.382 2.559.442 4.95-.332 6.842-2.156 1.335-1.271 2.28-3.096 2.782-5.196.556-2.267.612-4.754.11-7.518-.055-.498-.222-.94-.333-1.382.167.22.278.442.39.718a11.932 11.932 0 011.279 4.202c.334 2.764-.278 5.251-.612 6.91-.167.718-.278 1.27-.278 1.603-.056.884.334 1.548.946 1.88.556.276 1.223.165 1.78-.167 1.112-.663 1.112-2.266-.056-2.377-.89-.055-1.113 1.382-.111 1.382a.999.999 0 01-1.335.498c-.445-.166-.723-.774-.334-2.709.334-1.603 1.001-4.256.667-7.131-.389-3.483-2.058-6.413-4.95-8.734-.334-.277-.668-.553-1.057-.774-1.725-1.161-3.894-1.714-6.23-1.714-1.225 0-2.449.166-3.728.498-3.45.829-6.898 3.372-10.904 6.301-.611.443-1.168.885-1.835 1.327a65.517 65.517 0 01-5.953 4.146c-.333.166-.556.332-.556.332-.5.276-1.001.608-1.502.884-2.17 1.217-4.172 2.101-5.952 2.543-6.12 1.659-7.788-1.658-6.453-3.87-.167 1.051.445 1.936 1.057 2.157.945.387 1.835.165 2.447-.498 1.224-1.382-.166-2.93-1.28-2.487-.555.22-.89.663-.834 1.326 0 .166.167.332.334.332s.334-.166.334-.332c0-.22.056-.553.334-.663.612-.221 1.168.608.556 1.327-.779.995-2.948.11-2.114-1.659.111-.276 0-.553-.278-.718-.278-.111-.556-.056-.723.165-1.335 1.604-1.39 3.594-.167 4.81z"/><path fill="url(#h)" d="M175.01 138.2c-.611.609-2.28 2.046-6.953.72-1.836-.498-3.894-1.383-6.12-2.599-.667-.387-1.335-.774-2.058-1.216-1.39-.719-5.006-2.653-9.067-4.367-6.732-2.875-11.404-3.87-13.63-2.985-.667.276-1.112.718-1.28 1.382-.444 1.492.502 2.377.891 2.653.667.442 1.446.553 1.891.277.501-.277.501-.885.223-.885-.334.055-.556-.221-.556-.553 0-.276.222-.552.556-.552 1.224-.056 1.28 1.88.167 2.487-.723.387-1.78.387-2.726-.276a3.02 3.02 0 01-1.113-1.382c-.278-.664-.278-1.327-.055-2.046.278-.829.834-1.437 1.724-1.824.612-.221 1.335-.332 2.225-.332 2.67 0 6.676 1.161 11.96 3.373 1.503.663 3.005 1.326 4.284 1.934-.5-.387-1.001-.774-1.557-1.16l-1.836-1.327c-3.95-2.875-7.399-5.362-10.681-6.192-3.56-.884-6.898-.497-9.401 1.161-1.002.608-1.78 1.438-2.392 2.377a8.91 8.91 0 00-1.28 3.262c-.111.774-.222 1.492-.278 2.266v.166c0 1.161 1.224 7.131 4.617 6.136.723-.22 1.113-.884 1.057-1.713-.056-.664-.556-1.217-1.057-1.327-.167 0-.278 0-.39.055.223.11.335.332.335.608a.64.64 0 01-.668.664c-.39 0-.723-.332-.668-.995.056-.664.78-1.106 1.447-.995.834.11 1.613.995 1.669 2.045.166 2.156-1.78 3.372-3.894 2.211-1.002-.553-1.725-1.658-2.337-3.15.056.441.167.884.278 1.27.501 1.99 1.391 3.649 2.615 4.865 1.724 1.659 3.894 2.377 6.23 1.935 2.003-.332 3.338-1.493 3.783-3.096.334-1.271-.055-2.653-.946-3.316-1.502-1.217-2.725-.774-3.06-.553-1.89 1.271-.333 4.201 1.225 3.095l.055-.055c-.222-.11-.39-.332-.39-.553 0-.331.28-.663.613-.608 1.669.221.278 3.207-2.003 1.88-1.168-.664-2.003-3.262.056-4.367a3.012 3.012 0 011.836-.277c.723.11 1.446.387 2.113.94 1.113.884 1.558 2.488 1.169 4.035-.223.885-.723 1.659-1.391 2.267-.779.663-1.78 1.16-2.948 1.382-2.56.442-4.951-.332-6.843-2.156-1.335-1.271-2.28-3.096-2.781-5.196-.557-2.267-.612-4.754-.112-7.518.056-.498.223-.94.334-1.382a2.973 2.973 0 00-.39.718 11.933 11.933 0 00-1.279 4.202c-.333 2.764.279 5.251.612 6.91.167.718.278 1.27.278 1.603.056.884-.333 1.548-.945 1.88-.557.276-1.224.165-1.78-.167-1.113-.663-1.113-2.266.055-2.377.89-.055 1.113 1.382.112 1.382.055.166.5.83 1.335.498.445-.166.723-.774.333-2.709-.333-1.603-1-4.256-.667-7.131.39-3.483 2.058-6.413 4.95-8.734.335-.277.668-.553 1.058-.774 1.724-1.161 3.894-1.714 6.23-1.714a14.7 14.7 0 013.727.498c3.45.829 6.899 3.372 10.904 6.301.612.443 1.168.885 1.836 1.327a65.517 65.517 0 005.952 4.146c.334.166.556.332.556.332.5.276 1.002.608 1.502.884 2.17 1.217 4.173 2.101 5.953 2.543 6.119 1.659 7.788-1.658 6.453-3.87.167 1.051-.445 1.936-1.057 2.157-.946.387-1.836.165-2.448-.498-1.224-1.382.167-2.93 1.28-2.487.556.22.89.663.834 1.326 0 .166-.167.332-.334.332s-.334-.166-.334-.332c0-.22-.055-.553-.333-.663-.612-.221-1.169.608-.557 1.327.78.995 2.949.11 2.114-1.659-.111-.276 0-.553.278-.718.279-.111.557-.056.724.165 1.335 1.604 1.39 3.594.166 4.81z"/><path fill="url(#i)" d="M109.476 109.07c-.056 0-.167 0-.223-.056-2.114-.719-6.008-1.769-8.567-.442a2.626 2.626 0 01-1.835.166c-.557-.166-1.002-.608-1.28-1.161-.89-1.935-2.781-4.588-6.73-6.468-7.567-2.764-14.854-6.191-17.524-11.498-12.072-24.158-4.673-54.451-4.562-54.783l.111-.387.39.11c17.913 3.815 29.372-12.824 31.486-16.196.167-.222.445-.332.668-.222.278.11.39.332.39.608-.279 2.046.555 6.358 5.395 8.348.278.11.5.387.5.718 0 .332-.166.609-.5.72-1.558.607-5.007 1.547-10.403.718l-.723-.11 3.06-4.036c.167-.221.39-.332.612-.277.222 0 .445.166.556.387.167.277.556.83 1.669 1.382l-.39.774c-1.112-.553-1.668-1.105-1.946-1.548l-2.059 2.71c4.506.607 7.51-.111 9.012-.664-2.392-.995-4.06-2.654-5.006-4.81-.501-1.16-.724-2.321-.724-3.261-1.557 2.322-4.784 6.578-9.512 10.227-6.843 5.196-14.186 7.076-21.863 5.528-.834 3.648-6.564 31.454 4.618 53.787 3.17 6.358 13.518 9.895 22.64 13.046 5.23 1.77 10.125 3.483 13.13 5.528.277.222.389.553.222.885-.111.11-.39.276-.612.276zm-14.853-6.579c2.003 1.603 3.115 3.372 3.727 4.754.167.332.39.553.723.663.39.111.78.111 1.113-.11 2.336-1.216 5.507-.719 7.844-.11-2.949-1.66-7.177-3.096-11.627-4.644-.556-.166-1.168-.332-1.78-.553z"/><path fill="url(#j)" d="M141.19 109.065a.684.684 0 01-.612-.387c-.166-.332-.055-.664.223-.885 3.004-2.045 7.9-3.704 13.129-5.528 9.123-3.15 19.47-6.689 22.64-13.046 11.182-22.333 5.452-50.084 4.618-53.788-7.677 1.548-15.02-.331-21.863-5.528-4.728-3.593-7.955-7.85-9.512-10.171-.111 2.432-1.335 6.191-5.73 8.07 1.502.554 4.506 1.272 9.012.664l-2.058-2.709c-.278.443-.835.995-1.947 1.548l-.39-.774c1.113-.553 1.558-1.105 1.67-1.382.11-.22.333-.331.555-.387.223 0 .501.11.612.277l3.06 4.035-.723.11c-5.396.885-8.845-.055-10.403-.718a.787.787 0 01-.5-.719c0-.331.166-.608.5-.718 4.84-1.99 5.619-6.302 5.396-8.348-.055-.276.111-.497.39-.608.278-.11.556 0 .667.222 2.114 3.372 13.574 20.01 31.486 16.197l.39-.111.111.442c.056.277 7.51 30.626-4.561 54.783-2.67 5.362-9.958 8.734-17.524 11.498-3.95 1.88-5.84 4.533-6.731 6.468-.223.553-.723.94-1.28 1.16a2.143 2.143 0 01-1.835-.165c-2.56-1.382-6.453-.332-8.567.442-.056 0-.167.056-.223.056zm5.73-1.99c1.224 0 2.448.22 3.505.773.334.166.779.222 1.112.111.334-.11.612-.332.724-.663a13.943 13.943 0 013.727-4.754c-.612.22-1.224.442-1.836.608-4.45 1.548-8.678 2.985-11.627 4.643a14.072 14.072 0 014.395-.718z"/><path fill="url(#k)" d="M206.279 24.155s-1.78 1.216-3.894 1.437c-2.114.221-2.615-.498-.89 2.211 1.724 2.709-.167 3.593.89 5.197 0 0 1.557.773 2.559 1.326 0 0 0-3.206 2.559-3.317 2.558-.11 3.115.996 4.06.996 0 0-1.223 3.372-3.838 3.482 0 0-2.17-.774-2.615-.553-.445.221.446 4.146 1.336 4.92 0 0 1.557-1.548 4.339-1.548 2.726 0 6.119-3.759 6.119-3.759s1.669.222.667 1.438c-.945 1.216-4.005 5.251-10.57 5.694-6.563.442-8.177 2.377-10.18 4.809 0 0 4.117-1.216 5.73-.221 0 0-1.223 1.88-4.561 1.88s-7.232 3.15-8.233 6.412c-.946 3.261-.835 6.855-1.502 7.684 0 0 3.449-.277 6.23-1.438.223-.11.334.166.167.332-2.726 2.211-8.79 6.855-12.46 7.574 0 0-2.56.552-2.448 1.934.11 1.382 3.17 2.156 2.503 4.036-.668 1.88-2.782 1.935-1.558 2.764 1.224.829-.111 1.548-.278 2.1-.167.553-.39 2.101 1.39 1.714 1.78-.442 2.615.83.613 1.548-2.003.719-1.947 1.382-1.947 1.382s3.337 1.88 5.84.995c0 0 .835-.11 1.058-2.985.167-2.82-1.558-7.629.556-9.398 2.114-1.769 8.122-4.477 15.687-3.206 0 0 .724-8.679 4.395-11 0 0-3.282 5.859-1.891 13.377-4.284-1.16-11.404-1.106-16.3 1.714-.5.276-.723.884-.556 1.437.334 1.382 1.113 3.925 1.78 4.257.557.22 1.613.276 2.448.22.5 0 .89-.497.779-.994-.334-1.216-.612-3.262 1.28-3.483 2.725-.276 13.795 7.795 17.411 15.202a46.299 46.299 0 013.727 10.724 3.9 3.9 0 002.615 2.93c2.837.995 7.51 3.317 8.289 8.127 1.112 7.075-4.562 8.347-9.012 8.236 0 0-2.281-.608-2.726 2.654 0 0-2.448 4.533-1.001 4.809 1.446.276 2.67-1.658 3.671-1.548 1.001.111.723 2.709 1.67 2.654.89-.111 1.445-2.709 2.447-2.377 1.001.387.834 2.653 1.891 1.99 1.113-.608 1.892-3.372 3.56-2.543 1.67.829 1.391 1.161 3.171-2.156 1.836-3.372 3.282-15.313 4.006-16.308.723-.995-6.565-6.965-6.732-11.996-.166-5.03 3.45-12.714-2.113-16.805-5.563-4.09-8.4-6.357-6.287-13.488 2.114-7.187 1.169-6.965 1.169-6.965s2.67 3.15 1.669 7.186c0 0 3.004-11 4.84-12.493 0 0 4.394-9.896 4.171-16.695 0 0 .39-3.262-3.393-5.694 0 0 .39-4.533-1.724-4.975-2.114-.442-7.733 2.1-7.733 2.1s1.113-2.376 4.005-3.15c2.893-.83 4.117-5.252 4.117-5.252s-2.837 2.432-6.12 1.99c-3.281-.442-3.949 2.432-5.228 2.82 0 0-3.56.994-4.562 1.381-1.001.387-2.003.995-4.172.995 0 0 1.28-2.432 5.006-2.542 3.728-.111 5.007-3.704 5.007-3.704s-2.392 1.437-5.396 1.548c-3.06.055-5.507 2.377-5.507 2.377z"/><path fill="url(#l)" d="M228.3 86.955s1.446 4.81 3.95 4.81c2.447 0 7.676-1.438 3.281-6.91-4.395-5.418-10.792-7.905-10.959-12.217-.167-4.367 9.123-12.328 10.014-16.308 0 0 1.89 6.8-2.003 11-3.95 4.147-5.952 5.64-1.669 9.343 4.283 3.704 9.401 7.352 9.513 11.72.11 4.367-2.281 6.799-7.51 6.523-5.23-.277-7.566-.277-7.566-.277z"/><path fill="url(#m)" d="M210.28 95.853c.667.055 1.112-.608.834-1.161-1.502-3.04-5.063-9.398-8.345-10.172-4.395-.995-11.293 4.92-11.293 10.725 0 5.804 3.728 3.925 5.563 8.236 0 0-4.005 7.684-8.733 8.071-4.729.387-9.402.166-11.404 3.649 0 0-.112 3.372 1.557 4.975 0 0 .723-3.648 2.281-3.704 0 0-.723 3.538 1.113 5.197 0 0 4.672-6.358 8.845-4.976 4.172 1.382 5.73-.995 5.73-.995s8.566-7.463 11.125-6.965c2.56.442-2.559-5.196-2.002-8.458.39-2.82 2.17-4.699 4.728-4.422z"/><path fill="url(#n)" d="M193.372 47.431s-4.729-3.372-3.45-7.794c1.28-4.422.89-4.644-2.28-4.81-3.171-.165-1.001-3.427-6.843-3.26-5.84.165-10.124-.554-10.235 3.15-.112 3.704 2.392 4.423 2.392 4.423s.167-3.428 1.28-2.433c1.112.995 1.724 2.377 4.283 1.437 2.559-.884 4.728 1.88 4.728 1.88s1.113 3.151-1.001 4.367c0 0 2.392 0 3.17-4.146 0 0 2.726-.83 0 3.372-2.725 4.146 1.67 13.433 1.67 13.433s-.446-5.915 6.286-9.618z"/><path fill="url(#o)" d="M44.223 24.155s1.78 1.216 3.894 1.437c2.114.221 2.615-.498.89 2.211-1.724 2.709.167 3.593-.89 5.197 0 0-1.557.773-2.559 1.326 0 0 0-3.206-2.559-3.317-2.558-.11-3.115.996-4.06.996 0 0 1.223 3.372 3.838 3.482 0 0 2.17-.774 2.615-.553.445.221-.445 4.146-1.336 4.92 0 0-1.557-1.548-4.339-1.548-2.725 0-6.119-3.759-6.119-3.759s-1.669.222-.667 1.438c.945 1.216 4.005 5.251 10.57 5.694 6.564.442 8.177 2.377 10.18 4.809 0 0-4.117-1.216-5.73-.221 0 0 1.223 1.88 4.561 1.88s7.232 3.15 8.233 6.412c1.002 3.261.835 6.855 1.502 7.684 0 0-3.449-.277-6.23-1.438-.223-.11-.334.166-.167.332 2.726 2.211 8.79 6.855 12.46 7.574 0 0 2.56.552 2.449 1.934-.112 1.382-3.171 2.156-2.504 4.036.668 1.88 2.782 1.935 1.558 2.764-1.224.829.111 1.548.278 2.1.167.553.39 2.101-1.39 1.714-1.78-.442-2.615.83-.613 1.548 2.003.719 1.947 1.382 1.947 1.382s-3.337 1.88-5.84.995c0 0-.835-.11-1.058-2.985-.167-2.82 1.558-7.629-.556-9.398-2.114-1.769-8.122-4.477-15.687-3.206 0 0-.724-8.679-4.395-11 0 0 3.282 5.859 1.891 13.377 4.284-1.16 11.404-1.106 16.3 1.714.5.276.723.884.556 1.437-.334 1.382-1.113 3.925-1.78 4.257-.556.22-1.613.276-2.448.22-.5 0-.89-.497-.779-.994.334-1.216.612-3.262-1.28-3.483-2.725-.276-13.795 7.795-17.411 15.202a46.295 46.295 0 00-3.727 10.724 3.9 3.9 0 01-2.615 2.93c-2.837.995-7.51 3.317-8.289 8.127-1.112 7.075 4.562 8.347 9.012 8.236 0 0 2.281-.608 2.726 2.654 0 0 2.448 4.533 1.001 4.809-1.446.276-2.67-1.658-3.671-1.548-1.001.111-.723 2.709-1.669 2.654-.89-.111-1.446-2.709-2.448-2.377-1.001.387-.834 2.653-1.891 1.99-1.113-.608-1.891-3.372-3.56-2.543-1.67.829-1.391 1.161-3.171-2.156-1.836-3.372-3.282-15.313-4.006-16.308-.723-.995 6.565-6.965 6.732-11.996.166-4.975-3.45-12.714 2.114-16.805 5.563-4.09 8.4-6.357 6.286-13.488-2.114-7.187-1.169-6.965-1.169-6.965s-2.67 3.15-1.668 7.186c0 0-3.004-11-4.84-12.493 0 0-4.395-9.896-4.172-16.695 0 0-.39-3.262 3.393-5.694 0 0-.39-4.533 1.724-4.975 2.114-.442 7.733 2.1 7.733 2.1s-1.113-2.376-4.005-3.15c-2.893-.83-4.117-5.252-4.117-5.252s2.837 2.432 6.12 1.99c3.281-.442 3.949 2.432 5.228 2.82 0 0 3.56.994 4.562 1.381 1.001.387 2.003.995 4.172.995 0 0-1.28-2.432-5.006-2.542-3.728-.111-5.007-3.704-5.007-3.704s2.392 1.437 5.396 1.548c3.115.055 5.507 2.377 5.507 2.377z"/><path fill="url(#p)" d="M22.25 86.955s-1.445 4.81-3.949 4.81c-2.503 0-7.677-1.438-3.282-6.91 4.395-5.418 10.792-7.905 10.96-12.217.166-4.367-9.124-12.328-10.014-16.308 0 0-1.892 6.8 2.002 11 3.95 4.147 5.953 5.64 1.67 9.343-4.284 3.704-9.402 7.352-9.513 11.72-.112 4.367 2.28 6.799 7.51 6.523 5.229-.277 7.565-.277 7.565-.277z"/><path fill="url(#q)" d="M40.219 95.853c-.668.055-1.113-.608-.835-1.161 1.502-3.04 5.062-9.398 8.345-10.172 4.394-.995 11.292 4.92 11.292 10.725 0 5.804-3.727 3.925-5.563 8.236 0 0 4.006 7.684 8.734 8.071 4.729.387 9.402.166 11.404 3.649 0 0 .112 3.372-1.557 4.975 0 0-.723-3.648-2.281-3.704 0 0 .723 3.538-1.113 5.197 0 0-4.673-6.358-8.845-4.976-4.172 1.382-5.73-.995-5.73-.995s-8.567-7.463-11.126-6.965c-2.558.442 2.56-5.196 2.003-8.458-.39-2.82-2.114-4.699-4.728-4.422z"/><path fill="url(#r)" d="M57.19 47.431s4.729-3.372 3.449-7.794c-1.28-4.422-.89-4.644 2.28-4.81 3.172-.165 1.002-3.427 6.843-3.26 5.841.165 10.125-.554 10.236 3.15.111 3.704-2.392 4.423-2.392 4.423s-.167-3.428-1.28-2.433c-1.112.995-1.724 2.377-4.283 1.437-2.559-.884-4.728 1.88-4.728 1.88s-1.113 3.151 1 4.367c0 0-2.391 0-3.17-4.146 0 0-2.726-.83 0 3.372 2.726 4.146-1.669 13.433-1.669 13.433s.445-5.915-6.286-9.618z"/></svg>