<svg width="686" height="611" viewBox="0 0 686 611" fill="none" xmlns="http://www.w3.org/2000/svg">
<path fill-rule="evenodd" clip-rule="evenodd" d="M330.302 14.1354C398.224 15.1475 467.971 -9.045 528.992 20.8016C595.739 53.4489 651.19 111.885 674.438 182.458C697.732 253.17 682.818 330.835 653.691 399.35C626.354 463.654 575.945 513.648 517.418 551.818C461.313 588.409 397.26 608.463 330.302 610.257C261.84 612.092 187.858 606.495 135.756 562.044C85.0485 518.784 84.5139 444.19 62.0793 381.426C38.7349 316.116 -10.2367 255.858 1.90462 187.572C14.6721 115.764 62.7711 48.8759 127.263 14.8157C188.611 -17.5839 260.932 13.1018 330.302 14.1354Z" fill="#C4C4C4"/>
</svg>
