<svg width="686" height="611" fill="none" xmlns="http://www.w3.org/2000/svg"><path fill-rule="evenodd" clip-rule="evenodd" d="M330.302 14.135c67.922 1.013 137.669-23.18 198.69 6.667 66.747 32.647 122.198 91.083 145.446 161.656 23.294 70.712 8.38 148.377-20.747 216.892-27.337 64.304-77.746 114.298-136.273 152.468-56.105 36.591-120.158 56.645-187.116 58.439-68.462 1.835-142.444-3.762-194.546-48.213-50.707-43.26-51.242-117.854-73.677-180.618-23.344-65.31-72.316-125.568-60.174-193.854C14.672 115.764 62.77 48.876 127.263 14.816c61.348-32.4 133.669-1.714 203.039-.68z" fill="#C4C4C4"/></svg>